G04 #@! TF.GenerationSoftware,KiCad,Pcbnew,(5.1.4-0-10_14)*
G04 #@! TF.CreationDate,2020-10-24T19:39:48+11:00*
G04 #@! TF.ProjectId,Numpad,4e756d70-6164-42e6-9b69-6361645f7063,rev?*
G04 #@! TF.SameCoordinates,Original*
G04 #@! TF.FileFunction,Legend,Top*
G04 #@! TF.FilePolarity,Positive*
%FSLAX46Y46*%
G04 Gerber Fmt 4.6, Leading zero omitted, Abs format (unit mm)*
G04 Created by KiCad (PCBNEW (5.1.4-0-10_14)) date 2020-10-24 19:39:48*
%MOMM*%
%LPD*%
G04 APERTURE LIST*
%ADD10C,0.150000*%
%ADD11C,4.502000*%
%ADD12O,1.302000X2.502000*%
%ADD13O,1.260000X2.418000*%
%ADD14C,0.732000*%
%ADD15C,0.702000*%
%ADD16O,1.802000X1.802000*%
%ADD17R,1.802000X1.802000*%
%ADD18C,4.089800*%
%ADD19C,1.852000*%
%ADD20C,3.150000*%
G04 APERTURE END LIST*
D10*
X148971047Y-57221428D02*
X149732952Y-57221428D01*
X130048000Y-56856380D02*
X130048000Y-57094476D01*
X129809904Y-56999238D02*
X130048000Y-57094476D01*
X130286095Y-56999238D01*
X129905142Y-57284952D02*
X130048000Y-57094476D01*
X130190857Y-57284952D01*
X129857523Y-76906380D02*
X130048000Y-76906380D01*
X130143238Y-76858761D01*
X130190857Y-76811142D01*
X130286095Y-76668285D01*
X130333714Y-76477809D01*
X130333714Y-76096857D01*
X130286095Y-76001619D01*
X130238476Y-75954000D01*
X130143238Y-75906380D01*
X129952761Y-75906380D01*
X129857523Y-75954000D01*
X129809904Y-76001619D01*
X129762285Y-76096857D01*
X129762285Y-76334952D01*
X129809904Y-76430190D01*
X129857523Y-76477809D01*
X129952761Y-76525428D01*
X130143238Y-76525428D01*
X130238476Y-76477809D01*
X130286095Y-76430190D01*
X130333714Y-76334952D01*
X110902761Y-76334952D02*
X110807523Y-76287333D01*
X110759904Y-76239714D01*
X110712285Y-76144476D01*
X110712285Y-76096857D01*
X110759904Y-76001619D01*
X110807523Y-75954000D01*
X110902761Y-75906380D01*
X111093238Y-75906380D01*
X111188476Y-75954000D01*
X111236095Y-76001619D01*
X111283714Y-76096857D01*
X111283714Y-76144476D01*
X111236095Y-76239714D01*
X111188476Y-76287333D01*
X111093238Y-76334952D01*
X110902761Y-76334952D01*
X110807523Y-76382571D01*
X110759904Y-76430190D01*
X110712285Y-76525428D01*
X110712285Y-76715904D01*
X110759904Y-76811142D01*
X110807523Y-76858761D01*
X110902761Y-76906380D01*
X111093238Y-76906380D01*
X111188476Y-76858761D01*
X111236095Y-76811142D01*
X111283714Y-76715904D01*
X111283714Y-76525428D01*
X111236095Y-76430190D01*
X111188476Y-76382571D01*
X111093238Y-76334952D01*
X91614666Y-75906380D02*
X92281333Y-75906380D01*
X91852761Y-76906380D01*
X152471428Y-82930952D02*
X152471428Y-82169047D01*
X152852380Y-82550000D02*
X152090476Y-82550000D01*
X130238476Y-94956380D02*
X130048000Y-94956380D01*
X129952761Y-95004000D01*
X129905142Y-95051619D01*
X129809904Y-95194476D01*
X129762285Y-95384952D01*
X129762285Y-95765904D01*
X129809904Y-95861142D01*
X129857523Y-95908761D01*
X129952761Y-95956380D01*
X130143238Y-95956380D01*
X130238476Y-95908761D01*
X130286095Y-95861142D01*
X130333714Y-95765904D01*
X130333714Y-95527809D01*
X130286095Y-95432571D01*
X130238476Y-95384952D01*
X130143238Y-95337333D01*
X129952761Y-95337333D01*
X129857523Y-95384952D01*
X129809904Y-95432571D01*
X129762285Y-95527809D01*
X111236095Y-94956380D02*
X110759904Y-94956380D01*
X110712285Y-95432571D01*
X110759904Y-95384952D01*
X110855142Y-95337333D01*
X111093238Y-95337333D01*
X111188476Y-95384952D01*
X111236095Y-95432571D01*
X111283714Y-95527809D01*
X111283714Y-95765904D01*
X111236095Y-95861142D01*
X111188476Y-95908761D01*
X111093238Y-95956380D01*
X110855142Y-95956380D01*
X110759904Y-95908761D01*
X110712285Y-95861142D01*
X92138476Y-95289714D02*
X92138476Y-95956380D01*
X91900380Y-94908761D02*
X91662285Y-95623047D01*
X92281333Y-95623047D01*
X129968666Y-114260380D02*
X130587714Y-114260380D01*
X130254380Y-114641333D01*
X130397238Y-114641333D01*
X130492476Y-114688952D01*
X130540095Y-114736571D01*
X130587714Y-114831809D01*
X130587714Y-115069904D01*
X130540095Y-115165142D01*
X130492476Y-115212761D01*
X130397238Y-115260380D01*
X130111523Y-115260380D01*
X130016285Y-115212761D01*
X129968666Y-115165142D01*
X110966285Y-114355619D02*
X111013904Y-114308000D01*
X111109142Y-114260380D01*
X111347238Y-114260380D01*
X111442476Y-114308000D01*
X111490095Y-114355619D01*
X111537714Y-114450857D01*
X111537714Y-114546095D01*
X111490095Y-114688952D01*
X110918666Y-115260380D01*
X111537714Y-115260380D01*
X92360714Y-115260380D02*
X91789285Y-115260380D01*
X92075000Y-115260380D02*
X92075000Y-114260380D01*
X91979761Y-114403238D01*
X91884523Y-114498476D01*
X91789285Y-114546095D01*
X152836571Y-122340476D02*
X152836571Y-122007142D01*
X153360380Y-121864285D02*
X153360380Y-122340476D01*
X152360380Y-122340476D01*
X152360380Y-121864285D01*
X152693714Y-121435714D02*
X153360380Y-121435714D01*
X152788952Y-121435714D02*
X152741333Y-121388095D01*
X152693714Y-121292857D01*
X152693714Y-121150000D01*
X152741333Y-121054761D01*
X152836571Y-121007142D01*
X153360380Y-121007142D01*
X152693714Y-120673809D02*
X152693714Y-120292857D01*
X152360380Y-120530952D02*
X153217523Y-120530952D01*
X153312761Y-120483333D01*
X153360380Y-120388095D01*
X153360380Y-120292857D01*
X153312761Y-119578571D02*
X153360380Y-119673809D01*
X153360380Y-119864285D01*
X153312761Y-119959523D01*
X153217523Y-120007142D01*
X152836571Y-120007142D01*
X152741333Y-119959523D01*
X152693714Y-119864285D01*
X152693714Y-119673809D01*
X152741333Y-119578571D01*
X152836571Y-119530952D01*
X152931809Y-119530952D01*
X153027047Y-120007142D01*
X153360380Y-119102380D02*
X152693714Y-119102380D01*
X152884190Y-119102380D02*
X152788952Y-119054761D01*
X152741333Y-119007142D01*
X152693714Y-118911904D01*
X152693714Y-118816666D01*
X130302000Y-133961142D02*
X130254380Y-134008761D01*
X130302000Y-134056380D01*
X130349619Y-134008761D01*
X130302000Y-133961142D01*
X130302000Y-134056380D01*
X101647619Y-133056380D02*
X101552380Y-133056380D01*
X101457142Y-133104000D01*
X101409523Y-133151619D01*
X101361904Y-133246857D01*
X101314285Y-133437333D01*
X101314285Y-133675428D01*
X101361904Y-133865904D01*
X101409523Y-133961142D01*
X101457142Y-134008761D01*
X101552380Y-134056380D01*
X101647619Y-134056380D01*
X101742857Y-134008761D01*
X101790476Y-133961142D01*
X101838095Y-133865904D01*
X101885714Y-133675428D01*
X101885714Y-133437333D01*
X101838095Y-133246857D01*
X101790476Y-133151619D01*
X101742857Y-133104000D01*
X101647619Y-133056380D01*
%LPC*%
D11*
X152527000Y-101600000D03*
X83947000Y-130175000D03*
X139700000Y-53975000D03*
X99060000Y-82550000D03*
D12*
X105920000Y-43890000D03*
X97280000Y-43890000D03*
D13*
X105920000Y-47715000D03*
X97280000Y-47715000D03*
D14*
X98600000Y-46990000D03*
X104600000Y-46990000D03*
D15*
X104600000Y-46990000D03*
D16*
X89408000Y-80772000D03*
X89408000Y-78232000D03*
X86868000Y-80772000D03*
X86868000Y-78232000D03*
X84328000Y-80772000D03*
D17*
X84328000Y-78232000D03*
D18*
X111125000Y-73025000D03*
D19*
X106045000Y-73025000D03*
X116205000Y-73025000D03*
D18*
X92075000Y-53975000D03*
D19*
X86995000Y-53975000D03*
X97155000Y-53975000D03*
D18*
X111125000Y-53975000D03*
D19*
X106045000Y-53975000D03*
X116205000Y-53975000D03*
D18*
X130175000Y-130175000D03*
D19*
X125095000Y-130175000D03*
X135255000Y-130175000D03*
D18*
X101600000Y-130175000D03*
D19*
X96520000Y-130175000D03*
X106680000Y-130175000D03*
D20*
X89693750Y-137160000D03*
X113506250Y-137160000D03*
D18*
X89693750Y-121920000D03*
X113506250Y-121920000D03*
X149225000Y-120650000D03*
D19*
X149225000Y-125730000D03*
X149225000Y-115570000D03*
D20*
X156210000Y-132556250D03*
X156210000Y-108743750D03*
D18*
X140970000Y-132556250D03*
X140970000Y-108743750D03*
X130175000Y-111125000D03*
D19*
X125095000Y-111125000D03*
X135255000Y-111125000D03*
D18*
X111125000Y-111125000D03*
D19*
X106045000Y-111125000D03*
X116205000Y-111125000D03*
D18*
X92075000Y-111125000D03*
D19*
X86995000Y-111125000D03*
X97155000Y-111125000D03*
D18*
X130175000Y-92075000D03*
D19*
X125095000Y-92075000D03*
X135255000Y-92075000D03*
D18*
X111125000Y-92075000D03*
D19*
X106045000Y-92075000D03*
X116205000Y-92075000D03*
D18*
X92075000Y-92075000D03*
D19*
X86995000Y-92075000D03*
X97155000Y-92075000D03*
D18*
X149225000Y-82550000D03*
D19*
X149225000Y-87630000D03*
X149225000Y-77470000D03*
D20*
X156210000Y-94456250D03*
X156210000Y-70643750D03*
D18*
X140970000Y-94456250D03*
X140970000Y-70643750D03*
X130175000Y-73025000D03*
D19*
X125095000Y-73025000D03*
X135255000Y-73025000D03*
D18*
X92075000Y-73025000D03*
D19*
X86995000Y-73025000D03*
X97155000Y-73025000D03*
D18*
X149225000Y-53975000D03*
D19*
X144145000Y-53975000D03*
X154305000Y-53975000D03*
D18*
X130175000Y-53975000D03*
D19*
X125095000Y-53975000D03*
X135255000Y-53975000D03*
M02*
