M48
; DRILL file {KiCad (5.1.4-0-10_14)} date Saturday, 24 October 2020 at 07:40:25 pm
; FORMAT={-:-/ absolute / inch / decimal}
; #@! TF.CreationDate,2020-10-24T19:40:25+11:00
; #@! TF.GenerationSoftware,Kicad,Pcbnew,(5.1.4-0-10_14)
FMAT,2
INCH
T1C0.0118
T2C0.0256
T3C0.0394
T4C0.0579
T5C0.0866
T6C0.0236
T7C0.0248
T8C0.0689
T9C0.1200
T10C0.1570
%
G90
G05
T1
X3.54Y-2.735
X3.61Y-2.32
X3.62Y-2.635
X3.62Y-2.72
X3.635Y-2.355
X3.69Y-2.405
X3.835Y-2.335
X3.865Y-1.935
X3.895Y-2.45
X3.96Y-2.075
X3.96Y-2.25
X3.985Y-2.915
X3.99Y-2.445
X3.995Y-2.15
X4.05Y-3.86
X4.0525Y-3.09
X4.0825Y-4.61
X4.084Y-3.09
X4.1075Y-4.64
X4.116Y-3.09
X4.13Y-2.005
X4.155Y-2.41
X4.235Y-2.51
X4.285Y-2.26
X4.285Y-2.32
X4.315Y-2.51
X4.37Y-2.355
X4.37Y-2.46
X4.37Y-2.58
X4.45Y-2.025
X4.475Y-2.9
X4.555Y-2.675
X4.575Y-2.355
X4.575Y-2.46
X4.575Y-2.58
T3
X3.32Y-3.08
X3.32Y-3.18
X3.42Y-3.08
X3.42Y-3.18
X3.52Y-3.08
X3.52Y-3.18
T4
X3.475Y-2.775
X3.725Y-2.675
X4.975Y-3.525
X5.225Y-3.425
X3.475Y-3.525
X3.725Y-3.425
X3.475Y-2.025
X3.725Y-1.925
X4.975Y-4.275
X4.475Y-2.675
X5.225Y-4.175
X4.225Y-2.775
X4.225Y-2.025
X4.475Y-1.925
X4.975Y-5.025
X5.225Y-4.925
X3.85Y-5.025
X4.975Y-2.025
X4.225Y-4.275
X5.225Y-1.925
X4.475Y-4.175
X3.475Y-4.275
X3.725Y-4.175
X5.775Y-4.9
X4.1Y-4.925
X5.725Y-2.025
X5.975Y-1.925
X5.675Y-4.65
X4.225Y-3.525
X4.475Y-3.425
X4.975Y-2.775
X5.225Y-2.675
X5.675Y-3.15
X5.775Y-3.4
T5
X3.9Y-3.25
X5.5Y-2.125
X3.305Y-5.125
X6.005Y-4.0
T6
X4.1181Y-1.85
T7
X3.8819Y-1.85
X4.1181Y-1.85
T8
X3.425Y-2.875
X3.825Y-2.875
X3.425Y-3.625
X3.825Y-3.625
X5.675Y-2.125
X6.075Y-2.125
X3.825Y-2.125
X3.425Y-4.375
X3.825Y-4.375
X4.925Y-4.375
X5.325Y-4.375
X4.925Y-3.625
X5.325Y-3.625
X4.175Y-2.875
X4.575Y-2.875
X4.175Y-2.125
X4.575Y-2.125
X4.925Y-2.125
X5.325Y-2.125
X4.925Y-2.875
X5.325Y-2.875
X3.425Y-2.125
X4.175Y-4.375
X4.575Y-4.375
X4.175Y-3.625
X4.575Y-3.625
X4.925Y-5.125
X5.325Y-5.125
X3.8Y-5.125
X4.2Y-5.125
X5.875Y-4.55
X5.875Y-4.95
X5.875Y-3.05
X5.875Y-3.45
T9
X3.5312Y-5.4
X4.4688Y-5.4
X6.15Y-4.2812
X6.15Y-5.2188
X6.15Y-2.7812
X6.15Y-3.7188
T10
X5.55Y-5.2188
X4.0Y-5.125
X5.55Y-4.2812
X5.875Y-4.75
X4.4688Y-4.8
X4.375Y-4.375
X3.5312Y-4.8
X5.875Y-2.125
X5.125Y-2.125
X4.375Y-3.625
X5.125Y-2.875
X3.625Y-2.875
X5.55Y-2.7812
X3.625Y-4.375
X5.55Y-3.7188
X5.875Y-3.25
X3.625Y-3.625
X4.375Y-2.875
X5.125Y-4.375
X5.125Y-3.625
X3.625Y-2.125
X4.375Y-2.125
X5.125Y-5.125
T2
G00X3.8299Y-1.7024
M15
G01X3.8299Y-1.7535
M16
G05
G00X3.8299Y-1.8589
M15
G01X3.8299Y-1.8982
M16
G05
G00X4.1701Y-1.7024
M15
G01X4.1701Y-1.7535
M16
G05
G00X4.1701Y-1.8589
M15
G01X4.1701Y-1.8982
M16
G05
T0
M30
