G04 #@! TF.GenerationSoftware,KiCad,Pcbnew,(5.1.4-0-10_14)*
G04 #@! TF.CreationDate,2020-10-24T19:39:48+11:00*
G04 #@! TF.ProjectId,Numpad,4e756d70-6164-42e6-9b69-6361645f7063,rev?*
G04 #@! TF.SameCoordinates,Original*
G04 #@! TF.FileFunction,Copper,L2,Bot*
G04 #@! TF.FilePolarity,Positive*
%FSLAX46Y46*%
G04 Gerber Fmt 4.6, Leading zero omitted, Abs format (unit mm)*
G04 Created by KiCad (PCBNEW (5.1.4-0-10_14)) date 2020-10-24 19:39:48*
%MOMM*%
%LPD*%
G04 APERTURE LIST*
%ADD10C,4.400000*%
%ADD11O,1.200000X2.400000*%
%ADD12O,1.158000X2.316000*%
%ADD13R,1.000000X2.000000*%
%ADD14R,0.270000X1.000000*%
%ADD15R,0.520000X1.000000*%
%ADD16C,0.100000*%
%ADD17C,0.875000*%
%ADD18R,0.650000X1.060000*%
%ADD19R,1.400000X1.200000*%
%ADD20R,1.200000X0.900000*%
%ADD21R,0.762000X1.524000*%
%ADD22O,1.700000X1.700000*%
%ADD23R,1.700000X1.700000*%
%ADD24R,0.900000X1.200000*%
%ADD25C,2.250000*%
%ADD26R,0.550000X1.600000*%
%ADD27R,1.600000X0.550000*%
%ADD28C,0.600000*%
%ADD29C,0.254000*%
%ADD30C,0.127000*%
G04 APERTURE END LIST*
D10*
X152527000Y-101600000D03*
X83947000Y-130175000D03*
X139700000Y-53975000D03*
X99060000Y-82550000D03*
D11*
X105920000Y-43890000D03*
X97280000Y-43890000D03*
D12*
X105920000Y-47715000D03*
X97280000Y-47715000D03*
D13*
X103000000Y-43890000D03*
X100200000Y-43890000D03*
D14*
X102850000Y-48090000D03*
X102350000Y-48090000D03*
X101850000Y-48090000D03*
X101350000Y-48090000D03*
X100850000Y-48090000D03*
X100350000Y-48090000D03*
X103350000Y-48090000D03*
X99850000Y-48090000D03*
D15*
X103950000Y-48090000D03*
X99250000Y-48090000D03*
X104700000Y-48090000D03*
X98500000Y-48090000D03*
D16*
G36*
X92312691Y-61756053D02*
G01*
X92333926Y-61759203D01*
X92354750Y-61764419D01*
X92374962Y-61771651D01*
X92394368Y-61780830D01*
X92412781Y-61791866D01*
X92430024Y-61804654D01*
X92445930Y-61819070D01*
X92460346Y-61834976D01*
X92473134Y-61852219D01*
X92484170Y-61870632D01*
X92493349Y-61890038D01*
X92500581Y-61910250D01*
X92505797Y-61931074D01*
X92508947Y-61952309D01*
X92510000Y-61973750D01*
X92510000Y-62486250D01*
X92508947Y-62507691D01*
X92505797Y-62528926D01*
X92500581Y-62549750D01*
X92493349Y-62569962D01*
X92484170Y-62589368D01*
X92473134Y-62607781D01*
X92460346Y-62625024D01*
X92445930Y-62640930D01*
X92430024Y-62655346D01*
X92412781Y-62668134D01*
X92394368Y-62679170D01*
X92374962Y-62688349D01*
X92354750Y-62695581D01*
X92333926Y-62700797D01*
X92312691Y-62703947D01*
X92291250Y-62705000D01*
X91853750Y-62705000D01*
X91832309Y-62703947D01*
X91811074Y-62700797D01*
X91790250Y-62695581D01*
X91770038Y-62688349D01*
X91750632Y-62679170D01*
X91732219Y-62668134D01*
X91714976Y-62655346D01*
X91699070Y-62640930D01*
X91684654Y-62625024D01*
X91671866Y-62607781D01*
X91660830Y-62589368D01*
X91651651Y-62569962D01*
X91644419Y-62549750D01*
X91639203Y-62528926D01*
X91636053Y-62507691D01*
X91635000Y-62486250D01*
X91635000Y-61973750D01*
X91636053Y-61952309D01*
X91639203Y-61931074D01*
X91644419Y-61910250D01*
X91651651Y-61890038D01*
X91660830Y-61870632D01*
X91671866Y-61852219D01*
X91684654Y-61834976D01*
X91699070Y-61819070D01*
X91714976Y-61804654D01*
X91732219Y-61791866D01*
X91750632Y-61780830D01*
X91770038Y-61771651D01*
X91790250Y-61764419D01*
X91811074Y-61759203D01*
X91832309Y-61756053D01*
X91853750Y-61755000D01*
X92291250Y-61755000D01*
X92312691Y-61756053D01*
X92312691Y-61756053D01*
G37*
D17*
X92072500Y-62230000D03*
D16*
G36*
X93887691Y-61756053D02*
G01*
X93908926Y-61759203D01*
X93929750Y-61764419D01*
X93949962Y-61771651D01*
X93969368Y-61780830D01*
X93987781Y-61791866D01*
X94005024Y-61804654D01*
X94020930Y-61819070D01*
X94035346Y-61834976D01*
X94048134Y-61852219D01*
X94059170Y-61870632D01*
X94068349Y-61890038D01*
X94075581Y-61910250D01*
X94080797Y-61931074D01*
X94083947Y-61952309D01*
X94085000Y-61973750D01*
X94085000Y-62486250D01*
X94083947Y-62507691D01*
X94080797Y-62528926D01*
X94075581Y-62549750D01*
X94068349Y-62569962D01*
X94059170Y-62589368D01*
X94048134Y-62607781D01*
X94035346Y-62625024D01*
X94020930Y-62640930D01*
X94005024Y-62655346D01*
X93987781Y-62668134D01*
X93969368Y-62679170D01*
X93949962Y-62688349D01*
X93929750Y-62695581D01*
X93908926Y-62700797D01*
X93887691Y-62703947D01*
X93866250Y-62705000D01*
X93428750Y-62705000D01*
X93407309Y-62703947D01*
X93386074Y-62700797D01*
X93365250Y-62695581D01*
X93345038Y-62688349D01*
X93325632Y-62679170D01*
X93307219Y-62668134D01*
X93289976Y-62655346D01*
X93274070Y-62640930D01*
X93259654Y-62625024D01*
X93246866Y-62607781D01*
X93235830Y-62589368D01*
X93226651Y-62569962D01*
X93219419Y-62549750D01*
X93214203Y-62528926D01*
X93211053Y-62507691D01*
X93210000Y-62486250D01*
X93210000Y-61973750D01*
X93211053Y-61952309D01*
X93214203Y-61931074D01*
X93219419Y-61910250D01*
X93226651Y-61890038D01*
X93235830Y-61870632D01*
X93246866Y-61852219D01*
X93259654Y-61834976D01*
X93274070Y-61819070D01*
X93289976Y-61804654D01*
X93307219Y-61791866D01*
X93325632Y-61780830D01*
X93345038Y-61771651D01*
X93365250Y-61764419D01*
X93386074Y-61759203D01*
X93407309Y-61756053D01*
X93428750Y-61755000D01*
X93866250Y-61755000D01*
X93887691Y-61756053D01*
X93887691Y-61756053D01*
G37*
D17*
X93647500Y-62230000D03*
D16*
G36*
X101496691Y-70898053D02*
G01*
X101517926Y-70901203D01*
X101538750Y-70906419D01*
X101558962Y-70913651D01*
X101578368Y-70922830D01*
X101596781Y-70933866D01*
X101614024Y-70946654D01*
X101629930Y-70961070D01*
X101644346Y-70976976D01*
X101657134Y-70994219D01*
X101668170Y-71012632D01*
X101677349Y-71032038D01*
X101684581Y-71052250D01*
X101689797Y-71073074D01*
X101692947Y-71094309D01*
X101694000Y-71115750D01*
X101694000Y-71553250D01*
X101692947Y-71574691D01*
X101689797Y-71595926D01*
X101684581Y-71616750D01*
X101677349Y-71636962D01*
X101668170Y-71656368D01*
X101657134Y-71674781D01*
X101644346Y-71692024D01*
X101629930Y-71707930D01*
X101614024Y-71722346D01*
X101596781Y-71735134D01*
X101578368Y-71746170D01*
X101558962Y-71755349D01*
X101538750Y-71762581D01*
X101517926Y-71767797D01*
X101496691Y-71770947D01*
X101475250Y-71772000D01*
X100962750Y-71772000D01*
X100941309Y-71770947D01*
X100920074Y-71767797D01*
X100899250Y-71762581D01*
X100879038Y-71755349D01*
X100859632Y-71746170D01*
X100841219Y-71735134D01*
X100823976Y-71722346D01*
X100808070Y-71707930D01*
X100793654Y-71692024D01*
X100780866Y-71674781D01*
X100769830Y-71656368D01*
X100760651Y-71636962D01*
X100753419Y-71616750D01*
X100748203Y-71595926D01*
X100745053Y-71574691D01*
X100744000Y-71553250D01*
X100744000Y-71115750D01*
X100745053Y-71094309D01*
X100748203Y-71073074D01*
X100753419Y-71052250D01*
X100760651Y-71032038D01*
X100769830Y-71012632D01*
X100780866Y-70994219D01*
X100793654Y-70976976D01*
X100808070Y-70961070D01*
X100823976Y-70946654D01*
X100841219Y-70933866D01*
X100859632Y-70922830D01*
X100879038Y-70913651D01*
X100899250Y-70906419D01*
X100920074Y-70901203D01*
X100941309Y-70898053D01*
X100962750Y-70897000D01*
X101475250Y-70897000D01*
X101496691Y-70898053D01*
X101496691Y-70898053D01*
G37*
D17*
X101219000Y-71334500D03*
D16*
G36*
X101496691Y-72473053D02*
G01*
X101517926Y-72476203D01*
X101538750Y-72481419D01*
X101558962Y-72488651D01*
X101578368Y-72497830D01*
X101596781Y-72508866D01*
X101614024Y-72521654D01*
X101629930Y-72536070D01*
X101644346Y-72551976D01*
X101657134Y-72569219D01*
X101668170Y-72587632D01*
X101677349Y-72607038D01*
X101684581Y-72627250D01*
X101689797Y-72648074D01*
X101692947Y-72669309D01*
X101694000Y-72690750D01*
X101694000Y-73128250D01*
X101692947Y-73149691D01*
X101689797Y-73170926D01*
X101684581Y-73191750D01*
X101677349Y-73211962D01*
X101668170Y-73231368D01*
X101657134Y-73249781D01*
X101644346Y-73267024D01*
X101629930Y-73282930D01*
X101614024Y-73297346D01*
X101596781Y-73310134D01*
X101578368Y-73321170D01*
X101558962Y-73330349D01*
X101538750Y-73337581D01*
X101517926Y-73342797D01*
X101496691Y-73345947D01*
X101475250Y-73347000D01*
X100962750Y-73347000D01*
X100941309Y-73345947D01*
X100920074Y-73342797D01*
X100899250Y-73337581D01*
X100879038Y-73330349D01*
X100859632Y-73321170D01*
X100841219Y-73310134D01*
X100823976Y-73297346D01*
X100808070Y-73282930D01*
X100793654Y-73267024D01*
X100780866Y-73249781D01*
X100769830Y-73231368D01*
X100760651Y-73211962D01*
X100753419Y-73191750D01*
X100748203Y-73170926D01*
X100745053Y-73149691D01*
X100744000Y-73128250D01*
X100744000Y-72690750D01*
X100745053Y-72669309D01*
X100748203Y-72648074D01*
X100753419Y-72627250D01*
X100760651Y-72607038D01*
X100769830Y-72587632D01*
X100780866Y-72569219D01*
X100793654Y-72551976D01*
X100808070Y-72536070D01*
X100823976Y-72521654D01*
X100841219Y-72508866D01*
X100859632Y-72497830D01*
X100879038Y-72488651D01*
X100899250Y-72481419D01*
X100920074Y-72476203D01*
X100941309Y-72473053D01*
X100962750Y-72472000D01*
X101475250Y-72472000D01*
X101496691Y-72473053D01*
X101496691Y-72473053D01*
G37*
D17*
X101219000Y-72909500D03*
D16*
G36*
X103909691Y-56815053D02*
G01*
X103930926Y-56818203D01*
X103951750Y-56823419D01*
X103971962Y-56830651D01*
X103991368Y-56839830D01*
X104009781Y-56850866D01*
X104027024Y-56863654D01*
X104042930Y-56878070D01*
X104057346Y-56893976D01*
X104070134Y-56911219D01*
X104081170Y-56929632D01*
X104090349Y-56949038D01*
X104097581Y-56969250D01*
X104102797Y-56990074D01*
X104105947Y-57011309D01*
X104107000Y-57032750D01*
X104107000Y-57470250D01*
X104105947Y-57491691D01*
X104102797Y-57512926D01*
X104097581Y-57533750D01*
X104090349Y-57553962D01*
X104081170Y-57573368D01*
X104070134Y-57591781D01*
X104057346Y-57609024D01*
X104042930Y-57624930D01*
X104027024Y-57639346D01*
X104009781Y-57652134D01*
X103991368Y-57663170D01*
X103971962Y-57672349D01*
X103951750Y-57679581D01*
X103930926Y-57684797D01*
X103909691Y-57687947D01*
X103888250Y-57689000D01*
X103375750Y-57689000D01*
X103354309Y-57687947D01*
X103333074Y-57684797D01*
X103312250Y-57679581D01*
X103292038Y-57672349D01*
X103272632Y-57663170D01*
X103254219Y-57652134D01*
X103236976Y-57639346D01*
X103221070Y-57624930D01*
X103206654Y-57609024D01*
X103193866Y-57591781D01*
X103182830Y-57573368D01*
X103173651Y-57553962D01*
X103166419Y-57533750D01*
X103161203Y-57512926D01*
X103158053Y-57491691D01*
X103157000Y-57470250D01*
X103157000Y-57032750D01*
X103158053Y-57011309D01*
X103161203Y-56990074D01*
X103166419Y-56969250D01*
X103173651Y-56949038D01*
X103182830Y-56929632D01*
X103193866Y-56911219D01*
X103206654Y-56893976D01*
X103221070Y-56878070D01*
X103236976Y-56863654D01*
X103254219Y-56850866D01*
X103272632Y-56839830D01*
X103292038Y-56830651D01*
X103312250Y-56823419D01*
X103333074Y-56818203D01*
X103354309Y-56815053D01*
X103375750Y-56814000D01*
X103888250Y-56814000D01*
X103909691Y-56815053D01*
X103909691Y-56815053D01*
G37*
D17*
X103632000Y-57251500D03*
D16*
G36*
X103909691Y-58390053D02*
G01*
X103930926Y-58393203D01*
X103951750Y-58398419D01*
X103971962Y-58405651D01*
X103991368Y-58414830D01*
X104009781Y-58425866D01*
X104027024Y-58438654D01*
X104042930Y-58453070D01*
X104057346Y-58468976D01*
X104070134Y-58486219D01*
X104081170Y-58504632D01*
X104090349Y-58524038D01*
X104097581Y-58544250D01*
X104102797Y-58565074D01*
X104105947Y-58586309D01*
X104107000Y-58607750D01*
X104107000Y-59045250D01*
X104105947Y-59066691D01*
X104102797Y-59087926D01*
X104097581Y-59108750D01*
X104090349Y-59128962D01*
X104081170Y-59148368D01*
X104070134Y-59166781D01*
X104057346Y-59184024D01*
X104042930Y-59199930D01*
X104027024Y-59214346D01*
X104009781Y-59227134D01*
X103991368Y-59238170D01*
X103971962Y-59247349D01*
X103951750Y-59254581D01*
X103930926Y-59259797D01*
X103909691Y-59262947D01*
X103888250Y-59264000D01*
X103375750Y-59264000D01*
X103354309Y-59262947D01*
X103333074Y-59259797D01*
X103312250Y-59254581D01*
X103292038Y-59247349D01*
X103272632Y-59238170D01*
X103254219Y-59227134D01*
X103236976Y-59214346D01*
X103221070Y-59199930D01*
X103206654Y-59184024D01*
X103193866Y-59166781D01*
X103182830Y-59148368D01*
X103173651Y-59128962D01*
X103166419Y-59108750D01*
X103161203Y-59087926D01*
X103158053Y-59066691D01*
X103157000Y-59045250D01*
X103157000Y-58607750D01*
X103158053Y-58586309D01*
X103161203Y-58565074D01*
X103166419Y-58544250D01*
X103173651Y-58524038D01*
X103182830Y-58504632D01*
X103193866Y-58486219D01*
X103206654Y-58468976D01*
X103221070Y-58453070D01*
X103236976Y-58438654D01*
X103254219Y-58425866D01*
X103272632Y-58414830D01*
X103292038Y-58405651D01*
X103312250Y-58398419D01*
X103333074Y-58393203D01*
X103354309Y-58390053D01*
X103375750Y-58389000D01*
X103888250Y-58389000D01*
X103909691Y-58390053D01*
X103909691Y-58390053D01*
G37*
D17*
X103632000Y-58826500D03*
D16*
G36*
X102258691Y-56815053D02*
G01*
X102279926Y-56818203D01*
X102300750Y-56823419D01*
X102320962Y-56830651D01*
X102340368Y-56839830D01*
X102358781Y-56850866D01*
X102376024Y-56863654D01*
X102391930Y-56878070D01*
X102406346Y-56893976D01*
X102419134Y-56911219D01*
X102430170Y-56929632D01*
X102439349Y-56949038D01*
X102446581Y-56969250D01*
X102451797Y-56990074D01*
X102454947Y-57011309D01*
X102456000Y-57032750D01*
X102456000Y-57470250D01*
X102454947Y-57491691D01*
X102451797Y-57512926D01*
X102446581Y-57533750D01*
X102439349Y-57553962D01*
X102430170Y-57573368D01*
X102419134Y-57591781D01*
X102406346Y-57609024D01*
X102391930Y-57624930D01*
X102376024Y-57639346D01*
X102358781Y-57652134D01*
X102340368Y-57663170D01*
X102320962Y-57672349D01*
X102300750Y-57679581D01*
X102279926Y-57684797D01*
X102258691Y-57687947D01*
X102237250Y-57689000D01*
X101724750Y-57689000D01*
X101703309Y-57687947D01*
X101682074Y-57684797D01*
X101661250Y-57679581D01*
X101641038Y-57672349D01*
X101621632Y-57663170D01*
X101603219Y-57652134D01*
X101585976Y-57639346D01*
X101570070Y-57624930D01*
X101555654Y-57609024D01*
X101542866Y-57591781D01*
X101531830Y-57573368D01*
X101522651Y-57553962D01*
X101515419Y-57533750D01*
X101510203Y-57512926D01*
X101507053Y-57491691D01*
X101506000Y-57470250D01*
X101506000Y-57032750D01*
X101507053Y-57011309D01*
X101510203Y-56990074D01*
X101515419Y-56969250D01*
X101522651Y-56949038D01*
X101531830Y-56929632D01*
X101542866Y-56911219D01*
X101555654Y-56893976D01*
X101570070Y-56878070D01*
X101585976Y-56863654D01*
X101603219Y-56850866D01*
X101621632Y-56839830D01*
X101641038Y-56830651D01*
X101661250Y-56823419D01*
X101682074Y-56818203D01*
X101703309Y-56815053D01*
X101724750Y-56814000D01*
X102237250Y-56814000D01*
X102258691Y-56815053D01*
X102258691Y-56815053D01*
G37*
D17*
X101981000Y-57251500D03*
D16*
G36*
X102258691Y-58390053D02*
G01*
X102279926Y-58393203D01*
X102300750Y-58398419D01*
X102320962Y-58405651D01*
X102340368Y-58414830D01*
X102358781Y-58425866D01*
X102376024Y-58438654D01*
X102391930Y-58453070D01*
X102406346Y-58468976D01*
X102419134Y-58486219D01*
X102430170Y-58504632D01*
X102439349Y-58524038D01*
X102446581Y-58544250D01*
X102451797Y-58565074D01*
X102454947Y-58586309D01*
X102456000Y-58607750D01*
X102456000Y-59045250D01*
X102454947Y-59066691D01*
X102451797Y-59087926D01*
X102446581Y-59108750D01*
X102439349Y-59128962D01*
X102430170Y-59148368D01*
X102419134Y-59166781D01*
X102406346Y-59184024D01*
X102391930Y-59199930D01*
X102376024Y-59214346D01*
X102358781Y-59227134D01*
X102340368Y-59238170D01*
X102320962Y-59247349D01*
X102300750Y-59254581D01*
X102279926Y-59259797D01*
X102258691Y-59262947D01*
X102237250Y-59264000D01*
X101724750Y-59264000D01*
X101703309Y-59262947D01*
X101682074Y-59259797D01*
X101661250Y-59254581D01*
X101641038Y-59247349D01*
X101621632Y-59238170D01*
X101603219Y-59227134D01*
X101585976Y-59214346D01*
X101570070Y-59199930D01*
X101555654Y-59184024D01*
X101542866Y-59166781D01*
X101531830Y-59148368D01*
X101522651Y-59128962D01*
X101515419Y-59108750D01*
X101510203Y-59087926D01*
X101507053Y-59066691D01*
X101506000Y-59045250D01*
X101506000Y-58607750D01*
X101507053Y-58586309D01*
X101510203Y-58565074D01*
X101515419Y-58544250D01*
X101522651Y-58524038D01*
X101531830Y-58504632D01*
X101542866Y-58486219D01*
X101555654Y-58468976D01*
X101570070Y-58453070D01*
X101585976Y-58438654D01*
X101603219Y-58425866D01*
X101621632Y-58414830D01*
X101641038Y-58405651D01*
X101661250Y-58398419D01*
X101682074Y-58393203D01*
X101703309Y-58390053D01*
X101724750Y-58389000D01*
X102237250Y-58389000D01*
X102258691Y-58390053D01*
X102258691Y-58390053D01*
G37*
D17*
X101981000Y-58826500D03*
D16*
G36*
X95908691Y-61692053D02*
G01*
X95929926Y-61695203D01*
X95950750Y-61700419D01*
X95970962Y-61707651D01*
X95990368Y-61716830D01*
X96008781Y-61727866D01*
X96026024Y-61740654D01*
X96041930Y-61755070D01*
X96056346Y-61770976D01*
X96069134Y-61788219D01*
X96080170Y-61806632D01*
X96089349Y-61826038D01*
X96096581Y-61846250D01*
X96101797Y-61867074D01*
X96104947Y-61888309D01*
X96106000Y-61909750D01*
X96106000Y-62347250D01*
X96104947Y-62368691D01*
X96101797Y-62389926D01*
X96096581Y-62410750D01*
X96089349Y-62430962D01*
X96080170Y-62450368D01*
X96069134Y-62468781D01*
X96056346Y-62486024D01*
X96041930Y-62501930D01*
X96026024Y-62516346D01*
X96008781Y-62529134D01*
X95990368Y-62540170D01*
X95970962Y-62549349D01*
X95950750Y-62556581D01*
X95929926Y-62561797D01*
X95908691Y-62564947D01*
X95887250Y-62566000D01*
X95374750Y-62566000D01*
X95353309Y-62564947D01*
X95332074Y-62561797D01*
X95311250Y-62556581D01*
X95291038Y-62549349D01*
X95271632Y-62540170D01*
X95253219Y-62529134D01*
X95235976Y-62516346D01*
X95220070Y-62501930D01*
X95205654Y-62486024D01*
X95192866Y-62468781D01*
X95181830Y-62450368D01*
X95172651Y-62430962D01*
X95165419Y-62410750D01*
X95160203Y-62389926D01*
X95157053Y-62368691D01*
X95156000Y-62347250D01*
X95156000Y-61909750D01*
X95157053Y-61888309D01*
X95160203Y-61867074D01*
X95165419Y-61846250D01*
X95172651Y-61826038D01*
X95181830Y-61806632D01*
X95192866Y-61788219D01*
X95205654Y-61770976D01*
X95220070Y-61755070D01*
X95235976Y-61740654D01*
X95253219Y-61727866D01*
X95271632Y-61716830D01*
X95291038Y-61707651D01*
X95311250Y-61700419D01*
X95332074Y-61695203D01*
X95353309Y-61692053D01*
X95374750Y-61691000D01*
X95887250Y-61691000D01*
X95908691Y-61692053D01*
X95908691Y-61692053D01*
G37*
D17*
X95631000Y-62128500D03*
D16*
G36*
X95908691Y-60117053D02*
G01*
X95929926Y-60120203D01*
X95950750Y-60125419D01*
X95970962Y-60132651D01*
X95990368Y-60141830D01*
X96008781Y-60152866D01*
X96026024Y-60165654D01*
X96041930Y-60180070D01*
X96056346Y-60195976D01*
X96069134Y-60213219D01*
X96080170Y-60231632D01*
X96089349Y-60251038D01*
X96096581Y-60271250D01*
X96101797Y-60292074D01*
X96104947Y-60313309D01*
X96106000Y-60334750D01*
X96106000Y-60772250D01*
X96104947Y-60793691D01*
X96101797Y-60814926D01*
X96096581Y-60835750D01*
X96089349Y-60855962D01*
X96080170Y-60875368D01*
X96069134Y-60893781D01*
X96056346Y-60911024D01*
X96041930Y-60926930D01*
X96026024Y-60941346D01*
X96008781Y-60954134D01*
X95990368Y-60965170D01*
X95970962Y-60974349D01*
X95950750Y-60981581D01*
X95929926Y-60986797D01*
X95908691Y-60989947D01*
X95887250Y-60991000D01*
X95374750Y-60991000D01*
X95353309Y-60989947D01*
X95332074Y-60986797D01*
X95311250Y-60981581D01*
X95291038Y-60974349D01*
X95271632Y-60965170D01*
X95253219Y-60954134D01*
X95235976Y-60941346D01*
X95220070Y-60926930D01*
X95205654Y-60911024D01*
X95192866Y-60893781D01*
X95181830Y-60875368D01*
X95172651Y-60855962D01*
X95165419Y-60835750D01*
X95160203Y-60814926D01*
X95157053Y-60793691D01*
X95156000Y-60772250D01*
X95156000Y-60334750D01*
X95157053Y-60313309D01*
X95160203Y-60292074D01*
X95165419Y-60271250D01*
X95172651Y-60251038D01*
X95181830Y-60231632D01*
X95192866Y-60213219D01*
X95205654Y-60195976D01*
X95220070Y-60180070D01*
X95235976Y-60165654D01*
X95253219Y-60152866D01*
X95271632Y-60141830D01*
X95291038Y-60132651D01*
X95311250Y-60125419D01*
X95332074Y-60120203D01*
X95353309Y-60117053D01*
X95374750Y-60116000D01*
X95887250Y-60116000D01*
X95908691Y-60117053D01*
X95908691Y-60117053D01*
G37*
D17*
X95631000Y-60553500D03*
D16*
G36*
X100861691Y-51405053D02*
G01*
X100882926Y-51408203D01*
X100903750Y-51413419D01*
X100923962Y-51420651D01*
X100943368Y-51429830D01*
X100961781Y-51440866D01*
X100979024Y-51453654D01*
X100994930Y-51468070D01*
X101009346Y-51483976D01*
X101022134Y-51501219D01*
X101033170Y-51519632D01*
X101042349Y-51539038D01*
X101049581Y-51559250D01*
X101054797Y-51580074D01*
X101057947Y-51601309D01*
X101059000Y-51622750D01*
X101059000Y-52060250D01*
X101057947Y-52081691D01*
X101054797Y-52102926D01*
X101049581Y-52123750D01*
X101042349Y-52143962D01*
X101033170Y-52163368D01*
X101022134Y-52181781D01*
X101009346Y-52199024D01*
X100994930Y-52214930D01*
X100979024Y-52229346D01*
X100961781Y-52242134D01*
X100943368Y-52253170D01*
X100923962Y-52262349D01*
X100903750Y-52269581D01*
X100882926Y-52274797D01*
X100861691Y-52277947D01*
X100840250Y-52279000D01*
X100327750Y-52279000D01*
X100306309Y-52277947D01*
X100285074Y-52274797D01*
X100264250Y-52269581D01*
X100244038Y-52262349D01*
X100224632Y-52253170D01*
X100206219Y-52242134D01*
X100188976Y-52229346D01*
X100173070Y-52214930D01*
X100158654Y-52199024D01*
X100145866Y-52181781D01*
X100134830Y-52163368D01*
X100125651Y-52143962D01*
X100118419Y-52123750D01*
X100113203Y-52102926D01*
X100110053Y-52081691D01*
X100109000Y-52060250D01*
X100109000Y-51622750D01*
X100110053Y-51601309D01*
X100113203Y-51580074D01*
X100118419Y-51559250D01*
X100125651Y-51539038D01*
X100134830Y-51519632D01*
X100145866Y-51501219D01*
X100158654Y-51483976D01*
X100173070Y-51468070D01*
X100188976Y-51453654D01*
X100206219Y-51440866D01*
X100224632Y-51429830D01*
X100244038Y-51420651D01*
X100264250Y-51413419D01*
X100285074Y-51408203D01*
X100306309Y-51405053D01*
X100327750Y-51404000D01*
X100840250Y-51404000D01*
X100861691Y-51405053D01*
X100861691Y-51405053D01*
G37*
D17*
X100584000Y-51841500D03*
D16*
G36*
X100861691Y-49830053D02*
G01*
X100882926Y-49833203D01*
X100903750Y-49838419D01*
X100923962Y-49845651D01*
X100943368Y-49854830D01*
X100961781Y-49865866D01*
X100979024Y-49878654D01*
X100994930Y-49893070D01*
X101009346Y-49908976D01*
X101022134Y-49926219D01*
X101033170Y-49944632D01*
X101042349Y-49964038D01*
X101049581Y-49984250D01*
X101054797Y-50005074D01*
X101057947Y-50026309D01*
X101059000Y-50047750D01*
X101059000Y-50485250D01*
X101057947Y-50506691D01*
X101054797Y-50527926D01*
X101049581Y-50548750D01*
X101042349Y-50568962D01*
X101033170Y-50588368D01*
X101022134Y-50606781D01*
X101009346Y-50624024D01*
X100994930Y-50639930D01*
X100979024Y-50654346D01*
X100961781Y-50667134D01*
X100943368Y-50678170D01*
X100923962Y-50687349D01*
X100903750Y-50694581D01*
X100882926Y-50699797D01*
X100861691Y-50702947D01*
X100840250Y-50704000D01*
X100327750Y-50704000D01*
X100306309Y-50702947D01*
X100285074Y-50699797D01*
X100264250Y-50694581D01*
X100244038Y-50687349D01*
X100224632Y-50678170D01*
X100206219Y-50667134D01*
X100188976Y-50654346D01*
X100173070Y-50639930D01*
X100158654Y-50624024D01*
X100145866Y-50606781D01*
X100134830Y-50588368D01*
X100125651Y-50568962D01*
X100118419Y-50548750D01*
X100113203Y-50527926D01*
X100110053Y-50506691D01*
X100109000Y-50485250D01*
X100109000Y-50047750D01*
X100110053Y-50026309D01*
X100113203Y-50005074D01*
X100118419Y-49984250D01*
X100125651Y-49964038D01*
X100134830Y-49944632D01*
X100145866Y-49926219D01*
X100158654Y-49908976D01*
X100173070Y-49893070D01*
X100188976Y-49878654D01*
X100206219Y-49865866D01*
X100224632Y-49854830D01*
X100244038Y-49845651D01*
X100264250Y-49838419D01*
X100285074Y-49833203D01*
X100306309Y-49830053D01*
X100327750Y-49829000D01*
X100840250Y-49829000D01*
X100861691Y-49830053D01*
X100861691Y-49830053D01*
G37*
D17*
X100584000Y-50266500D03*
D16*
G36*
X105193191Y-49437053D02*
G01*
X105214426Y-49440203D01*
X105235250Y-49445419D01*
X105255462Y-49452651D01*
X105274868Y-49461830D01*
X105293281Y-49472866D01*
X105310524Y-49485654D01*
X105326430Y-49500070D01*
X105340846Y-49515976D01*
X105353634Y-49533219D01*
X105364670Y-49551632D01*
X105373849Y-49571038D01*
X105381081Y-49591250D01*
X105386297Y-49612074D01*
X105389447Y-49633309D01*
X105390500Y-49654750D01*
X105390500Y-50167250D01*
X105389447Y-50188691D01*
X105386297Y-50209926D01*
X105381081Y-50230750D01*
X105373849Y-50250962D01*
X105364670Y-50270368D01*
X105353634Y-50288781D01*
X105340846Y-50306024D01*
X105326430Y-50321930D01*
X105310524Y-50336346D01*
X105293281Y-50349134D01*
X105274868Y-50360170D01*
X105255462Y-50369349D01*
X105235250Y-50376581D01*
X105214426Y-50381797D01*
X105193191Y-50384947D01*
X105171750Y-50386000D01*
X104734250Y-50386000D01*
X104712809Y-50384947D01*
X104691574Y-50381797D01*
X104670750Y-50376581D01*
X104650538Y-50369349D01*
X104631132Y-50360170D01*
X104612719Y-50349134D01*
X104595476Y-50336346D01*
X104579570Y-50321930D01*
X104565154Y-50306024D01*
X104552366Y-50288781D01*
X104541330Y-50270368D01*
X104532151Y-50250962D01*
X104524919Y-50230750D01*
X104519703Y-50209926D01*
X104516553Y-50188691D01*
X104515500Y-50167250D01*
X104515500Y-49654750D01*
X104516553Y-49633309D01*
X104519703Y-49612074D01*
X104524919Y-49591250D01*
X104532151Y-49571038D01*
X104541330Y-49551632D01*
X104552366Y-49533219D01*
X104565154Y-49515976D01*
X104579570Y-49500070D01*
X104595476Y-49485654D01*
X104612719Y-49472866D01*
X104631132Y-49461830D01*
X104650538Y-49452651D01*
X104670750Y-49445419D01*
X104691574Y-49440203D01*
X104712809Y-49437053D01*
X104734250Y-49436000D01*
X105171750Y-49436000D01*
X105193191Y-49437053D01*
X105193191Y-49437053D01*
G37*
D17*
X104953000Y-49911000D03*
D16*
G36*
X103618191Y-49437053D02*
G01*
X103639426Y-49440203D01*
X103660250Y-49445419D01*
X103680462Y-49452651D01*
X103699868Y-49461830D01*
X103718281Y-49472866D01*
X103735524Y-49485654D01*
X103751430Y-49500070D01*
X103765846Y-49515976D01*
X103778634Y-49533219D01*
X103789670Y-49551632D01*
X103798849Y-49571038D01*
X103806081Y-49591250D01*
X103811297Y-49612074D01*
X103814447Y-49633309D01*
X103815500Y-49654750D01*
X103815500Y-50167250D01*
X103814447Y-50188691D01*
X103811297Y-50209926D01*
X103806081Y-50230750D01*
X103798849Y-50250962D01*
X103789670Y-50270368D01*
X103778634Y-50288781D01*
X103765846Y-50306024D01*
X103751430Y-50321930D01*
X103735524Y-50336346D01*
X103718281Y-50349134D01*
X103699868Y-50360170D01*
X103680462Y-50369349D01*
X103660250Y-50376581D01*
X103639426Y-50381797D01*
X103618191Y-50384947D01*
X103596750Y-50386000D01*
X103159250Y-50386000D01*
X103137809Y-50384947D01*
X103116574Y-50381797D01*
X103095750Y-50376581D01*
X103075538Y-50369349D01*
X103056132Y-50360170D01*
X103037719Y-50349134D01*
X103020476Y-50336346D01*
X103004570Y-50321930D01*
X102990154Y-50306024D01*
X102977366Y-50288781D01*
X102966330Y-50270368D01*
X102957151Y-50250962D01*
X102949919Y-50230750D01*
X102944703Y-50209926D01*
X102941553Y-50188691D01*
X102940500Y-50167250D01*
X102940500Y-49654750D01*
X102941553Y-49633309D01*
X102944703Y-49612074D01*
X102949919Y-49591250D01*
X102957151Y-49571038D01*
X102966330Y-49551632D01*
X102977366Y-49533219D01*
X102990154Y-49515976D01*
X103004570Y-49500070D01*
X103020476Y-49485654D01*
X103037719Y-49472866D01*
X103056132Y-49461830D01*
X103075538Y-49452651D01*
X103095750Y-49445419D01*
X103116574Y-49440203D01*
X103137809Y-49437053D01*
X103159250Y-49436000D01*
X103596750Y-49436000D01*
X103618191Y-49437053D01*
X103618191Y-49437053D01*
G37*
D17*
X103378000Y-49911000D03*
D16*
G36*
X99337691Y-49830053D02*
G01*
X99358926Y-49833203D01*
X99379750Y-49838419D01*
X99399962Y-49845651D01*
X99419368Y-49854830D01*
X99437781Y-49865866D01*
X99455024Y-49878654D01*
X99470930Y-49893070D01*
X99485346Y-49908976D01*
X99498134Y-49926219D01*
X99509170Y-49944632D01*
X99518349Y-49964038D01*
X99525581Y-49984250D01*
X99530797Y-50005074D01*
X99533947Y-50026309D01*
X99535000Y-50047750D01*
X99535000Y-50485250D01*
X99533947Y-50506691D01*
X99530797Y-50527926D01*
X99525581Y-50548750D01*
X99518349Y-50568962D01*
X99509170Y-50588368D01*
X99498134Y-50606781D01*
X99485346Y-50624024D01*
X99470930Y-50639930D01*
X99455024Y-50654346D01*
X99437781Y-50667134D01*
X99419368Y-50678170D01*
X99399962Y-50687349D01*
X99379750Y-50694581D01*
X99358926Y-50699797D01*
X99337691Y-50702947D01*
X99316250Y-50704000D01*
X98803750Y-50704000D01*
X98782309Y-50702947D01*
X98761074Y-50699797D01*
X98740250Y-50694581D01*
X98720038Y-50687349D01*
X98700632Y-50678170D01*
X98682219Y-50667134D01*
X98664976Y-50654346D01*
X98649070Y-50639930D01*
X98634654Y-50624024D01*
X98621866Y-50606781D01*
X98610830Y-50588368D01*
X98601651Y-50568962D01*
X98594419Y-50548750D01*
X98589203Y-50527926D01*
X98586053Y-50506691D01*
X98585000Y-50485250D01*
X98585000Y-50047750D01*
X98586053Y-50026309D01*
X98589203Y-50005074D01*
X98594419Y-49984250D01*
X98601651Y-49964038D01*
X98610830Y-49944632D01*
X98621866Y-49926219D01*
X98634654Y-49908976D01*
X98649070Y-49893070D01*
X98664976Y-49878654D01*
X98682219Y-49865866D01*
X98700632Y-49854830D01*
X98720038Y-49845651D01*
X98740250Y-49838419D01*
X98761074Y-49833203D01*
X98782309Y-49830053D01*
X98803750Y-49829000D01*
X99316250Y-49829000D01*
X99337691Y-49830053D01*
X99337691Y-49830053D01*
G37*
D17*
X99060000Y-50266500D03*
D16*
G36*
X99337691Y-51405053D02*
G01*
X99358926Y-51408203D01*
X99379750Y-51413419D01*
X99399962Y-51420651D01*
X99419368Y-51429830D01*
X99437781Y-51440866D01*
X99455024Y-51453654D01*
X99470930Y-51468070D01*
X99485346Y-51483976D01*
X99498134Y-51501219D01*
X99509170Y-51519632D01*
X99518349Y-51539038D01*
X99525581Y-51559250D01*
X99530797Y-51580074D01*
X99533947Y-51601309D01*
X99535000Y-51622750D01*
X99535000Y-52060250D01*
X99533947Y-52081691D01*
X99530797Y-52102926D01*
X99525581Y-52123750D01*
X99518349Y-52143962D01*
X99509170Y-52163368D01*
X99498134Y-52181781D01*
X99485346Y-52199024D01*
X99470930Y-52214930D01*
X99455024Y-52229346D01*
X99437781Y-52242134D01*
X99419368Y-52253170D01*
X99399962Y-52262349D01*
X99379750Y-52269581D01*
X99358926Y-52274797D01*
X99337691Y-52277947D01*
X99316250Y-52279000D01*
X98803750Y-52279000D01*
X98782309Y-52277947D01*
X98761074Y-52274797D01*
X98740250Y-52269581D01*
X98720038Y-52262349D01*
X98700632Y-52253170D01*
X98682219Y-52242134D01*
X98664976Y-52229346D01*
X98649070Y-52214930D01*
X98634654Y-52199024D01*
X98621866Y-52181781D01*
X98610830Y-52163368D01*
X98601651Y-52143962D01*
X98594419Y-52123750D01*
X98589203Y-52102926D01*
X98586053Y-52081691D01*
X98585000Y-52060250D01*
X98585000Y-51622750D01*
X98586053Y-51601309D01*
X98589203Y-51580074D01*
X98594419Y-51559250D01*
X98601651Y-51539038D01*
X98610830Y-51519632D01*
X98621866Y-51501219D01*
X98634654Y-51483976D01*
X98649070Y-51468070D01*
X98664976Y-51453654D01*
X98682219Y-51440866D01*
X98700632Y-51429830D01*
X98720038Y-51420651D01*
X98740250Y-51413419D01*
X98761074Y-51408203D01*
X98782309Y-51405053D01*
X98803750Y-51404000D01*
X99316250Y-51404000D01*
X99337691Y-51405053D01*
X99337691Y-51405053D01*
G37*
D17*
X99060000Y-51841500D03*
D16*
G36*
X92225691Y-65262053D02*
G01*
X92246926Y-65265203D01*
X92267750Y-65270419D01*
X92287962Y-65277651D01*
X92307368Y-65286830D01*
X92325781Y-65297866D01*
X92343024Y-65310654D01*
X92358930Y-65325070D01*
X92373346Y-65340976D01*
X92386134Y-65358219D01*
X92397170Y-65376632D01*
X92406349Y-65396038D01*
X92413581Y-65416250D01*
X92418797Y-65437074D01*
X92421947Y-65458309D01*
X92423000Y-65479750D01*
X92423000Y-65917250D01*
X92421947Y-65938691D01*
X92418797Y-65959926D01*
X92413581Y-65980750D01*
X92406349Y-66000962D01*
X92397170Y-66020368D01*
X92386134Y-66038781D01*
X92373346Y-66056024D01*
X92358930Y-66071930D01*
X92343024Y-66086346D01*
X92325781Y-66099134D01*
X92307368Y-66110170D01*
X92287962Y-66119349D01*
X92267750Y-66126581D01*
X92246926Y-66131797D01*
X92225691Y-66134947D01*
X92204250Y-66136000D01*
X91691750Y-66136000D01*
X91670309Y-66134947D01*
X91649074Y-66131797D01*
X91628250Y-66126581D01*
X91608038Y-66119349D01*
X91588632Y-66110170D01*
X91570219Y-66099134D01*
X91552976Y-66086346D01*
X91537070Y-66071930D01*
X91522654Y-66056024D01*
X91509866Y-66038781D01*
X91498830Y-66020368D01*
X91489651Y-66000962D01*
X91482419Y-65980750D01*
X91477203Y-65959926D01*
X91474053Y-65938691D01*
X91473000Y-65917250D01*
X91473000Y-65479750D01*
X91474053Y-65458309D01*
X91477203Y-65437074D01*
X91482419Y-65416250D01*
X91489651Y-65396038D01*
X91498830Y-65376632D01*
X91509866Y-65358219D01*
X91522654Y-65340976D01*
X91537070Y-65325070D01*
X91552976Y-65310654D01*
X91570219Y-65297866D01*
X91588632Y-65286830D01*
X91608038Y-65277651D01*
X91628250Y-65270419D01*
X91649074Y-65265203D01*
X91670309Y-65262053D01*
X91691750Y-65261000D01*
X92204250Y-65261000D01*
X92225691Y-65262053D01*
X92225691Y-65262053D01*
G37*
D17*
X91948000Y-65698500D03*
D16*
G36*
X92225691Y-63687053D02*
G01*
X92246926Y-63690203D01*
X92267750Y-63695419D01*
X92287962Y-63702651D01*
X92307368Y-63711830D01*
X92325781Y-63722866D01*
X92343024Y-63735654D01*
X92358930Y-63750070D01*
X92373346Y-63765976D01*
X92386134Y-63783219D01*
X92397170Y-63801632D01*
X92406349Y-63821038D01*
X92413581Y-63841250D01*
X92418797Y-63862074D01*
X92421947Y-63883309D01*
X92423000Y-63904750D01*
X92423000Y-64342250D01*
X92421947Y-64363691D01*
X92418797Y-64384926D01*
X92413581Y-64405750D01*
X92406349Y-64425962D01*
X92397170Y-64445368D01*
X92386134Y-64463781D01*
X92373346Y-64481024D01*
X92358930Y-64496930D01*
X92343024Y-64511346D01*
X92325781Y-64524134D01*
X92307368Y-64535170D01*
X92287962Y-64544349D01*
X92267750Y-64551581D01*
X92246926Y-64556797D01*
X92225691Y-64559947D01*
X92204250Y-64561000D01*
X91691750Y-64561000D01*
X91670309Y-64559947D01*
X91649074Y-64556797D01*
X91628250Y-64551581D01*
X91608038Y-64544349D01*
X91588632Y-64535170D01*
X91570219Y-64524134D01*
X91552976Y-64511346D01*
X91537070Y-64496930D01*
X91522654Y-64481024D01*
X91509866Y-64463781D01*
X91498830Y-64445368D01*
X91489651Y-64425962D01*
X91482419Y-64405750D01*
X91477203Y-64384926D01*
X91474053Y-64363691D01*
X91473000Y-64342250D01*
X91473000Y-63904750D01*
X91474053Y-63883309D01*
X91477203Y-63862074D01*
X91482419Y-63841250D01*
X91489651Y-63821038D01*
X91498830Y-63801632D01*
X91509866Y-63783219D01*
X91522654Y-63765976D01*
X91537070Y-63750070D01*
X91552976Y-63735654D01*
X91570219Y-63722866D01*
X91588632Y-63711830D01*
X91608038Y-63702651D01*
X91628250Y-63695419D01*
X91649074Y-63690203D01*
X91670309Y-63687053D01*
X91691750Y-63686000D01*
X92204250Y-63686000D01*
X92225691Y-63687053D01*
X92225691Y-63687053D01*
G37*
D17*
X91948000Y-64123500D03*
D16*
G36*
X99972691Y-56829053D02*
G01*
X99993926Y-56832203D01*
X100014750Y-56837419D01*
X100034962Y-56844651D01*
X100054368Y-56853830D01*
X100072781Y-56864866D01*
X100090024Y-56877654D01*
X100105930Y-56892070D01*
X100120346Y-56907976D01*
X100133134Y-56925219D01*
X100144170Y-56943632D01*
X100153349Y-56963038D01*
X100160581Y-56983250D01*
X100165797Y-57004074D01*
X100168947Y-57025309D01*
X100170000Y-57046750D01*
X100170000Y-57484250D01*
X100168947Y-57505691D01*
X100165797Y-57526926D01*
X100160581Y-57547750D01*
X100153349Y-57567962D01*
X100144170Y-57587368D01*
X100133134Y-57605781D01*
X100120346Y-57623024D01*
X100105930Y-57638930D01*
X100090024Y-57653346D01*
X100072781Y-57666134D01*
X100054368Y-57677170D01*
X100034962Y-57686349D01*
X100014750Y-57693581D01*
X99993926Y-57698797D01*
X99972691Y-57701947D01*
X99951250Y-57703000D01*
X99438750Y-57703000D01*
X99417309Y-57701947D01*
X99396074Y-57698797D01*
X99375250Y-57693581D01*
X99355038Y-57686349D01*
X99335632Y-57677170D01*
X99317219Y-57666134D01*
X99299976Y-57653346D01*
X99284070Y-57638930D01*
X99269654Y-57623024D01*
X99256866Y-57605781D01*
X99245830Y-57587368D01*
X99236651Y-57567962D01*
X99229419Y-57547750D01*
X99224203Y-57526926D01*
X99221053Y-57505691D01*
X99220000Y-57484250D01*
X99220000Y-57046750D01*
X99221053Y-57025309D01*
X99224203Y-57004074D01*
X99229419Y-56983250D01*
X99236651Y-56963038D01*
X99245830Y-56943632D01*
X99256866Y-56925219D01*
X99269654Y-56907976D01*
X99284070Y-56892070D01*
X99299976Y-56877654D01*
X99317219Y-56864866D01*
X99335632Y-56853830D01*
X99355038Y-56844651D01*
X99375250Y-56837419D01*
X99396074Y-56832203D01*
X99417309Y-56829053D01*
X99438750Y-56828000D01*
X99951250Y-56828000D01*
X99972691Y-56829053D01*
X99972691Y-56829053D01*
G37*
D17*
X99695000Y-57265500D03*
D16*
G36*
X99972691Y-58404053D02*
G01*
X99993926Y-58407203D01*
X100014750Y-58412419D01*
X100034962Y-58419651D01*
X100054368Y-58428830D01*
X100072781Y-58439866D01*
X100090024Y-58452654D01*
X100105930Y-58467070D01*
X100120346Y-58482976D01*
X100133134Y-58500219D01*
X100144170Y-58518632D01*
X100153349Y-58538038D01*
X100160581Y-58558250D01*
X100165797Y-58579074D01*
X100168947Y-58600309D01*
X100170000Y-58621750D01*
X100170000Y-59059250D01*
X100168947Y-59080691D01*
X100165797Y-59101926D01*
X100160581Y-59122750D01*
X100153349Y-59142962D01*
X100144170Y-59162368D01*
X100133134Y-59180781D01*
X100120346Y-59198024D01*
X100105930Y-59213930D01*
X100090024Y-59228346D01*
X100072781Y-59241134D01*
X100054368Y-59252170D01*
X100034962Y-59261349D01*
X100014750Y-59268581D01*
X99993926Y-59273797D01*
X99972691Y-59276947D01*
X99951250Y-59278000D01*
X99438750Y-59278000D01*
X99417309Y-59276947D01*
X99396074Y-59273797D01*
X99375250Y-59268581D01*
X99355038Y-59261349D01*
X99335632Y-59252170D01*
X99317219Y-59241134D01*
X99299976Y-59228346D01*
X99284070Y-59213930D01*
X99269654Y-59198024D01*
X99256866Y-59180781D01*
X99245830Y-59162368D01*
X99236651Y-59142962D01*
X99229419Y-59122750D01*
X99224203Y-59101926D01*
X99221053Y-59080691D01*
X99220000Y-59059250D01*
X99220000Y-58621750D01*
X99221053Y-58600309D01*
X99224203Y-58579074D01*
X99229419Y-58558250D01*
X99236651Y-58538038D01*
X99245830Y-58518632D01*
X99256866Y-58500219D01*
X99269654Y-58482976D01*
X99284070Y-58467070D01*
X99299976Y-58452654D01*
X99317219Y-58439866D01*
X99335632Y-58428830D01*
X99355038Y-58419651D01*
X99375250Y-58412419D01*
X99396074Y-58407203D01*
X99417309Y-58404053D01*
X99438750Y-58403000D01*
X99951250Y-58403000D01*
X99972691Y-58404053D01*
X99972691Y-58404053D01*
G37*
D17*
X99695000Y-58840500D03*
D16*
G36*
X113117691Y-64296053D02*
G01*
X113138926Y-64299203D01*
X113159750Y-64304419D01*
X113179962Y-64311651D01*
X113199368Y-64320830D01*
X113217781Y-64331866D01*
X113235024Y-64344654D01*
X113250930Y-64359070D01*
X113265346Y-64374976D01*
X113278134Y-64392219D01*
X113289170Y-64410632D01*
X113298349Y-64430038D01*
X113305581Y-64450250D01*
X113310797Y-64471074D01*
X113313947Y-64492309D01*
X113315000Y-64513750D01*
X113315000Y-65026250D01*
X113313947Y-65047691D01*
X113310797Y-65068926D01*
X113305581Y-65089750D01*
X113298349Y-65109962D01*
X113289170Y-65129368D01*
X113278134Y-65147781D01*
X113265346Y-65165024D01*
X113250930Y-65180930D01*
X113235024Y-65195346D01*
X113217781Y-65208134D01*
X113199368Y-65219170D01*
X113179962Y-65228349D01*
X113159750Y-65235581D01*
X113138926Y-65240797D01*
X113117691Y-65243947D01*
X113096250Y-65245000D01*
X112658750Y-65245000D01*
X112637309Y-65243947D01*
X112616074Y-65240797D01*
X112595250Y-65235581D01*
X112575038Y-65228349D01*
X112555632Y-65219170D01*
X112537219Y-65208134D01*
X112519976Y-65195346D01*
X112504070Y-65180930D01*
X112489654Y-65165024D01*
X112476866Y-65147781D01*
X112465830Y-65129368D01*
X112456651Y-65109962D01*
X112449419Y-65089750D01*
X112444203Y-65068926D01*
X112441053Y-65047691D01*
X112440000Y-65026250D01*
X112440000Y-64513750D01*
X112441053Y-64492309D01*
X112444203Y-64471074D01*
X112449419Y-64450250D01*
X112456651Y-64430038D01*
X112465830Y-64410632D01*
X112476866Y-64392219D01*
X112489654Y-64374976D01*
X112504070Y-64359070D01*
X112519976Y-64344654D01*
X112537219Y-64331866D01*
X112555632Y-64320830D01*
X112575038Y-64311651D01*
X112595250Y-64304419D01*
X112616074Y-64299203D01*
X112637309Y-64296053D01*
X112658750Y-64295000D01*
X113096250Y-64295000D01*
X113117691Y-64296053D01*
X113117691Y-64296053D01*
G37*
D17*
X112877500Y-64770000D03*
D16*
G36*
X114692691Y-64296053D02*
G01*
X114713926Y-64299203D01*
X114734750Y-64304419D01*
X114754962Y-64311651D01*
X114774368Y-64320830D01*
X114792781Y-64331866D01*
X114810024Y-64344654D01*
X114825930Y-64359070D01*
X114840346Y-64374976D01*
X114853134Y-64392219D01*
X114864170Y-64410632D01*
X114873349Y-64430038D01*
X114880581Y-64450250D01*
X114885797Y-64471074D01*
X114888947Y-64492309D01*
X114890000Y-64513750D01*
X114890000Y-65026250D01*
X114888947Y-65047691D01*
X114885797Y-65068926D01*
X114880581Y-65089750D01*
X114873349Y-65109962D01*
X114864170Y-65129368D01*
X114853134Y-65147781D01*
X114840346Y-65165024D01*
X114825930Y-65180930D01*
X114810024Y-65195346D01*
X114792781Y-65208134D01*
X114774368Y-65219170D01*
X114754962Y-65228349D01*
X114734750Y-65235581D01*
X114713926Y-65240797D01*
X114692691Y-65243947D01*
X114671250Y-65245000D01*
X114233750Y-65245000D01*
X114212309Y-65243947D01*
X114191074Y-65240797D01*
X114170250Y-65235581D01*
X114150038Y-65228349D01*
X114130632Y-65219170D01*
X114112219Y-65208134D01*
X114094976Y-65195346D01*
X114079070Y-65180930D01*
X114064654Y-65165024D01*
X114051866Y-65147781D01*
X114040830Y-65129368D01*
X114031651Y-65109962D01*
X114024419Y-65089750D01*
X114019203Y-65068926D01*
X114016053Y-65047691D01*
X114015000Y-65026250D01*
X114015000Y-64513750D01*
X114016053Y-64492309D01*
X114019203Y-64471074D01*
X114024419Y-64450250D01*
X114031651Y-64430038D01*
X114040830Y-64410632D01*
X114051866Y-64392219D01*
X114064654Y-64374976D01*
X114079070Y-64359070D01*
X114094976Y-64344654D01*
X114112219Y-64331866D01*
X114130632Y-64320830D01*
X114150038Y-64311651D01*
X114170250Y-64304419D01*
X114191074Y-64299203D01*
X114212309Y-64296053D01*
X114233750Y-64295000D01*
X114671250Y-64295000D01*
X114692691Y-64296053D01*
X114692691Y-64296053D01*
G37*
D17*
X114452500Y-64770000D03*
D16*
G36*
X114715691Y-59343053D02*
G01*
X114736926Y-59346203D01*
X114757750Y-59351419D01*
X114777962Y-59358651D01*
X114797368Y-59367830D01*
X114815781Y-59378866D01*
X114833024Y-59391654D01*
X114848930Y-59406070D01*
X114863346Y-59421976D01*
X114876134Y-59439219D01*
X114887170Y-59457632D01*
X114896349Y-59477038D01*
X114903581Y-59497250D01*
X114908797Y-59518074D01*
X114911947Y-59539309D01*
X114913000Y-59560750D01*
X114913000Y-60073250D01*
X114911947Y-60094691D01*
X114908797Y-60115926D01*
X114903581Y-60136750D01*
X114896349Y-60156962D01*
X114887170Y-60176368D01*
X114876134Y-60194781D01*
X114863346Y-60212024D01*
X114848930Y-60227930D01*
X114833024Y-60242346D01*
X114815781Y-60255134D01*
X114797368Y-60266170D01*
X114777962Y-60275349D01*
X114757750Y-60282581D01*
X114736926Y-60287797D01*
X114715691Y-60290947D01*
X114694250Y-60292000D01*
X114256750Y-60292000D01*
X114235309Y-60290947D01*
X114214074Y-60287797D01*
X114193250Y-60282581D01*
X114173038Y-60275349D01*
X114153632Y-60266170D01*
X114135219Y-60255134D01*
X114117976Y-60242346D01*
X114102070Y-60227930D01*
X114087654Y-60212024D01*
X114074866Y-60194781D01*
X114063830Y-60176368D01*
X114054651Y-60156962D01*
X114047419Y-60136750D01*
X114042203Y-60115926D01*
X114039053Y-60094691D01*
X114038000Y-60073250D01*
X114038000Y-59560750D01*
X114039053Y-59539309D01*
X114042203Y-59518074D01*
X114047419Y-59497250D01*
X114054651Y-59477038D01*
X114063830Y-59457632D01*
X114074866Y-59439219D01*
X114087654Y-59421976D01*
X114102070Y-59406070D01*
X114117976Y-59391654D01*
X114135219Y-59378866D01*
X114153632Y-59367830D01*
X114173038Y-59358651D01*
X114193250Y-59351419D01*
X114214074Y-59346203D01*
X114235309Y-59343053D01*
X114256750Y-59342000D01*
X114694250Y-59342000D01*
X114715691Y-59343053D01*
X114715691Y-59343053D01*
G37*
D17*
X114475500Y-59817000D03*
D16*
G36*
X113140691Y-59343053D02*
G01*
X113161926Y-59346203D01*
X113182750Y-59351419D01*
X113202962Y-59358651D01*
X113222368Y-59367830D01*
X113240781Y-59378866D01*
X113258024Y-59391654D01*
X113273930Y-59406070D01*
X113288346Y-59421976D01*
X113301134Y-59439219D01*
X113312170Y-59457632D01*
X113321349Y-59477038D01*
X113328581Y-59497250D01*
X113333797Y-59518074D01*
X113336947Y-59539309D01*
X113338000Y-59560750D01*
X113338000Y-60073250D01*
X113336947Y-60094691D01*
X113333797Y-60115926D01*
X113328581Y-60136750D01*
X113321349Y-60156962D01*
X113312170Y-60176368D01*
X113301134Y-60194781D01*
X113288346Y-60212024D01*
X113273930Y-60227930D01*
X113258024Y-60242346D01*
X113240781Y-60255134D01*
X113222368Y-60266170D01*
X113202962Y-60275349D01*
X113182750Y-60282581D01*
X113161926Y-60287797D01*
X113140691Y-60290947D01*
X113119250Y-60292000D01*
X112681750Y-60292000D01*
X112660309Y-60290947D01*
X112639074Y-60287797D01*
X112618250Y-60282581D01*
X112598038Y-60275349D01*
X112578632Y-60266170D01*
X112560219Y-60255134D01*
X112542976Y-60242346D01*
X112527070Y-60227930D01*
X112512654Y-60212024D01*
X112499866Y-60194781D01*
X112488830Y-60176368D01*
X112479651Y-60156962D01*
X112472419Y-60136750D01*
X112467203Y-60115926D01*
X112464053Y-60094691D01*
X112463000Y-60073250D01*
X112463000Y-59560750D01*
X112464053Y-59539309D01*
X112467203Y-59518074D01*
X112472419Y-59497250D01*
X112479651Y-59477038D01*
X112488830Y-59457632D01*
X112499866Y-59439219D01*
X112512654Y-59421976D01*
X112527070Y-59406070D01*
X112542976Y-59391654D01*
X112560219Y-59378866D01*
X112578632Y-59367830D01*
X112598038Y-59358651D01*
X112618250Y-59351419D01*
X112639074Y-59346203D01*
X112660309Y-59343053D01*
X112681750Y-59342000D01*
X113119250Y-59342000D01*
X113140691Y-59343053D01*
X113140691Y-59343053D01*
G37*
D17*
X112900500Y-59817000D03*
D16*
G36*
X107848691Y-56930053D02*
G01*
X107869926Y-56933203D01*
X107890750Y-56938419D01*
X107910962Y-56945651D01*
X107930368Y-56954830D01*
X107948781Y-56965866D01*
X107966024Y-56978654D01*
X107981930Y-56993070D01*
X107996346Y-57008976D01*
X108009134Y-57026219D01*
X108020170Y-57044632D01*
X108029349Y-57064038D01*
X108036581Y-57084250D01*
X108041797Y-57105074D01*
X108044947Y-57126309D01*
X108046000Y-57147750D01*
X108046000Y-57660250D01*
X108044947Y-57681691D01*
X108041797Y-57702926D01*
X108036581Y-57723750D01*
X108029349Y-57743962D01*
X108020170Y-57763368D01*
X108009134Y-57781781D01*
X107996346Y-57799024D01*
X107981930Y-57814930D01*
X107966024Y-57829346D01*
X107948781Y-57842134D01*
X107930368Y-57853170D01*
X107910962Y-57862349D01*
X107890750Y-57869581D01*
X107869926Y-57874797D01*
X107848691Y-57877947D01*
X107827250Y-57879000D01*
X107389750Y-57879000D01*
X107368309Y-57877947D01*
X107347074Y-57874797D01*
X107326250Y-57869581D01*
X107306038Y-57862349D01*
X107286632Y-57853170D01*
X107268219Y-57842134D01*
X107250976Y-57829346D01*
X107235070Y-57814930D01*
X107220654Y-57799024D01*
X107207866Y-57781781D01*
X107196830Y-57763368D01*
X107187651Y-57743962D01*
X107180419Y-57723750D01*
X107175203Y-57702926D01*
X107172053Y-57681691D01*
X107171000Y-57660250D01*
X107171000Y-57147750D01*
X107172053Y-57126309D01*
X107175203Y-57105074D01*
X107180419Y-57084250D01*
X107187651Y-57064038D01*
X107196830Y-57044632D01*
X107207866Y-57026219D01*
X107220654Y-57008976D01*
X107235070Y-56993070D01*
X107250976Y-56978654D01*
X107268219Y-56965866D01*
X107286632Y-56954830D01*
X107306038Y-56945651D01*
X107326250Y-56938419D01*
X107347074Y-56933203D01*
X107368309Y-56930053D01*
X107389750Y-56929000D01*
X107827250Y-56929000D01*
X107848691Y-56930053D01*
X107848691Y-56930053D01*
G37*
D17*
X107608500Y-57404000D03*
D16*
G36*
X106273691Y-56930053D02*
G01*
X106294926Y-56933203D01*
X106315750Y-56938419D01*
X106335962Y-56945651D01*
X106355368Y-56954830D01*
X106373781Y-56965866D01*
X106391024Y-56978654D01*
X106406930Y-56993070D01*
X106421346Y-57008976D01*
X106434134Y-57026219D01*
X106445170Y-57044632D01*
X106454349Y-57064038D01*
X106461581Y-57084250D01*
X106466797Y-57105074D01*
X106469947Y-57126309D01*
X106471000Y-57147750D01*
X106471000Y-57660250D01*
X106469947Y-57681691D01*
X106466797Y-57702926D01*
X106461581Y-57723750D01*
X106454349Y-57743962D01*
X106445170Y-57763368D01*
X106434134Y-57781781D01*
X106421346Y-57799024D01*
X106406930Y-57814930D01*
X106391024Y-57829346D01*
X106373781Y-57842134D01*
X106355368Y-57853170D01*
X106335962Y-57862349D01*
X106315750Y-57869581D01*
X106294926Y-57874797D01*
X106273691Y-57877947D01*
X106252250Y-57879000D01*
X105814750Y-57879000D01*
X105793309Y-57877947D01*
X105772074Y-57874797D01*
X105751250Y-57869581D01*
X105731038Y-57862349D01*
X105711632Y-57853170D01*
X105693219Y-57842134D01*
X105675976Y-57829346D01*
X105660070Y-57814930D01*
X105645654Y-57799024D01*
X105632866Y-57781781D01*
X105621830Y-57763368D01*
X105612651Y-57743962D01*
X105605419Y-57723750D01*
X105600203Y-57702926D01*
X105597053Y-57681691D01*
X105596000Y-57660250D01*
X105596000Y-57147750D01*
X105597053Y-57126309D01*
X105600203Y-57105074D01*
X105605419Y-57084250D01*
X105612651Y-57064038D01*
X105621830Y-57044632D01*
X105632866Y-57026219D01*
X105645654Y-57008976D01*
X105660070Y-56993070D01*
X105675976Y-56978654D01*
X105693219Y-56965866D01*
X105711632Y-56954830D01*
X105731038Y-56945651D01*
X105751250Y-56938419D01*
X105772074Y-56933203D01*
X105793309Y-56930053D01*
X105814750Y-56929000D01*
X106252250Y-56929000D01*
X106273691Y-56930053D01*
X106273691Y-56930053D01*
G37*
D17*
X106033500Y-57404000D03*
D16*
G36*
X109739691Y-64296053D02*
G01*
X109760926Y-64299203D01*
X109781750Y-64304419D01*
X109801962Y-64311651D01*
X109821368Y-64320830D01*
X109839781Y-64331866D01*
X109857024Y-64344654D01*
X109872930Y-64359070D01*
X109887346Y-64374976D01*
X109900134Y-64392219D01*
X109911170Y-64410632D01*
X109920349Y-64430038D01*
X109927581Y-64450250D01*
X109932797Y-64471074D01*
X109935947Y-64492309D01*
X109937000Y-64513750D01*
X109937000Y-65026250D01*
X109935947Y-65047691D01*
X109932797Y-65068926D01*
X109927581Y-65089750D01*
X109920349Y-65109962D01*
X109911170Y-65129368D01*
X109900134Y-65147781D01*
X109887346Y-65165024D01*
X109872930Y-65180930D01*
X109857024Y-65195346D01*
X109839781Y-65208134D01*
X109821368Y-65219170D01*
X109801962Y-65228349D01*
X109781750Y-65235581D01*
X109760926Y-65240797D01*
X109739691Y-65243947D01*
X109718250Y-65245000D01*
X109280750Y-65245000D01*
X109259309Y-65243947D01*
X109238074Y-65240797D01*
X109217250Y-65235581D01*
X109197038Y-65228349D01*
X109177632Y-65219170D01*
X109159219Y-65208134D01*
X109141976Y-65195346D01*
X109126070Y-65180930D01*
X109111654Y-65165024D01*
X109098866Y-65147781D01*
X109087830Y-65129368D01*
X109078651Y-65109962D01*
X109071419Y-65089750D01*
X109066203Y-65068926D01*
X109063053Y-65047691D01*
X109062000Y-65026250D01*
X109062000Y-64513750D01*
X109063053Y-64492309D01*
X109066203Y-64471074D01*
X109071419Y-64450250D01*
X109078651Y-64430038D01*
X109087830Y-64410632D01*
X109098866Y-64392219D01*
X109111654Y-64374976D01*
X109126070Y-64359070D01*
X109141976Y-64344654D01*
X109159219Y-64331866D01*
X109177632Y-64320830D01*
X109197038Y-64311651D01*
X109217250Y-64304419D01*
X109238074Y-64299203D01*
X109259309Y-64296053D01*
X109280750Y-64295000D01*
X109718250Y-64295000D01*
X109739691Y-64296053D01*
X109739691Y-64296053D01*
G37*
D17*
X109499500Y-64770000D03*
D16*
G36*
X108164691Y-64296053D02*
G01*
X108185926Y-64299203D01*
X108206750Y-64304419D01*
X108226962Y-64311651D01*
X108246368Y-64320830D01*
X108264781Y-64331866D01*
X108282024Y-64344654D01*
X108297930Y-64359070D01*
X108312346Y-64374976D01*
X108325134Y-64392219D01*
X108336170Y-64410632D01*
X108345349Y-64430038D01*
X108352581Y-64450250D01*
X108357797Y-64471074D01*
X108360947Y-64492309D01*
X108362000Y-64513750D01*
X108362000Y-65026250D01*
X108360947Y-65047691D01*
X108357797Y-65068926D01*
X108352581Y-65089750D01*
X108345349Y-65109962D01*
X108336170Y-65129368D01*
X108325134Y-65147781D01*
X108312346Y-65165024D01*
X108297930Y-65180930D01*
X108282024Y-65195346D01*
X108264781Y-65208134D01*
X108246368Y-65219170D01*
X108226962Y-65228349D01*
X108206750Y-65235581D01*
X108185926Y-65240797D01*
X108164691Y-65243947D01*
X108143250Y-65245000D01*
X107705750Y-65245000D01*
X107684309Y-65243947D01*
X107663074Y-65240797D01*
X107642250Y-65235581D01*
X107622038Y-65228349D01*
X107602632Y-65219170D01*
X107584219Y-65208134D01*
X107566976Y-65195346D01*
X107551070Y-65180930D01*
X107536654Y-65165024D01*
X107523866Y-65147781D01*
X107512830Y-65129368D01*
X107503651Y-65109962D01*
X107496419Y-65089750D01*
X107491203Y-65068926D01*
X107488053Y-65047691D01*
X107487000Y-65026250D01*
X107487000Y-64513750D01*
X107488053Y-64492309D01*
X107491203Y-64471074D01*
X107496419Y-64450250D01*
X107503651Y-64430038D01*
X107512830Y-64410632D01*
X107523866Y-64392219D01*
X107536654Y-64374976D01*
X107551070Y-64359070D01*
X107566976Y-64344654D01*
X107584219Y-64331866D01*
X107602632Y-64320830D01*
X107622038Y-64311651D01*
X107642250Y-64304419D01*
X107663074Y-64299203D01*
X107684309Y-64296053D01*
X107705750Y-64295000D01*
X108143250Y-64295000D01*
X108164691Y-64296053D01*
X108164691Y-64296053D01*
G37*
D17*
X107924500Y-64770000D03*
D16*
G36*
X107848691Y-58454053D02*
G01*
X107869926Y-58457203D01*
X107890750Y-58462419D01*
X107910962Y-58469651D01*
X107930368Y-58478830D01*
X107948781Y-58489866D01*
X107966024Y-58502654D01*
X107981930Y-58517070D01*
X107996346Y-58532976D01*
X108009134Y-58550219D01*
X108020170Y-58568632D01*
X108029349Y-58588038D01*
X108036581Y-58608250D01*
X108041797Y-58629074D01*
X108044947Y-58650309D01*
X108046000Y-58671750D01*
X108046000Y-59184250D01*
X108044947Y-59205691D01*
X108041797Y-59226926D01*
X108036581Y-59247750D01*
X108029349Y-59267962D01*
X108020170Y-59287368D01*
X108009134Y-59305781D01*
X107996346Y-59323024D01*
X107981930Y-59338930D01*
X107966024Y-59353346D01*
X107948781Y-59366134D01*
X107930368Y-59377170D01*
X107910962Y-59386349D01*
X107890750Y-59393581D01*
X107869926Y-59398797D01*
X107848691Y-59401947D01*
X107827250Y-59403000D01*
X107389750Y-59403000D01*
X107368309Y-59401947D01*
X107347074Y-59398797D01*
X107326250Y-59393581D01*
X107306038Y-59386349D01*
X107286632Y-59377170D01*
X107268219Y-59366134D01*
X107250976Y-59353346D01*
X107235070Y-59338930D01*
X107220654Y-59323024D01*
X107207866Y-59305781D01*
X107196830Y-59287368D01*
X107187651Y-59267962D01*
X107180419Y-59247750D01*
X107175203Y-59226926D01*
X107172053Y-59205691D01*
X107171000Y-59184250D01*
X107171000Y-58671750D01*
X107172053Y-58650309D01*
X107175203Y-58629074D01*
X107180419Y-58608250D01*
X107187651Y-58588038D01*
X107196830Y-58568632D01*
X107207866Y-58550219D01*
X107220654Y-58532976D01*
X107235070Y-58517070D01*
X107250976Y-58502654D01*
X107268219Y-58489866D01*
X107286632Y-58478830D01*
X107306038Y-58469651D01*
X107326250Y-58462419D01*
X107347074Y-58457203D01*
X107368309Y-58454053D01*
X107389750Y-58453000D01*
X107827250Y-58453000D01*
X107848691Y-58454053D01*
X107848691Y-58454053D01*
G37*
D17*
X107608500Y-58928000D03*
D16*
G36*
X106273691Y-58454053D02*
G01*
X106294926Y-58457203D01*
X106315750Y-58462419D01*
X106335962Y-58469651D01*
X106355368Y-58478830D01*
X106373781Y-58489866D01*
X106391024Y-58502654D01*
X106406930Y-58517070D01*
X106421346Y-58532976D01*
X106434134Y-58550219D01*
X106445170Y-58568632D01*
X106454349Y-58588038D01*
X106461581Y-58608250D01*
X106466797Y-58629074D01*
X106469947Y-58650309D01*
X106471000Y-58671750D01*
X106471000Y-59184250D01*
X106469947Y-59205691D01*
X106466797Y-59226926D01*
X106461581Y-59247750D01*
X106454349Y-59267962D01*
X106445170Y-59287368D01*
X106434134Y-59305781D01*
X106421346Y-59323024D01*
X106406930Y-59338930D01*
X106391024Y-59353346D01*
X106373781Y-59366134D01*
X106355368Y-59377170D01*
X106335962Y-59386349D01*
X106315750Y-59393581D01*
X106294926Y-59398797D01*
X106273691Y-59401947D01*
X106252250Y-59403000D01*
X105814750Y-59403000D01*
X105793309Y-59401947D01*
X105772074Y-59398797D01*
X105751250Y-59393581D01*
X105731038Y-59386349D01*
X105711632Y-59377170D01*
X105693219Y-59366134D01*
X105675976Y-59353346D01*
X105660070Y-59338930D01*
X105645654Y-59323024D01*
X105632866Y-59305781D01*
X105621830Y-59287368D01*
X105612651Y-59267962D01*
X105605419Y-59247750D01*
X105600203Y-59226926D01*
X105597053Y-59205691D01*
X105596000Y-59184250D01*
X105596000Y-58671750D01*
X105597053Y-58650309D01*
X105600203Y-58629074D01*
X105605419Y-58608250D01*
X105612651Y-58588038D01*
X105621830Y-58568632D01*
X105632866Y-58550219D01*
X105645654Y-58532976D01*
X105660070Y-58517070D01*
X105675976Y-58502654D01*
X105693219Y-58489866D01*
X105711632Y-58478830D01*
X105731038Y-58469651D01*
X105751250Y-58462419D01*
X105772074Y-58457203D01*
X105793309Y-58454053D01*
X105814750Y-58453000D01*
X106252250Y-58453000D01*
X106273691Y-58454053D01*
X106273691Y-58454053D01*
G37*
D17*
X106033500Y-58928000D03*
D18*
X103124000Y-53213000D03*
X104074000Y-53213000D03*
X102174000Y-53213000D03*
X102174000Y-55413000D03*
X103124000Y-55413000D03*
X104074000Y-55413000D03*
D19*
X112481000Y-63168000D03*
X114681000Y-63168000D03*
X114681000Y-61468000D03*
X112481000Y-61468000D03*
D20*
X88900000Y-55755000D03*
X88900000Y-59055000D03*
D21*
X85979000Y-62230000D03*
X85979000Y-67818000D03*
X89789000Y-62230000D03*
X89789000Y-67818000D03*
D22*
X89408000Y-80772000D03*
X89408000Y-78232000D03*
X86868000Y-80772000D03*
X86868000Y-78232000D03*
X84328000Y-80772000D03*
D23*
X84328000Y-78232000D03*
D24*
X92329000Y-57785000D03*
X95629000Y-57785000D03*
D25*
X113665000Y-67945000D03*
X107315000Y-70485000D03*
D26*
X104533500Y-60769500D03*
X103733500Y-60769500D03*
X102933500Y-60769500D03*
X102133500Y-60769500D03*
X101333500Y-60769500D03*
X100533500Y-60769500D03*
X99733500Y-60769500D03*
X98933500Y-60769500D03*
D27*
X97483500Y-62219500D03*
X97483500Y-63019500D03*
X97483500Y-63819500D03*
X97483500Y-64619500D03*
X97483500Y-65419500D03*
X97483500Y-66219500D03*
X97483500Y-67019500D03*
X97483500Y-67819500D03*
D26*
X98933500Y-69269500D03*
X99733500Y-69269500D03*
X100533500Y-69269500D03*
X101333500Y-69269500D03*
X102133500Y-69269500D03*
X102933500Y-69269500D03*
X103733500Y-69269500D03*
X104533500Y-69269500D03*
D27*
X105983500Y-67819500D03*
X105983500Y-67019500D03*
X105983500Y-66219500D03*
X105983500Y-65419500D03*
X105983500Y-64619500D03*
X105983500Y-63819500D03*
X105983500Y-63019500D03*
X105983500Y-62219500D03*
D24*
X113666000Y-56896000D03*
X116966000Y-56896000D03*
D25*
X94615000Y-48895000D03*
X88265000Y-51435000D03*
X113665000Y-48895000D03*
X107315000Y-51435000D03*
D20*
X94615000Y-75692000D03*
X94615000Y-78992000D03*
X151765000Y-56642000D03*
X151765000Y-59942000D03*
D25*
X132715000Y-125095000D03*
X126365000Y-127635000D03*
X104140000Y-125095000D03*
X97790000Y-127635000D03*
X144145000Y-118110000D03*
X146685000Y-124460000D03*
X132715000Y-106045000D03*
X126365000Y-108585000D03*
X113665000Y-106045000D03*
X107315000Y-108585000D03*
X94615000Y-106045000D03*
X88265000Y-108585000D03*
X132715000Y-86995000D03*
X126365000Y-89535000D03*
X113665000Y-86995000D03*
X107315000Y-89535000D03*
X94615000Y-86995000D03*
X88265000Y-89535000D03*
X144145000Y-80010000D03*
X146685000Y-86360000D03*
X132715000Y-67945000D03*
X126365000Y-70485000D03*
X94615000Y-67945000D03*
X88265000Y-70485000D03*
X151765000Y-48895000D03*
X145415000Y-51435000D03*
X132715000Y-48895000D03*
X126365000Y-51435000D03*
D20*
X132715000Y-122680000D03*
X132715000Y-119380000D03*
X104140000Y-122680000D03*
X104140000Y-119380000D03*
D24*
X140079000Y-117094000D03*
X136779000Y-117094000D03*
D20*
X132715000Y-113794000D03*
X132715000Y-117094000D03*
X113665000Y-113793000D03*
X113665000Y-117093000D03*
X94615000Y-113792000D03*
X94615000Y-117092000D03*
X132715000Y-94743000D03*
X132715000Y-98043000D03*
X113665000Y-94744000D03*
X113665000Y-98044000D03*
X94616000Y-94743000D03*
X94616000Y-98043000D03*
D24*
X140080000Y-78994000D03*
X136780000Y-78994000D03*
D20*
X132715000Y-75692000D03*
X132715000Y-78992000D03*
X113665000Y-75692000D03*
X113665000Y-78992000D03*
X132715000Y-56642000D03*
X132715000Y-59942000D03*
D28*
X98933000Y-62230000D03*
X105537000Y-61214000D03*
X91694000Y-58928000D03*
X97409000Y-59309000D03*
X113665000Y-73660000D03*
X115697000Y-67945000D03*
X102933500Y-78486000D03*
X102869998Y-98043000D03*
X103695500Y-117094000D03*
X103733600Y-78486000D03*
X104330500Y-117856000D03*
X104546400Y-78486000D03*
X113030004Y-51435000D03*
X107569000Y-63754000D03*
X110998000Y-59817000D03*
X116205000Y-59817000D03*
X116205000Y-65532000D03*
X110998000Y-65532000D03*
X116205000Y-62484000D03*
X110998000Y-62484000D03*
X91948000Y-66929000D03*
X108839000Y-57404000D03*
X108839000Y-58928000D03*
X109601000Y-63754000D03*
X101219000Y-74041000D03*
X101346000Y-62103000D03*
X91948000Y-69088000D03*
X104902000Y-50927000D03*
X98171000Y-49149000D03*
X100584000Y-52705000D03*
X100584000Y-57150002D03*
X101473000Y-54610000D03*
X92329000Y-59817004D03*
X89916000Y-69469000D03*
X93726000Y-61086992D03*
D29*
X103733500Y-63423500D02*
X103733500Y-60769500D01*
X104929499Y-64619499D02*
X103733500Y-63423500D01*
X105983500Y-64619500D02*
X104929499Y-64619499D01*
X95631000Y-60466000D02*
X95631000Y-57787000D01*
X82804000Y-79248000D02*
X82804000Y-62738000D01*
X85076000Y-60466000D02*
X92031076Y-60466000D01*
X92594922Y-60498002D02*
X92626924Y-60466000D01*
X92031076Y-60466000D02*
X92063078Y-60498002D01*
X92626924Y-60466000D02*
X95631000Y-60466000D01*
X92063078Y-60498002D02*
X92594922Y-60498002D01*
X84328000Y-80772000D02*
X82804000Y-79248000D01*
X82804000Y-62738000D02*
X85076000Y-60466000D01*
X103124000Y-53997000D02*
X103124000Y-53213000D01*
X103970203Y-53997001D02*
X103124000Y-53997000D01*
X104775000Y-54801798D02*
X103970203Y-53997001D01*
X107686500Y-64619500D02*
X107837000Y-64770000D01*
X105983500Y-64619500D02*
X107686500Y-64619500D01*
X104775000Y-54801798D02*
X104775000Y-57277000D01*
X101215499Y-53997001D02*
X101215500Y-53997000D01*
X103124000Y-53997000D02*
X101215499Y-53997001D01*
D30*
X112481000Y-60666000D02*
X112481000Y-61468000D01*
X113203000Y-59944000D02*
X112481000Y-60666000D01*
X109611500Y-62219500D02*
X105983500Y-62219500D01*
X110363000Y-61468000D02*
X109611500Y-62219500D01*
X112481000Y-61468000D02*
X110363000Y-61468000D01*
X109628500Y-63019500D02*
X105983500Y-63019500D01*
X114681000Y-64629000D02*
X114540000Y-64770000D01*
X114681000Y-63168000D02*
X114681000Y-64629000D01*
X112141000Y-65532000D02*
X109628500Y-63019500D01*
X113778000Y-65532000D02*
X112141000Y-65532000D01*
X114540000Y-64770000D02*
X113778000Y-65532000D01*
X100533500Y-59766500D02*
X99695000Y-58928000D01*
X100533500Y-60769500D02*
X100533500Y-59766500D01*
X151765000Y-59942000D02*
X132715000Y-59942000D01*
X121410000Y-59942000D02*
X132715000Y-59942000D01*
X118364000Y-56896000D02*
X121410000Y-59942000D01*
X116966000Y-56896000D02*
X118364000Y-56896000D01*
X98933000Y-62230000D02*
X98933000Y-60770000D01*
X115500000Y-57785000D02*
X116389000Y-56896000D01*
X107315000Y-61214000D02*
X110744000Y-57785000D01*
X116389000Y-56896000D02*
X116966000Y-56896000D01*
X110744000Y-57785000D02*
X115500000Y-57785000D01*
X105537000Y-61214000D02*
X107315000Y-61214000D01*
X91567000Y-59055000D02*
X91694000Y-58928000D01*
X88900000Y-59055000D02*
X91567000Y-59055000D01*
X98344500Y-60244500D02*
X97409000Y-59309000D01*
X98933500Y-60244500D02*
X98344500Y-60244500D01*
X94615000Y-67945000D02*
X94615000Y-75692000D01*
X132715000Y-78992000D02*
X113665000Y-78992000D01*
X136778000Y-78992000D02*
X136780000Y-78994000D01*
X132715000Y-78992000D02*
X136778000Y-78992000D01*
X102160800Y-78992000D02*
X94615000Y-78992000D01*
X94765000Y-78992000D02*
X94615000Y-78992000D01*
X102133500Y-78964700D02*
X102160800Y-78992000D01*
X102133500Y-69269500D02*
X102133500Y-78964700D01*
X113665000Y-78992000D02*
X102160800Y-78992000D01*
X113665000Y-73660000D02*
X113665000Y-75692000D01*
X113665000Y-67945000D02*
X115697000Y-67945000D01*
X132715000Y-67945000D02*
X132715000Y-75692000D01*
X143129000Y-78994000D02*
X144145000Y-80010000D01*
X140080000Y-78994000D02*
X143129000Y-78994000D01*
X94615000Y-94742000D02*
X94616000Y-94743000D01*
X94615000Y-86995000D02*
X94615000Y-94742000D01*
X132714000Y-98044000D02*
X132715000Y-98043000D01*
X113665000Y-98044000D02*
X132714000Y-98044000D01*
X102933500Y-69269500D02*
X102933500Y-78486000D01*
X94616000Y-98043000D02*
X102869998Y-98043000D01*
X102870998Y-98044000D02*
X102869998Y-98043000D01*
X113665000Y-98044000D02*
X102870998Y-98044000D01*
X113665000Y-94744000D02*
X113665000Y-86995000D01*
X132715000Y-94743000D02*
X132715000Y-86995000D01*
X94615000Y-106045000D02*
X94615000Y-113792000D01*
X132714000Y-117093000D02*
X132715000Y-117094000D01*
X113665000Y-117093000D02*
X132714000Y-117093000D01*
X132715000Y-117094000D02*
X136779000Y-117094000D01*
X94615000Y-117092000D02*
X100093490Y-117092000D01*
X100094490Y-117093000D02*
X100095490Y-117094000D01*
X113665000Y-117093000D02*
X103696500Y-117093000D01*
X100095490Y-117094000D02*
X103695500Y-117094000D01*
X103696500Y-117093000D02*
X103695500Y-117094000D01*
X103733500Y-69269500D02*
X103733500Y-78485900D01*
X103733500Y-78485900D02*
X103733600Y-78486000D01*
X113665000Y-106045000D02*
X113665000Y-113793000D01*
X132715000Y-113794000D02*
X132715000Y-106045000D01*
X143129000Y-117094000D02*
X144145000Y-118110000D01*
X140079000Y-117094000D02*
X143129000Y-117094000D01*
X104140000Y-122680000D02*
X104140000Y-125095000D01*
X132715000Y-119380000D02*
X104140000Y-119380000D01*
X104140000Y-119380000D02*
X104140000Y-118046500D01*
X104140000Y-118046500D02*
X104330500Y-117856000D01*
X104533500Y-78473100D02*
X104546400Y-78486000D01*
X104533500Y-69269500D02*
X104533500Y-78473100D01*
X132715000Y-125095000D02*
X132715000Y-122680000D01*
D29*
X103695989Y-47081989D02*
X99504011Y-47081989D01*
X103950000Y-47336000D02*
X103695989Y-47081989D01*
X99250000Y-47336000D02*
X99250000Y-48090000D01*
X99504011Y-47081989D02*
X99250000Y-47336000D01*
X103950000Y-48090000D02*
X103950000Y-47336000D01*
X99060000Y-50266500D02*
X99060000Y-49276000D01*
X99250000Y-49086000D02*
X99250000Y-48090000D01*
X99060000Y-49276000D02*
X99250000Y-49086000D01*
D30*
X89789000Y-70485000D02*
X95758000Y-64516000D01*
X88265000Y-70485000D02*
X89789000Y-70485000D01*
X96556500Y-63019500D02*
X97483500Y-63019500D01*
X95758000Y-63818000D02*
X96556500Y-63019500D01*
X95758000Y-64516000D02*
X95758000Y-63818000D01*
X107315000Y-51435000D02*
X113030004Y-51435000D01*
X105983500Y-67819500D02*
X107059500Y-67819500D01*
X107315000Y-68075000D02*
X107315000Y-70485000D01*
X107059500Y-67819500D02*
X107315000Y-68075000D01*
X110376000Y-70485000D02*
X126365000Y-70485000D01*
X106910500Y-67019500D02*
X110376000Y-70485000D01*
X105983500Y-67019500D02*
X106910500Y-67019500D01*
X106910500Y-66219500D02*
X105983500Y-66219500D01*
X110668000Y-69977000D02*
X106910500Y-66219500D01*
X133307471Y-66548000D02*
X127889000Y-66548000D01*
X127889000Y-66548000D02*
X124460000Y-69977000D01*
X146685000Y-79925529D02*
X133307471Y-66548000D01*
X124460000Y-69977000D02*
X110668000Y-69977000D01*
X146685000Y-86360000D02*
X146685000Y-79925529D01*
X102850000Y-48748000D02*
X102850000Y-48090000D01*
X103378000Y-49276000D02*
X102850000Y-48748000D01*
X103378000Y-49911000D02*
X103378000Y-49276000D01*
X100584000Y-49451000D02*
X100584000Y-50266500D01*
X99850000Y-48717000D02*
X100584000Y-49451000D01*
X99850000Y-48090000D02*
X99850000Y-48717000D01*
X102362000Y-55601000D02*
X102174000Y-55413000D01*
X102174000Y-55413000D02*
X102174000Y-56971000D01*
X102174000Y-56971000D02*
X101981000Y-57164000D01*
X103886000Y-55601000D02*
X104074000Y-55413000D01*
X103886000Y-56910000D02*
X103886000Y-55601000D01*
X103632000Y-57164000D02*
X103886000Y-56910000D01*
X101333500Y-71132500D02*
X101219000Y-71247000D01*
X101333500Y-69269500D02*
X101333500Y-71132500D01*
X101350000Y-48090000D02*
X101850000Y-48090000D01*
X102997000Y-52185000D02*
X102997000Y-51868606D01*
X102174000Y-53213000D02*
X102174000Y-53008000D01*
X102174000Y-53008000D02*
X102997000Y-52185000D01*
X101973000Y-48963001D02*
X101850000Y-48840001D01*
X101850000Y-48840001D02*
X101850000Y-48090000D01*
X101973000Y-50844606D02*
X101973000Y-48963001D01*
X102997000Y-51868606D02*
X101973000Y-50844606D01*
X102350000Y-47463000D02*
X102350000Y-48090000D01*
X100913501Y-47399499D02*
X102286499Y-47399499D01*
X100850000Y-47463000D02*
X100913501Y-47399499D01*
X102286499Y-47399499D02*
X102350000Y-47463000D01*
X100850000Y-48090000D02*
X100850000Y-47463000D01*
X103251000Y-52185000D02*
X103251000Y-51763394D01*
X104074000Y-53213000D02*
X104074000Y-53008000D01*
X104074000Y-53008000D02*
X103251000Y-52185000D01*
X102227000Y-48963001D02*
X102350000Y-48840001D01*
X102227000Y-50739394D02*
X102227000Y-48963001D01*
X103251000Y-51763394D02*
X102227000Y-50739394D01*
X102350000Y-48840001D02*
X102350000Y-48090000D01*
X102133500Y-59066500D02*
X101981000Y-58914000D01*
X102133500Y-60769500D02*
X102133500Y-59066500D01*
X102933500Y-59612500D02*
X103632000Y-58914000D01*
X102933500Y-60769500D02*
X102933500Y-59612500D01*
D29*
X105983500Y-63819500D02*
X107503500Y-63819500D01*
X107503500Y-63819500D02*
X107569000Y-63754000D01*
X91948000Y-65786000D02*
X91948000Y-66929000D01*
X91059000Y-67818000D02*
X91948000Y-66929000D01*
X89789000Y-67818000D02*
X91059000Y-67818000D01*
X107696000Y-57404000D02*
X108839000Y-57404000D01*
X107696000Y-58928000D02*
X108839000Y-58928000D01*
X109587000Y-63768000D02*
X109601000Y-63754000D01*
X109587000Y-64770000D02*
X109587000Y-63768000D01*
X101219000Y-72997000D02*
X101219000Y-74041000D01*
X101333500Y-62090500D02*
X101346000Y-62103000D01*
X101333500Y-60769500D02*
X101333500Y-62090500D01*
X104953000Y-49911000D02*
X104953000Y-49200000D01*
X104700000Y-48947000D02*
X104700000Y-48090000D01*
X104953000Y-49200000D02*
X104700000Y-48947000D01*
X104953000Y-50876000D02*
X104902000Y-50927000D01*
X104953000Y-49911000D02*
X104953000Y-50876000D01*
X98500000Y-48820000D02*
X98171000Y-49149000D01*
X98500000Y-48090000D02*
X98500000Y-48820000D01*
X100584000Y-51841500D02*
X100584000Y-52705000D01*
X99695000Y-57178000D02*
X99722998Y-57150002D01*
X100159736Y-57150002D02*
X100584000Y-57150002D01*
X99722998Y-57150002D02*
X100159736Y-57150002D01*
X103124000Y-55413000D02*
X103123999Y-54628999D01*
X103105000Y-54610000D02*
X101897264Y-54610000D01*
X101897264Y-54610000D02*
X101473000Y-54610000D01*
X103123999Y-54628999D02*
X103105000Y-54610000D01*
D30*
X95617000Y-62230000D02*
X95631000Y-62216000D01*
X93735000Y-62230000D02*
X95617000Y-62230000D01*
X92682000Y-64036000D02*
X91948000Y-64036000D01*
X92329000Y-57785000D02*
X92329000Y-59817004D01*
X95634500Y-62219500D02*
X95631000Y-62216000D01*
X97483500Y-62219500D02*
X95634500Y-62219500D01*
X93735000Y-62983000D02*
X92682000Y-64036000D01*
X93735000Y-65867942D02*
X93735000Y-62983000D01*
X90433941Y-69169001D02*
X93735000Y-65867942D01*
X90215999Y-69169001D02*
X90433941Y-69169001D01*
X89916000Y-69469000D02*
X90215999Y-69169001D01*
X93735000Y-62983000D02*
X93735000Y-62230000D01*
X93735000Y-62230000D02*
X93735000Y-61095992D01*
X93735000Y-61095992D02*
X93726000Y-61086992D01*
X94615000Y-48895000D02*
X93024010Y-48895000D01*
X88900000Y-53019010D02*
X93024010Y-48895000D01*
X88900000Y-55755000D02*
X88900000Y-53019010D01*
X113665000Y-48895000D02*
X113665000Y-56642000D01*
X132715000Y-56642000D02*
X132715000Y-48895000D01*
X151765000Y-48895000D02*
X151765000Y-56642000D01*
X98933500Y-74548500D02*
X98933500Y-69269500D01*
X96774000Y-76708000D02*
X98933500Y-74548500D01*
X86733029Y-76708000D02*
X96774000Y-76708000D01*
X85725000Y-77716029D02*
X86733029Y-76708000D01*
X85725000Y-79629000D02*
X85725000Y-77716029D01*
X86868000Y-80772000D02*
X85725000Y-79629000D01*
X99733500Y-70196500D02*
X99733500Y-69269500D01*
X99441000Y-74400224D02*
X99441000Y-70489000D01*
X96879224Y-76962000D02*
X99441000Y-74400224D01*
X88138000Y-76962000D02*
X96879224Y-76962000D01*
X99441000Y-70489000D02*
X99733500Y-70196500D01*
X86868000Y-78232000D02*
X88138000Y-76962000D01*
X97483500Y-69543500D02*
X97483500Y-67819500D01*
X98425000Y-70485000D02*
X97483500Y-69543500D01*
X85129000Y-76454000D02*
X96647000Y-76454000D01*
X98425000Y-74676000D02*
X98425000Y-70485000D01*
X84328000Y-77255000D02*
X85129000Y-76454000D01*
X96647000Y-76454000D02*
X98425000Y-74676000D01*
X84328000Y-78232000D02*
X84328000Y-77255000D01*
X91985000Y-62230000D02*
X89789000Y-62230000D01*
D29*
G36*
X116713000Y-66040000D02*
G01*
X110490000Y-66040000D01*
X110490000Y-64330012D01*
X111905463Y-65745476D01*
X111915407Y-65757593D01*
X111963752Y-65797268D01*
X111963753Y-65797269D01*
X112018910Y-65826751D01*
X112078759Y-65844906D01*
X112141000Y-65851036D01*
X112156596Y-65849500D01*
X113762404Y-65849500D01*
X113778000Y-65851036D01*
X113793596Y-65849500D01*
X113840241Y-65844906D01*
X113900090Y-65826751D01*
X113955247Y-65797269D01*
X114003593Y-65757593D01*
X114013542Y-65745470D01*
X114258784Y-65500228D01*
X114671250Y-65500228D01*
X114763719Y-65491121D01*
X114852634Y-65464149D01*
X114934578Y-65420348D01*
X115006403Y-65361403D01*
X115065348Y-65289578D01*
X115109149Y-65207634D01*
X115136121Y-65118719D01*
X115145228Y-65026250D01*
X115145228Y-64513750D01*
X115136121Y-64421281D01*
X115109149Y-64332366D01*
X115065348Y-64250422D01*
X115006403Y-64178597D01*
X114998500Y-64172111D01*
X114998500Y-64023228D01*
X115381000Y-64023228D01*
X115430793Y-64018324D01*
X115478672Y-64003800D01*
X115522797Y-63980214D01*
X115561473Y-63948473D01*
X115593214Y-63909797D01*
X115616800Y-63865672D01*
X115631324Y-63817793D01*
X115636228Y-63768000D01*
X115636228Y-62568000D01*
X115631324Y-62518207D01*
X115616800Y-62470328D01*
X115593214Y-62426203D01*
X115561473Y-62387527D01*
X115522797Y-62355786D01*
X115478672Y-62332200D01*
X115430793Y-62317676D01*
X115381000Y-62312772D01*
X113981000Y-62312772D01*
X113931207Y-62317676D01*
X113883328Y-62332200D01*
X113839203Y-62355786D01*
X113800527Y-62387527D01*
X113768786Y-62426203D01*
X113745200Y-62470328D01*
X113730676Y-62518207D01*
X113725772Y-62568000D01*
X113725772Y-63768000D01*
X113730676Y-63817793D01*
X113745200Y-63865672D01*
X113768786Y-63909797D01*
X113800527Y-63948473D01*
X113839203Y-63980214D01*
X113883328Y-64003800D01*
X113931207Y-64018324D01*
X113981000Y-64023228D01*
X114363501Y-64023228D01*
X114363501Y-64039772D01*
X114233750Y-64039772D01*
X114141281Y-64048879D01*
X114052366Y-64075851D01*
X113970422Y-64119652D01*
X113898597Y-64178597D01*
X113839652Y-64250422D01*
X113795851Y-64332366D01*
X113768879Y-64421281D01*
X113759772Y-64513750D01*
X113759772Y-65026250D01*
X113766493Y-65094495D01*
X113646488Y-65214500D01*
X112272513Y-65214500D01*
X110490000Y-63431988D01*
X110490000Y-61790013D01*
X110494513Y-61785500D01*
X111525772Y-61785500D01*
X111525772Y-62068000D01*
X111530676Y-62117793D01*
X111545200Y-62165672D01*
X111568786Y-62209797D01*
X111600527Y-62248473D01*
X111639203Y-62280214D01*
X111683328Y-62303800D01*
X111731207Y-62318324D01*
X111781000Y-62323228D01*
X113181000Y-62323228D01*
X113230793Y-62318324D01*
X113278672Y-62303800D01*
X113322797Y-62280214D01*
X113361473Y-62248473D01*
X113393214Y-62209797D01*
X113416800Y-62165672D01*
X113431324Y-62117793D01*
X113436228Y-62068000D01*
X113436228Y-60868000D01*
X113431324Y-60818207D01*
X113416800Y-60770328D01*
X113393214Y-60726203D01*
X113361473Y-60687527D01*
X113322797Y-60655786D01*
X113278672Y-60632200D01*
X113230793Y-60617676D01*
X113181000Y-60612772D01*
X112983240Y-60612772D01*
X113048784Y-60547228D01*
X113119250Y-60547228D01*
X113211719Y-60538121D01*
X113300634Y-60511149D01*
X113382578Y-60467348D01*
X113454403Y-60408403D01*
X113513348Y-60336578D01*
X113557149Y-60254634D01*
X113584121Y-60165719D01*
X113593228Y-60073250D01*
X113593228Y-59560750D01*
X113584121Y-59468281D01*
X113557149Y-59379366D01*
X113513348Y-59297422D01*
X113454403Y-59225597D01*
X113382578Y-59166652D01*
X113300634Y-59122851D01*
X113211719Y-59095879D01*
X113119250Y-59086772D01*
X112681750Y-59086772D01*
X112589281Y-59095879D01*
X112500366Y-59122851D01*
X112418422Y-59166652D01*
X112346597Y-59225597D01*
X112287652Y-59297422D01*
X112243851Y-59379366D01*
X112216879Y-59468281D01*
X112207772Y-59560750D01*
X112207772Y-60073250D01*
X112216879Y-60165719D01*
X112243851Y-60254634D01*
X112287652Y-60336578D01*
X112320899Y-60377089D01*
X112267530Y-60430458D01*
X112255407Y-60440407D01*
X112215731Y-60488754D01*
X112203761Y-60511149D01*
X112186249Y-60543911D01*
X112168094Y-60603760D01*
X112167206Y-60612772D01*
X111781000Y-60612772D01*
X111731207Y-60617676D01*
X111683328Y-60632200D01*
X111639203Y-60655786D01*
X111600527Y-60687527D01*
X111568786Y-60726203D01*
X111545200Y-60770328D01*
X111530676Y-60818207D01*
X111525772Y-60868000D01*
X111525772Y-61150500D01*
X110490000Y-61150500D01*
X110490000Y-58674000D01*
X116713000Y-58674000D01*
X116713000Y-66040000D01*
X116713000Y-66040000D01*
G37*
X116713000Y-66040000D02*
X110490000Y-66040000D01*
X110490000Y-64330012D01*
X111905463Y-65745476D01*
X111915407Y-65757593D01*
X111963752Y-65797268D01*
X111963753Y-65797269D01*
X112018910Y-65826751D01*
X112078759Y-65844906D01*
X112141000Y-65851036D01*
X112156596Y-65849500D01*
X113762404Y-65849500D01*
X113778000Y-65851036D01*
X113793596Y-65849500D01*
X113840241Y-65844906D01*
X113900090Y-65826751D01*
X113955247Y-65797269D01*
X114003593Y-65757593D01*
X114013542Y-65745470D01*
X114258784Y-65500228D01*
X114671250Y-65500228D01*
X114763719Y-65491121D01*
X114852634Y-65464149D01*
X114934578Y-65420348D01*
X115006403Y-65361403D01*
X115065348Y-65289578D01*
X115109149Y-65207634D01*
X115136121Y-65118719D01*
X115145228Y-65026250D01*
X115145228Y-64513750D01*
X115136121Y-64421281D01*
X115109149Y-64332366D01*
X115065348Y-64250422D01*
X115006403Y-64178597D01*
X114998500Y-64172111D01*
X114998500Y-64023228D01*
X115381000Y-64023228D01*
X115430793Y-64018324D01*
X115478672Y-64003800D01*
X115522797Y-63980214D01*
X115561473Y-63948473D01*
X115593214Y-63909797D01*
X115616800Y-63865672D01*
X115631324Y-63817793D01*
X115636228Y-63768000D01*
X115636228Y-62568000D01*
X115631324Y-62518207D01*
X115616800Y-62470328D01*
X115593214Y-62426203D01*
X115561473Y-62387527D01*
X115522797Y-62355786D01*
X115478672Y-62332200D01*
X115430793Y-62317676D01*
X115381000Y-62312772D01*
X113981000Y-62312772D01*
X113931207Y-62317676D01*
X113883328Y-62332200D01*
X113839203Y-62355786D01*
X113800527Y-62387527D01*
X113768786Y-62426203D01*
X113745200Y-62470328D01*
X113730676Y-62518207D01*
X113725772Y-62568000D01*
X113725772Y-63768000D01*
X113730676Y-63817793D01*
X113745200Y-63865672D01*
X113768786Y-63909797D01*
X113800527Y-63948473D01*
X113839203Y-63980214D01*
X113883328Y-64003800D01*
X113931207Y-64018324D01*
X113981000Y-64023228D01*
X114363501Y-64023228D01*
X114363501Y-64039772D01*
X114233750Y-64039772D01*
X114141281Y-64048879D01*
X114052366Y-64075851D01*
X113970422Y-64119652D01*
X113898597Y-64178597D01*
X113839652Y-64250422D01*
X113795851Y-64332366D01*
X113768879Y-64421281D01*
X113759772Y-64513750D01*
X113759772Y-65026250D01*
X113766493Y-65094495D01*
X113646488Y-65214500D01*
X112272513Y-65214500D01*
X110490000Y-63431988D01*
X110490000Y-61790013D01*
X110494513Y-61785500D01*
X111525772Y-61785500D01*
X111525772Y-62068000D01*
X111530676Y-62117793D01*
X111545200Y-62165672D01*
X111568786Y-62209797D01*
X111600527Y-62248473D01*
X111639203Y-62280214D01*
X111683328Y-62303800D01*
X111731207Y-62318324D01*
X111781000Y-62323228D01*
X113181000Y-62323228D01*
X113230793Y-62318324D01*
X113278672Y-62303800D01*
X113322797Y-62280214D01*
X113361473Y-62248473D01*
X113393214Y-62209797D01*
X113416800Y-62165672D01*
X113431324Y-62117793D01*
X113436228Y-62068000D01*
X113436228Y-60868000D01*
X113431324Y-60818207D01*
X113416800Y-60770328D01*
X113393214Y-60726203D01*
X113361473Y-60687527D01*
X113322797Y-60655786D01*
X113278672Y-60632200D01*
X113230793Y-60617676D01*
X113181000Y-60612772D01*
X112983240Y-60612772D01*
X113048784Y-60547228D01*
X113119250Y-60547228D01*
X113211719Y-60538121D01*
X113300634Y-60511149D01*
X113382578Y-60467348D01*
X113454403Y-60408403D01*
X113513348Y-60336578D01*
X113557149Y-60254634D01*
X113584121Y-60165719D01*
X113593228Y-60073250D01*
X113593228Y-59560750D01*
X113584121Y-59468281D01*
X113557149Y-59379366D01*
X113513348Y-59297422D01*
X113454403Y-59225597D01*
X113382578Y-59166652D01*
X113300634Y-59122851D01*
X113211719Y-59095879D01*
X113119250Y-59086772D01*
X112681750Y-59086772D01*
X112589281Y-59095879D01*
X112500366Y-59122851D01*
X112418422Y-59166652D01*
X112346597Y-59225597D01*
X112287652Y-59297422D01*
X112243851Y-59379366D01*
X112216879Y-59468281D01*
X112207772Y-59560750D01*
X112207772Y-60073250D01*
X112216879Y-60165719D01*
X112243851Y-60254634D01*
X112287652Y-60336578D01*
X112320899Y-60377089D01*
X112267530Y-60430458D01*
X112255407Y-60440407D01*
X112215731Y-60488754D01*
X112203761Y-60511149D01*
X112186249Y-60543911D01*
X112168094Y-60603760D01*
X112167206Y-60612772D01*
X111781000Y-60612772D01*
X111731207Y-60617676D01*
X111683328Y-60632200D01*
X111639203Y-60655786D01*
X111600527Y-60687527D01*
X111568786Y-60726203D01*
X111545200Y-60770328D01*
X111530676Y-60818207D01*
X111525772Y-60868000D01*
X111525772Y-61150500D01*
X110490000Y-61150500D01*
X110490000Y-58674000D01*
X116713000Y-58674000D01*
X116713000Y-66040000D01*
G36*
X106553000Y-60823500D02*
G01*
X106030163Y-60823500D01*
X106024023Y-60814311D01*
X105936689Y-60726977D01*
X105833996Y-60658360D01*
X105719889Y-60611095D01*
X105598754Y-60587000D01*
X105475246Y-60587000D01*
X105354111Y-60611095D01*
X105240004Y-60658360D01*
X105137311Y-60726977D01*
X105049977Y-60814311D01*
X104981360Y-60917004D01*
X104934095Y-61031111D01*
X104910000Y-61152246D01*
X104910000Y-61275754D01*
X104934095Y-61396889D01*
X104981360Y-61510996D01*
X104995850Y-61532682D01*
X103535175Y-61588861D01*
X103537082Y-61569500D01*
X103537082Y-59969500D01*
X103530768Y-59905397D01*
X103512070Y-59843757D01*
X103505000Y-59830530D01*
X103505000Y-59817000D01*
X104521000Y-59817000D01*
X104545776Y-59814560D01*
X104569601Y-59807333D01*
X104591557Y-59795597D01*
X104610803Y-59779803D01*
X104626597Y-59760557D01*
X104638333Y-59738601D01*
X104645560Y-59714776D01*
X104648000Y-59690000D01*
X104648000Y-56769000D01*
X106553000Y-56769000D01*
X106553000Y-60823500D01*
X106553000Y-60823500D01*
G37*
X106553000Y-60823500D02*
X106030163Y-60823500D01*
X106024023Y-60814311D01*
X105936689Y-60726977D01*
X105833996Y-60658360D01*
X105719889Y-60611095D01*
X105598754Y-60587000D01*
X105475246Y-60587000D01*
X105354111Y-60611095D01*
X105240004Y-60658360D01*
X105137311Y-60726977D01*
X105049977Y-60814311D01*
X104981360Y-60917004D01*
X104934095Y-61031111D01*
X104910000Y-61152246D01*
X104910000Y-61275754D01*
X104934095Y-61396889D01*
X104981360Y-61510996D01*
X104995850Y-61532682D01*
X103535175Y-61588861D01*
X103537082Y-61569500D01*
X103537082Y-59969500D01*
X103530768Y-59905397D01*
X103512070Y-59843757D01*
X103505000Y-59830530D01*
X103505000Y-59817000D01*
X104521000Y-59817000D01*
X104545776Y-59814560D01*
X104569601Y-59807333D01*
X104591557Y-59795597D01*
X104610803Y-59779803D01*
X104626597Y-59760557D01*
X104638333Y-59738601D01*
X104645560Y-59714776D01*
X104648000Y-59690000D01*
X104648000Y-56769000D01*
X106553000Y-56769000D01*
X106553000Y-60823500D01*
G36*
X99872660Y-51318669D02*
G01*
X99822081Y-51413295D01*
X99790935Y-51515971D01*
X99780418Y-51622750D01*
X99780418Y-52060250D01*
X99790935Y-52167029D01*
X99822081Y-52269705D01*
X99872660Y-52364331D01*
X99940728Y-52447272D01*
X99993989Y-52490982D01*
X99981095Y-52522111D01*
X99957000Y-52643246D01*
X99957000Y-52766754D01*
X99981095Y-52887889D01*
X100028360Y-53001996D01*
X100096977Y-53104689D01*
X100184311Y-53192023D01*
X100287004Y-53260640D01*
X100401111Y-53307905D01*
X100522246Y-53332000D01*
X100645754Y-53332000D01*
X100766889Y-53307905D01*
X100880996Y-53260640D01*
X100983689Y-53192023D01*
X101071023Y-53104689D01*
X101139640Y-53001996D01*
X101186905Y-52887889D01*
X101211000Y-52766754D01*
X101211000Y-52643246D01*
X101186905Y-52522111D01*
X101174011Y-52490982D01*
X101227272Y-52447272D01*
X101295340Y-52364331D01*
X101345919Y-52269705D01*
X101346000Y-52269438D01*
X101346000Y-53995978D01*
X101290111Y-54007095D01*
X101176004Y-54054360D01*
X101073311Y-54122977D01*
X100985977Y-54210311D01*
X100917360Y-54313004D01*
X100870095Y-54427111D01*
X100846000Y-54548246D01*
X100846000Y-54671754D01*
X100870095Y-54792889D01*
X100917360Y-54906996D01*
X100985977Y-55009689D01*
X101073311Y-55097023D01*
X101176004Y-55165640D01*
X101290111Y-55212905D01*
X101346000Y-55224022D01*
X101346000Y-56388000D01*
X98298000Y-56388000D01*
X98273224Y-56390440D01*
X98249399Y-56397667D01*
X98227443Y-56409403D01*
X98208197Y-56425197D01*
X98192403Y-56444443D01*
X98180667Y-56466399D01*
X98173440Y-56490224D01*
X98171000Y-56515000D01*
X98171000Y-59518750D01*
X98033844Y-59381594D01*
X98036000Y-59370754D01*
X98036000Y-59247246D01*
X98011905Y-59126111D01*
X97964640Y-59012004D01*
X97896023Y-58909311D01*
X97808689Y-58821977D01*
X97705996Y-58753360D01*
X97591889Y-58706095D01*
X97470754Y-58682000D01*
X97347246Y-58682000D01*
X97226111Y-58706095D01*
X97112004Y-58753360D01*
X97009311Y-58821977D01*
X96921977Y-58909311D01*
X96853360Y-59012004D01*
X96806095Y-59126111D01*
X96782000Y-59247246D01*
X96782000Y-59370754D01*
X96806095Y-59491889D01*
X96853360Y-59605996D01*
X96921977Y-59708689D01*
X97009311Y-59796023D01*
X97112004Y-59864640D01*
X97226111Y-59911905D01*
X97347246Y-59936000D01*
X97470754Y-59936000D01*
X97481594Y-59933844D01*
X98054814Y-60507065D01*
X98067039Y-60521961D01*
X98126500Y-60570760D01*
X98171000Y-60594545D01*
X98171000Y-61468000D01*
X96207586Y-61468000D01*
X96191331Y-61454660D01*
X96096705Y-61404081D01*
X95994029Y-61372935D01*
X95887250Y-61362418D01*
X95374750Y-61362418D01*
X95267971Y-61372935D01*
X95165295Y-61404081D01*
X95070669Y-61454660D01*
X95054414Y-61468000D01*
X94869000Y-61468000D01*
X94869000Y-53856613D01*
X95953000Y-53856613D01*
X95953000Y-54093387D01*
X95999192Y-54325610D01*
X96089801Y-54544361D01*
X96221346Y-54741230D01*
X96388770Y-54908654D01*
X96585639Y-55040199D01*
X96804390Y-55130808D01*
X97036613Y-55177000D01*
X97273387Y-55177000D01*
X97505610Y-55130808D01*
X97724361Y-55040199D01*
X97921230Y-54908654D01*
X98088654Y-54741230D01*
X98220199Y-54544361D01*
X98310808Y-54325610D01*
X98357000Y-54093387D01*
X98357000Y-53856613D01*
X98310808Y-53624390D01*
X98220199Y-53405639D01*
X98088654Y-53208770D01*
X97921230Y-53041346D01*
X97724361Y-52909801D01*
X97505610Y-52819192D01*
X97273387Y-52773000D01*
X97036613Y-52773000D01*
X96804390Y-52819192D01*
X96585639Y-52909801D01*
X96388770Y-53041346D01*
X96221346Y-53208770D01*
X96089801Y-53405639D01*
X95999192Y-53624390D01*
X95953000Y-53856613D01*
X94869000Y-53856613D01*
X94869000Y-51308000D01*
X99881416Y-51308000D01*
X99872660Y-51318669D01*
X99872660Y-51318669D01*
G37*
X99872660Y-51318669D02*
X99822081Y-51413295D01*
X99790935Y-51515971D01*
X99780418Y-51622750D01*
X99780418Y-52060250D01*
X99790935Y-52167029D01*
X99822081Y-52269705D01*
X99872660Y-52364331D01*
X99940728Y-52447272D01*
X99993989Y-52490982D01*
X99981095Y-52522111D01*
X99957000Y-52643246D01*
X99957000Y-52766754D01*
X99981095Y-52887889D01*
X100028360Y-53001996D01*
X100096977Y-53104689D01*
X100184311Y-53192023D01*
X100287004Y-53260640D01*
X100401111Y-53307905D01*
X100522246Y-53332000D01*
X100645754Y-53332000D01*
X100766889Y-53307905D01*
X100880996Y-53260640D01*
X100983689Y-53192023D01*
X101071023Y-53104689D01*
X101139640Y-53001996D01*
X101186905Y-52887889D01*
X101211000Y-52766754D01*
X101211000Y-52643246D01*
X101186905Y-52522111D01*
X101174011Y-52490982D01*
X101227272Y-52447272D01*
X101295340Y-52364331D01*
X101345919Y-52269705D01*
X101346000Y-52269438D01*
X101346000Y-53995978D01*
X101290111Y-54007095D01*
X101176004Y-54054360D01*
X101073311Y-54122977D01*
X100985977Y-54210311D01*
X100917360Y-54313004D01*
X100870095Y-54427111D01*
X100846000Y-54548246D01*
X100846000Y-54671754D01*
X100870095Y-54792889D01*
X100917360Y-54906996D01*
X100985977Y-55009689D01*
X101073311Y-55097023D01*
X101176004Y-55165640D01*
X101290111Y-55212905D01*
X101346000Y-55224022D01*
X101346000Y-56388000D01*
X98298000Y-56388000D01*
X98273224Y-56390440D01*
X98249399Y-56397667D01*
X98227443Y-56409403D01*
X98208197Y-56425197D01*
X98192403Y-56444443D01*
X98180667Y-56466399D01*
X98173440Y-56490224D01*
X98171000Y-56515000D01*
X98171000Y-59518750D01*
X98033844Y-59381594D01*
X98036000Y-59370754D01*
X98036000Y-59247246D01*
X98011905Y-59126111D01*
X97964640Y-59012004D01*
X97896023Y-58909311D01*
X97808689Y-58821977D01*
X97705996Y-58753360D01*
X97591889Y-58706095D01*
X97470754Y-58682000D01*
X97347246Y-58682000D01*
X97226111Y-58706095D01*
X97112004Y-58753360D01*
X97009311Y-58821977D01*
X96921977Y-58909311D01*
X96853360Y-59012004D01*
X96806095Y-59126111D01*
X96782000Y-59247246D01*
X96782000Y-59370754D01*
X96806095Y-59491889D01*
X96853360Y-59605996D01*
X96921977Y-59708689D01*
X97009311Y-59796023D01*
X97112004Y-59864640D01*
X97226111Y-59911905D01*
X97347246Y-59936000D01*
X97470754Y-59936000D01*
X97481594Y-59933844D01*
X98054814Y-60507065D01*
X98067039Y-60521961D01*
X98126500Y-60570760D01*
X98171000Y-60594545D01*
X98171000Y-61468000D01*
X96207586Y-61468000D01*
X96191331Y-61454660D01*
X96096705Y-61404081D01*
X95994029Y-61372935D01*
X95887250Y-61362418D01*
X95374750Y-61362418D01*
X95267971Y-61372935D01*
X95165295Y-61404081D01*
X95070669Y-61454660D01*
X95054414Y-61468000D01*
X94869000Y-61468000D01*
X94869000Y-53856613D01*
X95953000Y-53856613D01*
X95953000Y-54093387D01*
X95999192Y-54325610D01*
X96089801Y-54544361D01*
X96221346Y-54741230D01*
X96388770Y-54908654D01*
X96585639Y-55040199D01*
X96804390Y-55130808D01*
X97036613Y-55177000D01*
X97273387Y-55177000D01*
X97505610Y-55130808D01*
X97724361Y-55040199D01*
X97921230Y-54908654D01*
X98088654Y-54741230D01*
X98220199Y-54544361D01*
X98310808Y-54325610D01*
X98357000Y-54093387D01*
X98357000Y-53856613D01*
X98310808Y-53624390D01*
X98220199Y-53405639D01*
X98088654Y-53208770D01*
X97921230Y-53041346D01*
X97724361Y-52909801D01*
X97505610Y-52819192D01*
X97273387Y-52773000D01*
X97036613Y-52773000D01*
X96804390Y-52819192D01*
X96585639Y-52909801D01*
X96388770Y-53041346D01*
X96221346Y-53208770D01*
X96089801Y-53405639D01*
X95999192Y-53624390D01*
X95953000Y-53856613D01*
X94869000Y-53856613D01*
X94869000Y-51308000D01*
X99881416Y-51308000D01*
X99872660Y-51318669D01*
M02*
