G04 #@! TF.GenerationSoftware,KiCad,Pcbnew,(5.1.4-0-10_14)*
G04 #@! TF.CreationDate,2020-10-24T19:39:48+11:00*
G04 #@! TF.ProjectId,Numpad,4e756d70-6164-42e6-9b69-6361645f7063,rev?*
G04 #@! TF.SameCoordinates,Original*
G04 #@! TF.FileFunction,Soldermask,Bot*
G04 #@! TF.FilePolarity,Negative*
%FSLAX46Y46*%
G04 Gerber Fmt 4.6, Leading zero omitted, Abs format (unit mm)*
G04 Created by KiCad (PCBNEW (5.1.4-0-10_14)) date 2020-10-24 19:39:48*
%MOMM*%
%LPD*%
G04 APERTURE LIST*
%ADD10C,0.100000*%
G04 APERTURE END LIST*
D10*
G36*
X113813517Y-135615263D02*
G01*
X113965661Y-135645526D01*
X114084387Y-135694704D01*
X114252291Y-135764252D01*
X114252292Y-135764253D01*
X114510254Y-135936617D01*
X114729633Y-136155996D01*
X114844803Y-136328361D01*
X114901998Y-136413959D01*
X115020724Y-136700590D01*
X115081250Y-137004875D01*
X115081250Y-137315125D01*
X115020724Y-137619410D01*
X114901998Y-137906041D01*
X114901997Y-137906042D01*
X114729633Y-138164004D01*
X114510254Y-138383383D01*
X114337889Y-138498553D01*
X114252291Y-138555748D01*
X114084387Y-138625296D01*
X113965661Y-138674474D01*
X113661375Y-138735000D01*
X113351125Y-138735000D01*
X113046839Y-138674474D01*
X112928113Y-138625296D01*
X112760209Y-138555748D01*
X112674611Y-138498553D01*
X112502246Y-138383383D01*
X112282867Y-138164004D01*
X112110503Y-137906042D01*
X112110502Y-137906041D01*
X111991776Y-137619410D01*
X111931250Y-137315125D01*
X111931250Y-137004875D01*
X111991776Y-136700590D01*
X112110502Y-136413959D01*
X112167697Y-136328361D01*
X112282867Y-136155996D01*
X112502246Y-135936617D01*
X112760208Y-135764253D01*
X112760209Y-135764252D01*
X112928113Y-135694704D01*
X113046839Y-135645526D01*
X113198983Y-135615263D01*
X113351125Y-135585000D01*
X113661375Y-135585000D01*
X113813517Y-135615263D01*
X113813517Y-135615263D01*
G37*
G36*
X90001017Y-135615263D02*
G01*
X90153161Y-135645526D01*
X90271887Y-135694704D01*
X90439791Y-135764252D01*
X90439792Y-135764253D01*
X90697754Y-135936617D01*
X90917133Y-136155996D01*
X91032303Y-136328361D01*
X91089498Y-136413959D01*
X91208224Y-136700590D01*
X91268750Y-137004875D01*
X91268750Y-137315125D01*
X91208224Y-137619410D01*
X91089498Y-137906041D01*
X91089497Y-137906042D01*
X90917133Y-138164004D01*
X90697754Y-138383383D01*
X90525389Y-138498553D01*
X90439791Y-138555748D01*
X90271887Y-138625296D01*
X90153161Y-138674474D01*
X89848875Y-138735000D01*
X89538625Y-138735000D01*
X89234339Y-138674474D01*
X89115613Y-138625296D01*
X88947709Y-138555748D01*
X88862111Y-138498553D01*
X88689746Y-138383383D01*
X88470367Y-138164004D01*
X88298003Y-137906042D01*
X88298002Y-137906041D01*
X88179276Y-137619410D01*
X88118750Y-137315125D01*
X88118750Y-137004875D01*
X88179276Y-136700590D01*
X88298002Y-136413959D01*
X88355197Y-136328361D01*
X88470367Y-136155996D01*
X88689746Y-135936617D01*
X88947708Y-135764253D01*
X88947709Y-135764252D01*
X89115613Y-135694704D01*
X89234339Y-135645526D01*
X89386483Y-135615263D01*
X89538625Y-135585000D01*
X89848875Y-135585000D01*
X90001017Y-135615263D01*
X90001017Y-135615263D01*
G37*
G36*
X141566474Y-130589934D02*
G01*
X141784474Y-130680233D01*
X141938623Y-130744083D01*
X142273548Y-130967873D01*
X142558377Y-131252702D01*
X142782167Y-131587627D01*
X142846017Y-131741776D01*
X142936316Y-131959776D01*
X143014900Y-132354844D01*
X143014900Y-132757656D01*
X142936316Y-133152724D01*
X142874363Y-133302291D01*
X142782167Y-133524873D01*
X142558377Y-133859798D01*
X142273548Y-134144627D01*
X141938623Y-134368417D01*
X141784474Y-134432267D01*
X141566474Y-134522566D01*
X141171406Y-134601150D01*
X140768594Y-134601150D01*
X140373526Y-134522566D01*
X140155526Y-134432267D01*
X140001377Y-134368417D01*
X139666452Y-134144627D01*
X139381623Y-133859798D01*
X139157833Y-133524873D01*
X139065637Y-133302291D01*
X139003684Y-133152724D01*
X138925100Y-132757656D01*
X138925100Y-132354844D01*
X139003684Y-131959776D01*
X139093983Y-131741776D01*
X139157833Y-131587627D01*
X139381623Y-131252702D01*
X139666452Y-130967873D01*
X140001377Y-130744083D01*
X140155526Y-130680233D01*
X140373526Y-130589934D01*
X140768594Y-130511350D01*
X141171406Y-130511350D01*
X141566474Y-130589934D01*
X141566474Y-130589934D01*
G37*
G36*
X156669411Y-131041776D02*
G01*
X156726480Y-131065415D01*
X156956041Y-131160502D01*
X156956042Y-131160503D01*
X157214004Y-131332867D01*
X157433383Y-131552246D01*
X157471925Y-131609929D01*
X157605748Y-131810209D01*
X157724474Y-132096840D01*
X157785000Y-132401125D01*
X157785000Y-132711375D01*
X157724474Y-133015660D01*
X157605748Y-133302291D01*
X157605747Y-133302292D01*
X157433383Y-133560254D01*
X157214004Y-133779633D01*
X157094028Y-133859798D01*
X156956041Y-133951998D01*
X156788137Y-134021546D01*
X156669411Y-134070724D01*
X156365125Y-134131250D01*
X156054875Y-134131250D01*
X155750589Y-134070724D01*
X155631863Y-134021546D01*
X155463959Y-133951998D01*
X155325972Y-133859798D01*
X155205996Y-133779633D01*
X154986617Y-133560254D01*
X154814253Y-133302292D01*
X154814252Y-133302291D01*
X154695526Y-133015660D01*
X154635000Y-132711375D01*
X154635000Y-132401125D01*
X154695526Y-132096840D01*
X154814252Y-131810209D01*
X154948075Y-131609929D01*
X154986617Y-131552246D01*
X155205996Y-131332867D01*
X155463958Y-131160503D01*
X155463959Y-131160502D01*
X155693520Y-131065415D01*
X155750589Y-131041776D01*
X156054875Y-130981250D01*
X156365125Y-130981250D01*
X156669411Y-131041776D01*
X156669411Y-131041776D01*
G37*
G36*
X84222880Y-127934776D02*
G01*
X84603593Y-128010504D01*
X85013249Y-128180189D01*
X85381929Y-128426534D01*
X85695466Y-128740071D01*
X85941811Y-129108751D01*
X86111496Y-129518407D01*
X86198000Y-129953296D01*
X86198000Y-130396704D01*
X86111496Y-130831593D01*
X85941811Y-131241249D01*
X85695466Y-131609929D01*
X85381929Y-131923466D01*
X85013249Y-132169811D01*
X84603593Y-132339496D01*
X84222880Y-132415224D01*
X84168705Y-132426000D01*
X83725295Y-132426000D01*
X83671120Y-132415224D01*
X83290407Y-132339496D01*
X82880751Y-132169811D01*
X82512071Y-131923466D01*
X82198534Y-131609929D01*
X81952189Y-131241249D01*
X81782504Y-130831593D01*
X81696000Y-130396704D01*
X81696000Y-129953296D01*
X81782504Y-129518407D01*
X81952189Y-129108751D01*
X82198534Y-128740071D01*
X82512071Y-128426534D01*
X82880751Y-128180189D01*
X83290407Y-128010504D01*
X83671120Y-127934776D01*
X83725295Y-127924000D01*
X84168705Y-127924000D01*
X84222880Y-127934776D01*
X84222880Y-127934776D01*
G37*
G36*
X130771474Y-128208684D02*
G01*
X130989474Y-128298983D01*
X131143623Y-128362833D01*
X131478548Y-128586623D01*
X131763377Y-128871452D01*
X131987167Y-129206377D01*
X132019562Y-129284586D01*
X132141316Y-129578526D01*
X132219900Y-129973594D01*
X132219900Y-130376406D01*
X132141316Y-130771474D01*
X132090451Y-130894272D01*
X131987167Y-131143623D01*
X131763377Y-131478548D01*
X131478548Y-131763377D01*
X131143623Y-131987167D01*
X130989474Y-132051017D01*
X130771474Y-132141316D01*
X130376406Y-132219900D01*
X129973594Y-132219900D01*
X129578526Y-132141316D01*
X129360526Y-132051017D01*
X129206377Y-131987167D01*
X128871452Y-131763377D01*
X128586623Y-131478548D01*
X128362833Y-131143623D01*
X128259549Y-130894272D01*
X128208684Y-130771474D01*
X128130100Y-130376406D01*
X128130100Y-129973594D01*
X128208684Y-129578526D01*
X128330438Y-129284586D01*
X128362833Y-129206377D01*
X128586623Y-128871452D01*
X128871452Y-128586623D01*
X129206377Y-128362833D01*
X129360526Y-128298983D01*
X129578526Y-128208684D01*
X129973594Y-128130100D01*
X130376406Y-128130100D01*
X130771474Y-128208684D01*
X130771474Y-128208684D01*
G37*
G36*
X102196474Y-128208684D02*
G01*
X102414474Y-128298983D01*
X102568623Y-128362833D01*
X102903548Y-128586623D01*
X103188377Y-128871452D01*
X103412167Y-129206377D01*
X103444562Y-129284586D01*
X103566316Y-129578526D01*
X103644900Y-129973594D01*
X103644900Y-130376406D01*
X103566316Y-130771474D01*
X103515451Y-130894272D01*
X103412167Y-131143623D01*
X103188377Y-131478548D01*
X102903548Y-131763377D01*
X102568623Y-131987167D01*
X102414474Y-132051017D01*
X102196474Y-132141316D01*
X101801406Y-132219900D01*
X101398594Y-132219900D01*
X101003526Y-132141316D01*
X100785526Y-132051017D01*
X100631377Y-131987167D01*
X100296452Y-131763377D01*
X100011623Y-131478548D01*
X99787833Y-131143623D01*
X99684549Y-130894272D01*
X99633684Y-130771474D01*
X99555100Y-130376406D01*
X99555100Y-129973594D01*
X99633684Y-129578526D01*
X99755438Y-129284586D01*
X99787833Y-129206377D01*
X100011623Y-128871452D01*
X100296452Y-128586623D01*
X100631377Y-128362833D01*
X100785526Y-128298983D01*
X101003526Y-128208684D01*
X101398594Y-128130100D01*
X101801406Y-128130100D01*
X102196474Y-128208684D01*
X102196474Y-128208684D01*
G37*
G36*
X135525104Y-129284585D02*
G01*
X135693626Y-129354389D01*
X135845291Y-129455728D01*
X135974272Y-129584709D01*
X136075611Y-129736374D01*
X136145415Y-129904896D01*
X136181000Y-130083797D01*
X136181000Y-130266203D01*
X136145415Y-130445104D01*
X136075611Y-130613626D01*
X135974272Y-130765291D01*
X135845291Y-130894272D01*
X135693626Y-130995611D01*
X135525104Y-131065415D01*
X135346203Y-131101000D01*
X135163797Y-131101000D01*
X134984896Y-131065415D01*
X134816374Y-130995611D01*
X134664709Y-130894272D01*
X134535728Y-130765291D01*
X134434389Y-130613626D01*
X134364585Y-130445104D01*
X134329000Y-130266203D01*
X134329000Y-130083797D01*
X134364585Y-129904896D01*
X134434389Y-129736374D01*
X134535728Y-129584709D01*
X134664709Y-129455728D01*
X134816374Y-129354389D01*
X134984896Y-129284585D01*
X135163797Y-129249000D01*
X135346203Y-129249000D01*
X135525104Y-129284585D01*
X135525104Y-129284585D01*
G37*
G36*
X125365104Y-129284585D02*
G01*
X125533626Y-129354389D01*
X125685291Y-129455728D01*
X125814272Y-129584709D01*
X125915611Y-129736374D01*
X125985415Y-129904896D01*
X126021000Y-130083797D01*
X126021000Y-130266203D01*
X125985415Y-130445104D01*
X125915611Y-130613626D01*
X125814272Y-130765291D01*
X125685291Y-130894272D01*
X125533626Y-130995611D01*
X125365104Y-131065415D01*
X125186203Y-131101000D01*
X125003797Y-131101000D01*
X124824896Y-131065415D01*
X124656374Y-130995611D01*
X124504709Y-130894272D01*
X124375728Y-130765291D01*
X124274389Y-130613626D01*
X124204585Y-130445104D01*
X124169000Y-130266203D01*
X124169000Y-130083797D01*
X124204585Y-129904896D01*
X124274389Y-129736374D01*
X124375728Y-129584709D01*
X124504709Y-129455728D01*
X124656374Y-129354389D01*
X124824896Y-129284585D01*
X125003797Y-129249000D01*
X125186203Y-129249000D01*
X125365104Y-129284585D01*
X125365104Y-129284585D01*
G37*
G36*
X106950104Y-129284585D02*
G01*
X107118626Y-129354389D01*
X107270291Y-129455728D01*
X107399272Y-129584709D01*
X107500611Y-129736374D01*
X107570415Y-129904896D01*
X107606000Y-130083797D01*
X107606000Y-130266203D01*
X107570415Y-130445104D01*
X107500611Y-130613626D01*
X107399272Y-130765291D01*
X107270291Y-130894272D01*
X107118626Y-130995611D01*
X106950104Y-131065415D01*
X106771203Y-131101000D01*
X106588797Y-131101000D01*
X106409896Y-131065415D01*
X106241374Y-130995611D01*
X106089709Y-130894272D01*
X105960728Y-130765291D01*
X105859389Y-130613626D01*
X105789585Y-130445104D01*
X105754000Y-130266203D01*
X105754000Y-130083797D01*
X105789585Y-129904896D01*
X105859389Y-129736374D01*
X105960728Y-129584709D01*
X106089709Y-129455728D01*
X106241374Y-129354389D01*
X106409896Y-129284585D01*
X106588797Y-129249000D01*
X106771203Y-129249000D01*
X106950104Y-129284585D01*
X106950104Y-129284585D01*
G37*
G36*
X96790104Y-129284585D02*
G01*
X96958626Y-129354389D01*
X97110291Y-129455728D01*
X97239272Y-129584709D01*
X97340611Y-129736374D01*
X97410415Y-129904896D01*
X97446000Y-130083797D01*
X97446000Y-130266203D01*
X97410415Y-130445104D01*
X97340611Y-130613626D01*
X97239272Y-130765291D01*
X97110291Y-130894272D01*
X96958626Y-130995611D01*
X96790104Y-131065415D01*
X96611203Y-131101000D01*
X96428797Y-131101000D01*
X96249896Y-131065415D01*
X96081374Y-130995611D01*
X95929709Y-130894272D01*
X95800728Y-130765291D01*
X95699389Y-130613626D01*
X95629585Y-130445104D01*
X95594000Y-130266203D01*
X95594000Y-130083797D01*
X95629585Y-129904896D01*
X95699389Y-129736374D01*
X95800728Y-129584709D01*
X95929709Y-129455728D01*
X96081374Y-129354389D01*
X96249896Y-129284585D01*
X96428797Y-129249000D01*
X96611203Y-129249000D01*
X96790104Y-129284585D01*
X96790104Y-129284585D01*
G37*
G36*
X126556560Y-126474064D02*
G01*
X126708027Y-126504193D01*
X126922045Y-126592842D01*
X126922046Y-126592843D01*
X127114654Y-126721539D01*
X127278461Y-126885346D01*
X127364258Y-127013751D01*
X127407158Y-127077955D01*
X127495807Y-127291973D01*
X127541000Y-127519174D01*
X127541000Y-127750826D01*
X127495807Y-127978027D01*
X127407158Y-128192045D01*
X127407157Y-128192046D01*
X127278461Y-128384654D01*
X127114654Y-128548461D01*
X127057540Y-128586623D01*
X126922045Y-128677158D01*
X126708027Y-128765807D01*
X126556560Y-128795936D01*
X126480827Y-128811000D01*
X126249173Y-128811000D01*
X126173440Y-128795936D01*
X126021973Y-128765807D01*
X125807955Y-128677158D01*
X125672460Y-128586623D01*
X125615346Y-128548461D01*
X125451539Y-128384654D01*
X125322843Y-128192046D01*
X125322842Y-128192045D01*
X125234193Y-127978027D01*
X125189000Y-127750826D01*
X125189000Y-127519174D01*
X125234193Y-127291973D01*
X125322842Y-127077955D01*
X125365742Y-127013751D01*
X125451539Y-126885346D01*
X125615346Y-126721539D01*
X125807954Y-126592843D01*
X125807955Y-126592842D01*
X126021973Y-126504193D01*
X126173440Y-126474064D01*
X126249173Y-126459000D01*
X126480827Y-126459000D01*
X126556560Y-126474064D01*
X126556560Y-126474064D01*
G37*
G36*
X97981560Y-126474064D02*
G01*
X98133027Y-126504193D01*
X98347045Y-126592842D01*
X98347046Y-126592843D01*
X98539654Y-126721539D01*
X98703461Y-126885346D01*
X98789258Y-127013751D01*
X98832158Y-127077955D01*
X98920807Y-127291973D01*
X98966000Y-127519174D01*
X98966000Y-127750826D01*
X98920807Y-127978027D01*
X98832158Y-128192045D01*
X98832157Y-128192046D01*
X98703461Y-128384654D01*
X98539654Y-128548461D01*
X98482540Y-128586623D01*
X98347045Y-128677158D01*
X98133027Y-128765807D01*
X97981560Y-128795936D01*
X97905827Y-128811000D01*
X97674173Y-128811000D01*
X97598440Y-128795936D01*
X97446973Y-128765807D01*
X97232955Y-128677158D01*
X97097460Y-128586623D01*
X97040346Y-128548461D01*
X96876539Y-128384654D01*
X96747843Y-128192046D01*
X96747842Y-128192045D01*
X96659193Y-127978027D01*
X96614000Y-127750826D01*
X96614000Y-127519174D01*
X96659193Y-127291973D01*
X96747842Y-127077955D01*
X96790742Y-127013751D01*
X96876539Y-126885346D01*
X97040346Y-126721539D01*
X97232954Y-126592843D01*
X97232955Y-126592842D01*
X97446973Y-126504193D01*
X97598440Y-126474064D01*
X97674173Y-126459000D01*
X97905827Y-126459000D01*
X97981560Y-126474064D01*
X97981560Y-126474064D01*
G37*
G36*
X149495104Y-124839585D02*
G01*
X149663626Y-124909389D01*
X149815291Y-125010728D01*
X149944272Y-125139709D01*
X150045611Y-125291374D01*
X150115415Y-125459896D01*
X150151000Y-125638797D01*
X150151000Y-125821203D01*
X150115415Y-126000104D01*
X150045611Y-126168626D01*
X149944272Y-126320291D01*
X149815291Y-126449272D01*
X149663626Y-126550611D01*
X149495104Y-126620415D01*
X149316203Y-126656000D01*
X149133797Y-126656000D01*
X148954896Y-126620415D01*
X148786374Y-126550611D01*
X148634709Y-126449272D01*
X148505728Y-126320291D01*
X148404389Y-126168626D01*
X148334585Y-126000104D01*
X148299000Y-125821203D01*
X148299000Y-125638797D01*
X148334585Y-125459896D01*
X148404389Y-125291374D01*
X148505728Y-125139709D01*
X148634709Y-125010728D01*
X148786374Y-124909389D01*
X148954896Y-124839585D01*
X149133797Y-124804000D01*
X149316203Y-124804000D01*
X149495104Y-124839585D01*
X149495104Y-124839585D01*
G37*
G36*
X132906560Y-123934064D02*
G01*
X133058027Y-123964193D01*
X133272045Y-124052842D01*
X133272046Y-124052843D01*
X133464654Y-124181539D01*
X133628461Y-124345346D01*
X133714258Y-124473751D01*
X133757158Y-124537955D01*
X133845807Y-124751973D01*
X133891000Y-124979174D01*
X133891000Y-125210826D01*
X133845807Y-125438027D01*
X133757158Y-125652045D01*
X133757157Y-125652046D01*
X133628461Y-125844654D01*
X133464654Y-126008461D01*
X133336249Y-126094258D01*
X133272045Y-126137158D01*
X133058027Y-126225807D01*
X132906560Y-126255936D01*
X132830827Y-126271000D01*
X132599173Y-126271000D01*
X132523440Y-126255936D01*
X132371973Y-126225807D01*
X132157955Y-126137158D01*
X132093751Y-126094258D01*
X131965346Y-126008461D01*
X131801539Y-125844654D01*
X131672843Y-125652046D01*
X131672842Y-125652045D01*
X131584193Y-125438027D01*
X131539000Y-125210826D01*
X131539000Y-124979174D01*
X131584193Y-124751973D01*
X131672842Y-124537955D01*
X131715742Y-124473751D01*
X131801539Y-124345346D01*
X131965346Y-124181539D01*
X132157954Y-124052843D01*
X132157955Y-124052842D01*
X132371973Y-123964193D01*
X132523440Y-123934064D01*
X132599173Y-123919000D01*
X132830827Y-123919000D01*
X132906560Y-123934064D01*
X132906560Y-123934064D01*
G37*
G36*
X104331560Y-123934064D02*
G01*
X104483027Y-123964193D01*
X104697045Y-124052842D01*
X104697046Y-124052843D01*
X104889654Y-124181539D01*
X105053461Y-124345346D01*
X105139258Y-124473751D01*
X105182158Y-124537955D01*
X105270807Y-124751973D01*
X105316000Y-124979174D01*
X105316000Y-125210826D01*
X105270807Y-125438027D01*
X105182158Y-125652045D01*
X105182157Y-125652046D01*
X105053461Y-125844654D01*
X104889654Y-126008461D01*
X104761249Y-126094258D01*
X104697045Y-126137158D01*
X104483027Y-126225807D01*
X104331560Y-126255936D01*
X104255827Y-126271000D01*
X104024173Y-126271000D01*
X103948440Y-126255936D01*
X103796973Y-126225807D01*
X103582955Y-126137158D01*
X103518751Y-126094258D01*
X103390346Y-126008461D01*
X103226539Y-125844654D01*
X103097843Y-125652046D01*
X103097842Y-125652045D01*
X103009193Y-125438027D01*
X102964000Y-125210826D01*
X102964000Y-124979174D01*
X103009193Y-124751973D01*
X103097842Y-124537955D01*
X103140742Y-124473751D01*
X103226539Y-124345346D01*
X103390346Y-124181539D01*
X103582954Y-124052843D01*
X103582955Y-124052842D01*
X103796973Y-123964193D01*
X103948440Y-123934064D01*
X104024173Y-123919000D01*
X104255827Y-123919000D01*
X104331560Y-123934064D01*
X104331560Y-123934064D01*
G37*
G36*
X146876560Y-123299064D02*
G01*
X147028027Y-123329193D01*
X147242045Y-123417842D01*
X147242046Y-123417843D01*
X147434654Y-123546539D01*
X147598461Y-123710346D01*
X147613041Y-123732167D01*
X147727158Y-123902955D01*
X147815807Y-124116973D01*
X147861000Y-124344174D01*
X147861000Y-124575826D01*
X147815807Y-124803027D01*
X147727158Y-125017045D01*
X147727157Y-125017046D01*
X147598461Y-125209654D01*
X147434654Y-125373461D01*
X147306249Y-125459258D01*
X147242045Y-125502158D01*
X147028027Y-125590807D01*
X146876560Y-125620936D01*
X146800827Y-125636000D01*
X146569173Y-125636000D01*
X146493440Y-125620936D01*
X146341973Y-125590807D01*
X146127955Y-125502158D01*
X146063751Y-125459258D01*
X145935346Y-125373461D01*
X145771539Y-125209654D01*
X145642843Y-125017046D01*
X145642842Y-125017045D01*
X145554193Y-124803027D01*
X145509000Y-124575826D01*
X145509000Y-124344174D01*
X145554193Y-124116973D01*
X145642842Y-123902955D01*
X145756959Y-123732167D01*
X145771539Y-123710346D01*
X145935346Y-123546539D01*
X146127954Y-123417843D01*
X146127955Y-123417842D01*
X146341973Y-123329193D01*
X146493440Y-123299064D01*
X146569173Y-123284000D01*
X146800827Y-123284000D01*
X146876560Y-123299064D01*
X146876560Y-123299064D01*
G37*
G36*
X90290224Y-119953684D02*
G01*
X90508224Y-120043983D01*
X90662373Y-120107833D01*
X90997298Y-120331623D01*
X91282127Y-120616452D01*
X91505917Y-120951377D01*
X91505917Y-120951378D01*
X91660066Y-121323526D01*
X91738650Y-121718594D01*
X91738650Y-122121406D01*
X91660066Y-122516474D01*
X91618710Y-122616315D01*
X91505917Y-122888623D01*
X91282127Y-123223548D01*
X90997298Y-123508377D01*
X90662373Y-123732167D01*
X90508224Y-123796017D01*
X90290224Y-123886316D01*
X89895156Y-123964900D01*
X89492344Y-123964900D01*
X89097276Y-123886316D01*
X88879276Y-123796017D01*
X88725127Y-123732167D01*
X88390202Y-123508377D01*
X88105373Y-123223548D01*
X87881583Y-122888623D01*
X87768790Y-122616315D01*
X87727434Y-122516474D01*
X87648850Y-122121406D01*
X87648850Y-121718594D01*
X87727434Y-121323526D01*
X87881583Y-120951378D01*
X87881583Y-120951377D01*
X88105373Y-120616452D01*
X88390202Y-120331623D01*
X88725127Y-120107833D01*
X88879276Y-120043983D01*
X89097276Y-119953684D01*
X89492344Y-119875100D01*
X89895156Y-119875100D01*
X90290224Y-119953684D01*
X90290224Y-119953684D01*
G37*
G36*
X114102724Y-119953684D02*
G01*
X114320724Y-120043983D01*
X114474873Y-120107833D01*
X114809798Y-120331623D01*
X115094627Y-120616452D01*
X115318417Y-120951377D01*
X115318417Y-120951378D01*
X115472566Y-121323526D01*
X115551150Y-121718594D01*
X115551150Y-122121406D01*
X115472566Y-122516474D01*
X115431210Y-122616315D01*
X115318417Y-122888623D01*
X115094627Y-123223548D01*
X114809798Y-123508377D01*
X114474873Y-123732167D01*
X114320724Y-123796017D01*
X114102724Y-123886316D01*
X113707656Y-123964900D01*
X113304844Y-123964900D01*
X112909776Y-123886316D01*
X112691776Y-123796017D01*
X112537627Y-123732167D01*
X112202702Y-123508377D01*
X111917873Y-123223548D01*
X111694083Y-122888623D01*
X111581290Y-122616315D01*
X111539934Y-122516474D01*
X111461350Y-122121406D01*
X111461350Y-121718594D01*
X111539934Y-121323526D01*
X111694083Y-120951378D01*
X111694083Y-120951377D01*
X111917873Y-120616452D01*
X112202702Y-120331623D01*
X112537627Y-120107833D01*
X112691776Y-120043983D01*
X112909776Y-119953684D01*
X113304844Y-119875100D01*
X113707656Y-119875100D01*
X114102724Y-119953684D01*
X114102724Y-119953684D01*
G37*
G36*
X104791000Y-123181000D02*
G01*
X103489000Y-123181000D01*
X103489000Y-122179000D01*
X104791000Y-122179000D01*
X104791000Y-123181000D01*
X104791000Y-123181000D01*
G37*
G36*
X133366000Y-123181000D02*
G01*
X132064000Y-123181000D01*
X132064000Y-122179000D01*
X133366000Y-122179000D01*
X133366000Y-123181000D01*
X133366000Y-123181000D01*
G37*
G36*
X149821474Y-118683684D02*
G01*
X150039474Y-118773983D01*
X150193623Y-118837833D01*
X150528548Y-119061623D01*
X150813377Y-119346452D01*
X151037167Y-119681377D01*
X151037167Y-119681378D01*
X151191316Y-120053526D01*
X151269900Y-120448594D01*
X151269900Y-120851406D01*
X151191316Y-121246474D01*
X151159400Y-121323525D01*
X151037167Y-121618623D01*
X150813377Y-121953548D01*
X150528548Y-122238377D01*
X150193623Y-122462167D01*
X150062514Y-122516474D01*
X149821474Y-122616316D01*
X149426406Y-122694900D01*
X149023594Y-122694900D01*
X148628526Y-122616316D01*
X148387486Y-122516474D01*
X148256377Y-122462167D01*
X147921452Y-122238377D01*
X147636623Y-121953548D01*
X147412833Y-121618623D01*
X147290600Y-121323525D01*
X147258684Y-121246474D01*
X147180100Y-120851406D01*
X147180100Y-120448594D01*
X147258684Y-120053526D01*
X147412833Y-119681378D01*
X147412833Y-119681377D01*
X147636623Y-119346452D01*
X147921452Y-119061623D01*
X148256377Y-118837833D01*
X148410526Y-118773983D01*
X148628526Y-118683684D01*
X149023594Y-118605100D01*
X149426406Y-118605100D01*
X149821474Y-118683684D01*
X149821474Y-118683684D01*
G37*
G36*
X104791000Y-119881000D02*
G01*
X103489000Y-119881000D01*
X103489000Y-118879000D01*
X104791000Y-118879000D01*
X104791000Y-119881000D01*
X104791000Y-119881000D01*
G37*
G36*
X133366000Y-119881000D02*
G01*
X132064000Y-119881000D01*
X132064000Y-118879000D01*
X133366000Y-118879000D01*
X133366000Y-119881000D01*
X133366000Y-119881000D01*
G37*
G36*
X144336560Y-116949064D02*
G01*
X144488027Y-116979193D01*
X144702045Y-117067842D01*
X144702046Y-117067843D01*
X144894654Y-117196539D01*
X145058461Y-117360346D01*
X145144258Y-117488751D01*
X145187158Y-117552955D01*
X145275807Y-117766973D01*
X145321000Y-117994174D01*
X145321000Y-118225826D01*
X145275807Y-118453027D01*
X145187158Y-118667045D01*
X145187157Y-118667046D01*
X145058461Y-118859654D01*
X144894654Y-119023461D01*
X144837540Y-119061623D01*
X144702045Y-119152158D01*
X144488027Y-119240807D01*
X144336560Y-119270936D01*
X144260827Y-119286000D01*
X144029173Y-119286000D01*
X143953440Y-119270936D01*
X143801973Y-119240807D01*
X143587955Y-119152158D01*
X143452460Y-119061623D01*
X143395346Y-119023461D01*
X143231539Y-118859654D01*
X143102843Y-118667046D01*
X143102842Y-118667045D01*
X143014193Y-118453027D01*
X142969000Y-118225826D01*
X142969000Y-117994174D01*
X143014193Y-117766973D01*
X143102842Y-117552955D01*
X143145742Y-117488751D01*
X143231539Y-117360346D01*
X143395346Y-117196539D01*
X143587954Y-117067843D01*
X143587955Y-117067842D01*
X143801973Y-116979193D01*
X143953440Y-116949064D01*
X144029173Y-116934000D01*
X144260827Y-116934000D01*
X144336560Y-116949064D01*
X144336560Y-116949064D01*
G37*
G36*
X137280000Y-117745000D02*
G01*
X136278000Y-117745000D01*
X136278000Y-116443000D01*
X137280000Y-116443000D01*
X137280000Y-117745000D01*
X137280000Y-117745000D01*
G37*
G36*
X140580000Y-117745000D02*
G01*
X139578000Y-117745000D01*
X139578000Y-116443000D01*
X140580000Y-116443000D01*
X140580000Y-117745000D01*
X140580000Y-117745000D01*
G37*
G36*
X133366000Y-117595000D02*
G01*
X132064000Y-117595000D01*
X132064000Y-116593000D01*
X133366000Y-116593000D01*
X133366000Y-117595000D01*
X133366000Y-117595000D01*
G37*
G36*
X114316000Y-117594000D02*
G01*
X113014000Y-117594000D01*
X113014000Y-116592000D01*
X114316000Y-116592000D01*
X114316000Y-117594000D01*
X114316000Y-117594000D01*
G37*
G36*
X95266000Y-117593000D02*
G01*
X93964000Y-117593000D01*
X93964000Y-116591000D01*
X95266000Y-116591000D01*
X95266000Y-117593000D01*
X95266000Y-117593000D01*
G37*
G36*
X149495104Y-114679585D02*
G01*
X149663626Y-114749389D01*
X149815291Y-114850728D01*
X149944272Y-114979709D01*
X150045611Y-115131374D01*
X150115415Y-115299896D01*
X150151000Y-115478797D01*
X150151000Y-115661203D01*
X150115415Y-115840104D01*
X150045611Y-116008626D01*
X149944272Y-116160291D01*
X149815291Y-116289272D01*
X149663626Y-116390611D01*
X149495104Y-116460415D01*
X149316203Y-116496000D01*
X149133797Y-116496000D01*
X148954896Y-116460415D01*
X148786374Y-116390611D01*
X148634709Y-116289272D01*
X148505728Y-116160291D01*
X148404389Y-116008626D01*
X148334585Y-115840104D01*
X148299000Y-115661203D01*
X148299000Y-115478797D01*
X148334585Y-115299896D01*
X148404389Y-115131374D01*
X148505728Y-114979709D01*
X148634709Y-114850728D01*
X148786374Y-114749389D01*
X148954896Y-114679585D01*
X149133797Y-114644000D01*
X149316203Y-114644000D01*
X149495104Y-114679585D01*
X149495104Y-114679585D01*
G37*
G36*
X133366000Y-114295000D02*
G01*
X132064000Y-114295000D01*
X132064000Y-113293000D01*
X133366000Y-113293000D01*
X133366000Y-114295000D01*
X133366000Y-114295000D01*
G37*
G36*
X114316000Y-114294000D02*
G01*
X113014000Y-114294000D01*
X113014000Y-113292000D01*
X114316000Y-113292000D01*
X114316000Y-114294000D01*
X114316000Y-114294000D01*
G37*
G36*
X95266000Y-114293000D02*
G01*
X93964000Y-114293000D01*
X93964000Y-113291000D01*
X95266000Y-113291000D01*
X95266000Y-114293000D01*
X95266000Y-114293000D01*
G37*
G36*
X130771474Y-109158684D02*
G01*
X130989474Y-109248983D01*
X131143623Y-109312833D01*
X131478548Y-109536623D01*
X131763377Y-109821452D01*
X131987167Y-110156377D01*
X132019562Y-110234586D01*
X132141316Y-110528526D01*
X132219900Y-110923594D01*
X132219900Y-111326406D01*
X132141316Y-111721474D01*
X132090451Y-111844272D01*
X131987167Y-112093623D01*
X131763377Y-112428548D01*
X131478548Y-112713377D01*
X131143623Y-112937167D01*
X130989474Y-113001017D01*
X130771474Y-113091316D01*
X130376406Y-113169900D01*
X129973594Y-113169900D01*
X129578526Y-113091316D01*
X129360526Y-113001017D01*
X129206377Y-112937167D01*
X128871452Y-112713377D01*
X128586623Y-112428548D01*
X128362833Y-112093623D01*
X128259549Y-111844272D01*
X128208684Y-111721474D01*
X128130100Y-111326406D01*
X128130100Y-110923594D01*
X128208684Y-110528526D01*
X128330438Y-110234586D01*
X128362833Y-110156377D01*
X128586623Y-109821452D01*
X128871452Y-109536623D01*
X129206377Y-109312833D01*
X129360526Y-109248983D01*
X129578526Y-109158684D01*
X129973594Y-109080100D01*
X130376406Y-109080100D01*
X130771474Y-109158684D01*
X130771474Y-109158684D01*
G37*
G36*
X92671474Y-109158684D02*
G01*
X92889474Y-109248983D01*
X93043623Y-109312833D01*
X93378548Y-109536623D01*
X93663377Y-109821452D01*
X93887167Y-110156377D01*
X93919562Y-110234586D01*
X94041316Y-110528526D01*
X94119900Y-110923594D01*
X94119900Y-111326406D01*
X94041316Y-111721474D01*
X93990451Y-111844272D01*
X93887167Y-112093623D01*
X93663377Y-112428548D01*
X93378548Y-112713377D01*
X93043623Y-112937167D01*
X92889474Y-113001017D01*
X92671474Y-113091316D01*
X92276406Y-113169900D01*
X91873594Y-113169900D01*
X91478526Y-113091316D01*
X91260526Y-113001017D01*
X91106377Y-112937167D01*
X90771452Y-112713377D01*
X90486623Y-112428548D01*
X90262833Y-112093623D01*
X90159549Y-111844272D01*
X90108684Y-111721474D01*
X90030100Y-111326406D01*
X90030100Y-110923594D01*
X90108684Y-110528526D01*
X90230438Y-110234586D01*
X90262833Y-110156377D01*
X90486623Y-109821452D01*
X90771452Y-109536623D01*
X91106377Y-109312833D01*
X91260526Y-109248983D01*
X91478526Y-109158684D01*
X91873594Y-109080100D01*
X92276406Y-109080100D01*
X92671474Y-109158684D01*
X92671474Y-109158684D01*
G37*
G36*
X111721474Y-109158684D02*
G01*
X111939474Y-109248983D01*
X112093623Y-109312833D01*
X112428548Y-109536623D01*
X112713377Y-109821452D01*
X112937167Y-110156377D01*
X112969562Y-110234586D01*
X113091316Y-110528526D01*
X113169900Y-110923594D01*
X113169900Y-111326406D01*
X113091316Y-111721474D01*
X113040451Y-111844272D01*
X112937167Y-112093623D01*
X112713377Y-112428548D01*
X112428548Y-112713377D01*
X112093623Y-112937167D01*
X111939474Y-113001017D01*
X111721474Y-113091316D01*
X111326406Y-113169900D01*
X110923594Y-113169900D01*
X110528526Y-113091316D01*
X110310526Y-113001017D01*
X110156377Y-112937167D01*
X109821452Y-112713377D01*
X109536623Y-112428548D01*
X109312833Y-112093623D01*
X109209549Y-111844272D01*
X109158684Y-111721474D01*
X109080100Y-111326406D01*
X109080100Y-110923594D01*
X109158684Y-110528526D01*
X109280438Y-110234586D01*
X109312833Y-110156377D01*
X109536623Y-109821452D01*
X109821452Y-109536623D01*
X110156377Y-109312833D01*
X110310526Y-109248983D01*
X110528526Y-109158684D01*
X110923594Y-109080100D01*
X111326406Y-109080100D01*
X111721474Y-109158684D01*
X111721474Y-109158684D01*
G37*
G36*
X87265104Y-110234585D02*
G01*
X87433626Y-110304389D01*
X87585291Y-110405728D01*
X87714272Y-110534709D01*
X87815611Y-110686374D01*
X87885415Y-110854896D01*
X87921000Y-111033797D01*
X87921000Y-111216203D01*
X87885415Y-111395104D01*
X87815611Y-111563626D01*
X87714272Y-111715291D01*
X87585291Y-111844272D01*
X87433626Y-111945611D01*
X87265104Y-112015415D01*
X87086203Y-112051000D01*
X86903797Y-112051000D01*
X86724896Y-112015415D01*
X86556374Y-111945611D01*
X86404709Y-111844272D01*
X86275728Y-111715291D01*
X86174389Y-111563626D01*
X86104585Y-111395104D01*
X86069000Y-111216203D01*
X86069000Y-111033797D01*
X86104585Y-110854896D01*
X86174389Y-110686374D01*
X86275728Y-110534709D01*
X86404709Y-110405728D01*
X86556374Y-110304389D01*
X86724896Y-110234585D01*
X86903797Y-110199000D01*
X87086203Y-110199000D01*
X87265104Y-110234585D01*
X87265104Y-110234585D01*
G37*
G36*
X116475104Y-110234585D02*
G01*
X116643626Y-110304389D01*
X116795291Y-110405728D01*
X116924272Y-110534709D01*
X117025611Y-110686374D01*
X117095415Y-110854896D01*
X117131000Y-111033797D01*
X117131000Y-111216203D01*
X117095415Y-111395104D01*
X117025611Y-111563626D01*
X116924272Y-111715291D01*
X116795291Y-111844272D01*
X116643626Y-111945611D01*
X116475104Y-112015415D01*
X116296203Y-112051000D01*
X116113797Y-112051000D01*
X115934896Y-112015415D01*
X115766374Y-111945611D01*
X115614709Y-111844272D01*
X115485728Y-111715291D01*
X115384389Y-111563626D01*
X115314585Y-111395104D01*
X115279000Y-111216203D01*
X115279000Y-111033797D01*
X115314585Y-110854896D01*
X115384389Y-110686374D01*
X115485728Y-110534709D01*
X115614709Y-110405728D01*
X115766374Y-110304389D01*
X115934896Y-110234585D01*
X116113797Y-110199000D01*
X116296203Y-110199000D01*
X116475104Y-110234585D01*
X116475104Y-110234585D01*
G37*
G36*
X106315104Y-110234585D02*
G01*
X106483626Y-110304389D01*
X106635291Y-110405728D01*
X106764272Y-110534709D01*
X106865611Y-110686374D01*
X106935415Y-110854896D01*
X106971000Y-111033797D01*
X106971000Y-111216203D01*
X106935415Y-111395104D01*
X106865611Y-111563626D01*
X106764272Y-111715291D01*
X106635291Y-111844272D01*
X106483626Y-111945611D01*
X106315104Y-112015415D01*
X106136203Y-112051000D01*
X105953797Y-112051000D01*
X105774896Y-112015415D01*
X105606374Y-111945611D01*
X105454709Y-111844272D01*
X105325728Y-111715291D01*
X105224389Y-111563626D01*
X105154585Y-111395104D01*
X105119000Y-111216203D01*
X105119000Y-111033797D01*
X105154585Y-110854896D01*
X105224389Y-110686374D01*
X105325728Y-110534709D01*
X105454709Y-110405728D01*
X105606374Y-110304389D01*
X105774896Y-110234585D01*
X105953797Y-110199000D01*
X106136203Y-110199000D01*
X106315104Y-110234585D01*
X106315104Y-110234585D01*
G37*
G36*
X97425104Y-110234585D02*
G01*
X97593626Y-110304389D01*
X97745291Y-110405728D01*
X97874272Y-110534709D01*
X97975611Y-110686374D01*
X98045415Y-110854896D01*
X98081000Y-111033797D01*
X98081000Y-111216203D01*
X98045415Y-111395104D01*
X97975611Y-111563626D01*
X97874272Y-111715291D01*
X97745291Y-111844272D01*
X97593626Y-111945611D01*
X97425104Y-112015415D01*
X97246203Y-112051000D01*
X97063797Y-112051000D01*
X96884896Y-112015415D01*
X96716374Y-111945611D01*
X96564709Y-111844272D01*
X96435728Y-111715291D01*
X96334389Y-111563626D01*
X96264585Y-111395104D01*
X96229000Y-111216203D01*
X96229000Y-111033797D01*
X96264585Y-110854896D01*
X96334389Y-110686374D01*
X96435728Y-110534709D01*
X96564709Y-110405728D01*
X96716374Y-110304389D01*
X96884896Y-110234585D01*
X97063797Y-110199000D01*
X97246203Y-110199000D01*
X97425104Y-110234585D01*
X97425104Y-110234585D01*
G37*
G36*
X135525104Y-110234585D02*
G01*
X135693626Y-110304389D01*
X135845291Y-110405728D01*
X135974272Y-110534709D01*
X136075611Y-110686374D01*
X136145415Y-110854896D01*
X136181000Y-111033797D01*
X136181000Y-111216203D01*
X136145415Y-111395104D01*
X136075611Y-111563626D01*
X135974272Y-111715291D01*
X135845291Y-111844272D01*
X135693626Y-111945611D01*
X135525104Y-112015415D01*
X135346203Y-112051000D01*
X135163797Y-112051000D01*
X134984896Y-112015415D01*
X134816374Y-111945611D01*
X134664709Y-111844272D01*
X134535728Y-111715291D01*
X134434389Y-111563626D01*
X134364585Y-111395104D01*
X134329000Y-111216203D01*
X134329000Y-111033797D01*
X134364585Y-110854896D01*
X134434389Y-110686374D01*
X134535728Y-110534709D01*
X134664709Y-110405728D01*
X134816374Y-110304389D01*
X134984896Y-110234585D01*
X135163797Y-110199000D01*
X135346203Y-110199000D01*
X135525104Y-110234585D01*
X135525104Y-110234585D01*
G37*
G36*
X125365104Y-110234585D02*
G01*
X125533626Y-110304389D01*
X125685291Y-110405728D01*
X125814272Y-110534709D01*
X125915611Y-110686374D01*
X125985415Y-110854896D01*
X126021000Y-111033797D01*
X126021000Y-111216203D01*
X125985415Y-111395104D01*
X125915611Y-111563626D01*
X125814272Y-111715291D01*
X125685291Y-111844272D01*
X125533626Y-111945611D01*
X125365104Y-112015415D01*
X125186203Y-112051000D01*
X125003797Y-112051000D01*
X124824896Y-112015415D01*
X124656374Y-111945611D01*
X124504709Y-111844272D01*
X124375728Y-111715291D01*
X124274389Y-111563626D01*
X124204585Y-111395104D01*
X124169000Y-111216203D01*
X124169000Y-111033797D01*
X124204585Y-110854896D01*
X124274389Y-110686374D01*
X124375728Y-110534709D01*
X124504709Y-110405728D01*
X124656374Y-110304389D01*
X124824896Y-110234585D01*
X125003797Y-110199000D01*
X125186203Y-110199000D01*
X125365104Y-110234585D01*
X125365104Y-110234585D01*
G37*
G36*
X141566474Y-106777434D02*
G01*
X141784474Y-106867733D01*
X141938623Y-106931583D01*
X142273548Y-107155373D01*
X142558377Y-107440202D01*
X142782167Y-107775127D01*
X142807110Y-107835346D01*
X142936316Y-108147276D01*
X143014900Y-108542344D01*
X143014900Y-108945156D01*
X142936316Y-109340224D01*
X142874363Y-109489791D01*
X142782167Y-109712373D01*
X142558377Y-110047298D01*
X142273548Y-110332127D01*
X141938623Y-110555917D01*
X141784474Y-110619767D01*
X141566474Y-110710066D01*
X141171406Y-110788650D01*
X140768594Y-110788650D01*
X140373526Y-110710066D01*
X140155526Y-110619767D01*
X140001377Y-110555917D01*
X139666452Y-110332127D01*
X139381623Y-110047298D01*
X139157833Y-109712373D01*
X139065637Y-109489791D01*
X139003684Y-109340224D01*
X138925100Y-108945156D01*
X138925100Y-108542344D01*
X139003684Y-108147276D01*
X139132890Y-107835346D01*
X139157833Y-107775127D01*
X139381623Y-107440202D01*
X139666452Y-107155373D01*
X140001377Y-106931583D01*
X140155526Y-106867733D01*
X140373526Y-106777434D01*
X140768594Y-106698850D01*
X141171406Y-106698850D01*
X141566474Y-106777434D01*
X141566474Y-106777434D01*
G37*
G36*
X156517267Y-107199013D02*
G01*
X156669411Y-107229276D01*
X156788137Y-107278454D01*
X156956041Y-107348002D01*
X156956042Y-107348003D01*
X157214004Y-107520367D01*
X157433383Y-107739746D01*
X157548553Y-107912111D01*
X157605748Y-107997709D01*
X157724474Y-108284340D01*
X157785000Y-108588625D01*
X157785000Y-108898875D01*
X157724474Y-109203160D01*
X157605748Y-109489791D01*
X157605747Y-109489792D01*
X157433383Y-109747754D01*
X157214004Y-109967133D01*
X157094028Y-110047298D01*
X156956041Y-110139498D01*
X156812390Y-110199000D01*
X156669411Y-110258224D01*
X156517267Y-110288487D01*
X156365125Y-110318750D01*
X156054875Y-110318750D01*
X155902733Y-110288487D01*
X155750589Y-110258224D01*
X155607610Y-110199000D01*
X155463959Y-110139498D01*
X155325972Y-110047298D01*
X155205996Y-109967133D01*
X154986617Y-109747754D01*
X154814253Y-109489792D01*
X154814252Y-109489791D01*
X154695526Y-109203160D01*
X154635000Y-108898875D01*
X154635000Y-108588625D01*
X154695526Y-108284340D01*
X154814252Y-107997709D01*
X154871447Y-107912111D01*
X154986617Y-107739746D01*
X155205996Y-107520367D01*
X155463958Y-107348003D01*
X155463959Y-107348002D01*
X155631863Y-107278454D01*
X155750589Y-107229276D01*
X155902733Y-107199013D01*
X156054875Y-107168750D01*
X156365125Y-107168750D01*
X156517267Y-107199013D01*
X156517267Y-107199013D01*
G37*
G36*
X126556560Y-107424064D02*
G01*
X126708027Y-107454193D01*
X126922045Y-107542842D01*
X126922046Y-107542843D01*
X127114654Y-107671539D01*
X127278461Y-107835346D01*
X127364258Y-107963751D01*
X127407158Y-108027955D01*
X127495807Y-108241973D01*
X127541000Y-108469174D01*
X127541000Y-108700826D01*
X127495807Y-108928027D01*
X127407158Y-109142045D01*
X127407157Y-109142046D01*
X127278461Y-109334654D01*
X127114654Y-109498461D01*
X127057540Y-109536623D01*
X126922045Y-109627158D01*
X126708027Y-109715807D01*
X126556560Y-109745936D01*
X126480827Y-109761000D01*
X126249173Y-109761000D01*
X126173440Y-109745936D01*
X126021973Y-109715807D01*
X125807955Y-109627158D01*
X125672460Y-109536623D01*
X125615346Y-109498461D01*
X125451539Y-109334654D01*
X125322843Y-109142046D01*
X125322842Y-109142045D01*
X125234193Y-108928027D01*
X125189000Y-108700826D01*
X125189000Y-108469174D01*
X125234193Y-108241973D01*
X125322842Y-108027955D01*
X125365742Y-107963751D01*
X125451539Y-107835346D01*
X125615346Y-107671539D01*
X125807954Y-107542843D01*
X125807955Y-107542842D01*
X126021973Y-107454193D01*
X126173440Y-107424064D01*
X126249173Y-107409000D01*
X126480827Y-107409000D01*
X126556560Y-107424064D01*
X126556560Y-107424064D01*
G37*
G36*
X107506560Y-107424064D02*
G01*
X107658027Y-107454193D01*
X107872045Y-107542842D01*
X107872046Y-107542843D01*
X108064654Y-107671539D01*
X108228461Y-107835346D01*
X108314258Y-107963751D01*
X108357158Y-108027955D01*
X108445807Y-108241973D01*
X108491000Y-108469174D01*
X108491000Y-108700826D01*
X108445807Y-108928027D01*
X108357158Y-109142045D01*
X108357157Y-109142046D01*
X108228461Y-109334654D01*
X108064654Y-109498461D01*
X108007540Y-109536623D01*
X107872045Y-109627158D01*
X107658027Y-109715807D01*
X107506560Y-109745936D01*
X107430827Y-109761000D01*
X107199173Y-109761000D01*
X107123440Y-109745936D01*
X106971973Y-109715807D01*
X106757955Y-109627158D01*
X106622460Y-109536623D01*
X106565346Y-109498461D01*
X106401539Y-109334654D01*
X106272843Y-109142046D01*
X106272842Y-109142045D01*
X106184193Y-108928027D01*
X106139000Y-108700826D01*
X106139000Y-108469174D01*
X106184193Y-108241973D01*
X106272842Y-108027955D01*
X106315742Y-107963751D01*
X106401539Y-107835346D01*
X106565346Y-107671539D01*
X106757954Y-107542843D01*
X106757955Y-107542842D01*
X106971973Y-107454193D01*
X107123440Y-107424064D01*
X107199173Y-107409000D01*
X107430827Y-107409000D01*
X107506560Y-107424064D01*
X107506560Y-107424064D01*
G37*
G36*
X88456560Y-107424064D02*
G01*
X88608027Y-107454193D01*
X88822045Y-107542842D01*
X88822046Y-107542843D01*
X89014654Y-107671539D01*
X89178461Y-107835346D01*
X89264258Y-107963751D01*
X89307158Y-108027955D01*
X89395807Y-108241973D01*
X89441000Y-108469174D01*
X89441000Y-108700826D01*
X89395807Y-108928027D01*
X89307158Y-109142045D01*
X89307157Y-109142046D01*
X89178461Y-109334654D01*
X89014654Y-109498461D01*
X88957540Y-109536623D01*
X88822045Y-109627158D01*
X88608027Y-109715807D01*
X88456560Y-109745936D01*
X88380827Y-109761000D01*
X88149173Y-109761000D01*
X88073440Y-109745936D01*
X87921973Y-109715807D01*
X87707955Y-109627158D01*
X87572460Y-109536623D01*
X87515346Y-109498461D01*
X87351539Y-109334654D01*
X87222843Y-109142046D01*
X87222842Y-109142045D01*
X87134193Y-108928027D01*
X87089000Y-108700826D01*
X87089000Y-108469174D01*
X87134193Y-108241973D01*
X87222842Y-108027955D01*
X87265742Y-107963751D01*
X87351539Y-107835346D01*
X87515346Y-107671539D01*
X87707954Y-107542843D01*
X87707955Y-107542842D01*
X87921973Y-107454193D01*
X88073440Y-107424064D01*
X88149173Y-107409000D01*
X88380827Y-107409000D01*
X88456560Y-107424064D01*
X88456560Y-107424064D01*
G37*
G36*
X94806560Y-104884064D02*
G01*
X94958027Y-104914193D01*
X95172045Y-105002842D01*
X95172046Y-105002843D01*
X95364654Y-105131539D01*
X95528461Y-105295346D01*
X95614258Y-105423751D01*
X95657158Y-105487955D01*
X95745807Y-105701973D01*
X95791000Y-105929174D01*
X95791000Y-106160826D01*
X95745807Y-106388027D01*
X95657158Y-106602045D01*
X95657157Y-106602046D01*
X95528461Y-106794654D01*
X95364654Y-106958461D01*
X95236249Y-107044258D01*
X95172045Y-107087158D01*
X94958027Y-107175807D01*
X94806560Y-107205936D01*
X94730827Y-107221000D01*
X94499173Y-107221000D01*
X94423440Y-107205936D01*
X94271973Y-107175807D01*
X94057955Y-107087158D01*
X93993751Y-107044258D01*
X93865346Y-106958461D01*
X93701539Y-106794654D01*
X93572843Y-106602046D01*
X93572842Y-106602045D01*
X93484193Y-106388027D01*
X93439000Y-106160826D01*
X93439000Y-105929174D01*
X93484193Y-105701973D01*
X93572842Y-105487955D01*
X93615742Y-105423751D01*
X93701539Y-105295346D01*
X93865346Y-105131539D01*
X94057954Y-105002843D01*
X94057955Y-105002842D01*
X94271973Y-104914193D01*
X94423440Y-104884064D01*
X94499173Y-104869000D01*
X94730827Y-104869000D01*
X94806560Y-104884064D01*
X94806560Y-104884064D01*
G37*
G36*
X113856560Y-104884064D02*
G01*
X114008027Y-104914193D01*
X114222045Y-105002842D01*
X114222046Y-105002843D01*
X114414654Y-105131539D01*
X114578461Y-105295346D01*
X114664258Y-105423751D01*
X114707158Y-105487955D01*
X114795807Y-105701973D01*
X114841000Y-105929174D01*
X114841000Y-106160826D01*
X114795807Y-106388027D01*
X114707158Y-106602045D01*
X114707157Y-106602046D01*
X114578461Y-106794654D01*
X114414654Y-106958461D01*
X114286249Y-107044258D01*
X114222045Y-107087158D01*
X114008027Y-107175807D01*
X113856560Y-107205936D01*
X113780827Y-107221000D01*
X113549173Y-107221000D01*
X113473440Y-107205936D01*
X113321973Y-107175807D01*
X113107955Y-107087158D01*
X113043751Y-107044258D01*
X112915346Y-106958461D01*
X112751539Y-106794654D01*
X112622843Y-106602046D01*
X112622842Y-106602045D01*
X112534193Y-106388027D01*
X112489000Y-106160826D01*
X112489000Y-105929174D01*
X112534193Y-105701973D01*
X112622842Y-105487955D01*
X112665742Y-105423751D01*
X112751539Y-105295346D01*
X112915346Y-105131539D01*
X113107954Y-105002843D01*
X113107955Y-105002842D01*
X113321973Y-104914193D01*
X113473440Y-104884064D01*
X113549173Y-104869000D01*
X113780827Y-104869000D01*
X113856560Y-104884064D01*
X113856560Y-104884064D01*
G37*
G36*
X132906560Y-104884064D02*
G01*
X133058027Y-104914193D01*
X133272045Y-105002842D01*
X133272046Y-105002843D01*
X133464654Y-105131539D01*
X133628461Y-105295346D01*
X133714258Y-105423751D01*
X133757158Y-105487955D01*
X133845807Y-105701973D01*
X133891000Y-105929174D01*
X133891000Y-106160826D01*
X133845807Y-106388027D01*
X133757158Y-106602045D01*
X133757157Y-106602046D01*
X133628461Y-106794654D01*
X133464654Y-106958461D01*
X133336249Y-107044258D01*
X133272045Y-107087158D01*
X133058027Y-107175807D01*
X132906560Y-107205936D01*
X132830827Y-107221000D01*
X132599173Y-107221000D01*
X132523440Y-107205936D01*
X132371973Y-107175807D01*
X132157955Y-107087158D01*
X132093751Y-107044258D01*
X131965346Y-106958461D01*
X131801539Y-106794654D01*
X131672843Y-106602046D01*
X131672842Y-106602045D01*
X131584193Y-106388027D01*
X131539000Y-106160826D01*
X131539000Y-105929174D01*
X131584193Y-105701973D01*
X131672842Y-105487955D01*
X131715742Y-105423751D01*
X131801539Y-105295346D01*
X131965346Y-105131539D01*
X132157954Y-105002843D01*
X132157955Y-105002842D01*
X132371973Y-104914193D01*
X132523440Y-104884064D01*
X132599173Y-104869000D01*
X132830827Y-104869000D01*
X132906560Y-104884064D01*
X132906560Y-104884064D01*
G37*
G36*
X152802880Y-99359776D02*
G01*
X153183593Y-99435504D01*
X153593249Y-99605189D01*
X153961929Y-99851534D01*
X154275466Y-100165071D01*
X154521811Y-100533751D01*
X154691496Y-100943407D01*
X154778000Y-101378296D01*
X154778000Y-101821704D01*
X154691496Y-102256593D01*
X154521811Y-102666249D01*
X154275466Y-103034929D01*
X153961929Y-103348466D01*
X153593249Y-103594811D01*
X153183593Y-103764496D01*
X152802880Y-103840224D01*
X152748705Y-103851000D01*
X152305295Y-103851000D01*
X152251120Y-103840224D01*
X151870407Y-103764496D01*
X151460751Y-103594811D01*
X151092071Y-103348466D01*
X150778534Y-103034929D01*
X150532189Y-102666249D01*
X150362504Y-102256593D01*
X150276000Y-101821704D01*
X150276000Y-101378296D01*
X150362504Y-100943407D01*
X150532189Y-100533751D01*
X150778534Y-100165071D01*
X151092071Y-99851534D01*
X151460751Y-99605189D01*
X151870407Y-99435504D01*
X152251120Y-99359776D01*
X152305295Y-99349000D01*
X152748705Y-99349000D01*
X152802880Y-99359776D01*
X152802880Y-99359776D01*
G37*
G36*
X114316000Y-98545000D02*
G01*
X113014000Y-98545000D01*
X113014000Y-97543000D01*
X114316000Y-97543000D01*
X114316000Y-98545000D01*
X114316000Y-98545000D01*
G37*
G36*
X133366000Y-98544000D02*
G01*
X132064000Y-98544000D01*
X132064000Y-97542000D01*
X133366000Y-97542000D01*
X133366000Y-98544000D01*
X133366000Y-98544000D01*
G37*
G36*
X95267000Y-98544000D02*
G01*
X93965000Y-98544000D01*
X93965000Y-97542000D01*
X95267000Y-97542000D01*
X95267000Y-98544000D01*
X95267000Y-98544000D01*
G37*
G36*
X141566474Y-92489934D02*
G01*
X141784474Y-92580233D01*
X141938623Y-92644083D01*
X142273548Y-92867873D01*
X142558377Y-93152702D01*
X142782167Y-93487627D01*
X142782167Y-93487628D01*
X142936316Y-93859776D01*
X143014900Y-94254844D01*
X143014900Y-94657656D01*
X142936316Y-95052724D01*
X142846017Y-95270724D01*
X142782167Y-95424873D01*
X142558377Y-95759798D01*
X142273548Y-96044627D01*
X141938623Y-96268417D01*
X141784474Y-96332267D01*
X141566474Y-96422566D01*
X141171406Y-96501150D01*
X140768594Y-96501150D01*
X140373526Y-96422566D01*
X140155526Y-96332267D01*
X140001377Y-96268417D01*
X139666452Y-96044627D01*
X139381623Y-95759798D01*
X139157833Y-95424873D01*
X139093983Y-95270724D01*
X139003684Y-95052724D01*
X138925100Y-94657656D01*
X138925100Y-94254844D01*
X139003684Y-93859776D01*
X139157833Y-93487628D01*
X139157833Y-93487627D01*
X139381623Y-93152702D01*
X139666452Y-92867873D01*
X140001377Y-92644083D01*
X140155526Y-92580233D01*
X140373526Y-92489934D01*
X140768594Y-92411350D01*
X141171406Y-92411350D01*
X141566474Y-92489934D01*
X141566474Y-92489934D01*
G37*
G36*
X156669411Y-92941776D02*
G01*
X156726480Y-92965415D01*
X156956041Y-93060502D01*
X156956042Y-93060503D01*
X157214004Y-93232867D01*
X157433383Y-93452246D01*
X157457024Y-93487628D01*
X157605748Y-93710209D01*
X157724474Y-93996840D01*
X157785000Y-94301125D01*
X157785000Y-94611375D01*
X157724474Y-94915660D01*
X157605748Y-95202291D01*
X157605747Y-95202292D01*
X157433383Y-95460254D01*
X157214004Y-95679633D01*
X157094028Y-95759798D01*
X156956041Y-95851998D01*
X156788137Y-95921546D01*
X156669411Y-95970724D01*
X156517267Y-96000987D01*
X156365125Y-96031250D01*
X156054875Y-96031250D01*
X155902733Y-96000987D01*
X155750589Y-95970724D01*
X155631863Y-95921546D01*
X155463959Y-95851998D01*
X155325972Y-95759798D01*
X155205996Y-95679633D01*
X154986617Y-95460254D01*
X154814253Y-95202292D01*
X154814252Y-95202291D01*
X154695526Y-94915660D01*
X154635000Y-94611375D01*
X154635000Y-94301125D01*
X154695526Y-93996840D01*
X154814252Y-93710209D01*
X154962976Y-93487628D01*
X154986617Y-93452246D01*
X155205996Y-93232867D01*
X155463958Y-93060503D01*
X155463959Y-93060502D01*
X155693520Y-92965415D01*
X155750589Y-92941776D01*
X156054875Y-92881250D01*
X156365125Y-92881250D01*
X156669411Y-92941776D01*
X156669411Y-92941776D01*
G37*
G36*
X114316000Y-95245000D02*
G01*
X113014000Y-95245000D01*
X113014000Y-94243000D01*
X114316000Y-94243000D01*
X114316000Y-95245000D01*
X114316000Y-95245000D01*
G37*
G36*
X133366000Y-95244000D02*
G01*
X132064000Y-95244000D01*
X132064000Y-94242000D01*
X133366000Y-94242000D01*
X133366000Y-95244000D01*
X133366000Y-95244000D01*
G37*
G36*
X95267000Y-95244000D02*
G01*
X93965000Y-95244000D01*
X93965000Y-94242000D01*
X95267000Y-94242000D01*
X95267000Y-95244000D01*
X95267000Y-95244000D01*
G37*
G36*
X92671474Y-90108684D02*
G01*
X92889474Y-90198983D01*
X93043623Y-90262833D01*
X93378548Y-90486623D01*
X93663377Y-90771452D01*
X93887167Y-91106377D01*
X93919562Y-91184586D01*
X94041316Y-91478526D01*
X94119900Y-91873594D01*
X94119900Y-92276406D01*
X94041316Y-92671474D01*
X93990451Y-92794272D01*
X93887167Y-93043623D01*
X93663377Y-93378548D01*
X93378548Y-93663377D01*
X93043623Y-93887167D01*
X92889474Y-93951017D01*
X92671474Y-94041316D01*
X92276406Y-94119900D01*
X91873594Y-94119900D01*
X91478526Y-94041316D01*
X91260526Y-93951017D01*
X91106377Y-93887167D01*
X90771452Y-93663377D01*
X90486623Y-93378548D01*
X90262833Y-93043623D01*
X90159549Y-92794272D01*
X90108684Y-92671474D01*
X90030100Y-92276406D01*
X90030100Y-91873594D01*
X90108684Y-91478526D01*
X90230438Y-91184586D01*
X90262833Y-91106377D01*
X90486623Y-90771452D01*
X90771452Y-90486623D01*
X91106377Y-90262833D01*
X91260526Y-90198983D01*
X91478526Y-90108684D01*
X91873594Y-90030100D01*
X92276406Y-90030100D01*
X92671474Y-90108684D01*
X92671474Y-90108684D01*
G37*
G36*
X130771474Y-90108684D02*
G01*
X130989474Y-90198983D01*
X131143623Y-90262833D01*
X131478548Y-90486623D01*
X131763377Y-90771452D01*
X131987167Y-91106377D01*
X132019562Y-91184586D01*
X132141316Y-91478526D01*
X132219900Y-91873594D01*
X132219900Y-92276406D01*
X132141316Y-92671474D01*
X132090451Y-92794272D01*
X131987167Y-93043623D01*
X131763377Y-93378548D01*
X131478548Y-93663377D01*
X131143623Y-93887167D01*
X130989474Y-93951017D01*
X130771474Y-94041316D01*
X130376406Y-94119900D01*
X129973594Y-94119900D01*
X129578526Y-94041316D01*
X129360526Y-93951017D01*
X129206377Y-93887167D01*
X128871452Y-93663377D01*
X128586623Y-93378548D01*
X128362833Y-93043623D01*
X128259549Y-92794272D01*
X128208684Y-92671474D01*
X128130100Y-92276406D01*
X128130100Y-91873594D01*
X128208684Y-91478526D01*
X128330438Y-91184586D01*
X128362833Y-91106377D01*
X128586623Y-90771452D01*
X128871452Y-90486623D01*
X129206377Y-90262833D01*
X129360526Y-90198983D01*
X129578526Y-90108684D01*
X129973594Y-90030100D01*
X130376406Y-90030100D01*
X130771474Y-90108684D01*
X130771474Y-90108684D01*
G37*
G36*
X111721474Y-90108684D02*
G01*
X111939474Y-90198983D01*
X112093623Y-90262833D01*
X112428548Y-90486623D01*
X112713377Y-90771452D01*
X112937167Y-91106377D01*
X112969562Y-91184586D01*
X113091316Y-91478526D01*
X113169900Y-91873594D01*
X113169900Y-92276406D01*
X113091316Y-92671474D01*
X113040451Y-92794272D01*
X112937167Y-93043623D01*
X112713377Y-93378548D01*
X112428548Y-93663377D01*
X112093623Y-93887167D01*
X111939474Y-93951017D01*
X111721474Y-94041316D01*
X111326406Y-94119900D01*
X110923594Y-94119900D01*
X110528526Y-94041316D01*
X110310526Y-93951017D01*
X110156377Y-93887167D01*
X109821452Y-93663377D01*
X109536623Y-93378548D01*
X109312833Y-93043623D01*
X109209549Y-92794272D01*
X109158684Y-92671474D01*
X109080100Y-92276406D01*
X109080100Y-91873594D01*
X109158684Y-91478526D01*
X109280438Y-91184586D01*
X109312833Y-91106377D01*
X109536623Y-90771452D01*
X109821452Y-90486623D01*
X110156377Y-90262833D01*
X110310526Y-90198983D01*
X110528526Y-90108684D01*
X110923594Y-90030100D01*
X111326406Y-90030100D01*
X111721474Y-90108684D01*
X111721474Y-90108684D01*
G37*
G36*
X125365104Y-91184585D02*
G01*
X125533626Y-91254389D01*
X125685291Y-91355728D01*
X125814272Y-91484709D01*
X125915611Y-91636374D01*
X125985415Y-91804896D01*
X126021000Y-91983797D01*
X126021000Y-92166203D01*
X125985415Y-92345104D01*
X125915611Y-92513626D01*
X125814272Y-92665291D01*
X125685291Y-92794272D01*
X125533626Y-92895611D01*
X125365104Y-92965415D01*
X125186203Y-93001000D01*
X125003797Y-93001000D01*
X124824896Y-92965415D01*
X124656374Y-92895611D01*
X124504709Y-92794272D01*
X124375728Y-92665291D01*
X124274389Y-92513626D01*
X124204585Y-92345104D01*
X124169000Y-92166203D01*
X124169000Y-91983797D01*
X124204585Y-91804896D01*
X124274389Y-91636374D01*
X124375728Y-91484709D01*
X124504709Y-91355728D01*
X124656374Y-91254389D01*
X124824896Y-91184585D01*
X125003797Y-91149000D01*
X125186203Y-91149000D01*
X125365104Y-91184585D01*
X125365104Y-91184585D01*
G37*
G36*
X135525104Y-91184585D02*
G01*
X135693626Y-91254389D01*
X135845291Y-91355728D01*
X135974272Y-91484709D01*
X136075611Y-91636374D01*
X136145415Y-91804896D01*
X136181000Y-91983797D01*
X136181000Y-92166203D01*
X136145415Y-92345104D01*
X136075611Y-92513626D01*
X135974272Y-92665291D01*
X135845291Y-92794272D01*
X135693626Y-92895611D01*
X135525104Y-92965415D01*
X135346203Y-93001000D01*
X135163797Y-93001000D01*
X134984896Y-92965415D01*
X134816374Y-92895611D01*
X134664709Y-92794272D01*
X134535728Y-92665291D01*
X134434389Y-92513626D01*
X134364585Y-92345104D01*
X134329000Y-92166203D01*
X134329000Y-91983797D01*
X134364585Y-91804896D01*
X134434389Y-91636374D01*
X134535728Y-91484709D01*
X134664709Y-91355728D01*
X134816374Y-91254389D01*
X134984896Y-91184585D01*
X135163797Y-91149000D01*
X135346203Y-91149000D01*
X135525104Y-91184585D01*
X135525104Y-91184585D01*
G37*
G36*
X116475104Y-91184585D02*
G01*
X116643626Y-91254389D01*
X116795291Y-91355728D01*
X116924272Y-91484709D01*
X117025611Y-91636374D01*
X117095415Y-91804896D01*
X117131000Y-91983797D01*
X117131000Y-92166203D01*
X117095415Y-92345104D01*
X117025611Y-92513626D01*
X116924272Y-92665291D01*
X116795291Y-92794272D01*
X116643626Y-92895611D01*
X116475104Y-92965415D01*
X116296203Y-93001000D01*
X116113797Y-93001000D01*
X115934896Y-92965415D01*
X115766374Y-92895611D01*
X115614709Y-92794272D01*
X115485728Y-92665291D01*
X115384389Y-92513626D01*
X115314585Y-92345104D01*
X115279000Y-92166203D01*
X115279000Y-91983797D01*
X115314585Y-91804896D01*
X115384389Y-91636374D01*
X115485728Y-91484709D01*
X115614709Y-91355728D01*
X115766374Y-91254389D01*
X115934896Y-91184585D01*
X116113797Y-91149000D01*
X116296203Y-91149000D01*
X116475104Y-91184585D01*
X116475104Y-91184585D01*
G37*
G36*
X106315104Y-91184585D02*
G01*
X106483626Y-91254389D01*
X106635291Y-91355728D01*
X106764272Y-91484709D01*
X106865611Y-91636374D01*
X106935415Y-91804896D01*
X106971000Y-91983797D01*
X106971000Y-92166203D01*
X106935415Y-92345104D01*
X106865611Y-92513626D01*
X106764272Y-92665291D01*
X106635291Y-92794272D01*
X106483626Y-92895611D01*
X106315104Y-92965415D01*
X106136203Y-93001000D01*
X105953797Y-93001000D01*
X105774896Y-92965415D01*
X105606374Y-92895611D01*
X105454709Y-92794272D01*
X105325728Y-92665291D01*
X105224389Y-92513626D01*
X105154585Y-92345104D01*
X105119000Y-92166203D01*
X105119000Y-91983797D01*
X105154585Y-91804896D01*
X105224389Y-91636374D01*
X105325728Y-91484709D01*
X105454709Y-91355728D01*
X105606374Y-91254389D01*
X105774896Y-91184585D01*
X105953797Y-91149000D01*
X106136203Y-91149000D01*
X106315104Y-91184585D01*
X106315104Y-91184585D01*
G37*
G36*
X97425104Y-91184585D02*
G01*
X97593626Y-91254389D01*
X97745291Y-91355728D01*
X97874272Y-91484709D01*
X97975611Y-91636374D01*
X98045415Y-91804896D01*
X98081000Y-91983797D01*
X98081000Y-92166203D01*
X98045415Y-92345104D01*
X97975611Y-92513626D01*
X97874272Y-92665291D01*
X97745291Y-92794272D01*
X97593626Y-92895611D01*
X97425104Y-92965415D01*
X97246203Y-93001000D01*
X97063797Y-93001000D01*
X96884896Y-92965415D01*
X96716374Y-92895611D01*
X96564709Y-92794272D01*
X96435728Y-92665291D01*
X96334389Y-92513626D01*
X96264585Y-92345104D01*
X96229000Y-92166203D01*
X96229000Y-91983797D01*
X96264585Y-91804896D01*
X96334389Y-91636374D01*
X96435728Y-91484709D01*
X96564709Y-91355728D01*
X96716374Y-91254389D01*
X96884896Y-91184585D01*
X97063797Y-91149000D01*
X97246203Y-91149000D01*
X97425104Y-91184585D01*
X97425104Y-91184585D01*
G37*
G36*
X87265104Y-91184585D02*
G01*
X87433626Y-91254389D01*
X87585291Y-91355728D01*
X87714272Y-91484709D01*
X87815611Y-91636374D01*
X87885415Y-91804896D01*
X87921000Y-91983797D01*
X87921000Y-92166203D01*
X87885415Y-92345104D01*
X87815611Y-92513626D01*
X87714272Y-92665291D01*
X87585291Y-92794272D01*
X87433626Y-92895611D01*
X87265104Y-92965415D01*
X87086203Y-93001000D01*
X86903797Y-93001000D01*
X86724896Y-92965415D01*
X86556374Y-92895611D01*
X86404709Y-92794272D01*
X86275728Y-92665291D01*
X86174389Y-92513626D01*
X86104585Y-92345104D01*
X86069000Y-92166203D01*
X86069000Y-91983797D01*
X86104585Y-91804896D01*
X86174389Y-91636374D01*
X86275728Y-91484709D01*
X86404709Y-91355728D01*
X86556374Y-91254389D01*
X86724896Y-91184585D01*
X86903797Y-91149000D01*
X87086203Y-91149000D01*
X87265104Y-91184585D01*
X87265104Y-91184585D01*
G37*
G36*
X88456560Y-88374064D02*
G01*
X88608027Y-88404193D01*
X88822045Y-88492842D01*
X88822046Y-88492843D01*
X89014654Y-88621539D01*
X89178461Y-88785346D01*
X89264258Y-88913751D01*
X89307158Y-88977955D01*
X89395807Y-89191973D01*
X89441000Y-89419174D01*
X89441000Y-89650826D01*
X89395807Y-89878027D01*
X89307158Y-90092045D01*
X89307157Y-90092046D01*
X89178461Y-90284654D01*
X89014654Y-90448461D01*
X88957540Y-90486623D01*
X88822045Y-90577158D01*
X88608027Y-90665807D01*
X88456560Y-90695936D01*
X88380827Y-90711000D01*
X88149173Y-90711000D01*
X88073440Y-90695936D01*
X87921973Y-90665807D01*
X87707955Y-90577158D01*
X87572460Y-90486623D01*
X87515346Y-90448461D01*
X87351539Y-90284654D01*
X87222843Y-90092046D01*
X87222842Y-90092045D01*
X87134193Y-89878027D01*
X87089000Y-89650826D01*
X87089000Y-89419174D01*
X87134193Y-89191973D01*
X87222842Y-88977955D01*
X87265742Y-88913751D01*
X87351539Y-88785346D01*
X87515346Y-88621539D01*
X87707954Y-88492843D01*
X87707955Y-88492842D01*
X87921973Y-88404193D01*
X88073440Y-88374064D01*
X88149173Y-88359000D01*
X88380827Y-88359000D01*
X88456560Y-88374064D01*
X88456560Y-88374064D01*
G37*
G36*
X107506560Y-88374064D02*
G01*
X107658027Y-88404193D01*
X107872045Y-88492842D01*
X107872046Y-88492843D01*
X108064654Y-88621539D01*
X108228461Y-88785346D01*
X108314258Y-88913751D01*
X108357158Y-88977955D01*
X108445807Y-89191973D01*
X108491000Y-89419174D01*
X108491000Y-89650826D01*
X108445807Y-89878027D01*
X108357158Y-90092045D01*
X108357157Y-90092046D01*
X108228461Y-90284654D01*
X108064654Y-90448461D01*
X108007540Y-90486623D01*
X107872045Y-90577158D01*
X107658027Y-90665807D01*
X107506560Y-90695936D01*
X107430827Y-90711000D01*
X107199173Y-90711000D01*
X107123440Y-90695936D01*
X106971973Y-90665807D01*
X106757955Y-90577158D01*
X106622460Y-90486623D01*
X106565346Y-90448461D01*
X106401539Y-90284654D01*
X106272843Y-90092046D01*
X106272842Y-90092045D01*
X106184193Y-89878027D01*
X106139000Y-89650826D01*
X106139000Y-89419174D01*
X106184193Y-89191973D01*
X106272842Y-88977955D01*
X106315742Y-88913751D01*
X106401539Y-88785346D01*
X106565346Y-88621539D01*
X106757954Y-88492843D01*
X106757955Y-88492842D01*
X106971973Y-88404193D01*
X107123440Y-88374064D01*
X107199173Y-88359000D01*
X107430827Y-88359000D01*
X107506560Y-88374064D01*
X107506560Y-88374064D01*
G37*
G36*
X126556560Y-88374064D02*
G01*
X126708027Y-88404193D01*
X126922045Y-88492842D01*
X126922046Y-88492843D01*
X127114654Y-88621539D01*
X127278461Y-88785346D01*
X127364258Y-88913751D01*
X127407158Y-88977955D01*
X127495807Y-89191973D01*
X127541000Y-89419174D01*
X127541000Y-89650826D01*
X127495807Y-89878027D01*
X127407158Y-90092045D01*
X127407157Y-90092046D01*
X127278461Y-90284654D01*
X127114654Y-90448461D01*
X127057540Y-90486623D01*
X126922045Y-90577158D01*
X126708027Y-90665807D01*
X126556560Y-90695936D01*
X126480827Y-90711000D01*
X126249173Y-90711000D01*
X126173440Y-90695936D01*
X126021973Y-90665807D01*
X125807955Y-90577158D01*
X125672460Y-90486623D01*
X125615346Y-90448461D01*
X125451539Y-90284654D01*
X125322843Y-90092046D01*
X125322842Y-90092045D01*
X125234193Y-89878027D01*
X125189000Y-89650826D01*
X125189000Y-89419174D01*
X125234193Y-89191973D01*
X125322842Y-88977955D01*
X125365742Y-88913751D01*
X125451539Y-88785346D01*
X125615346Y-88621539D01*
X125807954Y-88492843D01*
X125807955Y-88492842D01*
X126021973Y-88404193D01*
X126173440Y-88374064D01*
X126249173Y-88359000D01*
X126480827Y-88359000D01*
X126556560Y-88374064D01*
X126556560Y-88374064D01*
G37*
G36*
X149495104Y-86739585D02*
G01*
X149663626Y-86809389D01*
X149815291Y-86910728D01*
X149944272Y-87039709D01*
X150045611Y-87191374D01*
X150115415Y-87359896D01*
X150151000Y-87538797D01*
X150151000Y-87721203D01*
X150115415Y-87900104D01*
X150045611Y-88068626D01*
X149944272Y-88220291D01*
X149815291Y-88349272D01*
X149663626Y-88450611D01*
X149495104Y-88520415D01*
X149316203Y-88556000D01*
X149133797Y-88556000D01*
X148954896Y-88520415D01*
X148786374Y-88450611D01*
X148634709Y-88349272D01*
X148505728Y-88220291D01*
X148404389Y-88068626D01*
X148334585Y-87900104D01*
X148299000Y-87721203D01*
X148299000Y-87538797D01*
X148334585Y-87359896D01*
X148404389Y-87191374D01*
X148505728Y-87039709D01*
X148634709Y-86910728D01*
X148786374Y-86809389D01*
X148954896Y-86739585D01*
X149133797Y-86704000D01*
X149316203Y-86704000D01*
X149495104Y-86739585D01*
X149495104Y-86739585D01*
G37*
G36*
X94806560Y-85834064D02*
G01*
X94958027Y-85864193D01*
X95172045Y-85952842D01*
X95172046Y-85952843D01*
X95364654Y-86081539D01*
X95528461Y-86245346D01*
X95614258Y-86373751D01*
X95657158Y-86437955D01*
X95745807Y-86651973D01*
X95791000Y-86879174D01*
X95791000Y-87110826D01*
X95745807Y-87338027D01*
X95657158Y-87552045D01*
X95657157Y-87552046D01*
X95528461Y-87744654D01*
X95364654Y-87908461D01*
X95236249Y-87994258D01*
X95172045Y-88037158D01*
X94958027Y-88125807D01*
X94806560Y-88155936D01*
X94730827Y-88171000D01*
X94499173Y-88171000D01*
X94423440Y-88155936D01*
X94271973Y-88125807D01*
X94057955Y-88037158D01*
X93993751Y-87994258D01*
X93865346Y-87908461D01*
X93701539Y-87744654D01*
X93572843Y-87552046D01*
X93572842Y-87552045D01*
X93484193Y-87338027D01*
X93439000Y-87110826D01*
X93439000Y-86879174D01*
X93484193Y-86651973D01*
X93572842Y-86437955D01*
X93615742Y-86373751D01*
X93701539Y-86245346D01*
X93865346Y-86081539D01*
X94057954Y-85952843D01*
X94057955Y-85952842D01*
X94271973Y-85864193D01*
X94423440Y-85834064D01*
X94499173Y-85819000D01*
X94730827Y-85819000D01*
X94806560Y-85834064D01*
X94806560Y-85834064D01*
G37*
G36*
X113856560Y-85834064D02*
G01*
X114008027Y-85864193D01*
X114222045Y-85952842D01*
X114222046Y-85952843D01*
X114414654Y-86081539D01*
X114578461Y-86245346D01*
X114664258Y-86373751D01*
X114707158Y-86437955D01*
X114795807Y-86651973D01*
X114841000Y-86879174D01*
X114841000Y-87110826D01*
X114795807Y-87338027D01*
X114707158Y-87552045D01*
X114707157Y-87552046D01*
X114578461Y-87744654D01*
X114414654Y-87908461D01*
X114286249Y-87994258D01*
X114222045Y-88037158D01*
X114008027Y-88125807D01*
X113856560Y-88155936D01*
X113780827Y-88171000D01*
X113549173Y-88171000D01*
X113473440Y-88155936D01*
X113321973Y-88125807D01*
X113107955Y-88037158D01*
X113043751Y-87994258D01*
X112915346Y-87908461D01*
X112751539Y-87744654D01*
X112622843Y-87552046D01*
X112622842Y-87552045D01*
X112534193Y-87338027D01*
X112489000Y-87110826D01*
X112489000Y-86879174D01*
X112534193Y-86651973D01*
X112622842Y-86437955D01*
X112665742Y-86373751D01*
X112751539Y-86245346D01*
X112915346Y-86081539D01*
X113107954Y-85952843D01*
X113107955Y-85952842D01*
X113321973Y-85864193D01*
X113473440Y-85834064D01*
X113549173Y-85819000D01*
X113780827Y-85819000D01*
X113856560Y-85834064D01*
X113856560Y-85834064D01*
G37*
G36*
X132906560Y-85834064D02*
G01*
X133058027Y-85864193D01*
X133272045Y-85952842D01*
X133272046Y-85952843D01*
X133464654Y-86081539D01*
X133628461Y-86245346D01*
X133714258Y-86373751D01*
X133757158Y-86437955D01*
X133845807Y-86651973D01*
X133891000Y-86879174D01*
X133891000Y-87110826D01*
X133845807Y-87338027D01*
X133757158Y-87552045D01*
X133757157Y-87552046D01*
X133628461Y-87744654D01*
X133464654Y-87908461D01*
X133336249Y-87994258D01*
X133272045Y-88037158D01*
X133058027Y-88125807D01*
X132906560Y-88155936D01*
X132830827Y-88171000D01*
X132599173Y-88171000D01*
X132523440Y-88155936D01*
X132371973Y-88125807D01*
X132157955Y-88037158D01*
X132093751Y-87994258D01*
X131965346Y-87908461D01*
X131801539Y-87744654D01*
X131672843Y-87552046D01*
X131672842Y-87552045D01*
X131584193Y-87338027D01*
X131539000Y-87110826D01*
X131539000Y-86879174D01*
X131584193Y-86651973D01*
X131672842Y-86437955D01*
X131715742Y-86373751D01*
X131801539Y-86245346D01*
X131965346Y-86081539D01*
X132157954Y-85952843D01*
X132157955Y-85952842D01*
X132371973Y-85864193D01*
X132523440Y-85834064D01*
X132599173Y-85819000D01*
X132830827Y-85819000D01*
X132906560Y-85834064D01*
X132906560Y-85834064D01*
G37*
G36*
X146876560Y-85199064D02*
G01*
X147028027Y-85229193D01*
X147242045Y-85317842D01*
X147242046Y-85317843D01*
X147434654Y-85446539D01*
X147598461Y-85610346D01*
X147684258Y-85738751D01*
X147727158Y-85802955D01*
X147815807Y-86016973D01*
X147861000Y-86244174D01*
X147861000Y-86475826D01*
X147815807Y-86703027D01*
X147727158Y-86917045D01*
X147727157Y-86917046D01*
X147598461Y-87109654D01*
X147434654Y-87273461D01*
X147306249Y-87359258D01*
X147242045Y-87402158D01*
X147028027Y-87490807D01*
X146876560Y-87520936D01*
X146800827Y-87536000D01*
X146569173Y-87536000D01*
X146493440Y-87520936D01*
X146341973Y-87490807D01*
X146127955Y-87402158D01*
X146063751Y-87359258D01*
X145935346Y-87273461D01*
X145771539Y-87109654D01*
X145642843Y-86917046D01*
X145642842Y-86917045D01*
X145554193Y-86703027D01*
X145509000Y-86475826D01*
X145509000Y-86244174D01*
X145554193Y-86016973D01*
X145642842Y-85802955D01*
X145685742Y-85738751D01*
X145771539Y-85610346D01*
X145935346Y-85446539D01*
X146127954Y-85317843D01*
X146127955Y-85317842D01*
X146341973Y-85229193D01*
X146493440Y-85199064D01*
X146569173Y-85184000D01*
X146800827Y-85184000D01*
X146876560Y-85199064D01*
X146876560Y-85199064D01*
G37*
G36*
X99335880Y-80309776D02*
G01*
X99716593Y-80385504D01*
X100126249Y-80555189D01*
X100494929Y-80801534D01*
X100808466Y-81115071D01*
X101054811Y-81483751D01*
X101224496Y-81893407D01*
X101311000Y-82328296D01*
X101311000Y-82771704D01*
X101224496Y-83206593D01*
X101054811Y-83616249D01*
X100808466Y-83984929D01*
X100494929Y-84298466D01*
X100126249Y-84544811D01*
X99716593Y-84714496D01*
X99335880Y-84790224D01*
X99281705Y-84801000D01*
X98838295Y-84801000D01*
X98784120Y-84790224D01*
X98403407Y-84714496D01*
X97993751Y-84544811D01*
X97625071Y-84298466D01*
X97311534Y-83984929D01*
X97065189Y-83616249D01*
X96895504Y-83206593D01*
X96809000Y-82771704D01*
X96809000Y-82328296D01*
X96895504Y-81893407D01*
X97065189Y-81483751D01*
X97311534Y-81115071D01*
X97625071Y-80801534D01*
X97993751Y-80555189D01*
X98403407Y-80385504D01*
X98784120Y-80309776D01*
X98838295Y-80299000D01*
X99281705Y-80299000D01*
X99335880Y-80309776D01*
X99335880Y-80309776D01*
G37*
G36*
X149821474Y-80583684D02*
G01*
X150039474Y-80673983D01*
X150193623Y-80737833D01*
X150528548Y-80961623D01*
X150813377Y-81246452D01*
X151037167Y-81581377D01*
X151048378Y-81608443D01*
X151191316Y-81953526D01*
X151269900Y-82348594D01*
X151269900Y-82751406D01*
X151191316Y-83146474D01*
X151101017Y-83364474D01*
X151037167Y-83518623D01*
X150813377Y-83853548D01*
X150528548Y-84138377D01*
X150193623Y-84362167D01*
X150039474Y-84426017D01*
X149821474Y-84516316D01*
X149426406Y-84594900D01*
X149023594Y-84594900D01*
X148628526Y-84516316D01*
X148410526Y-84426017D01*
X148256377Y-84362167D01*
X147921452Y-84138377D01*
X147636623Y-83853548D01*
X147412833Y-83518623D01*
X147348983Y-83364474D01*
X147258684Y-83146474D01*
X147180100Y-82751406D01*
X147180100Y-82348594D01*
X147258684Y-81953526D01*
X147401622Y-81608443D01*
X147412833Y-81581377D01*
X147636623Y-81246452D01*
X147921452Y-80961623D01*
X148256377Y-80737833D01*
X148410526Y-80673983D01*
X148628526Y-80583684D01*
X149023594Y-80505100D01*
X149426406Y-80505100D01*
X149821474Y-80583684D01*
X149821474Y-80583684D01*
G37*
G36*
X89518442Y-79877518D02*
G01*
X89584627Y-79884037D01*
X89754466Y-79935557D01*
X89910991Y-80019222D01*
X89946729Y-80048552D01*
X90048186Y-80131814D01*
X90131448Y-80233271D01*
X90160778Y-80269009D01*
X90244443Y-80425534D01*
X90295963Y-80595373D01*
X90313359Y-80772000D01*
X90295963Y-80948627D01*
X90244443Y-81118466D01*
X90160778Y-81274991D01*
X90131448Y-81310729D01*
X90048186Y-81412186D01*
X89960979Y-81483754D01*
X89910991Y-81524778D01*
X89754466Y-81608443D01*
X89584627Y-81659963D01*
X89518442Y-81666482D01*
X89452260Y-81673000D01*
X89363740Y-81673000D01*
X89297558Y-81666482D01*
X89231373Y-81659963D01*
X89061534Y-81608443D01*
X88905009Y-81524778D01*
X88855021Y-81483754D01*
X88767814Y-81412186D01*
X88684552Y-81310729D01*
X88655222Y-81274991D01*
X88571557Y-81118466D01*
X88520037Y-80948627D01*
X88502641Y-80772000D01*
X88520037Y-80595373D01*
X88571557Y-80425534D01*
X88655222Y-80269009D01*
X88684552Y-80233271D01*
X88767814Y-80131814D01*
X88869271Y-80048552D01*
X88905009Y-80019222D01*
X89061534Y-79935557D01*
X89231373Y-79884037D01*
X89297558Y-79877518D01*
X89363740Y-79871000D01*
X89452260Y-79871000D01*
X89518442Y-79877518D01*
X89518442Y-79877518D01*
G37*
G36*
X84438442Y-79877518D02*
G01*
X84504627Y-79884037D01*
X84674466Y-79935557D01*
X84830991Y-80019222D01*
X84866729Y-80048552D01*
X84968186Y-80131814D01*
X85051448Y-80233271D01*
X85080778Y-80269009D01*
X85164443Y-80425534D01*
X85215963Y-80595373D01*
X85233359Y-80772000D01*
X85215963Y-80948627D01*
X85164443Y-81118466D01*
X85080778Y-81274991D01*
X85051448Y-81310729D01*
X84968186Y-81412186D01*
X84880979Y-81483754D01*
X84830991Y-81524778D01*
X84674466Y-81608443D01*
X84504627Y-81659963D01*
X84438442Y-81666482D01*
X84372260Y-81673000D01*
X84283740Y-81673000D01*
X84217558Y-81666482D01*
X84151373Y-81659963D01*
X83981534Y-81608443D01*
X83825009Y-81524778D01*
X83775021Y-81483754D01*
X83687814Y-81412186D01*
X83604552Y-81310729D01*
X83575222Y-81274991D01*
X83491557Y-81118466D01*
X83440037Y-80948627D01*
X83422641Y-80772000D01*
X83440037Y-80595373D01*
X83491557Y-80425534D01*
X83575222Y-80269009D01*
X83604552Y-80233271D01*
X83687814Y-80131814D01*
X83789271Y-80048552D01*
X83825009Y-80019222D01*
X83981534Y-79935557D01*
X84151373Y-79884037D01*
X84217558Y-79877518D01*
X84283740Y-79871000D01*
X84372260Y-79871000D01*
X84438442Y-79877518D01*
X84438442Y-79877518D01*
G37*
G36*
X86978442Y-79877518D02*
G01*
X87044627Y-79884037D01*
X87214466Y-79935557D01*
X87370991Y-80019222D01*
X87406729Y-80048552D01*
X87508186Y-80131814D01*
X87591448Y-80233271D01*
X87620778Y-80269009D01*
X87704443Y-80425534D01*
X87755963Y-80595373D01*
X87773359Y-80772000D01*
X87755963Y-80948627D01*
X87704443Y-81118466D01*
X87620778Y-81274991D01*
X87591448Y-81310729D01*
X87508186Y-81412186D01*
X87420979Y-81483754D01*
X87370991Y-81524778D01*
X87214466Y-81608443D01*
X87044627Y-81659963D01*
X86978442Y-81666482D01*
X86912260Y-81673000D01*
X86823740Y-81673000D01*
X86757558Y-81666482D01*
X86691373Y-81659963D01*
X86521534Y-81608443D01*
X86365009Y-81524778D01*
X86315021Y-81483754D01*
X86227814Y-81412186D01*
X86144552Y-81310729D01*
X86115222Y-81274991D01*
X86031557Y-81118466D01*
X85980037Y-80948627D01*
X85962641Y-80772000D01*
X85980037Y-80595373D01*
X86031557Y-80425534D01*
X86115222Y-80269009D01*
X86144552Y-80233271D01*
X86227814Y-80131814D01*
X86329271Y-80048552D01*
X86365009Y-80019222D01*
X86521534Y-79935557D01*
X86691373Y-79884037D01*
X86757558Y-79877518D01*
X86823740Y-79871000D01*
X86912260Y-79871000D01*
X86978442Y-79877518D01*
X86978442Y-79877518D01*
G37*
G36*
X144336560Y-78849064D02*
G01*
X144488027Y-78879193D01*
X144702045Y-78967842D01*
X144702046Y-78967843D01*
X144894654Y-79096539D01*
X145058461Y-79260346D01*
X145144258Y-79388751D01*
X145187158Y-79452955D01*
X145275807Y-79666973D01*
X145275807Y-79666975D01*
X145316391Y-79871000D01*
X145321000Y-79894174D01*
X145321000Y-80125826D01*
X145275807Y-80353027D01*
X145187158Y-80567045D01*
X145187157Y-80567046D01*
X145058461Y-80759654D01*
X144894654Y-80923461D01*
X144856993Y-80948625D01*
X144702045Y-81052158D01*
X144488027Y-81140807D01*
X144336560Y-81170936D01*
X144260827Y-81186000D01*
X144029173Y-81186000D01*
X143953440Y-81170936D01*
X143801973Y-81140807D01*
X143587955Y-81052158D01*
X143433007Y-80948625D01*
X143395346Y-80923461D01*
X143231539Y-80759654D01*
X143102843Y-80567046D01*
X143102842Y-80567045D01*
X143014193Y-80353027D01*
X142969000Y-80125826D01*
X142969000Y-79894174D01*
X142973610Y-79871000D01*
X143014193Y-79666975D01*
X143014193Y-79666973D01*
X143102842Y-79452955D01*
X143145742Y-79388751D01*
X143231539Y-79260346D01*
X143395346Y-79096539D01*
X143587954Y-78967843D01*
X143587955Y-78967842D01*
X143801973Y-78879193D01*
X143953440Y-78849064D01*
X144029173Y-78834000D01*
X144260827Y-78834000D01*
X144336560Y-78849064D01*
X144336560Y-78849064D01*
G37*
G36*
X140581000Y-79645000D02*
G01*
X139579000Y-79645000D01*
X139579000Y-78343000D01*
X140581000Y-78343000D01*
X140581000Y-79645000D01*
X140581000Y-79645000D01*
G37*
G36*
X137281000Y-79645000D02*
G01*
X136279000Y-79645000D01*
X136279000Y-78343000D01*
X137281000Y-78343000D01*
X137281000Y-79645000D01*
X137281000Y-79645000D01*
G37*
G36*
X95266000Y-79493000D02*
G01*
X93964000Y-79493000D01*
X93964000Y-78491000D01*
X95266000Y-78491000D01*
X95266000Y-79493000D01*
X95266000Y-79493000D01*
G37*
G36*
X114316000Y-79493000D02*
G01*
X113014000Y-79493000D01*
X113014000Y-78491000D01*
X114316000Y-78491000D01*
X114316000Y-79493000D01*
X114316000Y-79493000D01*
G37*
G36*
X133366000Y-79493000D02*
G01*
X132064000Y-79493000D01*
X132064000Y-78491000D01*
X133366000Y-78491000D01*
X133366000Y-79493000D01*
X133366000Y-79493000D01*
G37*
G36*
X85229000Y-79133000D02*
G01*
X83427000Y-79133000D01*
X83427000Y-77331000D01*
X85229000Y-77331000D01*
X85229000Y-79133000D01*
X85229000Y-79133000D01*
G37*
G36*
X86978442Y-77337518D02*
G01*
X87044627Y-77344037D01*
X87214466Y-77395557D01*
X87370991Y-77479222D01*
X87406729Y-77508552D01*
X87508186Y-77591814D01*
X87591448Y-77693271D01*
X87620778Y-77729009D01*
X87704443Y-77885534D01*
X87755963Y-78055373D01*
X87773359Y-78232000D01*
X87755963Y-78408627D01*
X87704443Y-78578466D01*
X87620778Y-78734991D01*
X87591448Y-78770729D01*
X87508186Y-78872186D01*
X87406729Y-78955448D01*
X87370991Y-78984778D01*
X87214466Y-79068443D01*
X87044627Y-79119963D01*
X86978442Y-79126482D01*
X86912260Y-79133000D01*
X86823740Y-79133000D01*
X86757558Y-79126482D01*
X86691373Y-79119963D01*
X86521534Y-79068443D01*
X86365009Y-78984778D01*
X86329271Y-78955448D01*
X86227814Y-78872186D01*
X86144552Y-78770729D01*
X86115222Y-78734991D01*
X86031557Y-78578466D01*
X85980037Y-78408627D01*
X85962641Y-78232000D01*
X85980037Y-78055373D01*
X86031557Y-77885534D01*
X86115222Y-77729009D01*
X86144552Y-77693271D01*
X86227814Y-77591814D01*
X86329271Y-77508552D01*
X86365009Y-77479222D01*
X86521534Y-77395557D01*
X86691373Y-77344037D01*
X86757558Y-77337518D01*
X86823740Y-77331000D01*
X86912260Y-77331000D01*
X86978442Y-77337518D01*
X86978442Y-77337518D01*
G37*
G36*
X89518442Y-77337518D02*
G01*
X89584627Y-77344037D01*
X89754466Y-77395557D01*
X89910991Y-77479222D01*
X89946729Y-77508552D01*
X90048186Y-77591814D01*
X90131448Y-77693271D01*
X90160778Y-77729009D01*
X90244443Y-77885534D01*
X90295963Y-78055373D01*
X90313359Y-78232000D01*
X90295963Y-78408627D01*
X90244443Y-78578466D01*
X90160778Y-78734991D01*
X90131448Y-78770729D01*
X90048186Y-78872186D01*
X89946729Y-78955448D01*
X89910991Y-78984778D01*
X89754466Y-79068443D01*
X89584627Y-79119963D01*
X89518442Y-79126482D01*
X89452260Y-79133000D01*
X89363740Y-79133000D01*
X89297558Y-79126482D01*
X89231373Y-79119963D01*
X89061534Y-79068443D01*
X88905009Y-78984778D01*
X88869271Y-78955448D01*
X88767814Y-78872186D01*
X88684552Y-78770729D01*
X88655222Y-78734991D01*
X88571557Y-78578466D01*
X88520037Y-78408627D01*
X88502641Y-78232000D01*
X88520037Y-78055373D01*
X88571557Y-77885534D01*
X88655222Y-77729009D01*
X88684552Y-77693271D01*
X88767814Y-77591814D01*
X88869271Y-77508552D01*
X88905009Y-77479222D01*
X89061534Y-77395557D01*
X89231373Y-77344037D01*
X89297558Y-77337518D01*
X89363740Y-77331000D01*
X89452260Y-77331000D01*
X89518442Y-77337518D01*
X89518442Y-77337518D01*
G37*
G36*
X149495104Y-76579585D02*
G01*
X149663626Y-76649389D01*
X149815291Y-76750728D01*
X149944272Y-76879709D01*
X150045611Y-77031374D01*
X150115415Y-77199896D01*
X150151000Y-77378797D01*
X150151000Y-77561203D01*
X150115415Y-77740104D01*
X150045611Y-77908626D01*
X149944272Y-78060291D01*
X149815291Y-78189272D01*
X149663626Y-78290611D01*
X149495104Y-78360415D01*
X149316203Y-78396000D01*
X149133797Y-78396000D01*
X148954896Y-78360415D01*
X148786374Y-78290611D01*
X148634709Y-78189272D01*
X148505728Y-78060291D01*
X148404389Y-77908626D01*
X148334585Y-77740104D01*
X148299000Y-77561203D01*
X148299000Y-77378797D01*
X148334585Y-77199896D01*
X148404389Y-77031374D01*
X148505728Y-76879709D01*
X148634709Y-76750728D01*
X148786374Y-76649389D01*
X148954896Y-76579585D01*
X149133797Y-76544000D01*
X149316203Y-76544000D01*
X149495104Y-76579585D01*
X149495104Y-76579585D01*
G37*
G36*
X114316000Y-76193000D02*
G01*
X113014000Y-76193000D01*
X113014000Y-75191000D01*
X114316000Y-75191000D01*
X114316000Y-76193000D01*
X114316000Y-76193000D01*
G37*
G36*
X133366000Y-76193000D02*
G01*
X132064000Y-76193000D01*
X132064000Y-75191000D01*
X133366000Y-75191000D01*
X133366000Y-76193000D01*
X133366000Y-76193000D01*
G37*
G36*
X95266000Y-76193000D02*
G01*
X93964000Y-76193000D01*
X93964000Y-75191000D01*
X95266000Y-75191000D01*
X95266000Y-76193000D01*
X95266000Y-76193000D01*
G37*
G36*
X92671474Y-71058684D02*
G01*
X92889474Y-71148983D01*
X93043623Y-71212833D01*
X93378548Y-71436623D01*
X93663377Y-71721452D01*
X93887167Y-72056377D01*
X93919562Y-72134586D01*
X94041316Y-72428526D01*
X94119900Y-72823594D01*
X94119900Y-73226406D01*
X94041316Y-73621474D01*
X93990451Y-73744272D01*
X93887167Y-73993623D01*
X93663377Y-74328548D01*
X93378548Y-74613377D01*
X93043623Y-74837167D01*
X92889474Y-74901017D01*
X92671474Y-74991316D01*
X92276406Y-75069900D01*
X91873594Y-75069900D01*
X91478526Y-74991316D01*
X91260526Y-74901017D01*
X91106377Y-74837167D01*
X90771452Y-74613377D01*
X90486623Y-74328548D01*
X90262833Y-73993623D01*
X90159549Y-73744272D01*
X90108684Y-73621474D01*
X90030100Y-73226406D01*
X90030100Y-72823594D01*
X90108684Y-72428526D01*
X90230438Y-72134586D01*
X90262833Y-72056377D01*
X90486623Y-71721452D01*
X90771452Y-71436623D01*
X91106377Y-71212833D01*
X91260526Y-71148983D01*
X91478526Y-71058684D01*
X91873594Y-70980100D01*
X92276406Y-70980100D01*
X92671474Y-71058684D01*
X92671474Y-71058684D01*
G37*
G36*
X130771474Y-71058684D02*
G01*
X130989474Y-71148983D01*
X131143623Y-71212833D01*
X131478548Y-71436623D01*
X131763377Y-71721452D01*
X131987167Y-72056377D01*
X132019562Y-72134586D01*
X132141316Y-72428526D01*
X132219900Y-72823594D01*
X132219900Y-73226406D01*
X132141316Y-73621474D01*
X132090451Y-73744272D01*
X131987167Y-73993623D01*
X131763377Y-74328548D01*
X131478548Y-74613377D01*
X131143623Y-74837167D01*
X130989474Y-74901017D01*
X130771474Y-74991316D01*
X130376406Y-75069900D01*
X129973594Y-75069900D01*
X129578526Y-74991316D01*
X129360526Y-74901017D01*
X129206377Y-74837167D01*
X128871452Y-74613377D01*
X128586623Y-74328548D01*
X128362833Y-73993623D01*
X128259549Y-73744272D01*
X128208684Y-73621474D01*
X128130100Y-73226406D01*
X128130100Y-72823594D01*
X128208684Y-72428526D01*
X128330438Y-72134586D01*
X128362833Y-72056377D01*
X128586623Y-71721452D01*
X128871452Y-71436623D01*
X129206377Y-71212833D01*
X129360526Y-71148983D01*
X129578526Y-71058684D01*
X129973594Y-70980100D01*
X130376406Y-70980100D01*
X130771474Y-71058684D01*
X130771474Y-71058684D01*
G37*
G36*
X111721474Y-71058684D02*
G01*
X111939474Y-71148983D01*
X112093623Y-71212833D01*
X112428548Y-71436623D01*
X112713377Y-71721452D01*
X112937167Y-72056377D01*
X112969562Y-72134586D01*
X113091316Y-72428526D01*
X113169900Y-72823594D01*
X113169900Y-73226406D01*
X113091316Y-73621474D01*
X113040451Y-73744272D01*
X112937167Y-73993623D01*
X112713377Y-74328548D01*
X112428548Y-74613377D01*
X112093623Y-74837167D01*
X111939474Y-74901017D01*
X111721474Y-74991316D01*
X111326406Y-75069900D01*
X110923594Y-75069900D01*
X110528526Y-74991316D01*
X110310526Y-74901017D01*
X110156377Y-74837167D01*
X109821452Y-74613377D01*
X109536623Y-74328548D01*
X109312833Y-73993623D01*
X109209549Y-73744272D01*
X109158684Y-73621474D01*
X109080100Y-73226406D01*
X109080100Y-72823594D01*
X109158684Y-72428526D01*
X109280438Y-72134586D01*
X109312833Y-72056377D01*
X109536623Y-71721452D01*
X109821452Y-71436623D01*
X110156377Y-71212833D01*
X110310526Y-71148983D01*
X110528526Y-71058684D01*
X110923594Y-70980100D01*
X111326406Y-70980100D01*
X111721474Y-71058684D01*
X111721474Y-71058684D01*
G37*
G36*
X135525104Y-72134585D02*
G01*
X135693626Y-72204389D01*
X135845291Y-72305728D01*
X135974272Y-72434709D01*
X136075611Y-72586374D01*
X136145415Y-72754896D01*
X136181000Y-72933797D01*
X136181000Y-73116203D01*
X136145415Y-73295104D01*
X136075611Y-73463626D01*
X135974272Y-73615291D01*
X135845291Y-73744272D01*
X135693626Y-73845611D01*
X135525104Y-73915415D01*
X135346203Y-73951000D01*
X135163797Y-73951000D01*
X134984896Y-73915415D01*
X134816374Y-73845611D01*
X134664709Y-73744272D01*
X134535728Y-73615291D01*
X134434389Y-73463626D01*
X134364585Y-73295104D01*
X134329000Y-73116203D01*
X134329000Y-72933797D01*
X134364585Y-72754896D01*
X134434389Y-72586374D01*
X134535728Y-72434709D01*
X134664709Y-72305728D01*
X134816374Y-72204389D01*
X134984896Y-72134585D01*
X135163797Y-72099000D01*
X135346203Y-72099000D01*
X135525104Y-72134585D01*
X135525104Y-72134585D01*
G37*
G36*
X97425104Y-72134585D02*
G01*
X97593626Y-72204389D01*
X97745291Y-72305728D01*
X97874272Y-72434709D01*
X97975611Y-72586374D01*
X98045415Y-72754896D01*
X98081000Y-72933797D01*
X98081000Y-73116203D01*
X98045415Y-73295104D01*
X97975611Y-73463626D01*
X97874272Y-73615291D01*
X97745291Y-73744272D01*
X97593626Y-73845611D01*
X97425104Y-73915415D01*
X97246203Y-73951000D01*
X97063797Y-73951000D01*
X96884896Y-73915415D01*
X96716374Y-73845611D01*
X96564709Y-73744272D01*
X96435728Y-73615291D01*
X96334389Y-73463626D01*
X96264585Y-73295104D01*
X96229000Y-73116203D01*
X96229000Y-72933797D01*
X96264585Y-72754896D01*
X96334389Y-72586374D01*
X96435728Y-72434709D01*
X96564709Y-72305728D01*
X96716374Y-72204389D01*
X96884896Y-72134585D01*
X97063797Y-72099000D01*
X97246203Y-72099000D01*
X97425104Y-72134585D01*
X97425104Y-72134585D01*
G37*
G36*
X116475104Y-72134585D02*
G01*
X116643626Y-72204389D01*
X116795291Y-72305728D01*
X116924272Y-72434709D01*
X117025611Y-72586374D01*
X117095415Y-72754896D01*
X117131000Y-72933797D01*
X117131000Y-73116203D01*
X117095415Y-73295104D01*
X117025611Y-73463626D01*
X116924272Y-73615291D01*
X116795291Y-73744272D01*
X116643626Y-73845611D01*
X116475104Y-73915415D01*
X116296203Y-73951000D01*
X116113797Y-73951000D01*
X115934896Y-73915415D01*
X115766374Y-73845611D01*
X115614709Y-73744272D01*
X115485728Y-73615291D01*
X115384389Y-73463626D01*
X115314585Y-73295104D01*
X115279000Y-73116203D01*
X115279000Y-72933797D01*
X115314585Y-72754896D01*
X115384389Y-72586374D01*
X115485728Y-72434709D01*
X115614709Y-72305728D01*
X115766374Y-72204389D01*
X115934896Y-72134585D01*
X116113797Y-72099000D01*
X116296203Y-72099000D01*
X116475104Y-72134585D01*
X116475104Y-72134585D01*
G37*
G36*
X106315104Y-72134585D02*
G01*
X106483626Y-72204389D01*
X106635291Y-72305728D01*
X106764272Y-72434709D01*
X106865611Y-72586374D01*
X106935415Y-72754896D01*
X106971000Y-72933797D01*
X106971000Y-73116203D01*
X106935415Y-73295104D01*
X106865611Y-73463626D01*
X106764272Y-73615291D01*
X106635291Y-73744272D01*
X106483626Y-73845611D01*
X106315104Y-73915415D01*
X106136203Y-73951000D01*
X105953797Y-73951000D01*
X105774896Y-73915415D01*
X105606374Y-73845611D01*
X105454709Y-73744272D01*
X105325728Y-73615291D01*
X105224389Y-73463626D01*
X105154585Y-73295104D01*
X105119000Y-73116203D01*
X105119000Y-72933797D01*
X105154585Y-72754896D01*
X105224389Y-72586374D01*
X105325728Y-72434709D01*
X105454709Y-72305728D01*
X105606374Y-72204389D01*
X105774896Y-72134585D01*
X105953797Y-72099000D01*
X106136203Y-72099000D01*
X106315104Y-72134585D01*
X106315104Y-72134585D01*
G37*
G36*
X125365104Y-72134585D02*
G01*
X125533626Y-72204389D01*
X125685291Y-72305728D01*
X125814272Y-72434709D01*
X125915611Y-72586374D01*
X125985415Y-72754896D01*
X126021000Y-72933797D01*
X126021000Y-73116203D01*
X125985415Y-73295104D01*
X125915611Y-73463626D01*
X125814272Y-73615291D01*
X125685291Y-73744272D01*
X125533626Y-73845611D01*
X125365104Y-73915415D01*
X125186203Y-73951000D01*
X125003797Y-73951000D01*
X124824896Y-73915415D01*
X124656374Y-73845611D01*
X124504709Y-73744272D01*
X124375728Y-73615291D01*
X124274389Y-73463626D01*
X124204585Y-73295104D01*
X124169000Y-73116203D01*
X124169000Y-72933797D01*
X124204585Y-72754896D01*
X124274389Y-72586374D01*
X124375728Y-72434709D01*
X124504709Y-72305728D01*
X124656374Y-72204389D01*
X124824896Y-72134585D01*
X125003797Y-72099000D01*
X125186203Y-72099000D01*
X125365104Y-72134585D01*
X125365104Y-72134585D01*
G37*
G36*
X87265104Y-72134585D02*
G01*
X87433626Y-72204389D01*
X87585291Y-72305728D01*
X87714272Y-72434709D01*
X87815611Y-72586374D01*
X87885415Y-72754896D01*
X87921000Y-72933797D01*
X87921000Y-73116203D01*
X87885415Y-73295104D01*
X87815611Y-73463626D01*
X87714272Y-73615291D01*
X87585291Y-73744272D01*
X87433626Y-73845611D01*
X87265104Y-73915415D01*
X87086203Y-73951000D01*
X86903797Y-73951000D01*
X86724896Y-73915415D01*
X86556374Y-73845611D01*
X86404709Y-73744272D01*
X86275728Y-73615291D01*
X86174389Y-73463626D01*
X86104585Y-73295104D01*
X86069000Y-73116203D01*
X86069000Y-72933797D01*
X86104585Y-72754896D01*
X86174389Y-72586374D01*
X86275728Y-72434709D01*
X86404709Y-72305728D01*
X86556374Y-72204389D01*
X86724896Y-72134585D01*
X86903797Y-72099000D01*
X87086203Y-72099000D01*
X87265104Y-72134585D01*
X87265104Y-72134585D01*
G37*
G36*
X101598591Y-72425085D02*
G01*
X101632569Y-72435393D01*
X101663890Y-72452134D01*
X101691339Y-72474661D01*
X101713866Y-72502110D01*
X101730607Y-72533431D01*
X101740915Y-72567409D01*
X101745000Y-72608890D01*
X101745000Y-73210110D01*
X101740915Y-73251591D01*
X101730607Y-73285569D01*
X101713866Y-73316890D01*
X101691339Y-73344339D01*
X101663890Y-73366866D01*
X101632569Y-73383607D01*
X101598591Y-73393915D01*
X101557110Y-73398000D01*
X100880890Y-73398000D01*
X100839409Y-73393915D01*
X100805431Y-73383607D01*
X100774110Y-73366866D01*
X100746661Y-73344339D01*
X100724134Y-73316890D01*
X100707393Y-73285569D01*
X100697085Y-73251591D01*
X100693000Y-73210110D01*
X100693000Y-72608890D01*
X100697085Y-72567409D01*
X100707393Y-72533431D01*
X100724134Y-72502110D01*
X100746661Y-72474661D01*
X100774110Y-72452134D01*
X100805431Y-72435393D01*
X100839409Y-72425085D01*
X100880890Y-72421000D01*
X101557110Y-72421000D01*
X101598591Y-72425085D01*
X101598591Y-72425085D01*
G37*
G36*
X141566474Y-68677434D02*
G01*
X141784474Y-68767733D01*
X141938623Y-68831583D01*
X142273548Y-69055373D01*
X142558377Y-69340202D01*
X142782167Y-69675127D01*
X142807110Y-69735346D01*
X142936316Y-70047276D01*
X143014900Y-70442344D01*
X143014900Y-70845156D01*
X142936316Y-71240224D01*
X142874363Y-71389791D01*
X142782167Y-71612373D01*
X142558377Y-71947298D01*
X142273548Y-72232127D01*
X141938623Y-72455917D01*
X141784474Y-72519767D01*
X141566474Y-72610066D01*
X141171406Y-72688650D01*
X140768594Y-72688650D01*
X140373526Y-72610066D01*
X140155526Y-72519767D01*
X140001377Y-72455917D01*
X139666452Y-72232127D01*
X139381623Y-71947298D01*
X139157833Y-71612373D01*
X139065637Y-71389791D01*
X139003684Y-71240224D01*
X138925100Y-70845156D01*
X138925100Y-70442344D01*
X139003684Y-70047276D01*
X139132890Y-69735346D01*
X139157833Y-69675127D01*
X139381623Y-69340202D01*
X139666452Y-69055373D01*
X140001377Y-68831583D01*
X140155526Y-68767733D01*
X140373526Y-68677434D01*
X140768594Y-68598850D01*
X141171406Y-68598850D01*
X141566474Y-68677434D01*
X141566474Y-68677434D01*
G37*
G36*
X156669411Y-69129276D02*
G01*
X156788137Y-69178454D01*
X156956041Y-69248002D01*
X156956042Y-69248003D01*
X157214004Y-69420367D01*
X157433383Y-69639746D01*
X157548553Y-69812111D01*
X157605748Y-69897709D01*
X157724474Y-70184340D01*
X157785000Y-70488625D01*
X157785000Y-70798875D01*
X157724474Y-71103160D01*
X157605748Y-71389791D01*
X157605747Y-71389792D01*
X157433383Y-71647754D01*
X157214004Y-71867133D01*
X157094028Y-71947298D01*
X156956041Y-72039498D01*
X156812390Y-72099000D01*
X156669411Y-72158224D01*
X156517267Y-72188487D01*
X156365125Y-72218750D01*
X156054875Y-72218750D01*
X155902733Y-72188487D01*
X155750589Y-72158224D01*
X155607610Y-72099000D01*
X155463959Y-72039498D01*
X155325972Y-71947298D01*
X155205996Y-71867133D01*
X154986617Y-71647754D01*
X154814253Y-71389792D01*
X154814252Y-71389791D01*
X154695526Y-71103160D01*
X154635000Y-70798875D01*
X154635000Y-70488625D01*
X154695526Y-70184340D01*
X154814252Y-69897709D01*
X154871447Y-69812111D01*
X154986617Y-69639746D01*
X155205996Y-69420367D01*
X155463958Y-69248003D01*
X155463959Y-69248002D01*
X155631863Y-69178454D01*
X155750589Y-69129276D01*
X156054875Y-69068750D01*
X156365125Y-69068750D01*
X156669411Y-69129276D01*
X156669411Y-69129276D01*
G37*
G36*
X101598591Y-70850085D02*
G01*
X101632569Y-70860393D01*
X101663890Y-70877134D01*
X101691339Y-70899661D01*
X101713866Y-70927110D01*
X101730607Y-70958431D01*
X101740915Y-70992409D01*
X101745000Y-71033890D01*
X101745000Y-71635110D01*
X101740915Y-71676591D01*
X101730607Y-71710569D01*
X101713866Y-71741890D01*
X101691339Y-71769339D01*
X101663890Y-71791866D01*
X101632569Y-71808607D01*
X101598591Y-71818915D01*
X101557110Y-71823000D01*
X100880890Y-71823000D01*
X100839409Y-71818915D01*
X100805431Y-71808607D01*
X100774110Y-71791866D01*
X100746661Y-71769339D01*
X100724134Y-71741890D01*
X100707393Y-71710569D01*
X100697085Y-71676591D01*
X100693000Y-71635110D01*
X100693000Y-71033890D01*
X100697085Y-70992409D01*
X100707393Y-70958431D01*
X100724134Y-70927110D01*
X100746661Y-70899661D01*
X100774110Y-70877134D01*
X100805431Y-70860393D01*
X100839409Y-70850085D01*
X100880890Y-70846000D01*
X101557110Y-70846000D01*
X101598591Y-70850085D01*
X101598591Y-70850085D01*
G37*
G36*
X107506560Y-69324064D02*
G01*
X107658027Y-69354193D01*
X107872045Y-69442842D01*
X107872046Y-69442843D01*
X108064654Y-69571539D01*
X108228461Y-69735346D01*
X108314258Y-69863751D01*
X108357158Y-69927955D01*
X108445807Y-70141973D01*
X108491000Y-70369174D01*
X108491000Y-70600826D01*
X108445807Y-70828027D01*
X108357158Y-71042045D01*
X108346040Y-71058684D01*
X108228461Y-71234654D01*
X108064654Y-71398461D01*
X108007540Y-71436623D01*
X107872045Y-71527158D01*
X107658027Y-71615807D01*
X107506560Y-71645936D01*
X107430827Y-71661000D01*
X107199173Y-71661000D01*
X107123440Y-71645936D01*
X106971973Y-71615807D01*
X106757955Y-71527158D01*
X106622460Y-71436623D01*
X106565346Y-71398461D01*
X106401539Y-71234654D01*
X106283960Y-71058684D01*
X106272842Y-71042045D01*
X106184193Y-70828027D01*
X106139000Y-70600826D01*
X106139000Y-70369174D01*
X106184193Y-70141973D01*
X106272842Y-69927955D01*
X106315742Y-69863751D01*
X106401539Y-69735346D01*
X106565346Y-69571539D01*
X106757954Y-69442843D01*
X106757955Y-69442842D01*
X106971973Y-69354193D01*
X107123440Y-69324064D01*
X107199173Y-69309000D01*
X107430827Y-69309000D01*
X107506560Y-69324064D01*
X107506560Y-69324064D01*
G37*
G36*
X126556560Y-69324064D02*
G01*
X126708027Y-69354193D01*
X126922045Y-69442842D01*
X126922046Y-69442843D01*
X127114654Y-69571539D01*
X127278461Y-69735346D01*
X127364258Y-69863751D01*
X127407158Y-69927955D01*
X127495807Y-70141973D01*
X127541000Y-70369174D01*
X127541000Y-70600826D01*
X127495807Y-70828027D01*
X127407158Y-71042045D01*
X127396040Y-71058684D01*
X127278461Y-71234654D01*
X127114654Y-71398461D01*
X127057540Y-71436623D01*
X126922045Y-71527158D01*
X126708027Y-71615807D01*
X126556560Y-71645936D01*
X126480827Y-71661000D01*
X126249173Y-71661000D01*
X126173440Y-71645936D01*
X126021973Y-71615807D01*
X125807955Y-71527158D01*
X125672460Y-71436623D01*
X125615346Y-71398461D01*
X125451539Y-71234654D01*
X125333960Y-71058684D01*
X125322842Y-71042045D01*
X125234193Y-70828027D01*
X125189000Y-70600826D01*
X125189000Y-70369174D01*
X125234193Y-70141973D01*
X125322842Y-69927955D01*
X125365742Y-69863751D01*
X125451539Y-69735346D01*
X125615346Y-69571539D01*
X125807954Y-69442843D01*
X125807955Y-69442842D01*
X126021973Y-69354193D01*
X126173440Y-69324064D01*
X126249173Y-69309000D01*
X126480827Y-69309000D01*
X126556560Y-69324064D01*
X126556560Y-69324064D01*
G37*
G36*
X88456560Y-69324064D02*
G01*
X88608027Y-69354193D01*
X88822045Y-69442842D01*
X88822046Y-69442843D01*
X89014654Y-69571539D01*
X89178461Y-69735346D01*
X89264258Y-69863751D01*
X89307158Y-69927955D01*
X89395807Y-70141973D01*
X89441000Y-70369174D01*
X89441000Y-70600826D01*
X89395807Y-70828027D01*
X89307158Y-71042045D01*
X89296040Y-71058684D01*
X89178461Y-71234654D01*
X89014654Y-71398461D01*
X88957540Y-71436623D01*
X88822045Y-71527158D01*
X88608027Y-71615807D01*
X88456560Y-71645936D01*
X88380827Y-71661000D01*
X88149173Y-71661000D01*
X88073440Y-71645936D01*
X87921973Y-71615807D01*
X87707955Y-71527158D01*
X87572460Y-71436623D01*
X87515346Y-71398461D01*
X87351539Y-71234654D01*
X87233960Y-71058684D01*
X87222842Y-71042045D01*
X87134193Y-70828027D01*
X87089000Y-70600826D01*
X87089000Y-70369174D01*
X87134193Y-70141973D01*
X87222842Y-69927955D01*
X87265742Y-69863751D01*
X87351539Y-69735346D01*
X87515346Y-69571539D01*
X87707954Y-69442843D01*
X87707955Y-69442842D01*
X87921973Y-69354193D01*
X88073440Y-69324064D01*
X88149173Y-69309000D01*
X88380827Y-69309000D01*
X88456560Y-69324064D01*
X88456560Y-69324064D01*
G37*
G36*
X104859500Y-70120500D02*
G01*
X98607500Y-70120500D01*
X98607500Y-68418500D01*
X104859500Y-68418500D01*
X104859500Y-70120500D01*
X104859500Y-70120500D01*
G37*
G36*
X132906560Y-66784064D02*
G01*
X133058027Y-66814193D01*
X133272045Y-66902842D01*
X133272046Y-66902843D01*
X133464654Y-67031539D01*
X133628461Y-67195346D01*
X133714258Y-67323751D01*
X133757158Y-67387955D01*
X133845807Y-67601973D01*
X133891000Y-67829174D01*
X133891000Y-68060826D01*
X133845807Y-68288027D01*
X133757158Y-68502045D01*
X133757157Y-68502046D01*
X133628461Y-68694654D01*
X133464654Y-68858461D01*
X133336249Y-68944258D01*
X133272045Y-68987158D01*
X133058027Y-69075807D01*
X132906560Y-69105936D01*
X132830827Y-69121000D01*
X132599173Y-69121000D01*
X132523440Y-69105936D01*
X132371973Y-69075807D01*
X132157955Y-68987158D01*
X132093751Y-68944258D01*
X131965346Y-68858461D01*
X131801539Y-68694654D01*
X131672843Y-68502046D01*
X131672842Y-68502045D01*
X131584193Y-68288027D01*
X131539000Y-68060826D01*
X131539000Y-67829174D01*
X131584193Y-67601973D01*
X131672842Y-67387955D01*
X131715742Y-67323751D01*
X131801539Y-67195346D01*
X131965346Y-67031539D01*
X132157954Y-66902843D01*
X132157955Y-66902842D01*
X132371973Y-66814193D01*
X132523440Y-66784064D01*
X132599173Y-66769000D01*
X132830827Y-66769000D01*
X132906560Y-66784064D01*
X132906560Y-66784064D01*
G37*
G36*
X113856560Y-66784064D02*
G01*
X114008027Y-66814193D01*
X114222045Y-66902842D01*
X114222046Y-66902843D01*
X114414654Y-67031539D01*
X114578461Y-67195346D01*
X114664258Y-67323751D01*
X114707158Y-67387955D01*
X114795807Y-67601973D01*
X114841000Y-67829174D01*
X114841000Y-68060826D01*
X114795807Y-68288027D01*
X114707158Y-68502045D01*
X114707157Y-68502046D01*
X114578461Y-68694654D01*
X114414654Y-68858461D01*
X114286249Y-68944258D01*
X114222045Y-68987158D01*
X114008027Y-69075807D01*
X113856560Y-69105936D01*
X113780827Y-69121000D01*
X113549173Y-69121000D01*
X113473440Y-69105936D01*
X113321973Y-69075807D01*
X113107955Y-68987158D01*
X113043751Y-68944258D01*
X112915346Y-68858461D01*
X112751539Y-68694654D01*
X112622843Y-68502046D01*
X112622842Y-68502045D01*
X112534193Y-68288027D01*
X112489000Y-68060826D01*
X112489000Y-67829174D01*
X112534193Y-67601973D01*
X112622842Y-67387955D01*
X112665742Y-67323751D01*
X112751539Y-67195346D01*
X112915346Y-67031539D01*
X113107954Y-66902843D01*
X113107955Y-66902842D01*
X113321973Y-66814193D01*
X113473440Y-66784064D01*
X113549173Y-66769000D01*
X113780827Y-66769000D01*
X113856560Y-66784064D01*
X113856560Y-66784064D01*
G37*
G36*
X94806560Y-66784064D02*
G01*
X94958027Y-66814193D01*
X95172045Y-66902842D01*
X95172046Y-66902843D01*
X95364654Y-67031539D01*
X95528461Y-67195346D01*
X95614258Y-67323751D01*
X95657158Y-67387955D01*
X95745807Y-67601973D01*
X95791000Y-67829174D01*
X95791000Y-68060826D01*
X95745807Y-68288027D01*
X95657158Y-68502045D01*
X95657157Y-68502046D01*
X95528461Y-68694654D01*
X95364654Y-68858461D01*
X95236249Y-68944258D01*
X95172045Y-68987158D01*
X94958027Y-69075807D01*
X94806560Y-69105936D01*
X94730827Y-69121000D01*
X94499173Y-69121000D01*
X94423440Y-69105936D01*
X94271973Y-69075807D01*
X94057955Y-68987158D01*
X93993751Y-68944258D01*
X93865346Y-68858461D01*
X93701539Y-68694654D01*
X93572843Y-68502046D01*
X93572842Y-68502045D01*
X93484193Y-68288027D01*
X93439000Y-68060826D01*
X93439000Y-67829174D01*
X93484193Y-67601973D01*
X93572842Y-67387955D01*
X93615742Y-67323751D01*
X93701539Y-67195346D01*
X93865346Y-67031539D01*
X94057954Y-66902843D01*
X94057955Y-66902842D01*
X94271973Y-66814193D01*
X94423440Y-66784064D01*
X94499173Y-66769000D01*
X94730827Y-66769000D01*
X94806560Y-66784064D01*
X94806560Y-66784064D01*
G37*
G36*
X86461600Y-68681600D02*
G01*
X85496400Y-68681600D01*
X85496400Y-66954400D01*
X86461600Y-66954400D01*
X86461600Y-68681600D01*
X86461600Y-68681600D01*
G37*
G36*
X90271600Y-68681600D02*
G01*
X89306400Y-68681600D01*
X89306400Y-66954400D01*
X90271600Y-66954400D01*
X90271600Y-68681600D01*
X90271600Y-68681600D01*
G37*
G36*
X98334500Y-68145500D02*
G01*
X96632500Y-68145500D01*
X96632500Y-61893500D01*
X98334500Y-61893500D01*
X98334500Y-68145500D01*
X98334500Y-68145500D01*
G37*
G36*
X106834500Y-68145500D02*
G01*
X105132500Y-68145500D01*
X105132500Y-61893500D01*
X106834500Y-61893500D01*
X106834500Y-68145500D01*
X106834500Y-68145500D01*
G37*
G36*
X92327591Y-65214085D02*
G01*
X92361569Y-65224393D01*
X92392890Y-65241134D01*
X92420339Y-65263661D01*
X92442866Y-65291110D01*
X92459607Y-65322431D01*
X92469915Y-65356409D01*
X92474000Y-65397890D01*
X92474000Y-65999110D01*
X92469915Y-66040591D01*
X92459607Y-66074569D01*
X92442866Y-66105890D01*
X92420339Y-66133339D01*
X92392890Y-66155866D01*
X92361569Y-66172607D01*
X92327591Y-66182915D01*
X92286110Y-66187000D01*
X91609890Y-66187000D01*
X91568409Y-66182915D01*
X91534431Y-66172607D01*
X91503110Y-66155866D01*
X91475661Y-66133339D01*
X91453134Y-66105890D01*
X91436393Y-66074569D01*
X91426085Y-66040591D01*
X91422000Y-65999110D01*
X91422000Y-65397890D01*
X91426085Y-65356409D01*
X91436393Y-65322431D01*
X91453134Y-65291110D01*
X91475661Y-65263661D01*
X91503110Y-65241134D01*
X91534431Y-65224393D01*
X91568409Y-65214085D01*
X91609890Y-65210000D01*
X92286110Y-65210000D01*
X92327591Y-65214085D01*
X92327591Y-65214085D01*
G37*
G36*
X109841591Y-64248085D02*
G01*
X109875569Y-64258393D01*
X109906890Y-64275134D01*
X109934339Y-64297661D01*
X109956866Y-64325110D01*
X109973607Y-64356431D01*
X109983915Y-64390409D01*
X109988000Y-64431890D01*
X109988000Y-65108110D01*
X109983915Y-65149591D01*
X109973607Y-65183569D01*
X109956866Y-65214890D01*
X109934339Y-65242339D01*
X109906890Y-65264866D01*
X109875569Y-65281607D01*
X109841591Y-65291915D01*
X109800110Y-65296000D01*
X109198890Y-65296000D01*
X109157409Y-65291915D01*
X109123431Y-65281607D01*
X109092110Y-65264866D01*
X109064661Y-65242339D01*
X109042134Y-65214890D01*
X109025393Y-65183569D01*
X109015085Y-65149591D01*
X109011000Y-65108110D01*
X109011000Y-64431890D01*
X109015085Y-64390409D01*
X109025393Y-64356431D01*
X109042134Y-64325110D01*
X109064661Y-64297661D01*
X109092110Y-64275134D01*
X109123431Y-64258393D01*
X109157409Y-64248085D01*
X109198890Y-64244000D01*
X109800110Y-64244000D01*
X109841591Y-64248085D01*
X109841591Y-64248085D01*
G37*
G36*
X114794591Y-64248085D02*
G01*
X114828569Y-64258393D01*
X114859890Y-64275134D01*
X114887339Y-64297661D01*
X114909866Y-64325110D01*
X114926607Y-64356431D01*
X114936915Y-64390409D01*
X114941000Y-64431890D01*
X114941000Y-65108110D01*
X114936915Y-65149591D01*
X114926607Y-65183569D01*
X114909866Y-65214890D01*
X114887339Y-65242339D01*
X114859890Y-65264866D01*
X114828569Y-65281607D01*
X114794591Y-65291915D01*
X114753110Y-65296000D01*
X114151890Y-65296000D01*
X114110409Y-65291915D01*
X114076431Y-65281607D01*
X114045110Y-65264866D01*
X114017661Y-65242339D01*
X113995134Y-65214890D01*
X113978393Y-65183569D01*
X113968085Y-65149591D01*
X113964000Y-65108110D01*
X113964000Y-64431890D01*
X113968085Y-64390409D01*
X113978393Y-64356431D01*
X113995134Y-64325110D01*
X114017661Y-64297661D01*
X114045110Y-64275134D01*
X114076431Y-64258393D01*
X114110409Y-64248085D01*
X114151890Y-64244000D01*
X114753110Y-64244000D01*
X114794591Y-64248085D01*
X114794591Y-64248085D01*
G37*
G36*
X108266591Y-64248085D02*
G01*
X108300569Y-64258393D01*
X108331890Y-64275134D01*
X108359339Y-64297661D01*
X108381866Y-64325110D01*
X108398607Y-64356431D01*
X108408915Y-64390409D01*
X108413000Y-64431890D01*
X108413000Y-65108110D01*
X108408915Y-65149591D01*
X108398607Y-65183569D01*
X108381866Y-65214890D01*
X108359339Y-65242339D01*
X108331890Y-65264866D01*
X108300569Y-65281607D01*
X108266591Y-65291915D01*
X108225110Y-65296000D01*
X107623890Y-65296000D01*
X107582409Y-65291915D01*
X107548431Y-65281607D01*
X107517110Y-65264866D01*
X107489661Y-65242339D01*
X107467134Y-65214890D01*
X107450393Y-65183569D01*
X107440085Y-65149591D01*
X107436000Y-65108110D01*
X107436000Y-64431890D01*
X107440085Y-64390409D01*
X107450393Y-64356431D01*
X107467134Y-64325110D01*
X107489661Y-64297661D01*
X107517110Y-64275134D01*
X107548431Y-64258393D01*
X107582409Y-64248085D01*
X107623890Y-64244000D01*
X108225110Y-64244000D01*
X108266591Y-64248085D01*
X108266591Y-64248085D01*
G37*
G36*
X113219591Y-64248085D02*
G01*
X113253569Y-64258393D01*
X113284890Y-64275134D01*
X113312339Y-64297661D01*
X113334866Y-64325110D01*
X113351607Y-64356431D01*
X113361915Y-64390409D01*
X113366000Y-64431890D01*
X113366000Y-65108110D01*
X113361915Y-65149591D01*
X113351607Y-65183569D01*
X113334866Y-65214890D01*
X113312339Y-65242339D01*
X113284890Y-65264866D01*
X113253569Y-65281607D01*
X113219591Y-65291915D01*
X113178110Y-65296000D01*
X112576890Y-65296000D01*
X112535409Y-65291915D01*
X112501431Y-65281607D01*
X112470110Y-65264866D01*
X112442661Y-65242339D01*
X112420134Y-65214890D01*
X112403393Y-65183569D01*
X112393085Y-65149591D01*
X112389000Y-65108110D01*
X112389000Y-64431890D01*
X112393085Y-64390409D01*
X112403393Y-64356431D01*
X112420134Y-64325110D01*
X112442661Y-64297661D01*
X112470110Y-64275134D01*
X112501431Y-64258393D01*
X112535409Y-64248085D01*
X112576890Y-64244000D01*
X113178110Y-64244000D01*
X113219591Y-64248085D01*
X113219591Y-64248085D01*
G37*
G36*
X92327591Y-63639085D02*
G01*
X92361569Y-63649393D01*
X92392890Y-63666134D01*
X92420339Y-63688661D01*
X92442866Y-63716110D01*
X92459607Y-63747431D01*
X92469915Y-63781409D01*
X92474000Y-63822890D01*
X92474000Y-64424110D01*
X92469915Y-64465591D01*
X92459607Y-64499569D01*
X92442866Y-64530890D01*
X92420339Y-64558339D01*
X92392890Y-64580866D01*
X92361569Y-64597607D01*
X92327591Y-64607915D01*
X92286110Y-64612000D01*
X91609890Y-64612000D01*
X91568409Y-64607915D01*
X91534431Y-64597607D01*
X91503110Y-64580866D01*
X91475661Y-64558339D01*
X91453134Y-64530890D01*
X91436393Y-64499569D01*
X91426085Y-64465591D01*
X91422000Y-64424110D01*
X91422000Y-63822890D01*
X91426085Y-63781409D01*
X91436393Y-63747431D01*
X91453134Y-63716110D01*
X91475661Y-63688661D01*
X91503110Y-63666134D01*
X91534431Y-63649393D01*
X91568409Y-63639085D01*
X91609890Y-63635000D01*
X92286110Y-63635000D01*
X92327591Y-63639085D01*
X92327591Y-63639085D01*
G37*
G36*
X115432000Y-63819000D02*
G01*
X113930000Y-63819000D01*
X113930000Y-62517000D01*
X115432000Y-62517000D01*
X115432000Y-63819000D01*
X115432000Y-63819000D01*
G37*
G36*
X113232000Y-63819000D02*
G01*
X111730000Y-63819000D01*
X111730000Y-62517000D01*
X113232000Y-62517000D01*
X113232000Y-63819000D01*
X113232000Y-63819000D01*
G37*
G36*
X90271600Y-63093600D02*
G01*
X89306400Y-63093600D01*
X89306400Y-61366400D01*
X90271600Y-61366400D01*
X90271600Y-63093600D01*
X90271600Y-63093600D01*
G37*
G36*
X86461600Y-63093600D02*
G01*
X85496400Y-63093600D01*
X85496400Y-61366400D01*
X86461600Y-61366400D01*
X86461600Y-63093600D01*
X86461600Y-63093600D01*
G37*
G36*
X93989591Y-61708085D02*
G01*
X94023569Y-61718393D01*
X94054890Y-61735134D01*
X94082339Y-61757661D01*
X94104866Y-61785110D01*
X94121607Y-61816431D01*
X94131915Y-61850409D01*
X94136000Y-61891890D01*
X94136000Y-62568110D01*
X94131915Y-62609591D01*
X94121607Y-62643569D01*
X94104866Y-62674890D01*
X94082339Y-62702339D01*
X94054890Y-62724866D01*
X94023569Y-62741607D01*
X93989591Y-62751915D01*
X93948110Y-62756000D01*
X93346890Y-62756000D01*
X93305409Y-62751915D01*
X93271431Y-62741607D01*
X93240110Y-62724866D01*
X93212661Y-62702339D01*
X93190134Y-62674890D01*
X93173393Y-62643569D01*
X93163085Y-62609591D01*
X93159000Y-62568110D01*
X93159000Y-61891890D01*
X93163085Y-61850409D01*
X93173393Y-61816431D01*
X93190134Y-61785110D01*
X93212661Y-61757661D01*
X93240110Y-61735134D01*
X93271431Y-61718393D01*
X93305409Y-61708085D01*
X93346890Y-61704000D01*
X93948110Y-61704000D01*
X93989591Y-61708085D01*
X93989591Y-61708085D01*
G37*
G36*
X92414591Y-61708085D02*
G01*
X92448569Y-61718393D01*
X92479890Y-61735134D01*
X92507339Y-61757661D01*
X92529866Y-61785110D01*
X92546607Y-61816431D01*
X92556915Y-61850409D01*
X92561000Y-61891890D01*
X92561000Y-62568110D01*
X92556915Y-62609591D01*
X92546607Y-62643569D01*
X92529866Y-62674890D01*
X92507339Y-62702339D01*
X92479890Y-62724866D01*
X92448569Y-62741607D01*
X92414591Y-62751915D01*
X92373110Y-62756000D01*
X91771890Y-62756000D01*
X91730409Y-62751915D01*
X91696431Y-62741607D01*
X91665110Y-62724866D01*
X91637661Y-62702339D01*
X91615134Y-62674890D01*
X91598393Y-62643569D01*
X91588085Y-62609591D01*
X91584000Y-62568110D01*
X91584000Y-61891890D01*
X91588085Y-61850409D01*
X91598393Y-61816431D01*
X91615134Y-61785110D01*
X91637661Y-61757661D01*
X91665110Y-61735134D01*
X91696431Y-61718393D01*
X91730409Y-61708085D01*
X91771890Y-61704000D01*
X92373110Y-61704000D01*
X92414591Y-61708085D01*
X92414591Y-61708085D01*
G37*
G36*
X96010591Y-61644085D02*
G01*
X96044569Y-61654393D01*
X96075890Y-61671134D01*
X96103339Y-61693661D01*
X96125866Y-61721110D01*
X96142607Y-61752431D01*
X96152915Y-61786409D01*
X96157000Y-61827890D01*
X96157000Y-62429110D01*
X96152915Y-62470591D01*
X96142607Y-62504569D01*
X96125866Y-62535890D01*
X96103339Y-62563339D01*
X96075890Y-62585866D01*
X96044569Y-62602607D01*
X96010591Y-62612915D01*
X95969110Y-62617000D01*
X95292890Y-62617000D01*
X95251409Y-62612915D01*
X95217431Y-62602607D01*
X95186110Y-62585866D01*
X95158661Y-62563339D01*
X95136134Y-62535890D01*
X95119393Y-62504569D01*
X95109085Y-62470591D01*
X95105000Y-62429110D01*
X95105000Y-61827890D01*
X95109085Y-61786409D01*
X95119393Y-61752431D01*
X95136134Y-61721110D01*
X95158661Y-61693661D01*
X95186110Y-61671134D01*
X95217431Y-61654393D01*
X95251409Y-61644085D01*
X95292890Y-61640000D01*
X95969110Y-61640000D01*
X96010591Y-61644085D01*
X96010591Y-61644085D01*
G37*
G36*
X115432000Y-62119000D02*
G01*
X113930000Y-62119000D01*
X113930000Y-60817000D01*
X115432000Y-60817000D01*
X115432000Y-62119000D01*
X115432000Y-62119000D01*
G37*
G36*
X113232000Y-62119000D02*
G01*
X111730000Y-62119000D01*
X111730000Y-60817000D01*
X113232000Y-60817000D01*
X113232000Y-62119000D01*
X113232000Y-62119000D01*
G37*
G36*
X104859500Y-61620500D02*
G01*
X98607500Y-61620500D01*
X98607500Y-59918500D01*
X104859500Y-59918500D01*
X104859500Y-61620500D01*
X104859500Y-61620500D01*
G37*
G36*
X96010591Y-60069085D02*
G01*
X96044569Y-60079393D01*
X96075890Y-60096134D01*
X96103339Y-60118661D01*
X96125866Y-60146110D01*
X96142607Y-60177431D01*
X96152915Y-60211409D01*
X96157000Y-60252890D01*
X96157000Y-60854110D01*
X96152915Y-60895591D01*
X96142607Y-60929569D01*
X96125866Y-60960890D01*
X96103339Y-60988339D01*
X96075890Y-61010866D01*
X96044569Y-61027607D01*
X96010591Y-61037915D01*
X95969110Y-61042000D01*
X95292890Y-61042000D01*
X95251409Y-61037915D01*
X95217431Y-61027607D01*
X95186110Y-61010866D01*
X95158661Y-60988339D01*
X95136134Y-60960890D01*
X95119393Y-60929569D01*
X95109085Y-60895591D01*
X95105000Y-60854110D01*
X95105000Y-60252890D01*
X95109085Y-60211409D01*
X95119393Y-60177431D01*
X95136134Y-60146110D01*
X95158661Y-60118661D01*
X95186110Y-60096134D01*
X95217431Y-60079393D01*
X95251409Y-60069085D01*
X95292890Y-60065000D01*
X95969110Y-60065000D01*
X96010591Y-60069085D01*
X96010591Y-60069085D01*
G37*
G36*
X133366000Y-60443000D02*
G01*
X132064000Y-60443000D01*
X132064000Y-59441000D01*
X133366000Y-59441000D01*
X133366000Y-60443000D01*
X133366000Y-60443000D01*
G37*
G36*
X152416000Y-60443000D02*
G01*
X151114000Y-60443000D01*
X151114000Y-59441000D01*
X152416000Y-59441000D01*
X152416000Y-60443000D01*
X152416000Y-60443000D01*
G37*
G36*
X113242591Y-59295085D02*
G01*
X113276569Y-59305393D01*
X113307890Y-59322134D01*
X113335339Y-59344661D01*
X113357866Y-59372110D01*
X113374607Y-59403431D01*
X113384915Y-59437409D01*
X113389000Y-59478890D01*
X113389000Y-60155110D01*
X113384915Y-60196591D01*
X113374607Y-60230569D01*
X113357866Y-60261890D01*
X113335339Y-60289339D01*
X113307890Y-60311866D01*
X113276569Y-60328607D01*
X113242591Y-60338915D01*
X113201110Y-60343000D01*
X112599890Y-60343000D01*
X112558409Y-60338915D01*
X112524431Y-60328607D01*
X112493110Y-60311866D01*
X112465661Y-60289339D01*
X112443134Y-60261890D01*
X112426393Y-60230569D01*
X112416085Y-60196591D01*
X112412000Y-60155110D01*
X112412000Y-59478890D01*
X112416085Y-59437409D01*
X112426393Y-59403431D01*
X112443134Y-59372110D01*
X112465661Y-59344661D01*
X112493110Y-59322134D01*
X112524431Y-59305393D01*
X112558409Y-59295085D01*
X112599890Y-59291000D01*
X113201110Y-59291000D01*
X113242591Y-59295085D01*
X113242591Y-59295085D01*
G37*
G36*
X114817591Y-59295085D02*
G01*
X114851569Y-59305393D01*
X114882890Y-59322134D01*
X114910339Y-59344661D01*
X114932866Y-59372110D01*
X114949607Y-59403431D01*
X114959915Y-59437409D01*
X114964000Y-59478890D01*
X114964000Y-60155110D01*
X114959915Y-60196591D01*
X114949607Y-60230569D01*
X114932866Y-60261890D01*
X114910339Y-60289339D01*
X114882890Y-60311866D01*
X114851569Y-60328607D01*
X114817591Y-60338915D01*
X114776110Y-60343000D01*
X114174890Y-60343000D01*
X114133409Y-60338915D01*
X114099431Y-60328607D01*
X114068110Y-60311866D01*
X114040661Y-60289339D01*
X114018134Y-60261890D01*
X114001393Y-60230569D01*
X113991085Y-60196591D01*
X113987000Y-60155110D01*
X113987000Y-59478890D01*
X113991085Y-59437409D01*
X114001393Y-59403431D01*
X114018134Y-59372110D01*
X114040661Y-59344661D01*
X114068110Y-59322134D01*
X114099431Y-59305393D01*
X114133409Y-59295085D01*
X114174890Y-59291000D01*
X114776110Y-59291000D01*
X114817591Y-59295085D01*
X114817591Y-59295085D01*
G37*
G36*
X89551000Y-59556000D02*
G01*
X88249000Y-59556000D01*
X88249000Y-58554000D01*
X89551000Y-58554000D01*
X89551000Y-59556000D01*
X89551000Y-59556000D01*
G37*
G36*
X106375591Y-58406085D02*
G01*
X106409569Y-58416393D01*
X106440890Y-58433134D01*
X106468339Y-58455661D01*
X106490866Y-58483110D01*
X106507607Y-58514431D01*
X106517915Y-58548409D01*
X106522000Y-58589890D01*
X106522000Y-59266110D01*
X106517915Y-59307591D01*
X106507607Y-59341569D01*
X106490866Y-59372890D01*
X106468339Y-59400339D01*
X106440890Y-59422866D01*
X106409569Y-59439607D01*
X106375591Y-59449915D01*
X106334110Y-59454000D01*
X105732890Y-59454000D01*
X105691409Y-59449915D01*
X105657431Y-59439607D01*
X105626110Y-59422866D01*
X105598661Y-59400339D01*
X105576134Y-59372890D01*
X105559393Y-59341569D01*
X105549085Y-59307591D01*
X105545000Y-59266110D01*
X105545000Y-58589890D01*
X105549085Y-58548409D01*
X105559393Y-58514431D01*
X105576134Y-58483110D01*
X105598661Y-58455661D01*
X105626110Y-58433134D01*
X105657431Y-58416393D01*
X105691409Y-58406085D01*
X105732890Y-58402000D01*
X106334110Y-58402000D01*
X106375591Y-58406085D01*
X106375591Y-58406085D01*
G37*
G36*
X107950591Y-58406085D02*
G01*
X107984569Y-58416393D01*
X108015890Y-58433134D01*
X108043339Y-58455661D01*
X108065866Y-58483110D01*
X108082607Y-58514431D01*
X108092915Y-58548409D01*
X108097000Y-58589890D01*
X108097000Y-59266110D01*
X108092915Y-59307591D01*
X108082607Y-59341569D01*
X108065866Y-59372890D01*
X108043339Y-59400339D01*
X108015890Y-59422866D01*
X107984569Y-59439607D01*
X107950591Y-59449915D01*
X107909110Y-59454000D01*
X107307890Y-59454000D01*
X107266409Y-59449915D01*
X107232431Y-59439607D01*
X107201110Y-59422866D01*
X107173661Y-59400339D01*
X107151134Y-59372890D01*
X107134393Y-59341569D01*
X107124085Y-59307591D01*
X107120000Y-59266110D01*
X107120000Y-58589890D01*
X107124085Y-58548409D01*
X107134393Y-58514431D01*
X107151134Y-58483110D01*
X107173661Y-58455661D01*
X107201110Y-58433134D01*
X107232431Y-58416393D01*
X107266409Y-58406085D01*
X107307890Y-58402000D01*
X107909110Y-58402000D01*
X107950591Y-58406085D01*
X107950591Y-58406085D01*
G37*
G36*
X100074591Y-58356085D02*
G01*
X100108569Y-58366393D01*
X100139890Y-58383134D01*
X100167339Y-58405661D01*
X100189866Y-58433110D01*
X100206607Y-58464431D01*
X100216915Y-58498409D01*
X100221000Y-58539890D01*
X100221000Y-59141110D01*
X100216915Y-59182591D01*
X100206607Y-59216569D01*
X100189866Y-59247890D01*
X100167339Y-59275339D01*
X100139890Y-59297866D01*
X100108569Y-59314607D01*
X100074591Y-59324915D01*
X100033110Y-59329000D01*
X99356890Y-59329000D01*
X99315409Y-59324915D01*
X99281431Y-59314607D01*
X99250110Y-59297866D01*
X99222661Y-59275339D01*
X99200134Y-59247890D01*
X99183393Y-59216569D01*
X99173085Y-59182591D01*
X99169000Y-59141110D01*
X99169000Y-58539890D01*
X99173085Y-58498409D01*
X99183393Y-58464431D01*
X99200134Y-58433110D01*
X99222661Y-58405661D01*
X99250110Y-58383134D01*
X99281431Y-58366393D01*
X99315409Y-58356085D01*
X99356890Y-58352000D01*
X100033110Y-58352000D01*
X100074591Y-58356085D01*
X100074591Y-58356085D01*
G37*
G36*
X102360591Y-58342085D02*
G01*
X102394569Y-58352393D01*
X102425890Y-58369134D01*
X102453339Y-58391661D01*
X102475866Y-58419110D01*
X102492607Y-58450431D01*
X102502915Y-58484409D01*
X102507000Y-58525890D01*
X102507000Y-59127110D01*
X102502915Y-59168591D01*
X102492607Y-59202569D01*
X102475866Y-59233890D01*
X102453339Y-59261339D01*
X102425890Y-59283866D01*
X102394569Y-59300607D01*
X102360591Y-59310915D01*
X102319110Y-59315000D01*
X101642890Y-59315000D01*
X101601409Y-59310915D01*
X101567431Y-59300607D01*
X101536110Y-59283866D01*
X101508661Y-59261339D01*
X101486134Y-59233890D01*
X101469393Y-59202569D01*
X101459085Y-59168591D01*
X101455000Y-59127110D01*
X101455000Y-58525890D01*
X101459085Y-58484409D01*
X101469393Y-58450431D01*
X101486134Y-58419110D01*
X101508661Y-58391661D01*
X101536110Y-58369134D01*
X101567431Y-58352393D01*
X101601409Y-58342085D01*
X101642890Y-58338000D01*
X102319110Y-58338000D01*
X102360591Y-58342085D01*
X102360591Y-58342085D01*
G37*
G36*
X104011591Y-58342085D02*
G01*
X104045569Y-58352393D01*
X104076890Y-58369134D01*
X104104339Y-58391661D01*
X104126866Y-58419110D01*
X104143607Y-58450431D01*
X104153915Y-58484409D01*
X104158000Y-58525890D01*
X104158000Y-59127110D01*
X104153915Y-59168591D01*
X104143607Y-59202569D01*
X104126866Y-59233890D01*
X104104339Y-59261339D01*
X104076890Y-59283866D01*
X104045569Y-59300607D01*
X104011591Y-59310915D01*
X103970110Y-59315000D01*
X103293890Y-59315000D01*
X103252409Y-59310915D01*
X103218431Y-59300607D01*
X103187110Y-59283866D01*
X103159661Y-59261339D01*
X103137134Y-59233890D01*
X103120393Y-59202569D01*
X103110085Y-59168591D01*
X103106000Y-59127110D01*
X103106000Y-58525890D01*
X103110085Y-58484409D01*
X103120393Y-58450431D01*
X103137134Y-58419110D01*
X103159661Y-58391661D01*
X103187110Y-58369134D01*
X103218431Y-58352393D01*
X103252409Y-58342085D01*
X103293890Y-58338000D01*
X103970110Y-58338000D01*
X104011591Y-58342085D01*
X104011591Y-58342085D01*
G37*
G36*
X92830000Y-58436000D02*
G01*
X91828000Y-58436000D01*
X91828000Y-57134000D01*
X92830000Y-57134000D01*
X92830000Y-58436000D01*
X92830000Y-58436000D01*
G37*
G36*
X96130000Y-58436000D02*
G01*
X95128000Y-58436000D01*
X95128000Y-57134000D01*
X96130000Y-57134000D01*
X96130000Y-58436000D01*
X96130000Y-58436000D01*
G37*
G36*
X106375591Y-56882085D02*
G01*
X106409569Y-56892393D01*
X106440890Y-56909134D01*
X106468339Y-56931661D01*
X106490866Y-56959110D01*
X106507607Y-56990431D01*
X106517915Y-57024409D01*
X106522000Y-57065890D01*
X106522000Y-57742110D01*
X106517915Y-57783591D01*
X106507607Y-57817569D01*
X106490866Y-57848890D01*
X106468339Y-57876339D01*
X106440890Y-57898866D01*
X106409569Y-57915607D01*
X106375591Y-57925915D01*
X106334110Y-57930000D01*
X105732890Y-57930000D01*
X105691409Y-57925915D01*
X105657431Y-57915607D01*
X105626110Y-57898866D01*
X105598661Y-57876339D01*
X105576134Y-57848890D01*
X105559393Y-57817569D01*
X105549085Y-57783591D01*
X105545000Y-57742110D01*
X105545000Y-57065890D01*
X105549085Y-57024409D01*
X105559393Y-56990431D01*
X105576134Y-56959110D01*
X105598661Y-56931661D01*
X105626110Y-56909134D01*
X105657431Y-56892393D01*
X105691409Y-56882085D01*
X105732890Y-56878000D01*
X106334110Y-56878000D01*
X106375591Y-56882085D01*
X106375591Y-56882085D01*
G37*
G36*
X107950591Y-56882085D02*
G01*
X107984569Y-56892393D01*
X108015890Y-56909134D01*
X108043339Y-56931661D01*
X108065866Y-56959110D01*
X108082607Y-56990431D01*
X108092915Y-57024409D01*
X108097000Y-57065890D01*
X108097000Y-57742110D01*
X108092915Y-57783591D01*
X108082607Y-57817569D01*
X108065866Y-57848890D01*
X108043339Y-57876339D01*
X108015890Y-57898866D01*
X107984569Y-57915607D01*
X107950591Y-57925915D01*
X107909110Y-57930000D01*
X107307890Y-57930000D01*
X107266409Y-57925915D01*
X107232431Y-57915607D01*
X107201110Y-57898866D01*
X107173661Y-57876339D01*
X107151134Y-57848890D01*
X107134393Y-57817569D01*
X107124085Y-57783591D01*
X107120000Y-57742110D01*
X107120000Y-57065890D01*
X107124085Y-57024409D01*
X107134393Y-56990431D01*
X107151134Y-56959110D01*
X107173661Y-56931661D01*
X107201110Y-56909134D01*
X107232431Y-56892393D01*
X107266409Y-56882085D01*
X107307890Y-56878000D01*
X107909110Y-56878000D01*
X107950591Y-56882085D01*
X107950591Y-56882085D01*
G37*
G36*
X100074591Y-56781085D02*
G01*
X100108569Y-56791393D01*
X100139890Y-56808134D01*
X100167339Y-56830661D01*
X100189866Y-56858110D01*
X100206607Y-56889431D01*
X100216915Y-56923409D01*
X100221000Y-56964890D01*
X100221000Y-57566110D01*
X100216915Y-57607591D01*
X100206607Y-57641569D01*
X100189866Y-57672890D01*
X100167339Y-57700339D01*
X100139890Y-57722866D01*
X100108569Y-57739607D01*
X100074591Y-57749915D01*
X100033110Y-57754000D01*
X99356890Y-57754000D01*
X99315409Y-57749915D01*
X99281431Y-57739607D01*
X99250110Y-57722866D01*
X99222661Y-57700339D01*
X99200134Y-57672890D01*
X99183393Y-57641569D01*
X99173085Y-57607591D01*
X99169000Y-57566110D01*
X99169000Y-56964890D01*
X99173085Y-56923409D01*
X99183393Y-56889431D01*
X99200134Y-56858110D01*
X99222661Y-56830661D01*
X99250110Y-56808134D01*
X99281431Y-56791393D01*
X99315409Y-56781085D01*
X99356890Y-56777000D01*
X100033110Y-56777000D01*
X100074591Y-56781085D01*
X100074591Y-56781085D01*
G37*
G36*
X102360591Y-56767085D02*
G01*
X102394569Y-56777393D01*
X102425890Y-56794134D01*
X102453339Y-56816661D01*
X102475866Y-56844110D01*
X102492607Y-56875431D01*
X102502915Y-56909409D01*
X102507000Y-56950890D01*
X102507000Y-57552110D01*
X102502915Y-57593591D01*
X102492607Y-57627569D01*
X102475866Y-57658890D01*
X102453339Y-57686339D01*
X102425890Y-57708866D01*
X102394569Y-57725607D01*
X102360591Y-57735915D01*
X102319110Y-57740000D01*
X101642890Y-57740000D01*
X101601409Y-57735915D01*
X101567431Y-57725607D01*
X101536110Y-57708866D01*
X101508661Y-57686339D01*
X101486134Y-57658890D01*
X101469393Y-57627569D01*
X101459085Y-57593591D01*
X101455000Y-57552110D01*
X101455000Y-56950890D01*
X101459085Y-56909409D01*
X101469393Y-56875431D01*
X101486134Y-56844110D01*
X101508661Y-56816661D01*
X101536110Y-56794134D01*
X101567431Y-56777393D01*
X101601409Y-56767085D01*
X101642890Y-56763000D01*
X102319110Y-56763000D01*
X102360591Y-56767085D01*
X102360591Y-56767085D01*
G37*
G36*
X104011591Y-56767085D02*
G01*
X104045569Y-56777393D01*
X104076890Y-56794134D01*
X104104339Y-56816661D01*
X104126866Y-56844110D01*
X104143607Y-56875431D01*
X104153915Y-56909409D01*
X104158000Y-56950890D01*
X104158000Y-57552110D01*
X104153915Y-57593591D01*
X104143607Y-57627569D01*
X104126866Y-57658890D01*
X104104339Y-57686339D01*
X104076890Y-57708866D01*
X104045569Y-57725607D01*
X104011591Y-57735915D01*
X103970110Y-57740000D01*
X103293890Y-57740000D01*
X103252409Y-57735915D01*
X103218431Y-57725607D01*
X103187110Y-57708866D01*
X103159661Y-57686339D01*
X103137134Y-57658890D01*
X103120393Y-57627569D01*
X103110085Y-57593591D01*
X103106000Y-57552110D01*
X103106000Y-56950890D01*
X103110085Y-56909409D01*
X103120393Y-56875431D01*
X103137134Y-56844110D01*
X103159661Y-56816661D01*
X103187110Y-56794134D01*
X103218431Y-56777393D01*
X103252409Y-56767085D01*
X103293890Y-56763000D01*
X103970110Y-56763000D01*
X104011591Y-56767085D01*
X104011591Y-56767085D01*
G37*
G36*
X114167000Y-57547000D02*
G01*
X113165000Y-57547000D01*
X113165000Y-56245000D01*
X114167000Y-56245000D01*
X114167000Y-57547000D01*
X114167000Y-57547000D01*
G37*
G36*
X117467000Y-57547000D02*
G01*
X116465000Y-57547000D01*
X116465000Y-56245000D01*
X117467000Y-56245000D01*
X117467000Y-57547000D01*
X117467000Y-57547000D01*
G37*
G36*
X152416000Y-57143000D02*
G01*
X151114000Y-57143000D01*
X151114000Y-56141000D01*
X152416000Y-56141000D01*
X152416000Y-57143000D01*
X152416000Y-57143000D01*
G37*
G36*
X133366000Y-57143000D02*
G01*
X132064000Y-57143000D01*
X132064000Y-56141000D01*
X133366000Y-56141000D01*
X133366000Y-57143000D01*
X133366000Y-57143000D01*
G37*
G36*
X89551000Y-56256000D02*
G01*
X88249000Y-56256000D01*
X88249000Y-55254000D01*
X89551000Y-55254000D01*
X89551000Y-56256000D01*
X89551000Y-56256000D01*
G37*
G36*
X139975880Y-51734776D02*
G01*
X140356593Y-51810504D01*
X140766249Y-51980189D01*
X141134929Y-52226534D01*
X141448466Y-52540071D01*
X141694811Y-52908751D01*
X141864496Y-53318407D01*
X141951000Y-53753296D01*
X141951000Y-54196704D01*
X141864496Y-54631593D01*
X141694811Y-55041249D01*
X141448466Y-55409929D01*
X141134929Y-55723466D01*
X140766249Y-55969811D01*
X140356593Y-56139496D01*
X139975880Y-56215224D01*
X139921705Y-56226000D01*
X139478295Y-56226000D01*
X139424120Y-56215224D01*
X139043407Y-56139496D01*
X138633751Y-55969811D01*
X138265071Y-55723466D01*
X137951534Y-55409929D01*
X137705189Y-55041249D01*
X137535504Y-54631593D01*
X137449000Y-54196704D01*
X137449000Y-53753296D01*
X137535504Y-53318407D01*
X137705189Y-52908751D01*
X137951534Y-52540071D01*
X138265071Y-52226534D01*
X138633751Y-51980189D01*
X139043407Y-51810504D01*
X139424120Y-51734776D01*
X139478295Y-51724000D01*
X139921705Y-51724000D01*
X139975880Y-51734776D01*
X139975880Y-51734776D01*
G37*
G36*
X149821474Y-52008684D02*
G01*
X150007527Y-52085750D01*
X150193623Y-52162833D01*
X150528548Y-52386623D01*
X150813377Y-52671452D01*
X151037167Y-53006377D01*
X151069562Y-53084586D01*
X151191316Y-53378526D01*
X151269900Y-53773594D01*
X151269900Y-54176406D01*
X151191316Y-54571474D01*
X151140451Y-54694272D01*
X151037167Y-54943623D01*
X150813377Y-55278548D01*
X150528548Y-55563377D01*
X150193623Y-55787167D01*
X150039474Y-55851017D01*
X149821474Y-55941316D01*
X149426406Y-56019900D01*
X149023594Y-56019900D01*
X148628526Y-55941316D01*
X148410526Y-55851017D01*
X148256377Y-55787167D01*
X147921452Y-55563377D01*
X147636623Y-55278548D01*
X147412833Y-54943623D01*
X147309549Y-54694272D01*
X147258684Y-54571474D01*
X147180100Y-54176406D01*
X147180100Y-53773594D01*
X147258684Y-53378526D01*
X147380438Y-53084586D01*
X147412833Y-53006377D01*
X147636623Y-52671452D01*
X147921452Y-52386623D01*
X148256377Y-52162833D01*
X148442473Y-52085750D01*
X148628526Y-52008684D01*
X149023594Y-51930100D01*
X149426406Y-51930100D01*
X149821474Y-52008684D01*
X149821474Y-52008684D01*
G37*
G36*
X92671474Y-52008684D02*
G01*
X92857527Y-52085750D01*
X93043623Y-52162833D01*
X93378548Y-52386623D01*
X93663377Y-52671452D01*
X93887167Y-53006377D01*
X93919562Y-53084586D01*
X94041316Y-53378526D01*
X94119900Y-53773594D01*
X94119900Y-54176406D01*
X94041316Y-54571474D01*
X93990451Y-54694272D01*
X93887167Y-54943623D01*
X93663377Y-55278548D01*
X93378548Y-55563377D01*
X93043623Y-55787167D01*
X92889474Y-55851017D01*
X92671474Y-55941316D01*
X92276406Y-56019900D01*
X91873594Y-56019900D01*
X91478526Y-55941316D01*
X91260526Y-55851017D01*
X91106377Y-55787167D01*
X90771452Y-55563377D01*
X90486623Y-55278548D01*
X90262833Y-54943623D01*
X90159549Y-54694272D01*
X90108684Y-54571474D01*
X90030100Y-54176406D01*
X90030100Y-53773594D01*
X90108684Y-53378526D01*
X90230438Y-53084586D01*
X90262833Y-53006377D01*
X90486623Y-52671452D01*
X90771452Y-52386623D01*
X91106377Y-52162833D01*
X91292473Y-52085750D01*
X91478526Y-52008684D01*
X91873594Y-51930100D01*
X92276406Y-51930100D01*
X92671474Y-52008684D01*
X92671474Y-52008684D01*
G37*
G36*
X130771474Y-52008684D02*
G01*
X130957527Y-52085750D01*
X131143623Y-52162833D01*
X131478548Y-52386623D01*
X131763377Y-52671452D01*
X131987167Y-53006377D01*
X132019562Y-53084586D01*
X132141316Y-53378526D01*
X132219900Y-53773594D01*
X132219900Y-54176406D01*
X132141316Y-54571474D01*
X132090451Y-54694272D01*
X131987167Y-54943623D01*
X131763377Y-55278548D01*
X131478548Y-55563377D01*
X131143623Y-55787167D01*
X130989474Y-55851017D01*
X130771474Y-55941316D01*
X130376406Y-56019900D01*
X129973594Y-56019900D01*
X129578526Y-55941316D01*
X129360526Y-55851017D01*
X129206377Y-55787167D01*
X128871452Y-55563377D01*
X128586623Y-55278548D01*
X128362833Y-54943623D01*
X128259549Y-54694272D01*
X128208684Y-54571474D01*
X128130100Y-54176406D01*
X128130100Y-53773594D01*
X128208684Y-53378526D01*
X128330438Y-53084586D01*
X128362833Y-53006377D01*
X128586623Y-52671452D01*
X128871452Y-52386623D01*
X129206377Y-52162833D01*
X129392473Y-52085750D01*
X129578526Y-52008684D01*
X129973594Y-51930100D01*
X130376406Y-51930100D01*
X130771474Y-52008684D01*
X130771474Y-52008684D01*
G37*
G36*
X111721474Y-52008684D02*
G01*
X111907527Y-52085750D01*
X112093623Y-52162833D01*
X112428548Y-52386623D01*
X112713377Y-52671452D01*
X112937167Y-53006377D01*
X112969562Y-53084586D01*
X113091316Y-53378526D01*
X113169900Y-53773594D01*
X113169900Y-54176406D01*
X113091316Y-54571474D01*
X113040451Y-54694272D01*
X112937167Y-54943623D01*
X112713377Y-55278548D01*
X112428548Y-55563377D01*
X112093623Y-55787167D01*
X111939474Y-55851017D01*
X111721474Y-55941316D01*
X111326406Y-56019900D01*
X110923594Y-56019900D01*
X110528526Y-55941316D01*
X110310526Y-55851017D01*
X110156377Y-55787167D01*
X109821452Y-55563377D01*
X109536623Y-55278548D01*
X109312833Y-54943623D01*
X109209549Y-54694272D01*
X109158684Y-54571474D01*
X109080100Y-54176406D01*
X109080100Y-53773594D01*
X109158684Y-53378526D01*
X109280438Y-53084586D01*
X109312833Y-53006377D01*
X109536623Y-52671452D01*
X109821452Y-52386623D01*
X110156377Y-52162833D01*
X110342473Y-52085750D01*
X110528526Y-52008684D01*
X110923594Y-51930100D01*
X111326406Y-51930100D01*
X111721474Y-52008684D01*
X111721474Y-52008684D01*
G37*
G36*
X104450000Y-55994000D02*
G01*
X101798000Y-55994000D01*
X101798000Y-54832000D01*
X104450000Y-54832000D01*
X104450000Y-55994000D01*
X104450000Y-55994000D01*
G37*
G36*
X106315104Y-53084585D02*
G01*
X106483626Y-53154389D01*
X106635291Y-53255728D01*
X106764272Y-53384709D01*
X106865611Y-53536374D01*
X106935415Y-53704896D01*
X106971000Y-53883797D01*
X106971000Y-54066203D01*
X106935415Y-54245104D01*
X106865611Y-54413626D01*
X106764272Y-54565291D01*
X106635291Y-54694272D01*
X106483626Y-54795611D01*
X106315104Y-54865415D01*
X106136203Y-54901000D01*
X105953797Y-54901000D01*
X105774896Y-54865415D01*
X105606374Y-54795611D01*
X105454709Y-54694272D01*
X105325728Y-54565291D01*
X105224389Y-54413626D01*
X105154585Y-54245104D01*
X105119000Y-54066203D01*
X105119000Y-53883797D01*
X105154585Y-53704896D01*
X105224389Y-53536374D01*
X105325728Y-53384709D01*
X105454709Y-53255728D01*
X105606374Y-53154389D01*
X105774896Y-53084585D01*
X105953797Y-53049000D01*
X106136203Y-53049000D01*
X106315104Y-53084585D01*
X106315104Y-53084585D01*
G37*
G36*
X135525104Y-53084585D02*
G01*
X135693626Y-53154389D01*
X135845291Y-53255728D01*
X135974272Y-53384709D01*
X136075611Y-53536374D01*
X136145415Y-53704896D01*
X136181000Y-53883797D01*
X136181000Y-54066203D01*
X136145415Y-54245104D01*
X136075611Y-54413626D01*
X135974272Y-54565291D01*
X135845291Y-54694272D01*
X135693626Y-54795611D01*
X135525104Y-54865415D01*
X135346203Y-54901000D01*
X135163797Y-54901000D01*
X134984896Y-54865415D01*
X134816374Y-54795611D01*
X134664709Y-54694272D01*
X134535728Y-54565291D01*
X134434389Y-54413626D01*
X134364585Y-54245104D01*
X134329000Y-54066203D01*
X134329000Y-53883797D01*
X134364585Y-53704896D01*
X134434389Y-53536374D01*
X134535728Y-53384709D01*
X134664709Y-53255728D01*
X134816374Y-53154389D01*
X134984896Y-53084585D01*
X135163797Y-53049000D01*
X135346203Y-53049000D01*
X135525104Y-53084585D01*
X135525104Y-53084585D01*
G37*
G36*
X125365104Y-53084585D02*
G01*
X125533626Y-53154389D01*
X125685291Y-53255728D01*
X125814272Y-53384709D01*
X125915611Y-53536374D01*
X125985415Y-53704896D01*
X126021000Y-53883797D01*
X126021000Y-54066203D01*
X125985415Y-54245104D01*
X125915611Y-54413626D01*
X125814272Y-54565291D01*
X125685291Y-54694272D01*
X125533626Y-54795611D01*
X125365104Y-54865415D01*
X125186203Y-54901000D01*
X125003797Y-54901000D01*
X124824896Y-54865415D01*
X124656374Y-54795611D01*
X124504709Y-54694272D01*
X124375728Y-54565291D01*
X124274389Y-54413626D01*
X124204585Y-54245104D01*
X124169000Y-54066203D01*
X124169000Y-53883797D01*
X124204585Y-53704896D01*
X124274389Y-53536374D01*
X124375728Y-53384709D01*
X124504709Y-53255728D01*
X124656374Y-53154389D01*
X124824896Y-53084585D01*
X125003797Y-53049000D01*
X125186203Y-53049000D01*
X125365104Y-53084585D01*
X125365104Y-53084585D01*
G37*
G36*
X154575104Y-53084585D02*
G01*
X154743626Y-53154389D01*
X154895291Y-53255728D01*
X155024272Y-53384709D01*
X155125611Y-53536374D01*
X155195415Y-53704896D01*
X155231000Y-53883797D01*
X155231000Y-54066203D01*
X155195415Y-54245104D01*
X155125611Y-54413626D01*
X155024272Y-54565291D01*
X154895291Y-54694272D01*
X154743626Y-54795611D01*
X154575104Y-54865415D01*
X154396203Y-54901000D01*
X154213797Y-54901000D01*
X154034896Y-54865415D01*
X153866374Y-54795611D01*
X153714709Y-54694272D01*
X153585728Y-54565291D01*
X153484389Y-54413626D01*
X153414585Y-54245104D01*
X153379000Y-54066203D01*
X153379000Y-53883797D01*
X153414585Y-53704896D01*
X153484389Y-53536374D01*
X153585728Y-53384709D01*
X153714709Y-53255728D01*
X153866374Y-53154389D01*
X154034896Y-53084585D01*
X154213797Y-53049000D01*
X154396203Y-53049000D01*
X154575104Y-53084585D01*
X154575104Y-53084585D01*
G37*
G36*
X144415104Y-53084585D02*
G01*
X144583626Y-53154389D01*
X144735291Y-53255728D01*
X144864272Y-53384709D01*
X144965611Y-53536374D01*
X145035415Y-53704896D01*
X145071000Y-53883797D01*
X145071000Y-54066203D01*
X145035415Y-54245104D01*
X144965611Y-54413626D01*
X144864272Y-54565291D01*
X144735291Y-54694272D01*
X144583626Y-54795611D01*
X144415104Y-54865415D01*
X144236203Y-54901000D01*
X144053797Y-54901000D01*
X143874896Y-54865415D01*
X143706374Y-54795611D01*
X143554709Y-54694272D01*
X143425728Y-54565291D01*
X143324389Y-54413626D01*
X143254585Y-54245104D01*
X143219000Y-54066203D01*
X143219000Y-53883797D01*
X143254585Y-53704896D01*
X143324389Y-53536374D01*
X143425728Y-53384709D01*
X143554709Y-53255728D01*
X143706374Y-53154389D01*
X143874896Y-53084585D01*
X144053797Y-53049000D01*
X144236203Y-53049000D01*
X144415104Y-53084585D01*
X144415104Y-53084585D01*
G37*
G36*
X87265104Y-53084585D02*
G01*
X87433626Y-53154389D01*
X87585291Y-53255728D01*
X87714272Y-53384709D01*
X87815611Y-53536374D01*
X87885415Y-53704896D01*
X87921000Y-53883797D01*
X87921000Y-54066203D01*
X87885415Y-54245104D01*
X87815611Y-54413626D01*
X87714272Y-54565291D01*
X87585291Y-54694272D01*
X87433626Y-54795611D01*
X87265104Y-54865415D01*
X87086203Y-54901000D01*
X86903797Y-54901000D01*
X86724896Y-54865415D01*
X86556374Y-54795611D01*
X86404709Y-54694272D01*
X86275728Y-54565291D01*
X86174389Y-54413626D01*
X86104585Y-54245104D01*
X86069000Y-54066203D01*
X86069000Y-53883797D01*
X86104585Y-53704896D01*
X86174389Y-53536374D01*
X86275728Y-53384709D01*
X86404709Y-53255728D01*
X86556374Y-53154389D01*
X86724896Y-53084585D01*
X86903797Y-53049000D01*
X87086203Y-53049000D01*
X87265104Y-53084585D01*
X87265104Y-53084585D01*
G37*
G36*
X97425104Y-53084585D02*
G01*
X97593626Y-53154389D01*
X97745291Y-53255728D01*
X97874272Y-53384709D01*
X97975611Y-53536374D01*
X98045415Y-53704896D01*
X98081000Y-53883797D01*
X98081000Y-54066203D01*
X98045415Y-54245104D01*
X97975611Y-54413626D01*
X97874272Y-54565291D01*
X97745291Y-54694272D01*
X97593626Y-54795611D01*
X97425104Y-54865415D01*
X97246203Y-54901000D01*
X97063797Y-54901000D01*
X96884896Y-54865415D01*
X96716374Y-54795611D01*
X96564709Y-54694272D01*
X96435728Y-54565291D01*
X96334389Y-54413626D01*
X96264585Y-54245104D01*
X96229000Y-54066203D01*
X96229000Y-53883797D01*
X96264585Y-53704896D01*
X96334389Y-53536374D01*
X96435728Y-53384709D01*
X96564709Y-53255728D01*
X96716374Y-53154389D01*
X96884896Y-53084585D01*
X97063797Y-53049000D01*
X97246203Y-53049000D01*
X97425104Y-53084585D01*
X97425104Y-53084585D01*
G37*
G36*
X116475104Y-53084585D02*
G01*
X116643626Y-53154389D01*
X116795291Y-53255728D01*
X116924272Y-53384709D01*
X117025611Y-53536374D01*
X117095415Y-53704896D01*
X117131000Y-53883797D01*
X117131000Y-54066203D01*
X117095415Y-54245104D01*
X117025611Y-54413626D01*
X116924272Y-54565291D01*
X116795291Y-54694272D01*
X116643626Y-54795611D01*
X116475104Y-54865415D01*
X116296203Y-54901000D01*
X116113797Y-54901000D01*
X115934896Y-54865415D01*
X115766374Y-54795611D01*
X115614709Y-54694272D01*
X115485728Y-54565291D01*
X115384389Y-54413626D01*
X115314585Y-54245104D01*
X115279000Y-54066203D01*
X115279000Y-53883797D01*
X115314585Y-53704896D01*
X115384389Y-53536374D01*
X115485728Y-53384709D01*
X115614709Y-53255728D01*
X115766374Y-53154389D01*
X115934896Y-53084585D01*
X116113797Y-53049000D01*
X116296203Y-53049000D01*
X116475104Y-53084585D01*
X116475104Y-53084585D01*
G37*
G36*
X104450000Y-53794000D02*
G01*
X101798000Y-53794000D01*
X101798000Y-52632000D01*
X104450000Y-52632000D01*
X104450000Y-53794000D01*
X104450000Y-53794000D01*
G37*
G36*
X126556560Y-50274064D02*
G01*
X126708027Y-50304193D01*
X126922045Y-50392842D01*
X126960307Y-50418408D01*
X127114654Y-50521539D01*
X127278461Y-50685346D01*
X127325002Y-50755000D01*
X127407158Y-50877955D01*
X127495807Y-51091973D01*
X127541000Y-51319174D01*
X127541000Y-51550826D01*
X127495807Y-51778027D01*
X127407158Y-51992045D01*
X127407157Y-51992046D01*
X127278461Y-52184654D01*
X127114654Y-52348461D01*
X127057540Y-52386623D01*
X126922045Y-52477158D01*
X126708027Y-52565807D01*
X126556560Y-52595936D01*
X126480827Y-52611000D01*
X126249173Y-52611000D01*
X126173440Y-52595936D01*
X126021973Y-52565807D01*
X125807955Y-52477158D01*
X125672460Y-52386623D01*
X125615346Y-52348461D01*
X125451539Y-52184654D01*
X125322843Y-51992046D01*
X125322842Y-51992045D01*
X125234193Y-51778027D01*
X125189000Y-51550826D01*
X125189000Y-51319174D01*
X125234193Y-51091973D01*
X125322842Y-50877955D01*
X125404998Y-50755000D01*
X125451539Y-50685346D01*
X125615346Y-50521539D01*
X125769693Y-50418408D01*
X125807955Y-50392842D01*
X126021973Y-50304193D01*
X126173440Y-50274064D01*
X126249173Y-50259000D01*
X126480827Y-50259000D01*
X126556560Y-50274064D01*
X126556560Y-50274064D01*
G37*
G36*
X107506560Y-50274064D02*
G01*
X107658027Y-50304193D01*
X107872045Y-50392842D01*
X107910307Y-50418408D01*
X108064654Y-50521539D01*
X108228461Y-50685346D01*
X108275002Y-50755000D01*
X108357158Y-50877955D01*
X108445807Y-51091973D01*
X108491000Y-51319174D01*
X108491000Y-51550826D01*
X108445807Y-51778027D01*
X108357158Y-51992045D01*
X108357157Y-51992046D01*
X108228461Y-52184654D01*
X108064654Y-52348461D01*
X108007540Y-52386623D01*
X107872045Y-52477158D01*
X107658027Y-52565807D01*
X107506560Y-52595936D01*
X107430827Y-52611000D01*
X107199173Y-52611000D01*
X107123440Y-52595936D01*
X106971973Y-52565807D01*
X106757955Y-52477158D01*
X106622460Y-52386623D01*
X106565346Y-52348461D01*
X106401539Y-52184654D01*
X106272843Y-51992046D01*
X106272842Y-51992045D01*
X106184193Y-51778027D01*
X106139000Y-51550826D01*
X106139000Y-51319174D01*
X106184193Y-51091973D01*
X106272842Y-50877955D01*
X106354998Y-50755000D01*
X106401539Y-50685346D01*
X106565346Y-50521539D01*
X106719693Y-50418408D01*
X106757955Y-50392842D01*
X106971973Y-50304193D01*
X107123440Y-50274064D01*
X107199173Y-50259000D01*
X107430827Y-50259000D01*
X107506560Y-50274064D01*
X107506560Y-50274064D01*
G37*
G36*
X88456560Y-50274064D02*
G01*
X88608027Y-50304193D01*
X88822045Y-50392842D01*
X88860307Y-50418408D01*
X89014654Y-50521539D01*
X89178461Y-50685346D01*
X89225002Y-50755000D01*
X89307158Y-50877955D01*
X89395807Y-51091973D01*
X89441000Y-51319174D01*
X89441000Y-51550826D01*
X89395807Y-51778027D01*
X89307158Y-51992045D01*
X89307157Y-51992046D01*
X89178461Y-52184654D01*
X89014654Y-52348461D01*
X88957540Y-52386623D01*
X88822045Y-52477158D01*
X88608027Y-52565807D01*
X88456560Y-52595936D01*
X88380827Y-52611000D01*
X88149173Y-52611000D01*
X88073440Y-52595936D01*
X87921973Y-52565807D01*
X87707955Y-52477158D01*
X87572460Y-52386623D01*
X87515346Y-52348461D01*
X87351539Y-52184654D01*
X87222843Y-51992046D01*
X87222842Y-51992045D01*
X87134193Y-51778027D01*
X87089000Y-51550826D01*
X87089000Y-51319174D01*
X87134193Y-51091973D01*
X87222842Y-50877955D01*
X87304998Y-50755000D01*
X87351539Y-50685346D01*
X87515346Y-50521539D01*
X87669693Y-50418408D01*
X87707955Y-50392842D01*
X87921973Y-50304193D01*
X88073440Y-50274064D01*
X88149173Y-50259000D01*
X88380827Y-50259000D01*
X88456560Y-50274064D01*
X88456560Y-50274064D01*
G37*
G36*
X145606560Y-50274064D02*
G01*
X145758027Y-50304193D01*
X145972045Y-50392842D01*
X146010307Y-50418408D01*
X146164654Y-50521539D01*
X146328461Y-50685346D01*
X146375002Y-50755000D01*
X146457158Y-50877955D01*
X146545807Y-51091973D01*
X146591000Y-51319174D01*
X146591000Y-51550826D01*
X146545807Y-51778027D01*
X146457158Y-51992045D01*
X146457157Y-51992046D01*
X146328461Y-52184654D01*
X146164654Y-52348461D01*
X146107540Y-52386623D01*
X145972045Y-52477158D01*
X145758027Y-52565807D01*
X145606560Y-52595936D01*
X145530827Y-52611000D01*
X145299173Y-52611000D01*
X145223440Y-52595936D01*
X145071973Y-52565807D01*
X144857955Y-52477158D01*
X144722460Y-52386623D01*
X144665346Y-52348461D01*
X144501539Y-52184654D01*
X144372843Y-51992046D01*
X144372842Y-51992045D01*
X144284193Y-51778027D01*
X144239000Y-51550826D01*
X144239000Y-51319174D01*
X144284193Y-51091973D01*
X144372842Y-50877955D01*
X144454998Y-50755000D01*
X144501539Y-50685346D01*
X144665346Y-50521539D01*
X144819693Y-50418408D01*
X144857955Y-50392842D01*
X145071973Y-50304193D01*
X145223440Y-50274064D01*
X145299173Y-50259000D01*
X145530827Y-50259000D01*
X145606560Y-50274064D01*
X145606560Y-50274064D01*
G37*
G36*
X100963591Y-51357085D02*
G01*
X100997569Y-51367393D01*
X101028890Y-51384134D01*
X101056339Y-51406661D01*
X101078866Y-51434110D01*
X101095607Y-51465431D01*
X101105915Y-51499409D01*
X101110000Y-51540890D01*
X101110000Y-52142110D01*
X101105915Y-52183591D01*
X101095607Y-52217569D01*
X101078866Y-52248890D01*
X101056339Y-52276339D01*
X101028890Y-52298866D01*
X100997569Y-52315607D01*
X100963591Y-52325915D01*
X100922110Y-52330000D01*
X100245890Y-52330000D01*
X100204409Y-52325915D01*
X100170431Y-52315607D01*
X100139110Y-52298866D01*
X100111661Y-52276339D01*
X100089134Y-52248890D01*
X100072393Y-52217569D01*
X100062085Y-52183591D01*
X100058000Y-52142110D01*
X100058000Y-51540890D01*
X100062085Y-51499409D01*
X100072393Y-51465431D01*
X100089134Y-51434110D01*
X100111661Y-51406661D01*
X100139110Y-51384134D01*
X100170431Y-51367393D01*
X100204409Y-51357085D01*
X100245890Y-51353000D01*
X100922110Y-51353000D01*
X100963591Y-51357085D01*
X100963591Y-51357085D01*
G37*
G36*
X99439591Y-51357085D02*
G01*
X99473569Y-51367393D01*
X99504890Y-51384134D01*
X99532339Y-51406661D01*
X99554866Y-51434110D01*
X99571607Y-51465431D01*
X99581915Y-51499409D01*
X99586000Y-51540890D01*
X99586000Y-52142110D01*
X99581915Y-52183591D01*
X99571607Y-52217569D01*
X99554866Y-52248890D01*
X99532339Y-52276339D01*
X99504890Y-52298866D01*
X99473569Y-52315607D01*
X99439591Y-52325915D01*
X99398110Y-52330000D01*
X98721890Y-52330000D01*
X98680409Y-52325915D01*
X98646431Y-52315607D01*
X98615110Y-52298866D01*
X98587661Y-52276339D01*
X98565134Y-52248890D01*
X98548393Y-52217569D01*
X98538085Y-52183591D01*
X98534000Y-52142110D01*
X98534000Y-51540890D01*
X98538085Y-51499409D01*
X98548393Y-51465431D01*
X98565134Y-51434110D01*
X98587661Y-51406661D01*
X98615110Y-51384134D01*
X98646431Y-51367393D01*
X98680409Y-51357085D01*
X98721890Y-51353000D01*
X99398110Y-51353000D01*
X99439591Y-51357085D01*
X99439591Y-51357085D01*
G37*
G36*
X99439591Y-49782085D02*
G01*
X99473569Y-49792393D01*
X99504890Y-49809134D01*
X99532339Y-49831661D01*
X99554866Y-49859110D01*
X99571607Y-49890431D01*
X99581915Y-49924409D01*
X99586000Y-49965890D01*
X99586000Y-50567110D01*
X99581915Y-50608591D01*
X99571607Y-50642569D01*
X99554866Y-50673890D01*
X99532339Y-50701339D01*
X99504890Y-50723866D01*
X99473569Y-50740607D01*
X99439591Y-50750915D01*
X99398110Y-50755000D01*
X98721890Y-50755000D01*
X98680409Y-50750915D01*
X98646431Y-50740607D01*
X98615110Y-50723866D01*
X98587661Y-50701339D01*
X98565134Y-50673890D01*
X98548393Y-50642569D01*
X98538085Y-50608591D01*
X98534000Y-50567110D01*
X98534000Y-49965890D01*
X98538085Y-49924409D01*
X98548393Y-49890431D01*
X98565134Y-49859110D01*
X98587661Y-49831661D01*
X98615110Y-49809134D01*
X98646431Y-49792393D01*
X98680409Y-49782085D01*
X98721890Y-49778000D01*
X99398110Y-49778000D01*
X99439591Y-49782085D01*
X99439591Y-49782085D01*
G37*
G36*
X100963591Y-49782085D02*
G01*
X100997569Y-49792393D01*
X101028890Y-49809134D01*
X101056339Y-49831661D01*
X101078866Y-49859110D01*
X101095607Y-49890431D01*
X101105915Y-49924409D01*
X101110000Y-49965890D01*
X101110000Y-50567110D01*
X101105915Y-50608591D01*
X101095607Y-50642569D01*
X101078866Y-50673890D01*
X101056339Y-50701339D01*
X101028890Y-50723866D01*
X100997569Y-50740607D01*
X100963591Y-50750915D01*
X100922110Y-50755000D01*
X100245890Y-50755000D01*
X100204409Y-50750915D01*
X100170431Y-50740607D01*
X100139110Y-50723866D01*
X100111661Y-50701339D01*
X100089134Y-50673890D01*
X100072393Y-50642569D01*
X100062085Y-50608591D01*
X100058000Y-50567110D01*
X100058000Y-49965890D01*
X100062085Y-49924409D01*
X100072393Y-49890431D01*
X100089134Y-49859110D01*
X100111661Y-49831661D01*
X100139110Y-49809134D01*
X100170431Y-49792393D01*
X100204409Y-49782085D01*
X100245890Y-49778000D01*
X100922110Y-49778000D01*
X100963591Y-49782085D01*
X100963591Y-49782085D01*
G37*
G36*
X103720091Y-49389085D02*
G01*
X103754069Y-49399393D01*
X103785390Y-49416134D01*
X103812839Y-49438661D01*
X103835366Y-49466110D01*
X103852107Y-49497431D01*
X103862415Y-49531409D01*
X103866500Y-49572890D01*
X103866500Y-50249110D01*
X103862415Y-50290591D01*
X103852107Y-50324569D01*
X103835366Y-50355890D01*
X103812839Y-50383339D01*
X103785390Y-50405866D01*
X103754069Y-50422607D01*
X103720091Y-50432915D01*
X103678610Y-50437000D01*
X103077390Y-50437000D01*
X103035909Y-50432915D01*
X103001931Y-50422607D01*
X102970610Y-50405866D01*
X102943161Y-50383339D01*
X102920634Y-50355890D01*
X102903893Y-50324569D01*
X102893585Y-50290591D01*
X102889500Y-50249110D01*
X102889500Y-49572890D01*
X102893585Y-49531409D01*
X102903893Y-49497431D01*
X102920634Y-49466110D01*
X102943161Y-49438661D01*
X102970610Y-49416134D01*
X103001931Y-49399393D01*
X103035909Y-49389085D01*
X103077390Y-49385000D01*
X103678610Y-49385000D01*
X103720091Y-49389085D01*
X103720091Y-49389085D01*
G37*
G36*
X105295091Y-49389085D02*
G01*
X105329069Y-49399393D01*
X105360390Y-49416134D01*
X105387839Y-49438661D01*
X105410366Y-49466110D01*
X105427107Y-49497431D01*
X105437415Y-49531409D01*
X105441500Y-49572890D01*
X105441500Y-50249110D01*
X105437415Y-50290591D01*
X105427107Y-50324569D01*
X105410366Y-50355890D01*
X105387839Y-50383339D01*
X105360390Y-50405866D01*
X105329069Y-50422607D01*
X105295091Y-50432915D01*
X105253610Y-50437000D01*
X104652390Y-50437000D01*
X104610909Y-50432915D01*
X104576931Y-50422607D01*
X104545610Y-50405866D01*
X104518161Y-50383339D01*
X104495634Y-50355890D01*
X104478893Y-50324569D01*
X104468585Y-50290591D01*
X104464500Y-50249110D01*
X104464500Y-49572890D01*
X104468585Y-49531409D01*
X104478893Y-49497431D01*
X104495634Y-49466110D01*
X104518161Y-49438661D01*
X104545610Y-49416134D01*
X104576931Y-49399393D01*
X104610909Y-49389085D01*
X104652390Y-49385000D01*
X105253610Y-49385000D01*
X105295091Y-49389085D01*
X105295091Y-49389085D01*
G37*
G36*
X113856560Y-47734064D02*
G01*
X114008027Y-47764193D01*
X114222045Y-47852842D01*
X114222046Y-47852843D01*
X114414654Y-47981539D01*
X114578461Y-48145346D01*
X114664258Y-48273751D01*
X114707158Y-48337955D01*
X114795807Y-48551973D01*
X114841000Y-48779174D01*
X114841000Y-49010826D01*
X114795807Y-49238027D01*
X114707158Y-49452045D01*
X114707157Y-49452046D01*
X114578461Y-49644654D01*
X114414654Y-49808461D01*
X114353176Y-49849539D01*
X114222045Y-49937158D01*
X114008027Y-50025807D01*
X113856560Y-50055936D01*
X113780827Y-50071000D01*
X113549173Y-50071000D01*
X113473440Y-50055936D01*
X113321973Y-50025807D01*
X113107955Y-49937158D01*
X112976824Y-49849539D01*
X112915346Y-49808461D01*
X112751539Y-49644654D01*
X112622843Y-49452046D01*
X112622842Y-49452045D01*
X112534193Y-49238027D01*
X112489000Y-49010826D01*
X112489000Y-48779174D01*
X112534193Y-48551973D01*
X112622842Y-48337955D01*
X112665742Y-48273751D01*
X112751539Y-48145346D01*
X112915346Y-47981539D01*
X113107954Y-47852843D01*
X113107955Y-47852842D01*
X113321973Y-47764193D01*
X113473440Y-47734064D01*
X113549173Y-47719000D01*
X113780827Y-47719000D01*
X113856560Y-47734064D01*
X113856560Y-47734064D01*
G37*
G36*
X94806560Y-47734064D02*
G01*
X94958027Y-47764193D01*
X95172045Y-47852842D01*
X95172046Y-47852843D01*
X95364654Y-47981539D01*
X95528461Y-48145346D01*
X95614258Y-48273751D01*
X95657158Y-48337955D01*
X95745807Y-48551973D01*
X95791000Y-48779174D01*
X95791000Y-49010826D01*
X95745807Y-49238027D01*
X95657158Y-49452045D01*
X95657157Y-49452046D01*
X95528461Y-49644654D01*
X95364654Y-49808461D01*
X95303176Y-49849539D01*
X95172045Y-49937158D01*
X94958027Y-50025807D01*
X94806560Y-50055936D01*
X94730827Y-50071000D01*
X94499173Y-50071000D01*
X94423440Y-50055936D01*
X94271973Y-50025807D01*
X94057955Y-49937158D01*
X93926824Y-49849539D01*
X93865346Y-49808461D01*
X93701539Y-49644654D01*
X93572843Y-49452046D01*
X93572842Y-49452045D01*
X93484193Y-49238027D01*
X93439000Y-49010826D01*
X93439000Y-48779174D01*
X93484193Y-48551973D01*
X93572842Y-48337955D01*
X93615742Y-48273751D01*
X93701539Y-48145346D01*
X93865346Y-47981539D01*
X94057954Y-47852843D01*
X94057955Y-47852842D01*
X94271973Y-47764193D01*
X94423440Y-47734064D01*
X94499173Y-47719000D01*
X94730827Y-47719000D01*
X94806560Y-47734064D01*
X94806560Y-47734064D01*
G37*
G36*
X151956560Y-47734064D02*
G01*
X152108027Y-47764193D01*
X152322045Y-47852842D01*
X152322046Y-47852843D01*
X152514654Y-47981539D01*
X152678461Y-48145346D01*
X152764258Y-48273751D01*
X152807158Y-48337955D01*
X152895807Y-48551973D01*
X152941000Y-48779174D01*
X152941000Y-49010826D01*
X152895807Y-49238027D01*
X152807158Y-49452045D01*
X152807157Y-49452046D01*
X152678461Y-49644654D01*
X152514654Y-49808461D01*
X152453176Y-49849539D01*
X152322045Y-49937158D01*
X152108027Y-50025807D01*
X151956560Y-50055936D01*
X151880827Y-50071000D01*
X151649173Y-50071000D01*
X151573440Y-50055936D01*
X151421973Y-50025807D01*
X151207955Y-49937158D01*
X151076824Y-49849539D01*
X151015346Y-49808461D01*
X150851539Y-49644654D01*
X150722843Y-49452046D01*
X150722842Y-49452045D01*
X150634193Y-49238027D01*
X150589000Y-49010826D01*
X150589000Y-48779174D01*
X150634193Y-48551973D01*
X150722842Y-48337955D01*
X150765742Y-48273751D01*
X150851539Y-48145346D01*
X151015346Y-47981539D01*
X151207954Y-47852843D01*
X151207955Y-47852842D01*
X151421973Y-47764193D01*
X151573440Y-47734064D01*
X151649173Y-47719000D01*
X151880827Y-47719000D01*
X151956560Y-47734064D01*
X151956560Y-47734064D01*
G37*
G36*
X132906560Y-47734064D02*
G01*
X133058027Y-47764193D01*
X133272045Y-47852842D01*
X133272046Y-47852843D01*
X133464654Y-47981539D01*
X133628461Y-48145346D01*
X133714258Y-48273751D01*
X133757158Y-48337955D01*
X133845807Y-48551973D01*
X133891000Y-48779174D01*
X133891000Y-49010826D01*
X133845807Y-49238027D01*
X133757158Y-49452045D01*
X133757157Y-49452046D01*
X133628461Y-49644654D01*
X133464654Y-49808461D01*
X133403176Y-49849539D01*
X133272045Y-49937158D01*
X133058027Y-50025807D01*
X132906560Y-50055936D01*
X132830827Y-50071000D01*
X132599173Y-50071000D01*
X132523440Y-50055936D01*
X132371973Y-50025807D01*
X132157955Y-49937158D01*
X132026824Y-49849539D01*
X131965346Y-49808461D01*
X131801539Y-49644654D01*
X131672843Y-49452046D01*
X131672842Y-49452045D01*
X131584193Y-49238027D01*
X131539000Y-49010826D01*
X131539000Y-48779174D01*
X131584193Y-48551973D01*
X131672842Y-48337955D01*
X131715742Y-48273751D01*
X131801539Y-48145346D01*
X131965346Y-47981539D01*
X132157954Y-47852843D01*
X132157955Y-47852842D01*
X132371973Y-47764193D01*
X132523440Y-47734064D01*
X132599173Y-47719000D01*
X132830827Y-47719000D01*
X132906560Y-47734064D01*
X132906560Y-47734064D01*
G37*
G36*
X106043497Y-46515115D02*
G01*
X106043500Y-46515116D01*
X106043501Y-46515116D01*
X106162256Y-46551140D01*
X106271702Y-46609640D01*
X106367633Y-46688367D01*
X106446360Y-46784297D01*
X106504860Y-46893743D01*
X106540884Y-47012498D01*
X106540885Y-47012502D01*
X106550000Y-47105050D01*
X106550000Y-48324950D01*
X106540885Y-48417498D01*
X106540884Y-48417501D01*
X106540884Y-48417502D01*
X106504860Y-48536257D01*
X106446360Y-48645703D01*
X106367633Y-48741633D01*
X106271703Y-48820360D01*
X106162257Y-48878860D01*
X106043502Y-48914884D01*
X106043501Y-48914884D01*
X106043498Y-48914885D01*
X105920000Y-48927048D01*
X105796503Y-48914885D01*
X105796500Y-48914884D01*
X105796499Y-48914884D01*
X105677744Y-48878860D01*
X105568298Y-48820360D01*
X105472368Y-48741633D01*
X105393641Y-48645703D01*
X105335141Y-48536257D01*
X105299117Y-48417502D01*
X105299117Y-48417501D01*
X105299116Y-48417498D01*
X105290001Y-48324950D01*
X105290000Y-47105051D01*
X105299115Y-47012503D01*
X105299116Y-47012499D01*
X105335140Y-46893744D01*
X105393640Y-46784298D01*
X105472367Y-46688367D01*
X105568297Y-46609640D01*
X105677743Y-46551140D01*
X105796498Y-46515116D01*
X105796499Y-46515116D01*
X105796502Y-46515115D01*
X105920000Y-46502952D01*
X106043497Y-46515115D01*
X106043497Y-46515115D01*
G37*
G36*
X97403497Y-46515115D02*
G01*
X97403500Y-46515116D01*
X97403501Y-46515116D01*
X97522256Y-46551140D01*
X97631702Y-46609640D01*
X97727633Y-46688367D01*
X97806360Y-46784297D01*
X97864860Y-46893743D01*
X97900884Y-47012498D01*
X97900885Y-47012502D01*
X97910000Y-47105050D01*
X97910000Y-48324950D01*
X97900885Y-48417498D01*
X97900884Y-48417501D01*
X97900884Y-48417502D01*
X97864860Y-48536257D01*
X97806360Y-48645703D01*
X97727633Y-48741633D01*
X97631703Y-48820360D01*
X97522257Y-48878860D01*
X97403502Y-48914884D01*
X97403501Y-48914884D01*
X97403498Y-48914885D01*
X97280000Y-48927048D01*
X97156503Y-48914885D01*
X97156500Y-48914884D01*
X97156499Y-48914884D01*
X97037744Y-48878860D01*
X96928298Y-48820360D01*
X96832368Y-48741633D01*
X96753641Y-48645703D01*
X96695141Y-48536257D01*
X96659117Y-48417502D01*
X96659117Y-48417501D01*
X96659116Y-48417498D01*
X96650001Y-48324950D01*
X96650000Y-47105051D01*
X96659115Y-47012503D01*
X96659116Y-47012499D01*
X96695140Y-46893744D01*
X96753640Y-46784298D01*
X96832367Y-46688367D01*
X96928297Y-46609640D01*
X97037743Y-46551140D01*
X97156498Y-46515116D01*
X97156499Y-46515116D01*
X97156502Y-46515115D01*
X97280000Y-46502952D01*
X97403497Y-46515115D01*
X97403497Y-46515115D01*
G37*
G36*
X98706758Y-46638065D02*
G01*
X98773367Y-46665655D01*
X98833309Y-46705707D01*
X98884293Y-46756691D01*
X98924345Y-46816633D01*
X98951935Y-46883242D01*
X98966000Y-46953951D01*
X98966000Y-47026049D01*
X98951935Y-47096758D01*
X98924345Y-47163367D01*
X98884293Y-47223309D01*
X98833311Y-47274291D01*
X98779767Y-47310068D01*
X98760825Y-47325613D01*
X98745280Y-47344555D01*
X98733729Y-47366166D01*
X98726616Y-47389615D01*
X98724214Y-47414001D01*
X98726616Y-47438387D01*
X98733729Y-47461836D01*
X98745280Y-47483447D01*
X98760825Y-47502389D01*
X98779767Y-47517934D01*
X98801378Y-47529485D01*
X98824827Y-47536598D01*
X98849213Y-47539000D01*
X104350787Y-47539000D01*
X104375173Y-47536598D01*
X104398622Y-47529485D01*
X104420233Y-47517934D01*
X104439175Y-47502389D01*
X104454720Y-47483447D01*
X104466271Y-47461836D01*
X104473384Y-47438387D01*
X104475786Y-47414001D01*
X104473384Y-47389615D01*
X104466271Y-47366166D01*
X104454720Y-47344555D01*
X104439175Y-47325613D01*
X104420233Y-47310068D01*
X104366689Y-47274291D01*
X104315707Y-47223309D01*
X104275655Y-47163367D01*
X104248065Y-47096758D01*
X104234000Y-47026049D01*
X104234000Y-46953951D01*
X104248065Y-46883242D01*
X104275655Y-46816633D01*
X104315707Y-46756691D01*
X104366691Y-46705707D01*
X104426633Y-46665655D01*
X104493242Y-46638065D01*
X104563951Y-46624000D01*
X104636049Y-46624000D01*
X104706758Y-46638065D01*
X104773367Y-46665655D01*
X104833309Y-46705707D01*
X104884293Y-46756691D01*
X104924345Y-46816633D01*
X104951935Y-46883242D01*
X104966000Y-46953951D01*
X104966000Y-47026049D01*
X104951935Y-47096758D01*
X104924345Y-47163367D01*
X104884293Y-47223309D01*
X104833311Y-47274291D01*
X104779767Y-47310068D01*
X104760825Y-47325613D01*
X104745280Y-47344555D01*
X104733729Y-47366166D01*
X104726616Y-47389615D01*
X104724214Y-47414001D01*
X104726616Y-47438387D01*
X104733729Y-47461836D01*
X104745280Y-47483447D01*
X104760825Y-47502389D01*
X104779767Y-47517934D01*
X104801378Y-47529485D01*
X104824827Y-47536598D01*
X104849213Y-47539000D01*
X105011000Y-47539000D01*
X105011000Y-48641000D01*
X98189000Y-48641000D01*
X98189000Y-47539000D01*
X98350787Y-47539000D01*
X98375173Y-47536598D01*
X98398622Y-47529485D01*
X98420233Y-47517934D01*
X98439175Y-47502389D01*
X98454720Y-47483447D01*
X98466271Y-47461836D01*
X98473384Y-47438387D01*
X98475786Y-47414001D01*
X98473384Y-47389615D01*
X98466271Y-47366166D01*
X98454720Y-47344555D01*
X98439175Y-47325613D01*
X98420233Y-47310068D01*
X98366689Y-47274291D01*
X98315707Y-47223309D01*
X98275655Y-47163367D01*
X98248065Y-47096758D01*
X98234000Y-47026049D01*
X98234000Y-46953951D01*
X98248065Y-46883242D01*
X98275655Y-46816633D01*
X98315707Y-46756691D01*
X98366691Y-46705707D01*
X98426633Y-46665655D01*
X98493242Y-46638065D01*
X98563951Y-46624000D01*
X98636049Y-46624000D01*
X98706758Y-46638065D01*
X98706758Y-46638065D01*
G37*
G36*
X97407617Y-42648420D02*
G01*
X97498403Y-42675960D01*
X97530335Y-42685646D01*
X97643424Y-42746094D01*
X97742554Y-42827447D01*
X97823906Y-42926575D01*
X97884354Y-43039664D01*
X97894040Y-43071596D01*
X97921580Y-43162382D01*
X97931000Y-43258027D01*
X97931000Y-44521973D01*
X97921580Y-44617618D01*
X97894040Y-44708404D01*
X97884354Y-44740336D01*
X97823906Y-44853425D01*
X97742554Y-44952554D01*
X97643425Y-45033906D01*
X97530336Y-45094354D01*
X97498404Y-45104040D01*
X97407618Y-45131580D01*
X97280000Y-45144149D01*
X97152383Y-45131580D01*
X97061597Y-45104040D01*
X97029665Y-45094354D01*
X96916576Y-45033906D01*
X96817447Y-44952554D01*
X96736095Y-44853425D01*
X96675647Y-44740336D01*
X96665961Y-44708404D01*
X96638421Y-44617618D01*
X96629001Y-44521973D01*
X96629000Y-43258028D01*
X96638420Y-43162383D01*
X96675645Y-43039669D01*
X96675646Y-43039665D01*
X96736094Y-42926576D01*
X96817447Y-42827446D01*
X96916575Y-42746094D01*
X97029664Y-42685646D01*
X97061596Y-42675960D01*
X97152382Y-42648420D01*
X97280000Y-42635851D01*
X97407617Y-42648420D01*
X97407617Y-42648420D01*
G37*
G36*
X106047617Y-42648420D02*
G01*
X106138403Y-42675960D01*
X106170335Y-42685646D01*
X106283424Y-42746094D01*
X106382554Y-42827447D01*
X106463906Y-42926575D01*
X106524354Y-43039664D01*
X106534040Y-43071596D01*
X106561580Y-43162382D01*
X106571000Y-43258027D01*
X106571000Y-44521973D01*
X106561580Y-44617618D01*
X106534040Y-44708404D01*
X106524354Y-44740336D01*
X106463906Y-44853425D01*
X106382554Y-44952554D01*
X106283425Y-45033906D01*
X106170336Y-45094354D01*
X106138404Y-45104040D01*
X106047618Y-45131580D01*
X105920000Y-45144149D01*
X105792383Y-45131580D01*
X105701597Y-45104040D01*
X105669665Y-45094354D01*
X105556576Y-45033906D01*
X105457447Y-44952554D01*
X105376095Y-44853425D01*
X105315647Y-44740336D01*
X105305961Y-44708404D01*
X105278421Y-44617618D01*
X105269001Y-44521973D01*
X105269000Y-43258028D01*
X105278420Y-43162383D01*
X105315645Y-43039669D01*
X105315646Y-43039665D01*
X105376094Y-42926576D01*
X105457447Y-42827446D01*
X105556575Y-42746094D01*
X105669664Y-42685646D01*
X105701596Y-42675960D01*
X105792382Y-42648420D01*
X105920000Y-42635851D01*
X106047617Y-42648420D01*
X106047617Y-42648420D01*
G37*
G36*
X103551000Y-44941000D02*
G01*
X102449000Y-44941000D01*
X102449000Y-42839000D01*
X103551000Y-42839000D01*
X103551000Y-44941000D01*
X103551000Y-44941000D01*
G37*
G36*
X100751000Y-44941000D02*
G01*
X99649000Y-44941000D01*
X99649000Y-42839000D01*
X100751000Y-42839000D01*
X100751000Y-44941000D01*
X100751000Y-44941000D01*
G37*
M02*
