G04 #@! TF.GenerationSoftware,KiCad,Pcbnew,(5.1.4-0-10_14)*
G04 #@! TF.CreationDate,2020-10-24T19:39:48+11:00*
G04 #@! TF.ProjectId,Numpad,4e756d70-6164-42e6-9b69-6361645f7063,rev?*
G04 #@! TF.SameCoordinates,Original*
G04 #@! TF.FileFunction,Legend,Bot*
G04 #@! TF.FilePolarity,Positive*
%FSLAX46Y46*%
G04 Gerber Fmt 4.6, Leading zero omitted, Abs format (unit mm)*
G04 Created by KiCad (PCBNEW (5.1.4-0-10_14)) date 2020-10-24 19:39:48*
%MOMM*%
%LPD*%
G04 APERTURE LIST*
%ADD10C,0.120000*%
%ADD11C,0.150000*%
%ADD12C,0.200000*%
%ADD13C,0.127000*%
%ADD14C,0.203200*%
%ADD15C,0.015000*%
%ADD16C,4.502000*%
%ADD17O,1.302000X2.502000*%
%ADD18O,1.260000X2.418000*%
%ADD19C,0.732000*%
%ADD20R,1.102000X2.102000*%
%ADD21C,0.702000*%
%ADD22R,0.372000X1.102000*%
%ADD23R,0.622000X1.102000*%
%ADD24C,0.100000*%
%ADD25C,0.977000*%
%ADD26R,0.752000X1.162000*%
%ADD27R,1.502000X1.302000*%
%ADD28R,1.302000X1.002000*%
%ADD29R,0.965200X1.727200*%
%ADD30O,1.802000X1.802000*%
%ADD31R,1.802000X1.802000*%
%ADD32R,1.002000X1.302000*%
%ADD33C,2.352000*%
%ADD34C,4.089800*%
%ADD35C,1.852000*%
%ADD36R,0.652000X1.702000*%
%ADD37R,1.702000X0.652000*%
%ADD38C,3.150000*%
G04 APERTURE END LIST*
D10*
X104804981Y-62200020D02*
G75*
G03X104804981Y-62200020I-283981J0D01*
G01*
D11*
X157144404Y-137295380D02*
X157144404Y-136295380D01*
X156572976Y-137295380D01*
X156572976Y-136295380D01*
X155668214Y-136628714D02*
X155668214Y-137295380D01*
X156096785Y-136628714D02*
X156096785Y-137152523D01*
X156049166Y-137247761D01*
X155953928Y-137295380D01*
X155811071Y-137295380D01*
X155715833Y-137247761D01*
X155668214Y-137200142D01*
X155192023Y-137295380D02*
X155192023Y-136628714D01*
X155192023Y-136723952D02*
X155144404Y-136676333D01*
X155049166Y-136628714D01*
X154906309Y-136628714D01*
X154811071Y-136676333D01*
X154763452Y-136771571D01*
X154763452Y-137295380D01*
X154763452Y-136771571D02*
X154715833Y-136676333D01*
X154620595Y-136628714D01*
X154477738Y-136628714D01*
X154382500Y-136676333D01*
X154334880Y-136771571D01*
X154334880Y-137295380D01*
X153858690Y-136628714D02*
X153858690Y-137628714D01*
X153858690Y-136676333D02*
X153763452Y-136628714D01*
X153572976Y-136628714D01*
X153477738Y-136676333D01*
X153430119Y-136723952D01*
X153382500Y-136819190D01*
X153382500Y-137104904D01*
X153430119Y-137200142D01*
X153477738Y-137247761D01*
X153572976Y-137295380D01*
X153763452Y-137295380D01*
X153858690Y-137247761D01*
X152525357Y-137295380D02*
X152525357Y-136771571D01*
X152572976Y-136676333D01*
X152668214Y-136628714D01*
X152858690Y-136628714D01*
X152953928Y-136676333D01*
X152525357Y-137247761D02*
X152620595Y-137295380D01*
X152858690Y-137295380D01*
X152953928Y-137247761D01*
X153001547Y-137152523D01*
X153001547Y-137057285D01*
X152953928Y-136962047D01*
X152858690Y-136914428D01*
X152620595Y-136914428D01*
X152525357Y-136866809D01*
X151620595Y-137295380D02*
X151620595Y-136295380D01*
X151620595Y-137247761D02*
X151715833Y-137295380D01*
X151906309Y-137295380D01*
X152001547Y-137247761D01*
X152049166Y-137200142D01*
X152096785Y-137104904D01*
X152096785Y-136819190D01*
X152049166Y-136723952D01*
X152001547Y-136676333D01*
X151906309Y-136628714D01*
X151715833Y-136628714D01*
X151620595Y-136676333D01*
X150477738Y-136628714D02*
X150239642Y-137295380D01*
X150001547Y-136628714D01*
X149096785Y-137295380D02*
X149668214Y-137295380D01*
X149382500Y-137295380D02*
X149382500Y-136295380D01*
X149477738Y-136438238D01*
X149572976Y-136533476D01*
X149668214Y-136581095D01*
X157144404Y-138945380D02*
X157144404Y-137945380D01*
X156906309Y-137945380D01*
X156763452Y-137993000D01*
X156668214Y-138088238D01*
X156620595Y-138183476D01*
X156572976Y-138373952D01*
X156572976Y-138516809D01*
X156620595Y-138707285D01*
X156668214Y-138802523D01*
X156763452Y-138897761D01*
X156906309Y-138945380D01*
X157144404Y-138945380D01*
X155763452Y-138897761D02*
X155858690Y-138945380D01*
X156049166Y-138945380D01*
X156144404Y-138897761D01*
X156192023Y-138802523D01*
X156192023Y-138421571D01*
X156144404Y-138326333D01*
X156049166Y-138278714D01*
X155858690Y-138278714D01*
X155763452Y-138326333D01*
X155715833Y-138421571D01*
X155715833Y-138516809D01*
X156192023Y-138612047D01*
X155334880Y-138897761D02*
X155239642Y-138945380D01*
X155049166Y-138945380D01*
X154953928Y-138897761D01*
X154906309Y-138802523D01*
X154906309Y-138754904D01*
X154953928Y-138659666D01*
X155049166Y-138612047D01*
X155192023Y-138612047D01*
X155287261Y-138564428D01*
X155334880Y-138469190D01*
X155334880Y-138421571D01*
X155287261Y-138326333D01*
X155192023Y-138278714D01*
X155049166Y-138278714D01*
X154953928Y-138326333D01*
X154477738Y-138945380D02*
X154477738Y-138278714D01*
X154477738Y-137945380D02*
X154525357Y-137993000D01*
X154477738Y-138040619D01*
X154430119Y-137993000D01*
X154477738Y-137945380D01*
X154477738Y-138040619D01*
X153572976Y-138278714D02*
X153572976Y-139088238D01*
X153620595Y-139183476D01*
X153668214Y-139231095D01*
X153763452Y-139278714D01*
X153906309Y-139278714D01*
X154001547Y-139231095D01*
X153572976Y-138897761D02*
X153668214Y-138945380D01*
X153858690Y-138945380D01*
X153953928Y-138897761D01*
X154001547Y-138850142D01*
X154049166Y-138754904D01*
X154049166Y-138469190D01*
X154001547Y-138373952D01*
X153953928Y-138326333D01*
X153858690Y-138278714D01*
X153668214Y-138278714D01*
X153572976Y-138326333D01*
X153096785Y-138278714D02*
X153096785Y-138945380D01*
X153096785Y-138373952D02*
X153049166Y-138326333D01*
X152953928Y-138278714D01*
X152811071Y-138278714D01*
X152715833Y-138326333D01*
X152668214Y-138421571D01*
X152668214Y-138945380D01*
X151811071Y-138897761D02*
X151906309Y-138945380D01*
X152096785Y-138945380D01*
X152192023Y-138897761D01*
X152239642Y-138802523D01*
X152239642Y-138421571D01*
X152192023Y-138326333D01*
X152096785Y-138278714D01*
X151906309Y-138278714D01*
X151811071Y-138326333D01*
X151763452Y-138421571D01*
X151763452Y-138516809D01*
X152239642Y-138612047D01*
X150906309Y-138945380D02*
X150906309Y-137945380D01*
X150906309Y-138897761D02*
X151001547Y-138945380D01*
X151192023Y-138945380D01*
X151287261Y-138897761D01*
X151334880Y-138850142D01*
X151382500Y-138754904D01*
X151382500Y-138469190D01*
X151334880Y-138373952D01*
X151287261Y-138326333D01*
X151192023Y-138278714D01*
X151001547Y-138278714D01*
X150906309Y-138326333D01*
X149668214Y-138945380D02*
X149668214Y-137945380D01*
X149668214Y-138326333D02*
X149572976Y-138278714D01*
X149382500Y-138278714D01*
X149287261Y-138326333D01*
X149239642Y-138373952D01*
X149192023Y-138469190D01*
X149192023Y-138754904D01*
X149239642Y-138850142D01*
X149287261Y-138897761D01*
X149382500Y-138945380D01*
X149572976Y-138945380D01*
X149668214Y-138897761D01*
X148858690Y-138278714D02*
X148620595Y-138945380D01*
X148382500Y-138278714D02*
X148620595Y-138945380D01*
X148715833Y-139183476D01*
X148763452Y-139231095D01*
X148858690Y-139278714D01*
X147287261Y-138659666D02*
X146811071Y-138659666D01*
X147382500Y-138945380D02*
X147049166Y-137945380D01*
X146715833Y-138945380D01*
X145953928Y-138945380D02*
X145953928Y-138421571D01*
X146001547Y-138326333D01*
X146096785Y-138278714D01*
X146287261Y-138278714D01*
X146382500Y-138326333D01*
X145953928Y-138897761D02*
X146049166Y-138945380D01*
X146287261Y-138945380D01*
X146382500Y-138897761D01*
X146430119Y-138802523D01*
X146430119Y-138707285D01*
X146382500Y-138612047D01*
X146287261Y-138564428D01*
X146049166Y-138564428D01*
X145953928Y-138516809D01*
X145477738Y-138945380D02*
X145477738Y-138278714D01*
X145477738Y-138469190D02*
X145430119Y-138373952D01*
X145382500Y-138326333D01*
X145287261Y-138278714D01*
X145192023Y-138278714D01*
X144715833Y-138945380D02*
X144811071Y-138897761D01*
X144858690Y-138850142D01*
X144906309Y-138754904D01*
X144906309Y-138469190D01*
X144858690Y-138373952D01*
X144811071Y-138326333D01*
X144715833Y-138278714D01*
X144572976Y-138278714D01*
X144477738Y-138326333D01*
X144430119Y-138373952D01*
X144382500Y-138469190D01*
X144382500Y-138754904D01*
X144430119Y-138850142D01*
X144477738Y-138897761D01*
X144572976Y-138945380D01*
X144715833Y-138945380D01*
X143953928Y-138278714D02*
X143953928Y-138945380D01*
X143953928Y-138373952D02*
X143906309Y-138326333D01*
X143811071Y-138278714D01*
X143668214Y-138278714D01*
X143572976Y-138326333D01*
X143525357Y-138421571D01*
X143525357Y-138945380D01*
X141811071Y-138945380D02*
X142287261Y-138945380D01*
X142287261Y-137945380D01*
X141049166Y-138278714D02*
X141049166Y-138945380D01*
X141477738Y-138278714D02*
X141477738Y-138802523D01*
X141430119Y-138897761D01*
X141334880Y-138945380D01*
X141192023Y-138945380D01*
X141096785Y-138897761D01*
X141049166Y-138850142D01*
X140144404Y-138897761D02*
X140239642Y-138945380D01*
X140430119Y-138945380D01*
X140525357Y-138897761D01*
X140572976Y-138850142D01*
X140620595Y-138754904D01*
X140620595Y-138469190D01*
X140572976Y-138373952D01*
X140525357Y-138326333D01*
X140430119Y-138278714D01*
X140239642Y-138278714D01*
X140144404Y-138326333D01*
X139287261Y-138945380D02*
X139287261Y-138421571D01*
X139334880Y-138326333D01*
X139430119Y-138278714D01*
X139620595Y-138278714D01*
X139715833Y-138326333D01*
X139287261Y-138897761D02*
X139382500Y-138945380D01*
X139620595Y-138945380D01*
X139715833Y-138897761D01*
X139763452Y-138802523D01*
X139763452Y-138707285D01*
X139715833Y-138612047D01*
X139620595Y-138564428D01*
X139382500Y-138564428D01*
X139287261Y-138516809D01*
X138858690Y-138897761D02*
X138763452Y-138945380D01*
X138572976Y-138945380D01*
X138477738Y-138897761D01*
X138430119Y-138802523D01*
X138430119Y-138754904D01*
X138477738Y-138659666D01*
X138572976Y-138612047D01*
X138715833Y-138612047D01*
X138811071Y-138564428D01*
X138858690Y-138469190D01*
X138858690Y-138421571D01*
X138811071Y-138326333D01*
X138715833Y-138278714D01*
X138572976Y-138278714D01*
X138477738Y-138326333D01*
X136811071Y-138945380D02*
X136811071Y-138421571D01*
X136858690Y-138326333D01*
X136953928Y-138278714D01*
X137144404Y-138278714D01*
X137239642Y-138326333D01*
X136811071Y-138897761D02*
X136906309Y-138945380D01*
X137144404Y-138945380D01*
X137239642Y-138897761D01*
X137287261Y-138802523D01*
X137287261Y-138707285D01*
X137239642Y-138612047D01*
X137144404Y-138564428D01*
X136906309Y-138564428D01*
X136811071Y-138516809D01*
X136334880Y-138278714D02*
X136334880Y-138945380D01*
X136334880Y-138373952D02*
X136287261Y-138326333D01*
X136192023Y-138278714D01*
X136049166Y-138278714D01*
X135953928Y-138326333D01*
X135906309Y-138421571D01*
X135906309Y-138945380D01*
X135001547Y-138945380D02*
X135001547Y-137945380D01*
X135001547Y-138897761D02*
X135096785Y-138945380D01*
X135287261Y-138945380D01*
X135382500Y-138897761D01*
X135430119Y-138850142D01*
X135477738Y-138754904D01*
X135477738Y-138469190D01*
X135430119Y-138373952D01*
X135382500Y-138326333D01*
X135287261Y-138278714D01*
X135096785Y-138278714D01*
X135001547Y-138326333D01*
X133572976Y-137945380D02*
X133382500Y-137945380D01*
X133287261Y-137993000D01*
X133192023Y-138088238D01*
X133144404Y-138278714D01*
X133144404Y-138612047D01*
X133192023Y-138802523D01*
X133287261Y-138897761D01*
X133382500Y-138945380D01*
X133572976Y-138945380D01*
X133668214Y-138897761D01*
X133763452Y-138802523D01*
X133811071Y-138612047D01*
X133811071Y-138278714D01*
X133763452Y-138088238D01*
X133668214Y-137993000D01*
X133572976Y-137945380D01*
X132572976Y-138945380D02*
X132668214Y-138897761D01*
X132715833Y-138802523D01*
X132715833Y-137945380D01*
X132192023Y-138945380D02*
X132192023Y-138278714D01*
X132192023Y-137945380D02*
X132239642Y-137993000D01*
X132192023Y-138040619D01*
X132144404Y-137993000D01*
X132192023Y-137945380D01*
X132192023Y-138040619D01*
X131811071Y-138278714D02*
X131572976Y-138945380D01*
X131334880Y-138278714D01*
X130572976Y-138897761D02*
X130668214Y-138945380D01*
X130858690Y-138945380D01*
X130953928Y-138897761D01*
X131001547Y-138802523D01*
X131001547Y-138421571D01*
X130953928Y-138326333D01*
X130858690Y-138278714D01*
X130668214Y-138278714D01*
X130572976Y-138326333D01*
X130525357Y-138421571D01*
X130525357Y-138516809D01*
X131001547Y-138612047D01*
X130096785Y-138945380D02*
X130096785Y-138278714D01*
X130096785Y-138469190D02*
X130049166Y-138373952D01*
X130001547Y-138326333D01*
X129906309Y-138278714D01*
X129811071Y-138278714D01*
X128715833Y-138945380D02*
X128715833Y-137945380D01*
X128382500Y-138659666D01*
X128049166Y-137945380D01*
X128049166Y-138945380D01*
X127144404Y-138945380D02*
X127144404Y-138421571D01*
X127192023Y-138326333D01*
X127287261Y-138278714D01*
X127477738Y-138278714D01*
X127572976Y-138326333D01*
X127144404Y-138897761D02*
X127239642Y-138945380D01*
X127477738Y-138945380D01*
X127572976Y-138897761D01*
X127620595Y-138802523D01*
X127620595Y-138707285D01*
X127572976Y-138612047D01*
X127477738Y-138564428D01*
X127239642Y-138564428D01*
X127144404Y-138516809D01*
X126668214Y-138945380D02*
X126668214Y-138278714D01*
X126668214Y-138469190D02*
X126620595Y-138373952D01*
X126572976Y-138326333D01*
X126477738Y-138278714D01*
X126382500Y-138278714D01*
X126192023Y-138278714D02*
X125811071Y-138278714D01*
X126049166Y-137945380D02*
X126049166Y-138802523D01*
X126001547Y-138897761D01*
X125906309Y-138945380D01*
X125811071Y-138945380D01*
X125477738Y-138945380D02*
X125477738Y-138278714D01*
X125477738Y-137945380D02*
X125525357Y-137993000D01*
X125477738Y-138040619D01*
X125430119Y-137993000D01*
X125477738Y-137945380D01*
X125477738Y-138040619D01*
X125001547Y-138278714D02*
X125001547Y-138945380D01*
X125001547Y-138373952D02*
X124953928Y-138326333D01*
X124858690Y-138278714D01*
X124715833Y-138278714D01*
X124620595Y-138326333D01*
X124572976Y-138421571D01*
X124572976Y-138945380D01*
D12*
X98600000Y-49490000D02*
G75*
G03X98600000Y-49490000I-100000J0D01*
G01*
D13*
X97130000Y-46185000D02*
X97130000Y-45420000D01*
X97130000Y-41940000D02*
X97130000Y-42360000D01*
X106070000Y-41940000D02*
X97130000Y-41940000D01*
X106070000Y-42360000D02*
X106070000Y-41940000D01*
X106070000Y-46185000D02*
X106070000Y-45420000D01*
D10*
X93022779Y-62740000D02*
X92697221Y-62740000D01*
X93022779Y-61720000D02*
X92697221Y-61720000D01*
X100709000Y-72284779D02*
X100709000Y-71959221D01*
X101729000Y-72284779D02*
X101729000Y-71959221D01*
X103122000Y-58201779D02*
X103122000Y-57876221D01*
X104142000Y-58201779D02*
X104142000Y-57876221D01*
X101471000Y-58201779D02*
X101471000Y-57876221D01*
X102491000Y-58201779D02*
X102491000Y-57876221D01*
X96141000Y-61178221D02*
X96141000Y-61503779D01*
X95121000Y-61178221D02*
X95121000Y-61503779D01*
X101094000Y-50891221D02*
X101094000Y-51216779D01*
X100074000Y-50891221D02*
X100074000Y-51216779D01*
X104002721Y-49401000D02*
X104328279Y-49401000D01*
X104002721Y-50421000D02*
X104328279Y-50421000D01*
X98550000Y-51216779D02*
X98550000Y-50891221D01*
X99570000Y-51216779D02*
X99570000Y-50891221D01*
X92458000Y-64748221D02*
X92458000Y-65073779D01*
X91438000Y-64748221D02*
X91438000Y-65073779D01*
X99185000Y-58215779D02*
X99185000Y-57890221D01*
X100205000Y-58215779D02*
X100205000Y-57890221D01*
X113827779Y-65280000D02*
X113502221Y-65280000D01*
X113827779Y-64260000D02*
X113502221Y-64260000D01*
X113525221Y-59307000D02*
X113850779Y-59307000D01*
X113525221Y-60327000D02*
X113850779Y-60327000D01*
X106658221Y-56894000D02*
X106983779Y-56894000D01*
X106658221Y-57914000D02*
X106983779Y-57914000D01*
X108549221Y-64260000D02*
X108874779Y-64260000D01*
X108549221Y-65280000D02*
X108874779Y-65280000D01*
X106658221Y-58418000D02*
X106983779Y-58418000D01*
X106658221Y-59438000D02*
X106983779Y-59438000D01*
X104734000Y-53413000D02*
X104734000Y-55863000D01*
X101514000Y-55213000D02*
X101514000Y-53413000D01*
X111581000Y-60668000D02*
X115581000Y-60668000D01*
X111581000Y-63968000D02*
X111581000Y-60668000D01*
X89900000Y-59655000D02*
X89900000Y-55755000D01*
X87900000Y-59655000D02*
X87900000Y-55755000D01*
X89900000Y-59655000D02*
X87900000Y-59655000D01*
D14*
X89154000Y-65024000D02*
G75*
G03X89154000Y-65024000I-1270000J0D01*
G01*
X85344000Y-63484760D02*
X85344000Y-66563240D01*
X89123520Y-62484000D02*
X86644480Y-62484000D01*
X90424000Y-66563240D02*
X90424000Y-63484760D01*
X86644480Y-67564000D02*
X89154000Y-67564000D01*
D10*
X82998000Y-76902000D02*
X82998000Y-78232000D01*
X84328000Y-76902000D02*
X82998000Y-76902000D01*
X82998000Y-79502000D02*
X82998000Y-82102000D01*
X85598000Y-79502000D02*
X82998000Y-79502000D01*
X85598000Y-76902000D02*
X85598000Y-79502000D01*
X82998000Y-82102000D02*
X90738000Y-82102000D01*
X85598000Y-76902000D02*
X90738000Y-76902000D01*
X90738000Y-76902000D02*
X90738000Y-82102000D01*
X96229000Y-56785000D02*
X92329000Y-56785000D01*
X96229000Y-58785000D02*
X92329000Y-58785000D01*
X96229000Y-56785000D02*
X96229000Y-58785000D01*
D11*
X105358500Y-61619500D02*
X106783500Y-61619500D01*
X98108500Y-61394500D02*
X98433500Y-61394500D01*
X98108500Y-68644500D02*
X98433500Y-68644500D01*
X105358500Y-68644500D02*
X105033500Y-68644500D01*
X105358500Y-61394500D02*
X105033500Y-61394500D01*
X105358500Y-68644500D02*
X105358500Y-68319500D01*
X98108500Y-68644500D02*
X98108500Y-68319500D01*
X98108500Y-61394500D02*
X98108500Y-61719500D01*
X105358500Y-61394500D02*
X105358500Y-61619500D01*
D10*
X117566000Y-55896000D02*
X113666000Y-55896000D01*
X117566000Y-57896000D02*
X113666000Y-57896000D01*
X117566000Y-55896000D02*
X117566000Y-57896000D01*
X95615000Y-79592000D02*
X95615000Y-75692000D01*
X93615000Y-79592000D02*
X93615000Y-75692000D01*
X95615000Y-79592000D02*
X93615000Y-79592000D01*
X152765000Y-60542000D02*
X152765000Y-56642000D01*
X150765000Y-60542000D02*
X150765000Y-56642000D01*
X152765000Y-60542000D02*
X150765000Y-60542000D01*
X131715000Y-118780000D02*
X131715000Y-122680000D01*
X133715000Y-118780000D02*
X133715000Y-122680000D01*
X131715000Y-118780000D02*
X133715000Y-118780000D01*
X103140000Y-118780000D02*
X103140000Y-122680000D01*
X105140000Y-118780000D02*
X105140000Y-122680000D01*
X103140000Y-118780000D02*
X105140000Y-118780000D01*
X136179000Y-118094000D02*
X140079000Y-118094000D01*
X136179000Y-116094000D02*
X140079000Y-116094000D01*
X136179000Y-118094000D02*
X136179000Y-116094000D01*
X133715000Y-117694000D02*
X133715000Y-113794000D01*
X131715000Y-117694000D02*
X131715000Y-113794000D01*
X133715000Y-117694000D02*
X131715000Y-117694000D01*
X114665000Y-117693000D02*
X114665000Y-113793000D01*
X112665000Y-117693000D02*
X112665000Y-113793000D01*
X114665000Y-117693000D02*
X112665000Y-117693000D01*
X95615000Y-117692000D02*
X95615000Y-113792000D01*
X93615000Y-117692000D02*
X93615000Y-113792000D01*
X95615000Y-117692000D02*
X93615000Y-117692000D01*
X133715000Y-98643000D02*
X133715000Y-94743000D01*
X131715000Y-98643000D02*
X131715000Y-94743000D01*
X133715000Y-98643000D02*
X131715000Y-98643000D01*
X114665000Y-98644000D02*
X114665000Y-94744000D01*
X112665000Y-98644000D02*
X112665000Y-94744000D01*
X114665000Y-98644000D02*
X112665000Y-98644000D01*
X95616000Y-98643000D02*
X95616000Y-94743000D01*
X93616000Y-98643000D02*
X93616000Y-94743000D01*
X95616000Y-98643000D02*
X93616000Y-98643000D01*
X136180000Y-79994000D02*
X140080000Y-79994000D01*
X136180000Y-77994000D02*
X140080000Y-77994000D01*
X136180000Y-79994000D02*
X136180000Y-77994000D01*
X133715000Y-79592000D02*
X133715000Y-75692000D01*
X131715000Y-79592000D02*
X131715000Y-75692000D01*
X133715000Y-79592000D02*
X131715000Y-79592000D01*
X114665000Y-79592000D02*
X114665000Y-75692000D01*
X112665000Y-79592000D02*
X112665000Y-75692000D01*
X114665000Y-79592000D02*
X112665000Y-79592000D01*
X133715000Y-60542000D02*
X133715000Y-56642000D01*
X131715000Y-60542000D02*
X131715000Y-56642000D01*
X133715000Y-60542000D02*
X131715000Y-60542000D01*
D15*
X102013095Y-49827380D02*
X102013095Y-50636904D01*
X101965476Y-50732142D01*
X101917857Y-50779761D01*
X101822619Y-50827380D01*
X101632142Y-50827380D01*
X101536904Y-50779761D01*
X101489285Y-50732142D01*
X101441666Y-50636904D01*
X101441666Y-49827380D01*
X101013095Y-50779761D02*
X100870238Y-50827380D01*
X100632142Y-50827380D01*
X100536904Y-50779761D01*
X100489285Y-50732142D01*
X100441666Y-50636904D01*
X100441666Y-50541666D01*
X100489285Y-50446428D01*
X100536904Y-50398809D01*
X100632142Y-50351190D01*
X100822619Y-50303571D01*
X100917857Y-50255952D01*
X100965476Y-50208333D01*
X101013095Y-50113095D01*
X101013095Y-50017857D01*
X100965476Y-49922619D01*
X100917857Y-49875000D01*
X100822619Y-49827380D01*
X100584523Y-49827380D01*
X100441666Y-49875000D01*
X99679761Y-50303571D02*
X99536904Y-50351190D01*
X99489285Y-50398809D01*
X99441666Y-50494047D01*
X99441666Y-50636904D01*
X99489285Y-50732142D01*
X99536904Y-50779761D01*
X99632142Y-50827380D01*
X100013095Y-50827380D01*
X100013095Y-49827380D01*
X99679761Y-49827380D01*
X99584523Y-49875000D01*
X99536904Y-49922619D01*
X99489285Y-50017857D01*
X99489285Y-50113095D01*
X99536904Y-50208333D01*
X99584523Y-50255952D01*
X99679761Y-50303571D01*
X100013095Y-50303571D01*
X98489285Y-50827380D02*
X99060714Y-50827380D01*
X98775000Y-50827380D02*
X98775000Y-49827380D01*
X98870238Y-49970238D01*
X98965476Y-50065476D01*
X99060714Y-50113095D01*
D11*
X92241666Y-61285380D02*
X92575000Y-60809190D01*
X92813095Y-61285380D02*
X92813095Y-60285380D01*
X92432142Y-60285380D01*
X92336904Y-60333000D01*
X92289285Y-60380619D01*
X92241666Y-60475857D01*
X92241666Y-60618714D01*
X92289285Y-60713952D01*
X92336904Y-60761571D01*
X92432142Y-60809190D01*
X92813095Y-60809190D01*
X91908333Y-60285380D02*
X91241666Y-60285380D01*
X91670238Y-61285380D01*
X103036666Y-73477380D02*
X103370000Y-73001190D01*
X103608095Y-73477380D02*
X103608095Y-72477380D01*
X103227142Y-72477380D01*
X103131904Y-72525000D01*
X103084285Y-72572619D01*
X103036666Y-72667857D01*
X103036666Y-72810714D01*
X103084285Y-72905952D01*
X103131904Y-72953571D01*
X103227142Y-73001190D01*
X103608095Y-73001190D01*
X102179523Y-72477380D02*
X102370000Y-72477380D01*
X102465238Y-72525000D01*
X102512857Y-72572619D01*
X102608095Y-72715476D01*
X102655714Y-72905952D01*
X102655714Y-73286904D01*
X102608095Y-73382142D01*
X102560476Y-73429761D01*
X102465238Y-73477380D01*
X102274761Y-73477380D01*
X102179523Y-73429761D01*
X102131904Y-73382142D01*
X102084285Y-73286904D01*
X102084285Y-73048809D01*
X102131904Y-72953571D01*
X102179523Y-72905952D01*
X102274761Y-72858333D01*
X102465238Y-72858333D01*
X102560476Y-72905952D01*
X102608095Y-72953571D01*
X102655714Y-73048809D01*
X105263904Y-58667666D02*
X104882952Y-58401000D01*
X105263904Y-58210523D02*
X104463904Y-58210523D01*
X104463904Y-58515285D01*
X104502000Y-58591476D01*
X104540095Y-58629571D01*
X104616285Y-58667666D01*
X104730571Y-58667666D01*
X104806761Y-58629571D01*
X104844857Y-58591476D01*
X104882952Y-58515285D01*
X104882952Y-58210523D01*
X104463904Y-59391476D02*
X104463904Y-59010523D01*
X104844857Y-58972428D01*
X104806761Y-59010523D01*
X104768666Y-59086714D01*
X104768666Y-59277190D01*
X104806761Y-59353380D01*
X104844857Y-59391476D01*
X104921047Y-59429571D01*
X105111523Y-59429571D01*
X105187714Y-59391476D01*
X105225809Y-59353380D01*
X105263904Y-59277190D01*
X105263904Y-59086714D01*
X105225809Y-59010523D01*
X105187714Y-58972428D01*
X101263404Y-58667666D02*
X100882452Y-58401000D01*
X101263404Y-58210523D02*
X100463404Y-58210523D01*
X100463404Y-58515285D01*
X100501500Y-58591476D01*
X100539595Y-58629571D01*
X100615785Y-58667666D01*
X100730071Y-58667666D01*
X100806261Y-58629571D01*
X100844357Y-58591476D01*
X100882452Y-58515285D01*
X100882452Y-58210523D01*
X100730071Y-59353380D02*
X101263404Y-59353380D01*
X100425309Y-59162904D02*
X100996738Y-58972428D01*
X100996738Y-59467666D01*
X94146666Y-60523380D02*
X94480000Y-60047190D01*
X94718095Y-60523380D02*
X94718095Y-59523380D01*
X94337142Y-59523380D01*
X94241904Y-59571000D01*
X94194285Y-59618619D01*
X94146666Y-59713857D01*
X94146666Y-59856714D01*
X94194285Y-59951952D01*
X94241904Y-59999571D01*
X94337142Y-60047190D01*
X94718095Y-60047190D01*
X93813333Y-59523380D02*
X93194285Y-59523380D01*
X93527619Y-59904333D01*
X93384761Y-59904333D01*
X93289523Y-59951952D01*
X93241904Y-59999571D01*
X93194285Y-60094809D01*
X93194285Y-60332904D01*
X93241904Y-60428142D01*
X93289523Y-60475761D01*
X93384761Y-60523380D01*
X93670476Y-60523380D01*
X93765714Y-60475761D01*
X93813333Y-60428142D01*
X100750666Y-54046380D02*
X101084000Y-53570190D01*
X101322095Y-54046380D02*
X101322095Y-53046380D01*
X100941142Y-53046380D01*
X100845904Y-53094000D01*
X100798285Y-53141619D01*
X100750666Y-53236857D01*
X100750666Y-53379714D01*
X100798285Y-53474952D01*
X100845904Y-53522571D01*
X100941142Y-53570190D01*
X101322095Y-53570190D01*
X100369714Y-53141619D02*
X100322095Y-53094000D01*
X100226857Y-53046380D01*
X99988761Y-53046380D01*
X99893523Y-53094000D01*
X99845904Y-53141619D01*
X99798285Y-53236857D01*
X99798285Y-53332095D01*
X99845904Y-53474952D01*
X100417333Y-54046380D01*
X99798285Y-54046380D01*
X103417666Y-51760380D02*
X103751000Y-51284190D01*
X103989095Y-51760380D02*
X103989095Y-50760380D01*
X103608142Y-50760380D01*
X103512904Y-50808000D01*
X103465285Y-50855619D01*
X103417666Y-50950857D01*
X103417666Y-51093714D01*
X103465285Y-51188952D01*
X103512904Y-51236571D01*
X103608142Y-51284190D01*
X103989095Y-51284190D01*
X102465285Y-51760380D02*
X103036714Y-51760380D01*
X102751000Y-51760380D02*
X102751000Y-50760380D01*
X102846238Y-50903238D01*
X102941476Y-50998476D01*
X103036714Y-51046095D01*
X97742333Y-50361571D02*
X98075666Y-50361571D01*
X98075666Y-50885380D02*
X98075666Y-49885380D01*
X97599476Y-49885380D01*
X96694714Y-50885380D02*
X97266142Y-50885380D01*
X96980428Y-50885380D02*
X96980428Y-49885380D01*
X97075666Y-50028238D01*
X97170904Y-50123476D01*
X97266142Y-50171095D01*
X93892666Y-66143142D02*
X93940285Y-66190761D01*
X94083142Y-66238380D01*
X94178380Y-66238380D01*
X94321238Y-66190761D01*
X94416476Y-66095523D01*
X94464095Y-66000285D01*
X94511714Y-65809809D01*
X94511714Y-65666952D01*
X94464095Y-65476476D01*
X94416476Y-65381238D01*
X94321238Y-65286000D01*
X94178380Y-65238380D01*
X94083142Y-65238380D01*
X93940285Y-65286000D01*
X93892666Y-65333619D01*
X93559333Y-65238380D02*
X92892666Y-65238380D01*
X93321238Y-66238380D01*
X98210666Y-57507142D02*
X98258285Y-57554761D01*
X98401142Y-57602380D01*
X98496380Y-57602380D01*
X98639238Y-57554761D01*
X98734476Y-57459523D01*
X98782095Y-57364285D01*
X98829714Y-57173809D01*
X98829714Y-57030952D01*
X98782095Y-56840476D01*
X98734476Y-56745238D01*
X98639238Y-56650000D01*
X98496380Y-56602380D01*
X98401142Y-56602380D01*
X98258285Y-56650000D01*
X98210666Y-56697619D01*
X97353523Y-56602380D02*
X97544000Y-56602380D01*
X97639238Y-56650000D01*
X97686857Y-56697619D01*
X97782095Y-56840476D01*
X97829714Y-57030952D01*
X97829714Y-57411904D01*
X97782095Y-57507142D01*
X97734476Y-57554761D01*
X97639238Y-57602380D01*
X97448761Y-57602380D01*
X97353523Y-57554761D01*
X97305904Y-57507142D01*
X97258285Y-57411904D01*
X97258285Y-57173809D01*
X97305904Y-57078571D01*
X97353523Y-57030952D01*
X97448761Y-56983333D01*
X97639238Y-56983333D01*
X97734476Y-57030952D01*
X97782095Y-57078571D01*
X97829714Y-57173809D01*
X117641666Y-65127142D02*
X117689285Y-65174761D01*
X117832142Y-65222380D01*
X117927380Y-65222380D01*
X118070238Y-65174761D01*
X118165476Y-65079523D01*
X118213095Y-64984285D01*
X118260714Y-64793809D01*
X118260714Y-64650952D01*
X118213095Y-64460476D01*
X118165476Y-64365238D01*
X118070238Y-64270000D01*
X117927380Y-64222380D01*
X117832142Y-64222380D01*
X117689285Y-64270000D01*
X117641666Y-64317619D01*
X116736904Y-64222380D02*
X117213095Y-64222380D01*
X117260714Y-64698571D01*
X117213095Y-64650952D01*
X117117857Y-64603333D01*
X116879761Y-64603333D01*
X116784523Y-64650952D01*
X116736904Y-64698571D01*
X116689285Y-64793809D01*
X116689285Y-65031904D01*
X116736904Y-65127142D01*
X116784523Y-65174761D01*
X116879761Y-65222380D01*
X117117857Y-65222380D01*
X117213095Y-65174761D01*
X117260714Y-65127142D01*
X117641666Y-60174142D02*
X117689285Y-60221761D01*
X117832142Y-60269380D01*
X117927380Y-60269380D01*
X118070238Y-60221761D01*
X118165476Y-60126523D01*
X118213095Y-60031285D01*
X118260714Y-59840809D01*
X118260714Y-59697952D01*
X118213095Y-59507476D01*
X118165476Y-59412238D01*
X118070238Y-59317000D01*
X117927380Y-59269380D01*
X117832142Y-59269380D01*
X117689285Y-59317000D01*
X117641666Y-59364619D01*
X116784523Y-59602714D02*
X116784523Y-60269380D01*
X117022619Y-59221761D02*
X117260714Y-59936047D01*
X116641666Y-59936047D01*
X110275666Y-57761142D02*
X110323285Y-57808761D01*
X110466142Y-57856380D01*
X110561380Y-57856380D01*
X110704238Y-57808761D01*
X110799476Y-57713523D01*
X110847095Y-57618285D01*
X110894714Y-57427809D01*
X110894714Y-57284952D01*
X110847095Y-57094476D01*
X110799476Y-56999238D01*
X110704238Y-56904000D01*
X110561380Y-56856380D01*
X110466142Y-56856380D01*
X110323285Y-56904000D01*
X110275666Y-56951619D01*
X109942333Y-56856380D02*
X109323285Y-56856380D01*
X109656619Y-57237333D01*
X109513761Y-57237333D01*
X109418523Y-57284952D01*
X109370904Y-57332571D01*
X109323285Y-57427809D01*
X109323285Y-57665904D01*
X109370904Y-57761142D01*
X109418523Y-57808761D01*
X109513761Y-57856380D01*
X109799476Y-57856380D01*
X109894714Y-57808761D01*
X109942333Y-57761142D01*
X108878666Y-66557142D02*
X108926285Y-66604761D01*
X109069142Y-66652380D01*
X109164380Y-66652380D01*
X109307238Y-66604761D01*
X109402476Y-66509523D01*
X109450095Y-66414285D01*
X109497714Y-66223809D01*
X109497714Y-66080952D01*
X109450095Y-65890476D01*
X109402476Y-65795238D01*
X109307238Y-65700000D01*
X109164380Y-65652380D01*
X109069142Y-65652380D01*
X108926285Y-65700000D01*
X108878666Y-65747619D01*
X108497714Y-65747619D02*
X108450095Y-65700000D01*
X108354857Y-65652380D01*
X108116761Y-65652380D01*
X108021523Y-65700000D01*
X107973904Y-65747619D01*
X107926285Y-65842857D01*
X107926285Y-65938095D01*
X107973904Y-66080952D01*
X108545333Y-66652380D01*
X107926285Y-66652380D01*
X110148666Y-59285142D02*
X110196285Y-59332761D01*
X110339142Y-59380380D01*
X110434380Y-59380380D01*
X110577238Y-59332761D01*
X110672476Y-59237523D01*
X110720095Y-59142285D01*
X110767714Y-58951809D01*
X110767714Y-58808952D01*
X110720095Y-58618476D01*
X110672476Y-58523238D01*
X110577238Y-58428000D01*
X110434380Y-58380380D01*
X110339142Y-58380380D01*
X110196285Y-58428000D01*
X110148666Y-58475619D01*
X109196285Y-59380380D02*
X109767714Y-59380380D01*
X109482000Y-59380380D02*
X109482000Y-58380380D01*
X109577238Y-58523238D01*
X109672476Y-58618476D01*
X109767714Y-58666095D01*
X106679904Y-55078380D02*
X106679904Y-55887904D01*
X106632285Y-55983142D01*
X106584666Y-56030761D01*
X106489428Y-56078380D01*
X106298952Y-56078380D01*
X106203714Y-56030761D01*
X106156095Y-55983142D01*
X106108476Y-55887904D01*
X106108476Y-55078380D01*
X105108476Y-56078380D02*
X105679904Y-56078380D01*
X105394190Y-56078380D02*
X105394190Y-55078380D01*
X105489428Y-55221238D01*
X105584666Y-55316476D01*
X105679904Y-55364095D01*
X117951190Y-62460190D02*
X117951190Y-62936380D01*
X118284523Y-61936380D02*
X117951190Y-62460190D01*
X117617857Y-61936380D01*
X116760714Y-62936380D02*
X117332142Y-62936380D01*
X117046428Y-62936380D02*
X117046428Y-61936380D01*
X117141666Y-62079238D01*
X117236904Y-62174476D01*
X117332142Y-62222095D01*
X91352380Y-56190714D02*
X90352380Y-56190714D01*
X90352380Y-56428809D01*
X90400000Y-56571666D01*
X90495238Y-56666904D01*
X90590476Y-56714523D01*
X90780952Y-56762142D01*
X90923809Y-56762142D01*
X91114285Y-56714523D01*
X91209523Y-56666904D01*
X91304761Y-56571666D01*
X91352380Y-56428809D01*
X91352380Y-56190714D01*
X90352380Y-57381190D02*
X90352380Y-57476428D01*
X90400000Y-57571666D01*
X90447619Y-57619285D01*
X90542857Y-57666904D01*
X90733333Y-57714523D01*
X90971428Y-57714523D01*
X91161904Y-57666904D01*
X91257142Y-57619285D01*
X91304761Y-57571666D01*
X91352380Y-57476428D01*
X91352380Y-57381190D01*
X91304761Y-57285952D01*
X91257142Y-57238333D01*
X91161904Y-57190714D01*
X90971428Y-57143095D01*
X90733333Y-57143095D01*
X90542857Y-57190714D01*
X90447619Y-57238333D01*
X90400000Y-57285952D01*
X90352380Y-57381190D01*
X90352380Y-58333571D02*
X90352380Y-58428809D01*
X90400000Y-58524047D01*
X90447619Y-58571666D01*
X90542857Y-58619285D01*
X90733333Y-58666904D01*
X90971428Y-58666904D01*
X91161904Y-58619285D01*
X91257142Y-58571666D01*
X91304761Y-58524047D01*
X91352380Y-58428809D01*
X91352380Y-58333571D01*
X91304761Y-58238333D01*
X91257142Y-58190714D01*
X91161904Y-58143095D01*
X90971428Y-58095476D01*
X90733333Y-58095476D01*
X90542857Y-58143095D01*
X90447619Y-58190714D01*
X90400000Y-58238333D01*
X90352380Y-58333571D01*
X84986761Y-63690666D02*
X85034380Y-63833523D01*
X85034380Y-64071619D01*
X84986761Y-64166857D01*
X84939142Y-64214476D01*
X84843904Y-64262095D01*
X84748666Y-64262095D01*
X84653428Y-64214476D01*
X84605809Y-64166857D01*
X84558190Y-64071619D01*
X84510571Y-63881142D01*
X84462952Y-63785904D01*
X84415333Y-63738285D01*
X84320095Y-63690666D01*
X84224857Y-63690666D01*
X84129619Y-63738285D01*
X84082000Y-63785904D01*
X84034380Y-63881142D01*
X84034380Y-64119238D01*
X84082000Y-64262095D01*
X84034380Y-64595428D02*
X85034380Y-64833523D01*
X84320095Y-65024000D01*
X85034380Y-65214476D01*
X84034380Y-65452571D01*
X85034380Y-66357333D02*
X85034380Y-65785904D01*
X85034380Y-66071619D02*
X84034380Y-66071619D01*
X84177238Y-65976380D01*
X84272476Y-65881142D01*
X84320095Y-65785904D01*
X90249333Y-82764380D02*
X90249333Y-83478666D01*
X90296952Y-83621523D01*
X90392190Y-83716761D01*
X90535047Y-83764380D01*
X90630285Y-83764380D01*
X89249333Y-83764380D02*
X89820761Y-83764380D01*
X89535047Y-83764380D02*
X89535047Y-82764380D01*
X89630285Y-82907238D01*
X89725523Y-83002476D01*
X89820761Y-83050095D01*
X96242095Y-56332380D02*
X96242095Y-55332380D01*
X96004000Y-55332380D01*
X95861142Y-55380000D01*
X95765904Y-55475238D01*
X95718285Y-55570476D01*
X95670666Y-55760952D01*
X95670666Y-55903809D01*
X95718285Y-56094285D01*
X95765904Y-56189523D01*
X95861142Y-56284761D01*
X96004000Y-56332380D01*
X96242095Y-56332380D01*
X94718285Y-56332380D02*
X95289714Y-56332380D01*
X95004000Y-56332380D02*
X95004000Y-55332380D01*
X95099238Y-55475238D01*
X95194476Y-55570476D01*
X95289714Y-55618095D01*
X98043904Y-70572380D02*
X98043904Y-71381904D01*
X97996285Y-71477142D01*
X97948666Y-71524761D01*
X97853428Y-71572380D01*
X97662952Y-71572380D01*
X97567714Y-71524761D01*
X97520095Y-71477142D01*
X97472476Y-71381904D01*
X97472476Y-70572380D01*
X97043904Y-70667619D02*
X96996285Y-70620000D01*
X96901047Y-70572380D01*
X96662952Y-70572380D01*
X96567714Y-70620000D01*
X96520095Y-70667619D01*
X96472476Y-70762857D01*
X96472476Y-70858095D01*
X96520095Y-71000952D01*
X97091523Y-71572380D01*
X96472476Y-71572380D01*
X119324380Y-56189714D02*
X118324380Y-56189714D01*
X118324380Y-56427809D01*
X118372000Y-56570666D01*
X118467238Y-56665904D01*
X118562476Y-56713523D01*
X118752952Y-56761142D01*
X118895809Y-56761142D01*
X119086285Y-56713523D01*
X119181523Y-56665904D01*
X119276761Y-56570666D01*
X119324380Y-56427809D01*
X119324380Y-56189714D01*
X118324380Y-57380190D02*
X118324380Y-57475428D01*
X118372000Y-57570666D01*
X118419619Y-57618285D01*
X118514857Y-57665904D01*
X118705333Y-57713523D01*
X118943428Y-57713523D01*
X119133904Y-57665904D01*
X119229142Y-57618285D01*
X119276761Y-57570666D01*
X119324380Y-57475428D01*
X119324380Y-57380190D01*
X119276761Y-57284952D01*
X119229142Y-57237333D01*
X119133904Y-57189714D01*
X118943428Y-57142095D01*
X118705333Y-57142095D01*
X118514857Y-57189714D01*
X118419619Y-57237333D01*
X118372000Y-57284952D01*
X118324380Y-57380190D01*
X119324380Y-58665904D02*
X119324380Y-58094476D01*
X119324380Y-58380190D02*
X118324380Y-58380190D01*
X118467238Y-58284952D01*
X118562476Y-58189714D01*
X118610095Y-58094476D01*
X97067380Y-74985714D02*
X96067380Y-74985714D01*
X96067380Y-75223809D01*
X96115000Y-75366666D01*
X96210238Y-75461904D01*
X96305476Y-75509523D01*
X96495952Y-75557142D01*
X96638809Y-75557142D01*
X96829285Y-75509523D01*
X96924523Y-75461904D01*
X97019761Y-75366666D01*
X97067380Y-75223809D01*
X97067380Y-74985714D01*
X97067380Y-76509523D02*
X97067380Y-75938095D01*
X97067380Y-76223809D02*
X96067380Y-76223809D01*
X96210238Y-76128571D01*
X96305476Y-76033333D01*
X96353095Y-75938095D01*
X96067380Y-77128571D02*
X96067380Y-77223809D01*
X96115000Y-77319047D01*
X96162619Y-77366666D01*
X96257857Y-77414285D01*
X96448333Y-77461904D01*
X96686428Y-77461904D01*
X96876904Y-77414285D01*
X96972142Y-77366666D01*
X97019761Y-77319047D01*
X97067380Y-77223809D01*
X97067380Y-77128571D01*
X97019761Y-77033333D01*
X96972142Y-76985714D01*
X96876904Y-76938095D01*
X96686428Y-76890476D01*
X96448333Y-76890476D01*
X96257857Y-76938095D01*
X96162619Y-76985714D01*
X96115000Y-77033333D01*
X96067380Y-77128571D01*
X154217380Y-56189714D02*
X153217380Y-56189714D01*
X153217380Y-56427809D01*
X153265000Y-56570666D01*
X153360238Y-56665904D01*
X153455476Y-56713523D01*
X153645952Y-56761142D01*
X153788809Y-56761142D01*
X153979285Y-56713523D01*
X154074523Y-56665904D01*
X154169761Y-56570666D01*
X154217380Y-56427809D01*
X154217380Y-56189714D01*
X153217380Y-57380190D02*
X153217380Y-57475428D01*
X153265000Y-57570666D01*
X153312619Y-57618285D01*
X153407857Y-57665904D01*
X153598333Y-57713523D01*
X153836428Y-57713523D01*
X154026904Y-57665904D01*
X154122142Y-57618285D01*
X154169761Y-57570666D01*
X154217380Y-57475428D01*
X154217380Y-57380190D01*
X154169761Y-57284952D01*
X154122142Y-57237333D01*
X154026904Y-57189714D01*
X153836428Y-57142095D01*
X153598333Y-57142095D01*
X153407857Y-57189714D01*
X153312619Y-57237333D01*
X153265000Y-57284952D01*
X153217380Y-57380190D01*
X153217380Y-58046857D02*
X153217380Y-58665904D01*
X153598333Y-58332571D01*
X153598333Y-58475428D01*
X153645952Y-58570666D01*
X153693571Y-58618285D01*
X153788809Y-58665904D01*
X154026904Y-58665904D01*
X154122142Y-58618285D01*
X154169761Y-58570666D01*
X154217380Y-58475428D01*
X154217380Y-58189714D01*
X154169761Y-58094476D01*
X154122142Y-58046857D01*
X135072380Y-118927714D02*
X134072380Y-118927714D01*
X134072380Y-119165809D01*
X134120000Y-119308666D01*
X134215238Y-119403904D01*
X134310476Y-119451523D01*
X134500952Y-119499142D01*
X134643809Y-119499142D01*
X134834285Y-119451523D01*
X134929523Y-119403904D01*
X135024761Y-119308666D01*
X135072380Y-119165809D01*
X135072380Y-118927714D01*
X134405714Y-120356285D02*
X135072380Y-120356285D01*
X134024761Y-120118190D02*
X134739047Y-119880095D01*
X134739047Y-120499142D01*
X134167619Y-120832476D02*
X134120000Y-120880095D01*
X134072380Y-120975333D01*
X134072380Y-121213428D01*
X134120000Y-121308666D01*
X134167619Y-121356285D01*
X134262857Y-121403904D01*
X134358095Y-121403904D01*
X134500952Y-121356285D01*
X135072380Y-120784857D01*
X135072380Y-121403904D01*
X106624380Y-118927714D02*
X105624380Y-118927714D01*
X105624380Y-119165809D01*
X105672000Y-119308666D01*
X105767238Y-119403904D01*
X105862476Y-119451523D01*
X106052952Y-119499142D01*
X106195809Y-119499142D01*
X106386285Y-119451523D01*
X106481523Y-119403904D01*
X106576761Y-119308666D01*
X106624380Y-119165809D01*
X106624380Y-118927714D01*
X105957714Y-120356285D02*
X106624380Y-120356285D01*
X105576761Y-120118190D02*
X106291047Y-119880095D01*
X106291047Y-120499142D01*
X105624380Y-121070571D02*
X105624380Y-121165809D01*
X105672000Y-121261047D01*
X105719619Y-121308666D01*
X105814857Y-121356285D01*
X106005333Y-121403904D01*
X106243428Y-121403904D01*
X106433904Y-121356285D01*
X106529142Y-121308666D01*
X106576761Y-121261047D01*
X106624380Y-121165809D01*
X106624380Y-121070571D01*
X106576761Y-120975333D01*
X106529142Y-120927714D01*
X106433904Y-120880095D01*
X106243428Y-120832476D01*
X106005333Y-120832476D01*
X105814857Y-120880095D01*
X105719619Y-120927714D01*
X105672000Y-120975333D01*
X105624380Y-121070571D01*
X142184380Y-116133714D02*
X141184380Y-116133714D01*
X141184380Y-116371809D01*
X141232000Y-116514666D01*
X141327238Y-116609904D01*
X141422476Y-116657523D01*
X141612952Y-116705142D01*
X141755809Y-116705142D01*
X141946285Y-116657523D01*
X142041523Y-116609904D01*
X142136761Y-116514666D01*
X142184380Y-116371809D01*
X142184380Y-116133714D01*
X141184380Y-117038476D02*
X141184380Y-117657523D01*
X141565333Y-117324190D01*
X141565333Y-117467047D01*
X141612952Y-117562285D01*
X141660571Y-117609904D01*
X141755809Y-117657523D01*
X141993904Y-117657523D01*
X142089142Y-117609904D01*
X142136761Y-117562285D01*
X142184380Y-117467047D01*
X142184380Y-117181333D01*
X142136761Y-117086095D01*
X142089142Y-117038476D01*
X141184380Y-117990857D02*
X141184380Y-118609904D01*
X141565333Y-118276571D01*
X141565333Y-118419428D01*
X141612952Y-118514666D01*
X141660571Y-118562285D01*
X141755809Y-118609904D01*
X141993904Y-118609904D01*
X142089142Y-118562285D01*
X142136761Y-118514666D01*
X142184380Y-118419428D01*
X142184380Y-118133714D01*
X142136761Y-118038476D01*
X142089142Y-117990857D01*
X135072380Y-113339714D02*
X134072380Y-113339714D01*
X134072380Y-113577809D01*
X134120000Y-113720666D01*
X134215238Y-113815904D01*
X134310476Y-113863523D01*
X134500952Y-113911142D01*
X134643809Y-113911142D01*
X134834285Y-113863523D01*
X134929523Y-113815904D01*
X135024761Y-113720666D01*
X135072380Y-113577809D01*
X135072380Y-113339714D01*
X134072380Y-114244476D02*
X134072380Y-114863523D01*
X134453333Y-114530190D01*
X134453333Y-114673047D01*
X134500952Y-114768285D01*
X134548571Y-114815904D01*
X134643809Y-114863523D01*
X134881904Y-114863523D01*
X134977142Y-114815904D01*
X135024761Y-114768285D01*
X135072380Y-114673047D01*
X135072380Y-114387333D01*
X135024761Y-114292095D01*
X134977142Y-114244476D01*
X134167619Y-115244476D02*
X134120000Y-115292095D01*
X134072380Y-115387333D01*
X134072380Y-115625428D01*
X134120000Y-115720666D01*
X134167619Y-115768285D01*
X134262857Y-115815904D01*
X134358095Y-115815904D01*
X134500952Y-115768285D01*
X135072380Y-115196857D01*
X135072380Y-115815904D01*
X116117380Y-113339714D02*
X115117380Y-113339714D01*
X115117380Y-113577809D01*
X115165000Y-113720666D01*
X115260238Y-113815904D01*
X115355476Y-113863523D01*
X115545952Y-113911142D01*
X115688809Y-113911142D01*
X115879285Y-113863523D01*
X115974523Y-113815904D01*
X116069761Y-113720666D01*
X116117380Y-113577809D01*
X116117380Y-113339714D01*
X115117380Y-114244476D02*
X115117380Y-114863523D01*
X115498333Y-114530190D01*
X115498333Y-114673047D01*
X115545952Y-114768285D01*
X115593571Y-114815904D01*
X115688809Y-114863523D01*
X115926904Y-114863523D01*
X116022142Y-114815904D01*
X116069761Y-114768285D01*
X116117380Y-114673047D01*
X116117380Y-114387333D01*
X116069761Y-114292095D01*
X116022142Y-114244476D01*
X116117380Y-115815904D02*
X116117380Y-115244476D01*
X116117380Y-115530190D02*
X115117380Y-115530190D01*
X115260238Y-115434952D01*
X115355476Y-115339714D01*
X115403095Y-115244476D01*
X96972380Y-113339714D02*
X95972380Y-113339714D01*
X95972380Y-113577809D01*
X96020000Y-113720666D01*
X96115238Y-113815904D01*
X96210476Y-113863523D01*
X96400952Y-113911142D01*
X96543809Y-113911142D01*
X96734285Y-113863523D01*
X96829523Y-113815904D01*
X96924761Y-113720666D01*
X96972380Y-113577809D01*
X96972380Y-113339714D01*
X95972380Y-114244476D02*
X95972380Y-114863523D01*
X96353333Y-114530190D01*
X96353333Y-114673047D01*
X96400952Y-114768285D01*
X96448571Y-114815904D01*
X96543809Y-114863523D01*
X96781904Y-114863523D01*
X96877142Y-114815904D01*
X96924761Y-114768285D01*
X96972380Y-114673047D01*
X96972380Y-114387333D01*
X96924761Y-114292095D01*
X96877142Y-114244476D01*
X95972380Y-115482571D02*
X95972380Y-115577809D01*
X96020000Y-115673047D01*
X96067619Y-115720666D01*
X96162857Y-115768285D01*
X96353333Y-115815904D01*
X96591428Y-115815904D01*
X96781904Y-115768285D01*
X96877142Y-115720666D01*
X96924761Y-115673047D01*
X96972380Y-115577809D01*
X96972380Y-115482571D01*
X96924761Y-115387333D01*
X96877142Y-115339714D01*
X96781904Y-115292095D01*
X96591428Y-115244476D01*
X96353333Y-115244476D01*
X96162857Y-115292095D01*
X96067619Y-115339714D01*
X96020000Y-115387333D01*
X95972380Y-115482571D01*
X135072380Y-94289714D02*
X134072380Y-94289714D01*
X134072380Y-94527809D01*
X134120000Y-94670666D01*
X134215238Y-94765904D01*
X134310476Y-94813523D01*
X134500952Y-94861142D01*
X134643809Y-94861142D01*
X134834285Y-94813523D01*
X134929523Y-94765904D01*
X135024761Y-94670666D01*
X135072380Y-94527809D01*
X135072380Y-94289714D01*
X134167619Y-95242095D02*
X134120000Y-95289714D01*
X134072380Y-95384952D01*
X134072380Y-95623047D01*
X134120000Y-95718285D01*
X134167619Y-95765904D01*
X134262857Y-95813523D01*
X134358095Y-95813523D01*
X134500952Y-95765904D01*
X135072380Y-95194476D01*
X135072380Y-95813523D01*
X134167619Y-96194476D02*
X134120000Y-96242095D01*
X134072380Y-96337333D01*
X134072380Y-96575428D01*
X134120000Y-96670666D01*
X134167619Y-96718285D01*
X134262857Y-96765904D01*
X134358095Y-96765904D01*
X134500952Y-96718285D01*
X135072380Y-96146857D01*
X135072380Y-96765904D01*
X116117380Y-94289714D02*
X115117380Y-94289714D01*
X115117380Y-94527809D01*
X115165000Y-94670666D01*
X115260238Y-94765904D01*
X115355476Y-94813523D01*
X115545952Y-94861142D01*
X115688809Y-94861142D01*
X115879285Y-94813523D01*
X115974523Y-94765904D01*
X116069761Y-94670666D01*
X116117380Y-94527809D01*
X116117380Y-94289714D01*
X115212619Y-95242095D02*
X115165000Y-95289714D01*
X115117380Y-95384952D01*
X115117380Y-95623047D01*
X115165000Y-95718285D01*
X115212619Y-95765904D01*
X115307857Y-95813523D01*
X115403095Y-95813523D01*
X115545952Y-95765904D01*
X116117380Y-95194476D01*
X116117380Y-95813523D01*
X116117380Y-96765904D02*
X116117380Y-96194476D01*
X116117380Y-96480190D02*
X115117380Y-96480190D01*
X115260238Y-96384952D01*
X115355476Y-96289714D01*
X115403095Y-96194476D01*
X97068380Y-94289714D02*
X96068380Y-94289714D01*
X96068380Y-94527809D01*
X96116000Y-94670666D01*
X96211238Y-94765904D01*
X96306476Y-94813523D01*
X96496952Y-94861142D01*
X96639809Y-94861142D01*
X96830285Y-94813523D01*
X96925523Y-94765904D01*
X97020761Y-94670666D01*
X97068380Y-94527809D01*
X97068380Y-94289714D01*
X96163619Y-95242095D02*
X96116000Y-95289714D01*
X96068380Y-95384952D01*
X96068380Y-95623047D01*
X96116000Y-95718285D01*
X96163619Y-95765904D01*
X96258857Y-95813523D01*
X96354095Y-95813523D01*
X96496952Y-95765904D01*
X97068380Y-95194476D01*
X97068380Y-95813523D01*
X96068380Y-96432571D02*
X96068380Y-96527809D01*
X96116000Y-96623047D01*
X96163619Y-96670666D01*
X96258857Y-96718285D01*
X96449333Y-96765904D01*
X96687428Y-96765904D01*
X96877904Y-96718285D01*
X96973142Y-96670666D01*
X97020761Y-96623047D01*
X97068380Y-96527809D01*
X97068380Y-96432571D01*
X97020761Y-96337333D01*
X96973142Y-96289714D01*
X96877904Y-96242095D01*
X96687428Y-96194476D01*
X96449333Y-96194476D01*
X96258857Y-96242095D01*
X96163619Y-96289714D01*
X96116000Y-96337333D01*
X96068380Y-96432571D01*
X142184380Y-78033714D02*
X141184380Y-78033714D01*
X141184380Y-78271809D01*
X141232000Y-78414666D01*
X141327238Y-78509904D01*
X141422476Y-78557523D01*
X141612952Y-78605142D01*
X141755809Y-78605142D01*
X141946285Y-78557523D01*
X142041523Y-78509904D01*
X142136761Y-78414666D01*
X142184380Y-78271809D01*
X142184380Y-78033714D01*
X142184380Y-79557523D02*
X142184380Y-78986095D01*
X142184380Y-79271809D02*
X141184380Y-79271809D01*
X141327238Y-79176571D01*
X141422476Y-79081333D01*
X141470095Y-78986095D01*
X141184380Y-79890857D02*
X141184380Y-80509904D01*
X141565333Y-80176571D01*
X141565333Y-80319428D01*
X141612952Y-80414666D01*
X141660571Y-80462285D01*
X141755809Y-80509904D01*
X141993904Y-80509904D01*
X142089142Y-80462285D01*
X142136761Y-80414666D01*
X142184380Y-80319428D01*
X142184380Y-80033714D01*
X142136761Y-79938476D01*
X142089142Y-79890857D01*
X135072380Y-74985714D02*
X134072380Y-74985714D01*
X134072380Y-75223809D01*
X134120000Y-75366666D01*
X134215238Y-75461904D01*
X134310476Y-75509523D01*
X134500952Y-75557142D01*
X134643809Y-75557142D01*
X134834285Y-75509523D01*
X134929523Y-75461904D01*
X135024761Y-75366666D01*
X135072380Y-75223809D01*
X135072380Y-74985714D01*
X135072380Y-76509523D02*
X135072380Y-75938095D01*
X135072380Y-76223809D02*
X134072380Y-76223809D01*
X134215238Y-76128571D01*
X134310476Y-76033333D01*
X134358095Y-75938095D01*
X134167619Y-76890476D02*
X134120000Y-76938095D01*
X134072380Y-77033333D01*
X134072380Y-77271428D01*
X134120000Y-77366666D01*
X134167619Y-77414285D01*
X134262857Y-77461904D01*
X134358095Y-77461904D01*
X134500952Y-77414285D01*
X135072380Y-76842857D01*
X135072380Y-77461904D01*
X116117380Y-74985714D02*
X115117380Y-74985714D01*
X115117380Y-75223809D01*
X115165000Y-75366666D01*
X115260238Y-75461904D01*
X115355476Y-75509523D01*
X115545952Y-75557142D01*
X115688809Y-75557142D01*
X115879285Y-75509523D01*
X115974523Y-75461904D01*
X116069761Y-75366666D01*
X116117380Y-75223809D01*
X116117380Y-74985714D01*
X116117380Y-76509523D02*
X116117380Y-75938095D01*
X116117380Y-76223809D02*
X115117380Y-76223809D01*
X115260238Y-76128571D01*
X115355476Y-76033333D01*
X115403095Y-75938095D01*
X116117380Y-77461904D02*
X116117380Y-76890476D01*
X116117380Y-77176190D02*
X115117380Y-77176190D01*
X115260238Y-77080952D01*
X115355476Y-76985714D01*
X115403095Y-76890476D01*
X135167380Y-56189714D02*
X134167380Y-56189714D01*
X134167380Y-56427809D01*
X134215000Y-56570666D01*
X134310238Y-56665904D01*
X134405476Y-56713523D01*
X134595952Y-56761142D01*
X134738809Y-56761142D01*
X134929285Y-56713523D01*
X135024523Y-56665904D01*
X135119761Y-56570666D01*
X135167380Y-56427809D01*
X135167380Y-56189714D01*
X134167380Y-57380190D02*
X134167380Y-57475428D01*
X134215000Y-57570666D01*
X134262619Y-57618285D01*
X134357857Y-57665904D01*
X134548333Y-57713523D01*
X134786428Y-57713523D01*
X134976904Y-57665904D01*
X135072142Y-57618285D01*
X135119761Y-57570666D01*
X135167380Y-57475428D01*
X135167380Y-57380190D01*
X135119761Y-57284952D01*
X135072142Y-57237333D01*
X134976904Y-57189714D01*
X134786428Y-57142095D01*
X134548333Y-57142095D01*
X134357857Y-57189714D01*
X134262619Y-57237333D01*
X134215000Y-57284952D01*
X134167380Y-57380190D01*
X134262619Y-58094476D02*
X134215000Y-58142095D01*
X134167380Y-58237333D01*
X134167380Y-58475428D01*
X134215000Y-58570666D01*
X134262619Y-58618285D01*
X134357857Y-58665904D01*
X134453095Y-58665904D01*
X134595952Y-58618285D01*
X135167380Y-58046857D01*
X135167380Y-58665904D01*
%LPC*%
D16*
X152527000Y-101600000D03*
X83947000Y-130175000D03*
X139700000Y-53975000D03*
X99060000Y-82550000D03*
D17*
X105920000Y-43890000D03*
X97280000Y-43890000D03*
D18*
X105920000Y-47715000D03*
X97280000Y-47715000D03*
D19*
X98600000Y-46990000D03*
D20*
X103000000Y-43890000D03*
X100200000Y-43890000D03*
D19*
X104600000Y-46990000D03*
D21*
X104600000Y-46990000D03*
D22*
X102850000Y-48090000D03*
X102350000Y-48090000D03*
X101850000Y-48090000D03*
X101350000Y-48090000D03*
X100850000Y-48090000D03*
X100350000Y-48090000D03*
X103350000Y-48090000D03*
X99850000Y-48090000D03*
D23*
X103950000Y-48090000D03*
X99250000Y-48090000D03*
X104700000Y-48090000D03*
X98500000Y-48090000D03*
D24*
G36*
X92340691Y-61705176D02*
G01*
X92364401Y-61708693D01*
X92387652Y-61714517D01*
X92410220Y-61722592D01*
X92431889Y-61732841D01*
X92452448Y-61745164D01*
X92471701Y-61759442D01*
X92489461Y-61775539D01*
X92505558Y-61793299D01*
X92519836Y-61812552D01*
X92532159Y-61833111D01*
X92542408Y-61854780D01*
X92550483Y-61877348D01*
X92556307Y-61900599D01*
X92559824Y-61924309D01*
X92561000Y-61948250D01*
X92561000Y-62511750D01*
X92559824Y-62535691D01*
X92556307Y-62559401D01*
X92550483Y-62582652D01*
X92542408Y-62605220D01*
X92532159Y-62626889D01*
X92519836Y-62647448D01*
X92505558Y-62666701D01*
X92489461Y-62684461D01*
X92471701Y-62700558D01*
X92452448Y-62714836D01*
X92431889Y-62727159D01*
X92410220Y-62737408D01*
X92387652Y-62745483D01*
X92364401Y-62751307D01*
X92340691Y-62754824D01*
X92316750Y-62756000D01*
X91828250Y-62756000D01*
X91804309Y-62754824D01*
X91780599Y-62751307D01*
X91757348Y-62745483D01*
X91734780Y-62737408D01*
X91713111Y-62727159D01*
X91692552Y-62714836D01*
X91673299Y-62700558D01*
X91655539Y-62684461D01*
X91639442Y-62666701D01*
X91625164Y-62647448D01*
X91612841Y-62626889D01*
X91602592Y-62605220D01*
X91594517Y-62582652D01*
X91588693Y-62559401D01*
X91585176Y-62535691D01*
X91584000Y-62511750D01*
X91584000Y-61948250D01*
X91585176Y-61924309D01*
X91588693Y-61900599D01*
X91594517Y-61877348D01*
X91602592Y-61854780D01*
X91612841Y-61833111D01*
X91625164Y-61812552D01*
X91639442Y-61793299D01*
X91655539Y-61775539D01*
X91673299Y-61759442D01*
X91692552Y-61745164D01*
X91713111Y-61732841D01*
X91734780Y-61722592D01*
X91757348Y-61714517D01*
X91780599Y-61708693D01*
X91804309Y-61705176D01*
X91828250Y-61704000D01*
X92316750Y-61704000D01*
X92340691Y-61705176D01*
X92340691Y-61705176D01*
G37*
D25*
X92072500Y-62230000D03*
D24*
G36*
X93915691Y-61705176D02*
G01*
X93939401Y-61708693D01*
X93962652Y-61714517D01*
X93985220Y-61722592D01*
X94006889Y-61732841D01*
X94027448Y-61745164D01*
X94046701Y-61759442D01*
X94064461Y-61775539D01*
X94080558Y-61793299D01*
X94094836Y-61812552D01*
X94107159Y-61833111D01*
X94117408Y-61854780D01*
X94125483Y-61877348D01*
X94131307Y-61900599D01*
X94134824Y-61924309D01*
X94136000Y-61948250D01*
X94136000Y-62511750D01*
X94134824Y-62535691D01*
X94131307Y-62559401D01*
X94125483Y-62582652D01*
X94117408Y-62605220D01*
X94107159Y-62626889D01*
X94094836Y-62647448D01*
X94080558Y-62666701D01*
X94064461Y-62684461D01*
X94046701Y-62700558D01*
X94027448Y-62714836D01*
X94006889Y-62727159D01*
X93985220Y-62737408D01*
X93962652Y-62745483D01*
X93939401Y-62751307D01*
X93915691Y-62754824D01*
X93891750Y-62756000D01*
X93403250Y-62756000D01*
X93379309Y-62754824D01*
X93355599Y-62751307D01*
X93332348Y-62745483D01*
X93309780Y-62737408D01*
X93288111Y-62727159D01*
X93267552Y-62714836D01*
X93248299Y-62700558D01*
X93230539Y-62684461D01*
X93214442Y-62666701D01*
X93200164Y-62647448D01*
X93187841Y-62626889D01*
X93177592Y-62605220D01*
X93169517Y-62582652D01*
X93163693Y-62559401D01*
X93160176Y-62535691D01*
X93159000Y-62511750D01*
X93159000Y-61948250D01*
X93160176Y-61924309D01*
X93163693Y-61900599D01*
X93169517Y-61877348D01*
X93177592Y-61854780D01*
X93187841Y-61833111D01*
X93200164Y-61812552D01*
X93214442Y-61793299D01*
X93230539Y-61775539D01*
X93248299Y-61759442D01*
X93267552Y-61745164D01*
X93288111Y-61732841D01*
X93309780Y-61722592D01*
X93332348Y-61714517D01*
X93355599Y-61708693D01*
X93379309Y-61705176D01*
X93403250Y-61704000D01*
X93891750Y-61704000D01*
X93915691Y-61705176D01*
X93915691Y-61705176D01*
G37*
D25*
X93647500Y-62230000D03*
D24*
G36*
X101524691Y-70847176D02*
G01*
X101548401Y-70850693D01*
X101571652Y-70856517D01*
X101594220Y-70864592D01*
X101615889Y-70874841D01*
X101636448Y-70887164D01*
X101655701Y-70901442D01*
X101673461Y-70917539D01*
X101689558Y-70935299D01*
X101703836Y-70954552D01*
X101716159Y-70975111D01*
X101726408Y-70996780D01*
X101734483Y-71019348D01*
X101740307Y-71042599D01*
X101743824Y-71066309D01*
X101745000Y-71090250D01*
X101745000Y-71578750D01*
X101743824Y-71602691D01*
X101740307Y-71626401D01*
X101734483Y-71649652D01*
X101726408Y-71672220D01*
X101716159Y-71693889D01*
X101703836Y-71714448D01*
X101689558Y-71733701D01*
X101673461Y-71751461D01*
X101655701Y-71767558D01*
X101636448Y-71781836D01*
X101615889Y-71794159D01*
X101594220Y-71804408D01*
X101571652Y-71812483D01*
X101548401Y-71818307D01*
X101524691Y-71821824D01*
X101500750Y-71823000D01*
X100937250Y-71823000D01*
X100913309Y-71821824D01*
X100889599Y-71818307D01*
X100866348Y-71812483D01*
X100843780Y-71804408D01*
X100822111Y-71794159D01*
X100801552Y-71781836D01*
X100782299Y-71767558D01*
X100764539Y-71751461D01*
X100748442Y-71733701D01*
X100734164Y-71714448D01*
X100721841Y-71693889D01*
X100711592Y-71672220D01*
X100703517Y-71649652D01*
X100697693Y-71626401D01*
X100694176Y-71602691D01*
X100693000Y-71578750D01*
X100693000Y-71090250D01*
X100694176Y-71066309D01*
X100697693Y-71042599D01*
X100703517Y-71019348D01*
X100711592Y-70996780D01*
X100721841Y-70975111D01*
X100734164Y-70954552D01*
X100748442Y-70935299D01*
X100764539Y-70917539D01*
X100782299Y-70901442D01*
X100801552Y-70887164D01*
X100822111Y-70874841D01*
X100843780Y-70864592D01*
X100866348Y-70856517D01*
X100889599Y-70850693D01*
X100913309Y-70847176D01*
X100937250Y-70846000D01*
X101500750Y-70846000D01*
X101524691Y-70847176D01*
X101524691Y-70847176D01*
G37*
D25*
X101219000Y-71334500D03*
D24*
G36*
X101524691Y-72422176D02*
G01*
X101548401Y-72425693D01*
X101571652Y-72431517D01*
X101594220Y-72439592D01*
X101615889Y-72449841D01*
X101636448Y-72462164D01*
X101655701Y-72476442D01*
X101673461Y-72492539D01*
X101689558Y-72510299D01*
X101703836Y-72529552D01*
X101716159Y-72550111D01*
X101726408Y-72571780D01*
X101734483Y-72594348D01*
X101740307Y-72617599D01*
X101743824Y-72641309D01*
X101745000Y-72665250D01*
X101745000Y-73153750D01*
X101743824Y-73177691D01*
X101740307Y-73201401D01*
X101734483Y-73224652D01*
X101726408Y-73247220D01*
X101716159Y-73268889D01*
X101703836Y-73289448D01*
X101689558Y-73308701D01*
X101673461Y-73326461D01*
X101655701Y-73342558D01*
X101636448Y-73356836D01*
X101615889Y-73369159D01*
X101594220Y-73379408D01*
X101571652Y-73387483D01*
X101548401Y-73393307D01*
X101524691Y-73396824D01*
X101500750Y-73398000D01*
X100937250Y-73398000D01*
X100913309Y-73396824D01*
X100889599Y-73393307D01*
X100866348Y-73387483D01*
X100843780Y-73379408D01*
X100822111Y-73369159D01*
X100801552Y-73356836D01*
X100782299Y-73342558D01*
X100764539Y-73326461D01*
X100748442Y-73308701D01*
X100734164Y-73289448D01*
X100721841Y-73268889D01*
X100711592Y-73247220D01*
X100703517Y-73224652D01*
X100697693Y-73201401D01*
X100694176Y-73177691D01*
X100693000Y-73153750D01*
X100693000Y-72665250D01*
X100694176Y-72641309D01*
X100697693Y-72617599D01*
X100703517Y-72594348D01*
X100711592Y-72571780D01*
X100721841Y-72550111D01*
X100734164Y-72529552D01*
X100748442Y-72510299D01*
X100764539Y-72492539D01*
X100782299Y-72476442D01*
X100801552Y-72462164D01*
X100822111Y-72449841D01*
X100843780Y-72439592D01*
X100866348Y-72431517D01*
X100889599Y-72425693D01*
X100913309Y-72422176D01*
X100937250Y-72421000D01*
X101500750Y-72421000D01*
X101524691Y-72422176D01*
X101524691Y-72422176D01*
G37*
D25*
X101219000Y-72909500D03*
D24*
G36*
X103937691Y-56764176D02*
G01*
X103961401Y-56767693D01*
X103984652Y-56773517D01*
X104007220Y-56781592D01*
X104028889Y-56791841D01*
X104049448Y-56804164D01*
X104068701Y-56818442D01*
X104086461Y-56834539D01*
X104102558Y-56852299D01*
X104116836Y-56871552D01*
X104129159Y-56892111D01*
X104139408Y-56913780D01*
X104147483Y-56936348D01*
X104153307Y-56959599D01*
X104156824Y-56983309D01*
X104158000Y-57007250D01*
X104158000Y-57495750D01*
X104156824Y-57519691D01*
X104153307Y-57543401D01*
X104147483Y-57566652D01*
X104139408Y-57589220D01*
X104129159Y-57610889D01*
X104116836Y-57631448D01*
X104102558Y-57650701D01*
X104086461Y-57668461D01*
X104068701Y-57684558D01*
X104049448Y-57698836D01*
X104028889Y-57711159D01*
X104007220Y-57721408D01*
X103984652Y-57729483D01*
X103961401Y-57735307D01*
X103937691Y-57738824D01*
X103913750Y-57740000D01*
X103350250Y-57740000D01*
X103326309Y-57738824D01*
X103302599Y-57735307D01*
X103279348Y-57729483D01*
X103256780Y-57721408D01*
X103235111Y-57711159D01*
X103214552Y-57698836D01*
X103195299Y-57684558D01*
X103177539Y-57668461D01*
X103161442Y-57650701D01*
X103147164Y-57631448D01*
X103134841Y-57610889D01*
X103124592Y-57589220D01*
X103116517Y-57566652D01*
X103110693Y-57543401D01*
X103107176Y-57519691D01*
X103106000Y-57495750D01*
X103106000Y-57007250D01*
X103107176Y-56983309D01*
X103110693Y-56959599D01*
X103116517Y-56936348D01*
X103124592Y-56913780D01*
X103134841Y-56892111D01*
X103147164Y-56871552D01*
X103161442Y-56852299D01*
X103177539Y-56834539D01*
X103195299Y-56818442D01*
X103214552Y-56804164D01*
X103235111Y-56791841D01*
X103256780Y-56781592D01*
X103279348Y-56773517D01*
X103302599Y-56767693D01*
X103326309Y-56764176D01*
X103350250Y-56763000D01*
X103913750Y-56763000D01*
X103937691Y-56764176D01*
X103937691Y-56764176D01*
G37*
D25*
X103632000Y-57251500D03*
D24*
G36*
X103937691Y-58339176D02*
G01*
X103961401Y-58342693D01*
X103984652Y-58348517D01*
X104007220Y-58356592D01*
X104028889Y-58366841D01*
X104049448Y-58379164D01*
X104068701Y-58393442D01*
X104086461Y-58409539D01*
X104102558Y-58427299D01*
X104116836Y-58446552D01*
X104129159Y-58467111D01*
X104139408Y-58488780D01*
X104147483Y-58511348D01*
X104153307Y-58534599D01*
X104156824Y-58558309D01*
X104158000Y-58582250D01*
X104158000Y-59070750D01*
X104156824Y-59094691D01*
X104153307Y-59118401D01*
X104147483Y-59141652D01*
X104139408Y-59164220D01*
X104129159Y-59185889D01*
X104116836Y-59206448D01*
X104102558Y-59225701D01*
X104086461Y-59243461D01*
X104068701Y-59259558D01*
X104049448Y-59273836D01*
X104028889Y-59286159D01*
X104007220Y-59296408D01*
X103984652Y-59304483D01*
X103961401Y-59310307D01*
X103937691Y-59313824D01*
X103913750Y-59315000D01*
X103350250Y-59315000D01*
X103326309Y-59313824D01*
X103302599Y-59310307D01*
X103279348Y-59304483D01*
X103256780Y-59296408D01*
X103235111Y-59286159D01*
X103214552Y-59273836D01*
X103195299Y-59259558D01*
X103177539Y-59243461D01*
X103161442Y-59225701D01*
X103147164Y-59206448D01*
X103134841Y-59185889D01*
X103124592Y-59164220D01*
X103116517Y-59141652D01*
X103110693Y-59118401D01*
X103107176Y-59094691D01*
X103106000Y-59070750D01*
X103106000Y-58582250D01*
X103107176Y-58558309D01*
X103110693Y-58534599D01*
X103116517Y-58511348D01*
X103124592Y-58488780D01*
X103134841Y-58467111D01*
X103147164Y-58446552D01*
X103161442Y-58427299D01*
X103177539Y-58409539D01*
X103195299Y-58393442D01*
X103214552Y-58379164D01*
X103235111Y-58366841D01*
X103256780Y-58356592D01*
X103279348Y-58348517D01*
X103302599Y-58342693D01*
X103326309Y-58339176D01*
X103350250Y-58338000D01*
X103913750Y-58338000D01*
X103937691Y-58339176D01*
X103937691Y-58339176D01*
G37*
D25*
X103632000Y-58826500D03*
D24*
G36*
X102286691Y-56764176D02*
G01*
X102310401Y-56767693D01*
X102333652Y-56773517D01*
X102356220Y-56781592D01*
X102377889Y-56791841D01*
X102398448Y-56804164D01*
X102417701Y-56818442D01*
X102435461Y-56834539D01*
X102451558Y-56852299D01*
X102465836Y-56871552D01*
X102478159Y-56892111D01*
X102488408Y-56913780D01*
X102496483Y-56936348D01*
X102502307Y-56959599D01*
X102505824Y-56983309D01*
X102507000Y-57007250D01*
X102507000Y-57495750D01*
X102505824Y-57519691D01*
X102502307Y-57543401D01*
X102496483Y-57566652D01*
X102488408Y-57589220D01*
X102478159Y-57610889D01*
X102465836Y-57631448D01*
X102451558Y-57650701D01*
X102435461Y-57668461D01*
X102417701Y-57684558D01*
X102398448Y-57698836D01*
X102377889Y-57711159D01*
X102356220Y-57721408D01*
X102333652Y-57729483D01*
X102310401Y-57735307D01*
X102286691Y-57738824D01*
X102262750Y-57740000D01*
X101699250Y-57740000D01*
X101675309Y-57738824D01*
X101651599Y-57735307D01*
X101628348Y-57729483D01*
X101605780Y-57721408D01*
X101584111Y-57711159D01*
X101563552Y-57698836D01*
X101544299Y-57684558D01*
X101526539Y-57668461D01*
X101510442Y-57650701D01*
X101496164Y-57631448D01*
X101483841Y-57610889D01*
X101473592Y-57589220D01*
X101465517Y-57566652D01*
X101459693Y-57543401D01*
X101456176Y-57519691D01*
X101455000Y-57495750D01*
X101455000Y-57007250D01*
X101456176Y-56983309D01*
X101459693Y-56959599D01*
X101465517Y-56936348D01*
X101473592Y-56913780D01*
X101483841Y-56892111D01*
X101496164Y-56871552D01*
X101510442Y-56852299D01*
X101526539Y-56834539D01*
X101544299Y-56818442D01*
X101563552Y-56804164D01*
X101584111Y-56791841D01*
X101605780Y-56781592D01*
X101628348Y-56773517D01*
X101651599Y-56767693D01*
X101675309Y-56764176D01*
X101699250Y-56763000D01*
X102262750Y-56763000D01*
X102286691Y-56764176D01*
X102286691Y-56764176D01*
G37*
D25*
X101981000Y-57251500D03*
D24*
G36*
X102286691Y-58339176D02*
G01*
X102310401Y-58342693D01*
X102333652Y-58348517D01*
X102356220Y-58356592D01*
X102377889Y-58366841D01*
X102398448Y-58379164D01*
X102417701Y-58393442D01*
X102435461Y-58409539D01*
X102451558Y-58427299D01*
X102465836Y-58446552D01*
X102478159Y-58467111D01*
X102488408Y-58488780D01*
X102496483Y-58511348D01*
X102502307Y-58534599D01*
X102505824Y-58558309D01*
X102507000Y-58582250D01*
X102507000Y-59070750D01*
X102505824Y-59094691D01*
X102502307Y-59118401D01*
X102496483Y-59141652D01*
X102488408Y-59164220D01*
X102478159Y-59185889D01*
X102465836Y-59206448D01*
X102451558Y-59225701D01*
X102435461Y-59243461D01*
X102417701Y-59259558D01*
X102398448Y-59273836D01*
X102377889Y-59286159D01*
X102356220Y-59296408D01*
X102333652Y-59304483D01*
X102310401Y-59310307D01*
X102286691Y-59313824D01*
X102262750Y-59315000D01*
X101699250Y-59315000D01*
X101675309Y-59313824D01*
X101651599Y-59310307D01*
X101628348Y-59304483D01*
X101605780Y-59296408D01*
X101584111Y-59286159D01*
X101563552Y-59273836D01*
X101544299Y-59259558D01*
X101526539Y-59243461D01*
X101510442Y-59225701D01*
X101496164Y-59206448D01*
X101483841Y-59185889D01*
X101473592Y-59164220D01*
X101465517Y-59141652D01*
X101459693Y-59118401D01*
X101456176Y-59094691D01*
X101455000Y-59070750D01*
X101455000Y-58582250D01*
X101456176Y-58558309D01*
X101459693Y-58534599D01*
X101465517Y-58511348D01*
X101473592Y-58488780D01*
X101483841Y-58467111D01*
X101496164Y-58446552D01*
X101510442Y-58427299D01*
X101526539Y-58409539D01*
X101544299Y-58393442D01*
X101563552Y-58379164D01*
X101584111Y-58366841D01*
X101605780Y-58356592D01*
X101628348Y-58348517D01*
X101651599Y-58342693D01*
X101675309Y-58339176D01*
X101699250Y-58338000D01*
X102262750Y-58338000D01*
X102286691Y-58339176D01*
X102286691Y-58339176D01*
G37*
D25*
X101981000Y-58826500D03*
D24*
G36*
X95936691Y-61641176D02*
G01*
X95960401Y-61644693D01*
X95983652Y-61650517D01*
X96006220Y-61658592D01*
X96027889Y-61668841D01*
X96048448Y-61681164D01*
X96067701Y-61695442D01*
X96085461Y-61711539D01*
X96101558Y-61729299D01*
X96115836Y-61748552D01*
X96128159Y-61769111D01*
X96138408Y-61790780D01*
X96146483Y-61813348D01*
X96152307Y-61836599D01*
X96155824Y-61860309D01*
X96157000Y-61884250D01*
X96157000Y-62372750D01*
X96155824Y-62396691D01*
X96152307Y-62420401D01*
X96146483Y-62443652D01*
X96138408Y-62466220D01*
X96128159Y-62487889D01*
X96115836Y-62508448D01*
X96101558Y-62527701D01*
X96085461Y-62545461D01*
X96067701Y-62561558D01*
X96048448Y-62575836D01*
X96027889Y-62588159D01*
X96006220Y-62598408D01*
X95983652Y-62606483D01*
X95960401Y-62612307D01*
X95936691Y-62615824D01*
X95912750Y-62617000D01*
X95349250Y-62617000D01*
X95325309Y-62615824D01*
X95301599Y-62612307D01*
X95278348Y-62606483D01*
X95255780Y-62598408D01*
X95234111Y-62588159D01*
X95213552Y-62575836D01*
X95194299Y-62561558D01*
X95176539Y-62545461D01*
X95160442Y-62527701D01*
X95146164Y-62508448D01*
X95133841Y-62487889D01*
X95123592Y-62466220D01*
X95115517Y-62443652D01*
X95109693Y-62420401D01*
X95106176Y-62396691D01*
X95105000Y-62372750D01*
X95105000Y-61884250D01*
X95106176Y-61860309D01*
X95109693Y-61836599D01*
X95115517Y-61813348D01*
X95123592Y-61790780D01*
X95133841Y-61769111D01*
X95146164Y-61748552D01*
X95160442Y-61729299D01*
X95176539Y-61711539D01*
X95194299Y-61695442D01*
X95213552Y-61681164D01*
X95234111Y-61668841D01*
X95255780Y-61658592D01*
X95278348Y-61650517D01*
X95301599Y-61644693D01*
X95325309Y-61641176D01*
X95349250Y-61640000D01*
X95912750Y-61640000D01*
X95936691Y-61641176D01*
X95936691Y-61641176D01*
G37*
D25*
X95631000Y-62128500D03*
D24*
G36*
X95936691Y-60066176D02*
G01*
X95960401Y-60069693D01*
X95983652Y-60075517D01*
X96006220Y-60083592D01*
X96027889Y-60093841D01*
X96048448Y-60106164D01*
X96067701Y-60120442D01*
X96085461Y-60136539D01*
X96101558Y-60154299D01*
X96115836Y-60173552D01*
X96128159Y-60194111D01*
X96138408Y-60215780D01*
X96146483Y-60238348D01*
X96152307Y-60261599D01*
X96155824Y-60285309D01*
X96157000Y-60309250D01*
X96157000Y-60797750D01*
X96155824Y-60821691D01*
X96152307Y-60845401D01*
X96146483Y-60868652D01*
X96138408Y-60891220D01*
X96128159Y-60912889D01*
X96115836Y-60933448D01*
X96101558Y-60952701D01*
X96085461Y-60970461D01*
X96067701Y-60986558D01*
X96048448Y-61000836D01*
X96027889Y-61013159D01*
X96006220Y-61023408D01*
X95983652Y-61031483D01*
X95960401Y-61037307D01*
X95936691Y-61040824D01*
X95912750Y-61042000D01*
X95349250Y-61042000D01*
X95325309Y-61040824D01*
X95301599Y-61037307D01*
X95278348Y-61031483D01*
X95255780Y-61023408D01*
X95234111Y-61013159D01*
X95213552Y-61000836D01*
X95194299Y-60986558D01*
X95176539Y-60970461D01*
X95160442Y-60952701D01*
X95146164Y-60933448D01*
X95133841Y-60912889D01*
X95123592Y-60891220D01*
X95115517Y-60868652D01*
X95109693Y-60845401D01*
X95106176Y-60821691D01*
X95105000Y-60797750D01*
X95105000Y-60309250D01*
X95106176Y-60285309D01*
X95109693Y-60261599D01*
X95115517Y-60238348D01*
X95123592Y-60215780D01*
X95133841Y-60194111D01*
X95146164Y-60173552D01*
X95160442Y-60154299D01*
X95176539Y-60136539D01*
X95194299Y-60120442D01*
X95213552Y-60106164D01*
X95234111Y-60093841D01*
X95255780Y-60083592D01*
X95278348Y-60075517D01*
X95301599Y-60069693D01*
X95325309Y-60066176D01*
X95349250Y-60065000D01*
X95912750Y-60065000D01*
X95936691Y-60066176D01*
X95936691Y-60066176D01*
G37*
D25*
X95631000Y-60553500D03*
D24*
G36*
X100889691Y-51354176D02*
G01*
X100913401Y-51357693D01*
X100936652Y-51363517D01*
X100959220Y-51371592D01*
X100980889Y-51381841D01*
X101001448Y-51394164D01*
X101020701Y-51408442D01*
X101038461Y-51424539D01*
X101054558Y-51442299D01*
X101068836Y-51461552D01*
X101081159Y-51482111D01*
X101091408Y-51503780D01*
X101099483Y-51526348D01*
X101105307Y-51549599D01*
X101108824Y-51573309D01*
X101110000Y-51597250D01*
X101110000Y-52085750D01*
X101108824Y-52109691D01*
X101105307Y-52133401D01*
X101099483Y-52156652D01*
X101091408Y-52179220D01*
X101081159Y-52200889D01*
X101068836Y-52221448D01*
X101054558Y-52240701D01*
X101038461Y-52258461D01*
X101020701Y-52274558D01*
X101001448Y-52288836D01*
X100980889Y-52301159D01*
X100959220Y-52311408D01*
X100936652Y-52319483D01*
X100913401Y-52325307D01*
X100889691Y-52328824D01*
X100865750Y-52330000D01*
X100302250Y-52330000D01*
X100278309Y-52328824D01*
X100254599Y-52325307D01*
X100231348Y-52319483D01*
X100208780Y-52311408D01*
X100187111Y-52301159D01*
X100166552Y-52288836D01*
X100147299Y-52274558D01*
X100129539Y-52258461D01*
X100113442Y-52240701D01*
X100099164Y-52221448D01*
X100086841Y-52200889D01*
X100076592Y-52179220D01*
X100068517Y-52156652D01*
X100062693Y-52133401D01*
X100059176Y-52109691D01*
X100058000Y-52085750D01*
X100058000Y-51597250D01*
X100059176Y-51573309D01*
X100062693Y-51549599D01*
X100068517Y-51526348D01*
X100076592Y-51503780D01*
X100086841Y-51482111D01*
X100099164Y-51461552D01*
X100113442Y-51442299D01*
X100129539Y-51424539D01*
X100147299Y-51408442D01*
X100166552Y-51394164D01*
X100187111Y-51381841D01*
X100208780Y-51371592D01*
X100231348Y-51363517D01*
X100254599Y-51357693D01*
X100278309Y-51354176D01*
X100302250Y-51353000D01*
X100865750Y-51353000D01*
X100889691Y-51354176D01*
X100889691Y-51354176D01*
G37*
D25*
X100584000Y-51841500D03*
D24*
G36*
X100889691Y-49779176D02*
G01*
X100913401Y-49782693D01*
X100936652Y-49788517D01*
X100959220Y-49796592D01*
X100980889Y-49806841D01*
X101001448Y-49819164D01*
X101020701Y-49833442D01*
X101038461Y-49849539D01*
X101054558Y-49867299D01*
X101068836Y-49886552D01*
X101081159Y-49907111D01*
X101091408Y-49928780D01*
X101099483Y-49951348D01*
X101105307Y-49974599D01*
X101108824Y-49998309D01*
X101110000Y-50022250D01*
X101110000Y-50510750D01*
X101108824Y-50534691D01*
X101105307Y-50558401D01*
X101099483Y-50581652D01*
X101091408Y-50604220D01*
X101081159Y-50625889D01*
X101068836Y-50646448D01*
X101054558Y-50665701D01*
X101038461Y-50683461D01*
X101020701Y-50699558D01*
X101001448Y-50713836D01*
X100980889Y-50726159D01*
X100959220Y-50736408D01*
X100936652Y-50744483D01*
X100913401Y-50750307D01*
X100889691Y-50753824D01*
X100865750Y-50755000D01*
X100302250Y-50755000D01*
X100278309Y-50753824D01*
X100254599Y-50750307D01*
X100231348Y-50744483D01*
X100208780Y-50736408D01*
X100187111Y-50726159D01*
X100166552Y-50713836D01*
X100147299Y-50699558D01*
X100129539Y-50683461D01*
X100113442Y-50665701D01*
X100099164Y-50646448D01*
X100086841Y-50625889D01*
X100076592Y-50604220D01*
X100068517Y-50581652D01*
X100062693Y-50558401D01*
X100059176Y-50534691D01*
X100058000Y-50510750D01*
X100058000Y-50022250D01*
X100059176Y-49998309D01*
X100062693Y-49974599D01*
X100068517Y-49951348D01*
X100076592Y-49928780D01*
X100086841Y-49907111D01*
X100099164Y-49886552D01*
X100113442Y-49867299D01*
X100129539Y-49849539D01*
X100147299Y-49833442D01*
X100166552Y-49819164D01*
X100187111Y-49806841D01*
X100208780Y-49796592D01*
X100231348Y-49788517D01*
X100254599Y-49782693D01*
X100278309Y-49779176D01*
X100302250Y-49778000D01*
X100865750Y-49778000D01*
X100889691Y-49779176D01*
X100889691Y-49779176D01*
G37*
D25*
X100584000Y-50266500D03*
D24*
G36*
X105221191Y-49386176D02*
G01*
X105244901Y-49389693D01*
X105268152Y-49395517D01*
X105290720Y-49403592D01*
X105312389Y-49413841D01*
X105332948Y-49426164D01*
X105352201Y-49440442D01*
X105369961Y-49456539D01*
X105386058Y-49474299D01*
X105400336Y-49493552D01*
X105412659Y-49514111D01*
X105422908Y-49535780D01*
X105430983Y-49558348D01*
X105436807Y-49581599D01*
X105440324Y-49605309D01*
X105441500Y-49629250D01*
X105441500Y-50192750D01*
X105440324Y-50216691D01*
X105436807Y-50240401D01*
X105430983Y-50263652D01*
X105422908Y-50286220D01*
X105412659Y-50307889D01*
X105400336Y-50328448D01*
X105386058Y-50347701D01*
X105369961Y-50365461D01*
X105352201Y-50381558D01*
X105332948Y-50395836D01*
X105312389Y-50408159D01*
X105290720Y-50418408D01*
X105268152Y-50426483D01*
X105244901Y-50432307D01*
X105221191Y-50435824D01*
X105197250Y-50437000D01*
X104708750Y-50437000D01*
X104684809Y-50435824D01*
X104661099Y-50432307D01*
X104637848Y-50426483D01*
X104615280Y-50418408D01*
X104593611Y-50408159D01*
X104573052Y-50395836D01*
X104553799Y-50381558D01*
X104536039Y-50365461D01*
X104519942Y-50347701D01*
X104505664Y-50328448D01*
X104493341Y-50307889D01*
X104483092Y-50286220D01*
X104475017Y-50263652D01*
X104469193Y-50240401D01*
X104465676Y-50216691D01*
X104464500Y-50192750D01*
X104464500Y-49629250D01*
X104465676Y-49605309D01*
X104469193Y-49581599D01*
X104475017Y-49558348D01*
X104483092Y-49535780D01*
X104493341Y-49514111D01*
X104505664Y-49493552D01*
X104519942Y-49474299D01*
X104536039Y-49456539D01*
X104553799Y-49440442D01*
X104573052Y-49426164D01*
X104593611Y-49413841D01*
X104615280Y-49403592D01*
X104637848Y-49395517D01*
X104661099Y-49389693D01*
X104684809Y-49386176D01*
X104708750Y-49385000D01*
X105197250Y-49385000D01*
X105221191Y-49386176D01*
X105221191Y-49386176D01*
G37*
D25*
X104953000Y-49911000D03*
D24*
G36*
X103646191Y-49386176D02*
G01*
X103669901Y-49389693D01*
X103693152Y-49395517D01*
X103715720Y-49403592D01*
X103737389Y-49413841D01*
X103757948Y-49426164D01*
X103777201Y-49440442D01*
X103794961Y-49456539D01*
X103811058Y-49474299D01*
X103825336Y-49493552D01*
X103837659Y-49514111D01*
X103847908Y-49535780D01*
X103855983Y-49558348D01*
X103861807Y-49581599D01*
X103865324Y-49605309D01*
X103866500Y-49629250D01*
X103866500Y-50192750D01*
X103865324Y-50216691D01*
X103861807Y-50240401D01*
X103855983Y-50263652D01*
X103847908Y-50286220D01*
X103837659Y-50307889D01*
X103825336Y-50328448D01*
X103811058Y-50347701D01*
X103794961Y-50365461D01*
X103777201Y-50381558D01*
X103757948Y-50395836D01*
X103737389Y-50408159D01*
X103715720Y-50418408D01*
X103693152Y-50426483D01*
X103669901Y-50432307D01*
X103646191Y-50435824D01*
X103622250Y-50437000D01*
X103133750Y-50437000D01*
X103109809Y-50435824D01*
X103086099Y-50432307D01*
X103062848Y-50426483D01*
X103040280Y-50418408D01*
X103018611Y-50408159D01*
X102998052Y-50395836D01*
X102978799Y-50381558D01*
X102961039Y-50365461D01*
X102944942Y-50347701D01*
X102930664Y-50328448D01*
X102918341Y-50307889D01*
X102908092Y-50286220D01*
X102900017Y-50263652D01*
X102894193Y-50240401D01*
X102890676Y-50216691D01*
X102889500Y-50192750D01*
X102889500Y-49629250D01*
X102890676Y-49605309D01*
X102894193Y-49581599D01*
X102900017Y-49558348D01*
X102908092Y-49535780D01*
X102918341Y-49514111D01*
X102930664Y-49493552D01*
X102944942Y-49474299D01*
X102961039Y-49456539D01*
X102978799Y-49440442D01*
X102998052Y-49426164D01*
X103018611Y-49413841D01*
X103040280Y-49403592D01*
X103062848Y-49395517D01*
X103086099Y-49389693D01*
X103109809Y-49386176D01*
X103133750Y-49385000D01*
X103622250Y-49385000D01*
X103646191Y-49386176D01*
X103646191Y-49386176D01*
G37*
D25*
X103378000Y-49911000D03*
D24*
G36*
X99365691Y-49779176D02*
G01*
X99389401Y-49782693D01*
X99412652Y-49788517D01*
X99435220Y-49796592D01*
X99456889Y-49806841D01*
X99477448Y-49819164D01*
X99496701Y-49833442D01*
X99514461Y-49849539D01*
X99530558Y-49867299D01*
X99544836Y-49886552D01*
X99557159Y-49907111D01*
X99567408Y-49928780D01*
X99575483Y-49951348D01*
X99581307Y-49974599D01*
X99584824Y-49998309D01*
X99586000Y-50022250D01*
X99586000Y-50510750D01*
X99584824Y-50534691D01*
X99581307Y-50558401D01*
X99575483Y-50581652D01*
X99567408Y-50604220D01*
X99557159Y-50625889D01*
X99544836Y-50646448D01*
X99530558Y-50665701D01*
X99514461Y-50683461D01*
X99496701Y-50699558D01*
X99477448Y-50713836D01*
X99456889Y-50726159D01*
X99435220Y-50736408D01*
X99412652Y-50744483D01*
X99389401Y-50750307D01*
X99365691Y-50753824D01*
X99341750Y-50755000D01*
X98778250Y-50755000D01*
X98754309Y-50753824D01*
X98730599Y-50750307D01*
X98707348Y-50744483D01*
X98684780Y-50736408D01*
X98663111Y-50726159D01*
X98642552Y-50713836D01*
X98623299Y-50699558D01*
X98605539Y-50683461D01*
X98589442Y-50665701D01*
X98575164Y-50646448D01*
X98562841Y-50625889D01*
X98552592Y-50604220D01*
X98544517Y-50581652D01*
X98538693Y-50558401D01*
X98535176Y-50534691D01*
X98534000Y-50510750D01*
X98534000Y-50022250D01*
X98535176Y-49998309D01*
X98538693Y-49974599D01*
X98544517Y-49951348D01*
X98552592Y-49928780D01*
X98562841Y-49907111D01*
X98575164Y-49886552D01*
X98589442Y-49867299D01*
X98605539Y-49849539D01*
X98623299Y-49833442D01*
X98642552Y-49819164D01*
X98663111Y-49806841D01*
X98684780Y-49796592D01*
X98707348Y-49788517D01*
X98730599Y-49782693D01*
X98754309Y-49779176D01*
X98778250Y-49778000D01*
X99341750Y-49778000D01*
X99365691Y-49779176D01*
X99365691Y-49779176D01*
G37*
D25*
X99060000Y-50266500D03*
D24*
G36*
X99365691Y-51354176D02*
G01*
X99389401Y-51357693D01*
X99412652Y-51363517D01*
X99435220Y-51371592D01*
X99456889Y-51381841D01*
X99477448Y-51394164D01*
X99496701Y-51408442D01*
X99514461Y-51424539D01*
X99530558Y-51442299D01*
X99544836Y-51461552D01*
X99557159Y-51482111D01*
X99567408Y-51503780D01*
X99575483Y-51526348D01*
X99581307Y-51549599D01*
X99584824Y-51573309D01*
X99586000Y-51597250D01*
X99586000Y-52085750D01*
X99584824Y-52109691D01*
X99581307Y-52133401D01*
X99575483Y-52156652D01*
X99567408Y-52179220D01*
X99557159Y-52200889D01*
X99544836Y-52221448D01*
X99530558Y-52240701D01*
X99514461Y-52258461D01*
X99496701Y-52274558D01*
X99477448Y-52288836D01*
X99456889Y-52301159D01*
X99435220Y-52311408D01*
X99412652Y-52319483D01*
X99389401Y-52325307D01*
X99365691Y-52328824D01*
X99341750Y-52330000D01*
X98778250Y-52330000D01*
X98754309Y-52328824D01*
X98730599Y-52325307D01*
X98707348Y-52319483D01*
X98684780Y-52311408D01*
X98663111Y-52301159D01*
X98642552Y-52288836D01*
X98623299Y-52274558D01*
X98605539Y-52258461D01*
X98589442Y-52240701D01*
X98575164Y-52221448D01*
X98562841Y-52200889D01*
X98552592Y-52179220D01*
X98544517Y-52156652D01*
X98538693Y-52133401D01*
X98535176Y-52109691D01*
X98534000Y-52085750D01*
X98534000Y-51597250D01*
X98535176Y-51573309D01*
X98538693Y-51549599D01*
X98544517Y-51526348D01*
X98552592Y-51503780D01*
X98562841Y-51482111D01*
X98575164Y-51461552D01*
X98589442Y-51442299D01*
X98605539Y-51424539D01*
X98623299Y-51408442D01*
X98642552Y-51394164D01*
X98663111Y-51381841D01*
X98684780Y-51371592D01*
X98707348Y-51363517D01*
X98730599Y-51357693D01*
X98754309Y-51354176D01*
X98778250Y-51353000D01*
X99341750Y-51353000D01*
X99365691Y-51354176D01*
X99365691Y-51354176D01*
G37*
D25*
X99060000Y-51841500D03*
D24*
G36*
X92253691Y-65211176D02*
G01*
X92277401Y-65214693D01*
X92300652Y-65220517D01*
X92323220Y-65228592D01*
X92344889Y-65238841D01*
X92365448Y-65251164D01*
X92384701Y-65265442D01*
X92402461Y-65281539D01*
X92418558Y-65299299D01*
X92432836Y-65318552D01*
X92445159Y-65339111D01*
X92455408Y-65360780D01*
X92463483Y-65383348D01*
X92469307Y-65406599D01*
X92472824Y-65430309D01*
X92474000Y-65454250D01*
X92474000Y-65942750D01*
X92472824Y-65966691D01*
X92469307Y-65990401D01*
X92463483Y-66013652D01*
X92455408Y-66036220D01*
X92445159Y-66057889D01*
X92432836Y-66078448D01*
X92418558Y-66097701D01*
X92402461Y-66115461D01*
X92384701Y-66131558D01*
X92365448Y-66145836D01*
X92344889Y-66158159D01*
X92323220Y-66168408D01*
X92300652Y-66176483D01*
X92277401Y-66182307D01*
X92253691Y-66185824D01*
X92229750Y-66187000D01*
X91666250Y-66187000D01*
X91642309Y-66185824D01*
X91618599Y-66182307D01*
X91595348Y-66176483D01*
X91572780Y-66168408D01*
X91551111Y-66158159D01*
X91530552Y-66145836D01*
X91511299Y-66131558D01*
X91493539Y-66115461D01*
X91477442Y-66097701D01*
X91463164Y-66078448D01*
X91450841Y-66057889D01*
X91440592Y-66036220D01*
X91432517Y-66013652D01*
X91426693Y-65990401D01*
X91423176Y-65966691D01*
X91422000Y-65942750D01*
X91422000Y-65454250D01*
X91423176Y-65430309D01*
X91426693Y-65406599D01*
X91432517Y-65383348D01*
X91440592Y-65360780D01*
X91450841Y-65339111D01*
X91463164Y-65318552D01*
X91477442Y-65299299D01*
X91493539Y-65281539D01*
X91511299Y-65265442D01*
X91530552Y-65251164D01*
X91551111Y-65238841D01*
X91572780Y-65228592D01*
X91595348Y-65220517D01*
X91618599Y-65214693D01*
X91642309Y-65211176D01*
X91666250Y-65210000D01*
X92229750Y-65210000D01*
X92253691Y-65211176D01*
X92253691Y-65211176D01*
G37*
D25*
X91948000Y-65698500D03*
D24*
G36*
X92253691Y-63636176D02*
G01*
X92277401Y-63639693D01*
X92300652Y-63645517D01*
X92323220Y-63653592D01*
X92344889Y-63663841D01*
X92365448Y-63676164D01*
X92384701Y-63690442D01*
X92402461Y-63706539D01*
X92418558Y-63724299D01*
X92432836Y-63743552D01*
X92445159Y-63764111D01*
X92455408Y-63785780D01*
X92463483Y-63808348D01*
X92469307Y-63831599D01*
X92472824Y-63855309D01*
X92474000Y-63879250D01*
X92474000Y-64367750D01*
X92472824Y-64391691D01*
X92469307Y-64415401D01*
X92463483Y-64438652D01*
X92455408Y-64461220D01*
X92445159Y-64482889D01*
X92432836Y-64503448D01*
X92418558Y-64522701D01*
X92402461Y-64540461D01*
X92384701Y-64556558D01*
X92365448Y-64570836D01*
X92344889Y-64583159D01*
X92323220Y-64593408D01*
X92300652Y-64601483D01*
X92277401Y-64607307D01*
X92253691Y-64610824D01*
X92229750Y-64612000D01*
X91666250Y-64612000D01*
X91642309Y-64610824D01*
X91618599Y-64607307D01*
X91595348Y-64601483D01*
X91572780Y-64593408D01*
X91551111Y-64583159D01*
X91530552Y-64570836D01*
X91511299Y-64556558D01*
X91493539Y-64540461D01*
X91477442Y-64522701D01*
X91463164Y-64503448D01*
X91450841Y-64482889D01*
X91440592Y-64461220D01*
X91432517Y-64438652D01*
X91426693Y-64415401D01*
X91423176Y-64391691D01*
X91422000Y-64367750D01*
X91422000Y-63879250D01*
X91423176Y-63855309D01*
X91426693Y-63831599D01*
X91432517Y-63808348D01*
X91440592Y-63785780D01*
X91450841Y-63764111D01*
X91463164Y-63743552D01*
X91477442Y-63724299D01*
X91493539Y-63706539D01*
X91511299Y-63690442D01*
X91530552Y-63676164D01*
X91551111Y-63663841D01*
X91572780Y-63653592D01*
X91595348Y-63645517D01*
X91618599Y-63639693D01*
X91642309Y-63636176D01*
X91666250Y-63635000D01*
X92229750Y-63635000D01*
X92253691Y-63636176D01*
X92253691Y-63636176D01*
G37*
D25*
X91948000Y-64123500D03*
D24*
G36*
X100000691Y-56778176D02*
G01*
X100024401Y-56781693D01*
X100047652Y-56787517D01*
X100070220Y-56795592D01*
X100091889Y-56805841D01*
X100112448Y-56818164D01*
X100131701Y-56832442D01*
X100149461Y-56848539D01*
X100165558Y-56866299D01*
X100179836Y-56885552D01*
X100192159Y-56906111D01*
X100202408Y-56927780D01*
X100210483Y-56950348D01*
X100216307Y-56973599D01*
X100219824Y-56997309D01*
X100221000Y-57021250D01*
X100221000Y-57509750D01*
X100219824Y-57533691D01*
X100216307Y-57557401D01*
X100210483Y-57580652D01*
X100202408Y-57603220D01*
X100192159Y-57624889D01*
X100179836Y-57645448D01*
X100165558Y-57664701D01*
X100149461Y-57682461D01*
X100131701Y-57698558D01*
X100112448Y-57712836D01*
X100091889Y-57725159D01*
X100070220Y-57735408D01*
X100047652Y-57743483D01*
X100024401Y-57749307D01*
X100000691Y-57752824D01*
X99976750Y-57754000D01*
X99413250Y-57754000D01*
X99389309Y-57752824D01*
X99365599Y-57749307D01*
X99342348Y-57743483D01*
X99319780Y-57735408D01*
X99298111Y-57725159D01*
X99277552Y-57712836D01*
X99258299Y-57698558D01*
X99240539Y-57682461D01*
X99224442Y-57664701D01*
X99210164Y-57645448D01*
X99197841Y-57624889D01*
X99187592Y-57603220D01*
X99179517Y-57580652D01*
X99173693Y-57557401D01*
X99170176Y-57533691D01*
X99169000Y-57509750D01*
X99169000Y-57021250D01*
X99170176Y-56997309D01*
X99173693Y-56973599D01*
X99179517Y-56950348D01*
X99187592Y-56927780D01*
X99197841Y-56906111D01*
X99210164Y-56885552D01*
X99224442Y-56866299D01*
X99240539Y-56848539D01*
X99258299Y-56832442D01*
X99277552Y-56818164D01*
X99298111Y-56805841D01*
X99319780Y-56795592D01*
X99342348Y-56787517D01*
X99365599Y-56781693D01*
X99389309Y-56778176D01*
X99413250Y-56777000D01*
X99976750Y-56777000D01*
X100000691Y-56778176D01*
X100000691Y-56778176D01*
G37*
D25*
X99695000Y-57265500D03*
D24*
G36*
X100000691Y-58353176D02*
G01*
X100024401Y-58356693D01*
X100047652Y-58362517D01*
X100070220Y-58370592D01*
X100091889Y-58380841D01*
X100112448Y-58393164D01*
X100131701Y-58407442D01*
X100149461Y-58423539D01*
X100165558Y-58441299D01*
X100179836Y-58460552D01*
X100192159Y-58481111D01*
X100202408Y-58502780D01*
X100210483Y-58525348D01*
X100216307Y-58548599D01*
X100219824Y-58572309D01*
X100221000Y-58596250D01*
X100221000Y-59084750D01*
X100219824Y-59108691D01*
X100216307Y-59132401D01*
X100210483Y-59155652D01*
X100202408Y-59178220D01*
X100192159Y-59199889D01*
X100179836Y-59220448D01*
X100165558Y-59239701D01*
X100149461Y-59257461D01*
X100131701Y-59273558D01*
X100112448Y-59287836D01*
X100091889Y-59300159D01*
X100070220Y-59310408D01*
X100047652Y-59318483D01*
X100024401Y-59324307D01*
X100000691Y-59327824D01*
X99976750Y-59329000D01*
X99413250Y-59329000D01*
X99389309Y-59327824D01*
X99365599Y-59324307D01*
X99342348Y-59318483D01*
X99319780Y-59310408D01*
X99298111Y-59300159D01*
X99277552Y-59287836D01*
X99258299Y-59273558D01*
X99240539Y-59257461D01*
X99224442Y-59239701D01*
X99210164Y-59220448D01*
X99197841Y-59199889D01*
X99187592Y-59178220D01*
X99179517Y-59155652D01*
X99173693Y-59132401D01*
X99170176Y-59108691D01*
X99169000Y-59084750D01*
X99169000Y-58596250D01*
X99170176Y-58572309D01*
X99173693Y-58548599D01*
X99179517Y-58525348D01*
X99187592Y-58502780D01*
X99197841Y-58481111D01*
X99210164Y-58460552D01*
X99224442Y-58441299D01*
X99240539Y-58423539D01*
X99258299Y-58407442D01*
X99277552Y-58393164D01*
X99298111Y-58380841D01*
X99319780Y-58370592D01*
X99342348Y-58362517D01*
X99365599Y-58356693D01*
X99389309Y-58353176D01*
X99413250Y-58352000D01*
X99976750Y-58352000D01*
X100000691Y-58353176D01*
X100000691Y-58353176D01*
G37*
D25*
X99695000Y-58840500D03*
D24*
G36*
X113145691Y-64245176D02*
G01*
X113169401Y-64248693D01*
X113192652Y-64254517D01*
X113215220Y-64262592D01*
X113236889Y-64272841D01*
X113257448Y-64285164D01*
X113276701Y-64299442D01*
X113294461Y-64315539D01*
X113310558Y-64333299D01*
X113324836Y-64352552D01*
X113337159Y-64373111D01*
X113347408Y-64394780D01*
X113355483Y-64417348D01*
X113361307Y-64440599D01*
X113364824Y-64464309D01*
X113366000Y-64488250D01*
X113366000Y-65051750D01*
X113364824Y-65075691D01*
X113361307Y-65099401D01*
X113355483Y-65122652D01*
X113347408Y-65145220D01*
X113337159Y-65166889D01*
X113324836Y-65187448D01*
X113310558Y-65206701D01*
X113294461Y-65224461D01*
X113276701Y-65240558D01*
X113257448Y-65254836D01*
X113236889Y-65267159D01*
X113215220Y-65277408D01*
X113192652Y-65285483D01*
X113169401Y-65291307D01*
X113145691Y-65294824D01*
X113121750Y-65296000D01*
X112633250Y-65296000D01*
X112609309Y-65294824D01*
X112585599Y-65291307D01*
X112562348Y-65285483D01*
X112539780Y-65277408D01*
X112518111Y-65267159D01*
X112497552Y-65254836D01*
X112478299Y-65240558D01*
X112460539Y-65224461D01*
X112444442Y-65206701D01*
X112430164Y-65187448D01*
X112417841Y-65166889D01*
X112407592Y-65145220D01*
X112399517Y-65122652D01*
X112393693Y-65099401D01*
X112390176Y-65075691D01*
X112389000Y-65051750D01*
X112389000Y-64488250D01*
X112390176Y-64464309D01*
X112393693Y-64440599D01*
X112399517Y-64417348D01*
X112407592Y-64394780D01*
X112417841Y-64373111D01*
X112430164Y-64352552D01*
X112444442Y-64333299D01*
X112460539Y-64315539D01*
X112478299Y-64299442D01*
X112497552Y-64285164D01*
X112518111Y-64272841D01*
X112539780Y-64262592D01*
X112562348Y-64254517D01*
X112585599Y-64248693D01*
X112609309Y-64245176D01*
X112633250Y-64244000D01*
X113121750Y-64244000D01*
X113145691Y-64245176D01*
X113145691Y-64245176D01*
G37*
D25*
X112877500Y-64770000D03*
D24*
G36*
X114720691Y-64245176D02*
G01*
X114744401Y-64248693D01*
X114767652Y-64254517D01*
X114790220Y-64262592D01*
X114811889Y-64272841D01*
X114832448Y-64285164D01*
X114851701Y-64299442D01*
X114869461Y-64315539D01*
X114885558Y-64333299D01*
X114899836Y-64352552D01*
X114912159Y-64373111D01*
X114922408Y-64394780D01*
X114930483Y-64417348D01*
X114936307Y-64440599D01*
X114939824Y-64464309D01*
X114941000Y-64488250D01*
X114941000Y-65051750D01*
X114939824Y-65075691D01*
X114936307Y-65099401D01*
X114930483Y-65122652D01*
X114922408Y-65145220D01*
X114912159Y-65166889D01*
X114899836Y-65187448D01*
X114885558Y-65206701D01*
X114869461Y-65224461D01*
X114851701Y-65240558D01*
X114832448Y-65254836D01*
X114811889Y-65267159D01*
X114790220Y-65277408D01*
X114767652Y-65285483D01*
X114744401Y-65291307D01*
X114720691Y-65294824D01*
X114696750Y-65296000D01*
X114208250Y-65296000D01*
X114184309Y-65294824D01*
X114160599Y-65291307D01*
X114137348Y-65285483D01*
X114114780Y-65277408D01*
X114093111Y-65267159D01*
X114072552Y-65254836D01*
X114053299Y-65240558D01*
X114035539Y-65224461D01*
X114019442Y-65206701D01*
X114005164Y-65187448D01*
X113992841Y-65166889D01*
X113982592Y-65145220D01*
X113974517Y-65122652D01*
X113968693Y-65099401D01*
X113965176Y-65075691D01*
X113964000Y-65051750D01*
X113964000Y-64488250D01*
X113965176Y-64464309D01*
X113968693Y-64440599D01*
X113974517Y-64417348D01*
X113982592Y-64394780D01*
X113992841Y-64373111D01*
X114005164Y-64352552D01*
X114019442Y-64333299D01*
X114035539Y-64315539D01*
X114053299Y-64299442D01*
X114072552Y-64285164D01*
X114093111Y-64272841D01*
X114114780Y-64262592D01*
X114137348Y-64254517D01*
X114160599Y-64248693D01*
X114184309Y-64245176D01*
X114208250Y-64244000D01*
X114696750Y-64244000D01*
X114720691Y-64245176D01*
X114720691Y-64245176D01*
G37*
D25*
X114452500Y-64770000D03*
D24*
G36*
X114743691Y-59292176D02*
G01*
X114767401Y-59295693D01*
X114790652Y-59301517D01*
X114813220Y-59309592D01*
X114834889Y-59319841D01*
X114855448Y-59332164D01*
X114874701Y-59346442D01*
X114892461Y-59362539D01*
X114908558Y-59380299D01*
X114922836Y-59399552D01*
X114935159Y-59420111D01*
X114945408Y-59441780D01*
X114953483Y-59464348D01*
X114959307Y-59487599D01*
X114962824Y-59511309D01*
X114964000Y-59535250D01*
X114964000Y-60098750D01*
X114962824Y-60122691D01*
X114959307Y-60146401D01*
X114953483Y-60169652D01*
X114945408Y-60192220D01*
X114935159Y-60213889D01*
X114922836Y-60234448D01*
X114908558Y-60253701D01*
X114892461Y-60271461D01*
X114874701Y-60287558D01*
X114855448Y-60301836D01*
X114834889Y-60314159D01*
X114813220Y-60324408D01*
X114790652Y-60332483D01*
X114767401Y-60338307D01*
X114743691Y-60341824D01*
X114719750Y-60343000D01*
X114231250Y-60343000D01*
X114207309Y-60341824D01*
X114183599Y-60338307D01*
X114160348Y-60332483D01*
X114137780Y-60324408D01*
X114116111Y-60314159D01*
X114095552Y-60301836D01*
X114076299Y-60287558D01*
X114058539Y-60271461D01*
X114042442Y-60253701D01*
X114028164Y-60234448D01*
X114015841Y-60213889D01*
X114005592Y-60192220D01*
X113997517Y-60169652D01*
X113991693Y-60146401D01*
X113988176Y-60122691D01*
X113987000Y-60098750D01*
X113987000Y-59535250D01*
X113988176Y-59511309D01*
X113991693Y-59487599D01*
X113997517Y-59464348D01*
X114005592Y-59441780D01*
X114015841Y-59420111D01*
X114028164Y-59399552D01*
X114042442Y-59380299D01*
X114058539Y-59362539D01*
X114076299Y-59346442D01*
X114095552Y-59332164D01*
X114116111Y-59319841D01*
X114137780Y-59309592D01*
X114160348Y-59301517D01*
X114183599Y-59295693D01*
X114207309Y-59292176D01*
X114231250Y-59291000D01*
X114719750Y-59291000D01*
X114743691Y-59292176D01*
X114743691Y-59292176D01*
G37*
D25*
X114475500Y-59817000D03*
D24*
G36*
X113168691Y-59292176D02*
G01*
X113192401Y-59295693D01*
X113215652Y-59301517D01*
X113238220Y-59309592D01*
X113259889Y-59319841D01*
X113280448Y-59332164D01*
X113299701Y-59346442D01*
X113317461Y-59362539D01*
X113333558Y-59380299D01*
X113347836Y-59399552D01*
X113360159Y-59420111D01*
X113370408Y-59441780D01*
X113378483Y-59464348D01*
X113384307Y-59487599D01*
X113387824Y-59511309D01*
X113389000Y-59535250D01*
X113389000Y-60098750D01*
X113387824Y-60122691D01*
X113384307Y-60146401D01*
X113378483Y-60169652D01*
X113370408Y-60192220D01*
X113360159Y-60213889D01*
X113347836Y-60234448D01*
X113333558Y-60253701D01*
X113317461Y-60271461D01*
X113299701Y-60287558D01*
X113280448Y-60301836D01*
X113259889Y-60314159D01*
X113238220Y-60324408D01*
X113215652Y-60332483D01*
X113192401Y-60338307D01*
X113168691Y-60341824D01*
X113144750Y-60343000D01*
X112656250Y-60343000D01*
X112632309Y-60341824D01*
X112608599Y-60338307D01*
X112585348Y-60332483D01*
X112562780Y-60324408D01*
X112541111Y-60314159D01*
X112520552Y-60301836D01*
X112501299Y-60287558D01*
X112483539Y-60271461D01*
X112467442Y-60253701D01*
X112453164Y-60234448D01*
X112440841Y-60213889D01*
X112430592Y-60192220D01*
X112422517Y-60169652D01*
X112416693Y-60146401D01*
X112413176Y-60122691D01*
X112412000Y-60098750D01*
X112412000Y-59535250D01*
X112413176Y-59511309D01*
X112416693Y-59487599D01*
X112422517Y-59464348D01*
X112430592Y-59441780D01*
X112440841Y-59420111D01*
X112453164Y-59399552D01*
X112467442Y-59380299D01*
X112483539Y-59362539D01*
X112501299Y-59346442D01*
X112520552Y-59332164D01*
X112541111Y-59319841D01*
X112562780Y-59309592D01*
X112585348Y-59301517D01*
X112608599Y-59295693D01*
X112632309Y-59292176D01*
X112656250Y-59291000D01*
X113144750Y-59291000D01*
X113168691Y-59292176D01*
X113168691Y-59292176D01*
G37*
D25*
X112900500Y-59817000D03*
D24*
G36*
X107876691Y-56879176D02*
G01*
X107900401Y-56882693D01*
X107923652Y-56888517D01*
X107946220Y-56896592D01*
X107967889Y-56906841D01*
X107988448Y-56919164D01*
X108007701Y-56933442D01*
X108025461Y-56949539D01*
X108041558Y-56967299D01*
X108055836Y-56986552D01*
X108068159Y-57007111D01*
X108078408Y-57028780D01*
X108086483Y-57051348D01*
X108092307Y-57074599D01*
X108095824Y-57098309D01*
X108097000Y-57122250D01*
X108097000Y-57685750D01*
X108095824Y-57709691D01*
X108092307Y-57733401D01*
X108086483Y-57756652D01*
X108078408Y-57779220D01*
X108068159Y-57800889D01*
X108055836Y-57821448D01*
X108041558Y-57840701D01*
X108025461Y-57858461D01*
X108007701Y-57874558D01*
X107988448Y-57888836D01*
X107967889Y-57901159D01*
X107946220Y-57911408D01*
X107923652Y-57919483D01*
X107900401Y-57925307D01*
X107876691Y-57928824D01*
X107852750Y-57930000D01*
X107364250Y-57930000D01*
X107340309Y-57928824D01*
X107316599Y-57925307D01*
X107293348Y-57919483D01*
X107270780Y-57911408D01*
X107249111Y-57901159D01*
X107228552Y-57888836D01*
X107209299Y-57874558D01*
X107191539Y-57858461D01*
X107175442Y-57840701D01*
X107161164Y-57821448D01*
X107148841Y-57800889D01*
X107138592Y-57779220D01*
X107130517Y-57756652D01*
X107124693Y-57733401D01*
X107121176Y-57709691D01*
X107120000Y-57685750D01*
X107120000Y-57122250D01*
X107121176Y-57098309D01*
X107124693Y-57074599D01*
X107130517Y-57051348D01*
X107138592Y-57028780D01*
X107148841Y-57007111D01*
X107161164Y-56986552D01*
X107175442Y-56967299D01*
X107191539Y-56949539D01*
X107209299Y-56933442D01*
X107228552Y-56919164D01*
X107249111Y-56906841D01*
X107270780Y-56896592D01*
X107293348Y-56888517D01*
X107316599Y-56882693D01*
X107340309Y-56879176D01*
X107364250Y-56878000D01*
X107852750Y-56878000D01*
X107876691Y-56879176D01*
X107876691Y-56879176D01*
G37*
D25*
X107608500Y-57404000D03*
D24*
G36*
X106301691Y-56879176D02*
G01*
X106325401Y-56882693D01*
X106348652Y-56888517D01*
X106371220Y-56896592D01*
X106392889Y-56906841D01*
X106413448Y-56919164D01*
X106432701Y-56933442D01*
X106450461Y-56949539D01*
X106466558Y-56967299D01*
X106480836Y-56986552D01*
X106493159Y-57007111D01*
X106503408Y-57028780D01*
X106511483Y-57051348D01*
X106517307Y-57074599D01*
X106520824Y-57098309D01*
X106522000Y-57122250D01*
X106522000Y-57685750D01*
X106520824Y-57709691D01*
X106517307Y-57733401D01*
X106511483Y-57756652D01*
X106503408Y-57779220D01*
X106493159Y-57800889D01*
X106480836Y-57821448D01*
X106466558Y-57840701D01*
X106450461Y-57858461D01*
X106432701Y-57874558D01*
X106413448Y-57888836D01*
X106392889Y-57901159D01*
X106371220Y-57911408D01*
X106348652Y-57919483D01*
X106325401Y-57925307D01*
X106301691Y-57928824D01*
X106277750Y-57930000D01*
X105789250Y-57930000D01*
X105765309Y-57928824D01*
X105741599Y-57925307D01*
X105718348Y-57919483D01*
X105695780Y-57911408D01*
X105674111Y-57901159D01*
X105653552Y-57888836D01*
X105634299Y-57874558D01*
X105616539Y-57858461D01*
X105600442Y-57840701D01*
X105586164Y-57821448D01*
X105573841Y-57800889D01*
X105563592Y-57779220D01*
X105555517Y-57756652D01*
X105549693Y-57733401D01*
X105546176Y-57709691D01*
X105545000Y-57685750D01*
X105545000Y-57122250D01*
X105546176Y-57098309D01*
X105549693Y-57074599D01*
X105555517Y-57051348D01*
X105563592Y-57028780D01*
X105573841Y-57007111D01*
X105586164Y-56986552D01*
X105600442Y-56967299D01*
X105616539Y-56949539D01*
X105634299Y-56933442D01*
X105653552Y-56919164D01*
X105674111Y-56906841D01*
X105695780Y-56896592D01*
X105718348Y-56888517D01*
X105741599Y-56882693D01*
X105765309Y-56879176D01*
X105789250Y-56878000D01*
X106277750Y-56878000D01*
X106301691Y-56879176D01*
X106301691Y-56879176D01*
G37*
D25*
X106033500Y-57404000D03*
D24*
G36*
X109767691Y-64245176D02*
G01*
X109791401Y-64248693D01*
X109814652Y-64254517D01*
X109837220Y-64262592D01*
X109858889Y-64272841D01*
X109879448Y-64285164D01*
X109898701Y-64299442D01*
X109916461Y-64315539D01*
X109932558Y-64333299D01*
X109946836Y-64352552D01*
X109959159Y-64373111D01*
X109969408Y-64394780D01*
X109977483Y-64417348D01*
X109983307Y-64440599D01*
X109986824Y-64464309D01*
X109988000Y-64488250D01*
X109988000Y-65051750D01*
X109986824Y-65075691D01*
X109983307Y-65099401D01*
X109977483Y-65122652D01*
X109969408Y-65145220D01*
X109959159Y-65166889D01*
X109946836Y-65187448D01*
X109932558Y-65206701D01*
X109916461Y-65224461D01*
X109898701Y-65240558D01*
X109879448Y-65254836D01*
X109858889Y-65267159D01*
X109837220Y-65277408D01*
X109814652Y-65285483D01*
X109791401Y-65291307D01*
X109767691Y-65294824D01*
X109743750Y-65296000D01*
X109255250Y-65296000D01*
X109231309Y-65294824D01*
X109207599Y-65291307D01*
X109184348Y-65285483D01*
X109161780Y-65277408D01*
X109140111Y-65267159D01*
X109119552Y-65254836D01*
X109100299Y-65240558D01*
X109082539Y-65224461D01*
X109066442Y-65206701D01*
X109052164Y-65187448D01*
X109039841Y-65166889D01*
X109029592Y-65145220D01*
X109021517Y-65122652D01*
X109015693Y-65099401D01*
X109012176Y-65075691D01*
X109011000Y-65051750D01*
X109011000Y-64488250D01*
X109012176Y-64464309D01*
X109015693Y-64440599D01*
X109021517Y-64417348D01*
X109029592Y-64394780D01*
X109039841Y-64373111D01*
X109052164Y-64352552D01*
X109066442Y-64333299D01*
X109082539Y-64315539D01*
X109100299Y-64299442D01*
X109119552Y-64285164D01*
X109140111Y-64272841D01*
X109161780Y-64262592D01*
X109184348Y-64254517D01*
X109207599Y-64248693D01*
X109231309Y-64245176D01*
X109255250Y-64244000D01*
X109743750Y-64244000D01*
X109767691Y-64245176D01*
X109767691Y-64245176D01*
G37*
D25*
X109499500Y-64770000D03*
D24*
G36*
X108192691Y-64245176D02*
G01*
X108216401Y-64248693D01*
X108239652Y-64254517D01*
X108262220Y-64262592D01*
X108283889Y-64272841D01*
X108304448Y-64285164D01*
X108323701Y-64299442D01*
X108341461Y-64315539D01*
X108357558Y-64333299D01*
X108371836Y-64352552D01*
X108384159Y-64373111D01*
X108394408Y-64394780D01*
X108402483Y-64417348D01*
X108408307Y-64440599D01*
X108411824Y-64464309D01*
X108413000Y-64488250D01*
X108413000Y-65051750D01*
X108411824Y-65075691D01*
X108408307Y-65099401D01*
X108402483Y-65122652D01*
X108394408Y-65145220D01*
X108384159Y-65166889D01*
X108371836Y-65187448D01*
X108357558Y-65206701D01*
X108341461Y-65224461D01*
X108323701Y-65240558D01*
X108304448Y-65254836D01*
X108283889Y-65267159D01*
X108262220Y-65277408D01*
X108239652Y-65285483D01*
X108216401Y-65291307D01*
X108192691Y-65294824D01*
X108168750Y-65296000D01*
X107680250Y-65296000D01*
X107656309Y-65294824D01*
X107632599Y-65291307D01*
X107609348Y-65285483D01*
X107586780Y-65277408D01*
X107565111Y-65267159D01*
X107544552Y-65254836D01*
X107525299Y-65240558D01*
X107507539Y-65224461D01*
X107491442Y-65206701D01*
X107477164Y-65187448D01*
X107464841Y-65166889D01*
X107454592Y-65145220D01*
X107446517Y-65122652D01*
X107440693Y-65099401D01*
X107437176Y-65075691D01*
X107436000Y-65051750D01*
X107436000Y-64488250D01*
X107437176Y-64464309D01*
X107440693Y-64440599D01*
X107446517Y-64417348D01*
X107454592Y-64394780D01*
X107464841Y-64373111D01*
X107477164Y-64352552D01*
X107491442Y-64333299D01*
X107507539Y-64315539D01*
X107525299Y-64299442D01*
X107544552Y-64285164D01*
X107565111Y-64272841D01*
X107586780Y-64262592D01*
X107609348Y-64254517D01*
X107632599Y-64248693D01*
X107656309Y-64245176D01*
X107680250Y-64244000D01*
X108168750Y-64244000D01*
X108192691Y-64245176D01*
X108192691Y-64245176D01*
G37*
D25*
X107924500Y-64770000D03*
D24*
G36*
X107876691Y-58403176D02*
G01*
X107900401Y-58406693D01*
X107923652Y-58412517D01*
X107946220Y-58420592D01*
X107967889Y-58430841D01*
X107988448Y-58443164D01*
X108007701Y-58457442D01*
X108025461Y-58473539D01*
X108041558Y-58491299D01*
X108055836Y-58510552D01*
X108068159Y-58531111D01*
X108078408Y-58552780D01*
X108086483Y-58575348D01*
X108092307Y-58598599D01*
X108095824Y-58622309D01*
X108097000Y-58646250D01*
X108097000Y-59209750D01*
X108095824Y-59233691D01*
X108092307Y-59257401D01*
X108086483Y-59280652D01*
X108078408Y-59303220D01*
X108068159Y-59324889D01*
X108055836Y-59345448D01*
X108041558Y-59364701D01*
X108025461Y-59382461D01*
X108007701Y-59398558D01*
X107988448Y-59412836D01*
X107967889Y-59425159D01*
X107946220Y-59435408D01*
X107923652Y-59443483D01*
X107900401Y-59449307D01*
X107876691Y-59452824D01*
X107852750Y-59454000D01*
X107364250Y-59454000D01*
X107340309Y-59452824D01*
X107316599Y-59449307D01*
X107293348Y-59443483D01*
X107270780Y-59435408D01*
X107249111Y-59425159D01*
X107228552Y-59412836D01*
X107209299Y-59398558D01*
X107191539Y-59382461D01*
X107175442Y-59364701D01*
X107161164Y-59345448D01*
X107148841Y-59324889D01*
X107138592Y-59303220D01*
X107130517Y-59280652D01*
X107124693Y-59257401D01*
X107121176Y-59233691D01*
X107120000Y-59209750D01*
X107120000Y-58646250D01*
X107121176Y-58622309D01*
X107124693Y-58598599D01*
X107130517Y-58575348D01*
X107138592Y-58552780D01*
X107148841Y-58531111D01*
X107161164Y-58510552D01*
X107175442Y-58491299D01*
X107191539Y-58473539D01*
X107209299Y-58457442D01*
X107228552Y-58443164D01*
X107249111Y-58430841D01*
X107270780Y-58420592D01*
X107293348Y-58412517D01*
X107316599Y-58406693D01*
X107340309Y-58403176D01*
X107364250Y-58402000D01*
X107852750Y-58402000D01*
X107876691Y-58403176D01*
X107876691Y-58403176D01*
G37*
D25*
X107608500Y-58928000D03*
D24*
G36*
X106301691Y-58403176D02*
G01*
X106325401Y-58406693D01*
X106348652Y-58412517D01*
X106371220Y-58420592D01*
X106392889Y-58430841D01*
X106413448Y-58443164D01*
X106432701Y-58457442D01*
X106450461Y-58473539D01*
X106466558Y-58491299D01*
X106480836Y-58510552D01*
X106493159Y-58531111D01*
X106503408Y-58552780D01*
X106511483Y-58575348D01*
X106517307Y-58598599D01*
X106520824Y-58622309D01*
X106522000Y-58646250D01*
X106522000Y-59209750D01*
X106520824Y-59233691D01*
X106517307Y-59257401D01*
X106511483Y-59280652D01*
X106503408Y-59303220D01*
X106493159Y-59324889D01*
X106480836Y-59345448D01*
X106466558Y-59364701D01*
X106450461Y-59382461D01*
X106432701Y-59398558D01*
X106413448Y-59412836D01*
X106392889Y-59425159D01*
X106371220Y-59435408D01*
X106348652Y-59443483D01*
X106325401Y-59449307D01*
X106301691Y-59452824D01*
X106277750Y-59454000D01*
X105789250Y-59454000D01*
X105765309Y-59452824D01*
X105741599Y-59449307D01*
X105718348Y-59443483D01*
X105695780Y-59435408D01*
X105674111Y-59425159D01*
X105653552Y-59412836D01*
X105634299Y-59398558D01*
X105616539Y-59382461D01*
X105600442Y-59364701D01*
X105586164Y-59345448D01*
X105573841Y-59324889D01*
X105563592Y-59303220D01*
X105555517Y-59280652D01*
X105549693Y-59257401D01*
X105546176Y-59233691D01*
X105545000Y-59209750D01*
X105545000Y-58646250D01*
X105546176Y-58622309D01*
X105549693Y-58598599D01*
X105555517Y-58575348D01*
X105563592Y-58552780D01*
X105573841Y-58531111D01*
X105586164Y-58510552D01*
X105600442Y-58491299D01*
X105616539Y-58473539D01*
X105634299Y-58457442D01*
X105653552Y-58443164D01*
X105674111Y-58430841D01*
X105695780Y-58420592D01*
X105718348Y-58412517D01*
X105741599Y-58406693D01*
X105765309Y-58403176D01*
X105789250Y-58402000D01*
X106277750Y-58402000D01*
X106301691Y-58403176D01*
X106301691Y-58403176D01*
G37*
D25*
X106033500Y-58928000D03*
D26*
X103124000Y-53213000D03*
X104074000Y-53213000D03*
X102174000Y-53213000D03*
X102174000Y-55413000D03*
X103124000Y-55413000D03*
X104074000Y-55413000D03*
D27*
X112481000Y-63168000D03*
X114681000Y-63168000D03*
X114681000Y-61468000D03*
X112481000Y-61468000D03*
D28*
X88900000Y-55755000D03*
X88900000Y-59055000D03*
D29*
X85979000Y-62230000D03*
X85979000Y-67818000D03*
X89789000Y-62230000D03*
X89789000Y-67818000D03*
D30*
X89408000Y-80772000D03*
X89408000Y-78232000D03*
X86868000Y-80772000D03*
X86868000Y-78232000D03*
X84328000Y-80772000D03*
D31*
X84328000Y-78232000D03*
D32*
X92329000Y-57785000D03*
X95629000Y-57785000D03*
D33*
X113665000Y-67945000D03*
D34*
X111125000Y-73025000D03*
D33*
X107315000Y-70485000D03*
D35*
X106045000Y-73025000D03*
X116205000Y-73025000D03*
D36*
X104533500Y-60769500D03*
X103733500Y-60769500D03*
X102933500Y-60769500D03*
X102133500Y-60769500D03*
X101333500Y-60769500D03*
X100533500Y-60769500D03*
X99733500Y-60769500D03*
X98933500Y-60769500D03*
D37*
X97483500Y-62219500D03*
X97483500Y-63019500D03*
X97483500Y-63819500D03*
X97483500Y-64619500D03*
X97483500Y-65419500D03*
X97483500Y-66219500D03*
X97483500Y-67019500D03*
X97483500Y-67819500D03*
D36*
X98933500Y-69269500D03*
X99733500Y-69269500D03*
X100533500Y-69269500D03*
X101333500Y-69269500D03*
X102133500Y-69269500D03*
X102933500Y-69269500D03*
X103733500Y-69269500D03*
X104533500Y-69269500D03*
D37*
X105983500Y-67819500D03*
X105983500Y-67019500D03*
X105983500Y-66219500D03*
X105983500Y-65419500D03*
X105983500Y-64619500D03*
X105983500Y-63819500D03*
X105983500Y-63019500D03*
X105983500Y-62219500D03*
D32*
X113666000Y-56896000D03*
X116966000Y-56896000D03*
D33*
X94615000Y-48895000D03*
D34*
X92075000Y-53975000D03*
D33*
X88265000Y-51435000D03*
D35*
X86995000Y-53975000D03*
X97155000Y-53975000D03*
D33*
X113665000Y-48895000D03*
D34*
X111125000Y-53975000D03*
D33*
X107315000Y-51435000D03*
D35*
X106045000Y-53975000D03*
X116205000Y-53975000D03*
D28*
X94615000Y-75692000D03*
X94615000Y-78992000D03*
X151765000Y-56642000D03*
X151765000Y-59942000D03*
D33*
X132715000Y-125095000D03*
D34*
X130175000Y-130175000D03*
D33*
X126365000Y-127635000D03*
D35*
X125095000Y-130175000D03*
X135255000Y-130175000D03*
D33*
X104140000Y-125095000D03*
D34*
X101600000Y-130175000D03*
D33*
X97790000Y-127635000D03*
D35*
X96520000Y-130175000D03*
X106680000Y-130175000D03*
D38*
X89693750Y-137160000D03*
X113506250Y-137160000D03*
D34*
X89693750Y-121920000D03*
X113506250Y-121920000D03*
D33*
X144145000Y-118110000D03*
D34*
X149225000Y-120650000D03*
D33*
X146685000Y-124460000D03*
D35*
X149225000Y-125730000D03*
X149225000Y-115570000D03*
D38*
X156210000Y-132556250D03*
X156210000Y-108743750D03*
D34*
X140970000Y-132556250D03*
X140970000Y-108743750D03*
D33*
X132715000Y-106045000D03*
D34*
X130175000Y-111125000D03*
D33*
X126365000Y-108585000D03*
D35*
X125095000Y-111125000D03*
X135255000Y-111125000D03*
D33*
X113665000Y-106045000D03*
D34*
X111125000Y-111125000D03*
D33*
X107315000Y-108585000D03*
D35*
X106045000Y-111125000D03*
X116205000Y-111125000D03*
D33*
X94615000Y-106045000D03*
D34*
X92075000Y-111125000D03*
D33*
X88265000Y-108585000D03*
D35*
X86995000Y-111125000D03*
X97155000Y-111125000D03*
D33*
X132715000Y-86995000D03*
D34*
X130175000Y-92075000D03*
D33*
X126365000Y-89535000D03*
D35*
X125095000Y-92075000D03*
X135255000Y-92075000D03*
D33*
X113665000Y-86995000D03*
D34*
X111125000Y-92075000D03*
D33*
X107315000Y-89535000D03*
D35*
X106045000Y-92075000D03*
X116205000Y-92075000D03*
D33*
X94615000Y-86995000D03*
D34*
X92075000Y-92075000D03*
D33*
X88265000Y-89535000D03*
D35*
X86995000Y-92075000D03*
X97155000Y-92075000D03*
D33*
X144145000Y-80010000D03*
D34*
X149225000Y-82550000D03*
D33*
X146685000Y-86360000D03*
D35*
X149225000Y-87630000D03*
X149225000Y-77470000D03*
D38*
X156210000Y-94456250D03*
X156210000Y-70643750D03*
D34*
X140970000Y-94456250D03*
X140970000Y-70643750D03*
D33*
X132715000Y-67945000D03*
D34*
X130175000Y-73025000D03*
D33*
X126365000Y-70485000D03*
D35*
X125095000Y-73025000D03*
X135255000Y-73025000D03*
D33*
X94615000Y-67945000D03*
D34*
X92075000Y-73025000D03*
D33*
X88265000Y-70485000D03*
D35*
X86995000Y-73025000D03*
X97155000Y-73025000D03*
D33*
X151765000Y-48895000D03*
D34*
X149225000Y-53975000D03*
D33*
X145415000Y-51435000D03*
D35*
X144145000Y-53975000D03*
X154305000Y-53975000D03*
D33*
X132715000Y-48895000D03*
D34*
X130175000Y-53975000D03*
D33*
X126365000Y-51435000D03*
D35*
X125095000Y-53975000D03*
X135255000Y-53975000D03*
D28*
X132715000Y-122680000D03*
X132715000Y-119380000D03*
X104140000Y-122680000D03*
X104140000Y-119380000D03*
D32*
X140079000Y-117094000D03*
X136779000Y-117094000D03*
D28*
X132715000Y-113794000D03*
X132715000Y-117094000D03*
X113665000Y-113793000D03*
X113665000Y-117093000D03*
X94615000Y-113792000D03*
X94615000Y-117092000D03*
X132715000Y-94743000D03*
X132715000Y-98043000D03*
X113665000Y-94744000D03*
X113665000Y-98044000D03*
X94616000Y-94743000D03*
X94616000Y-98043000D03*
D32*
X140080000Y-78994000D03*
X136780000Y-78994000D03*
D28*
X132715000Y-75692000D03*
X132715000Y-78992000D03*
X113665000Y-75692000D03*
X113665000Y-78992000D03*
X132715000Y-56642000D03*
X132715000Y-59942000D03*
M02*
